<svg xmlns="http://www.w3.org/2000/svg" viewBox="0 0 112.55 100"><defs><style>.cls-1{isolation:isolate;}.cls-2,.cls-3,.cls-4{fill:#5b4e3e;}.cls-3,.cls-9{opacity:0.4;}.cls-10,.cls-12,.cls-13,.cls-15,.cls-3,.cls-4,.cls-5,.cls-7,.cls-9{mix-blend-mode:multiply;}.cls-13,.cls-15,.cls-4{opacity:0.6;}.cls-5{fill:#33291d;}.cls-12,.cls-5{opacity:0.5;}.cls-6{fill:#9f4e16;}.cls-7{fill:#dbbb79;opacity:0.8;}.cls-8{fill:#f2bb79;}.cls-10,.cls-9{fill:#a64d25;}.cls-10{opacity:0.2;}.cls-11{fill:#fff;}.cls-12{fill:#91410f;}.cls-13{fill:#44290a;}.cls-14,.cls-15{fill:#7c000d;}.cls-16{fill:#ffe9d2;}</style></defs><title>kard_1</title><g class="cls-1"><g id="Слой_2" data-name="Слой 2"><g id="Layer_1" data-name="Layer 1"><path class="cls-2" d="M91.74,93.79a2,2,0,0,0-.62-1.17.12.12,0,0,0,0-.14c-.37-.78-.59-1.94-1.56-2.19s-1.76,1-2.34,1.68a2.69,2.69,0,0,1-.54.26,6.1,6.1,0,0,1-1.47.18,6.37,6.37,0,0,0-2.52.5c-1.69.9-2,3-2.42,4.71a.14.14,0,0,0,.07.16h0a2.87,2.87,0,0,0,2,.34,1.79,1.79,0,0,1,0,.23.14.14,0,0,0,.16.14,4.5,4.5,0,0,0,2,.38,14,14,0,0,0,2.67,0,11.8,11.8,0,0,0,4.68-1.92l0-.06a.12.12,0,0,0,.06-.08A10.33,10.33,0,0,0,91.74,93.79Z"/><path class="cls-3" d="M91.74,93.79a2,2,0,0,0-.62-1.17.12.12,0,0,0,0-.14c-.37-.78-.59-1.94-1.56-2.19s-1.76,1-2.34,1.68a2.69,2.69,0,0,1-.54.26,6.1,6.1,0,0,1-1.47.18H85c.58,0,2.57,0,1.76.19a11.27,11.27,0,0,0-3.22.83A5.5,5.5,0,0,0,81.63,96c-.15.32-.58,1.5-1.14,1.07a.23.23,0,0,1-.07-.07c0,.2-.09.4-.13.6a.14.14,0,0,0,.07.16h0a2.87,2.87,0,0,0,2,.34,1.79,1.79,0,0,1,0,.23.14.14,0,0,0,.16.14,4.5,4.5,0,0,0,2,.38,14,14,0,0,0,2.67,0,11.8,11.8,0,0,0,4.68-1.92l0-.06a.12.12,0,0,0,.06-.08A10.33,10.33,0,0,0,91.74,93.79Zm-2.4-1a2.09,2.09,0,0,1-.86.45,11.86,11.86,0,0,0-1.4.65A6.69,6.69,0,0,0,85,95.33a6.59,6.59,0,0,0-1.13,2c-.1.27-.31.86-.69.81s-.39-.75-.34-1.11a4.6,4.6,0,0,1,.7-2.17,5.7,5.7,0,0,1,3.8-1.9,3.56,3.56,0,0,1,2-.32A.09.09,0,0,1,89.34,92.79Z"/><path class="cls-3" d="M91.74,93.79a2,2,0,0,0-.62-1.17.12.12,0,0,0,0-.14c-.37-.78-.59-1.94-1.56-2.19s-1.76,1-2.34,1.68a2.69,2.69,0,0,1-.54.26,2,2,0,0,1-.35.09,2.21,2.21,0,0,0,1.06.14c.08,0,.11.1.06.15a1.51,1.51,0,0,1-.23.21l.94-.13a2.93,2.93,0,0,1,.66-.1A9.14,9.14,0,0,0,90,92.32s.09,0,.1,0a5.15,5.15,0,0,1,.49,3.22,1.26,1.26,0,0,1-1.07,1c-.4,0-.82,0-1.21.1a3.41,3.41,0,0,0-1.25.62,5.18,5.18,0,0,1-2.17,1.15A2.87,2.87,0,0,1,83,98.2a.89.89,0,0,1-.29-1,6.9,6.9,0,0,1,.36-1.44,3,3,0,0,1,.44-.89,4.77,4.77,0,0,1,2.76-1.67,7.49,7.49,0,0,0-1.49.18,3.35,3.35,0,0,0-2.25,1.9c-.31.6-.38,1.49-.88,2a1,1,0,0,1-1.31,0c0,.13-.06.25-.08.37a.14.14,0,0,0,.07.16h0a2.87,2.87,0,0,0,2,.34,1.79,1.79,0,0,1,0,.23.14.14,0,0,0,.16.14,4.5,4.5,0,0,0,2,.38,14,14,0,0,0,2.67,0,11.8,11.8,0,0,0,4.68-1.92l0-.06a.12.12,0,0,0,.06-.08A10.33,10.33,0,0,0,91.74,93.79Z"/><path class="cls-2" d="M47.7,94.06a6.53,6.53,0,0,0-.2-.76,3,3,0,0,0-1.19-1.53c-.47-.79-2.21-.77-2.86-.13a15.19,15.19,0,0,1-2.61,1,7.51,7.51,0,0,0-2.2.93,4.74,4.74,0,0,0-2.34,3.66.06.06,0,0,0,.06.06,1.28,1.28,0,0,0,.8.61,1.76,1.76,0,0,0,1,.1,2.17,2.17,0,0,0,1,.37,10.39,10.39,0,0,0,1.57.21,4.43,4.43,0,0,0,2.65-.32c.39-.23.71-.59,1.07-.85a3.14,3.14,0,0,1,1.5-.55,3,3,0,0,0,1.88-.69C47.85,95.45,47.74,94.75,47.7,94.06Z"/><path class="cls-4" d="M47.7,94.06a6.53,6.53,0,0,0-.2-.76,3,3,0,0,0-1.19-1.53c-.47-.79-2.21-.77-2.86-.13a15.19,15.19,0,0,1-2.61,1,7.51,7.51,0,0,0-2.2.93,4.74,4.74,0,0,0-2.34,3.66.06.06,0,0,0,.06.06,1.28,1.28,0,0,0,.8.61,1.76,1.76,0,0,0,1,.1,2.17,2.17,0,0,0,1,.37,10.39,10.39,0,0,0,1.57.21,4.43,4.43,0,0,0,2.65-.32c.39-.23.71-.59,1.07-.85a3.14,3.14,0,0,1,1.5-.55,3,3,0,0,0,1.88-.69C47.85,95.45,47.74,94.75,47.7,94.06Z"/><path class="cls-4" d="M47.7,94.06a6.53,6.53,0,0,0-.2-.76,3,3,0,0,0-1.19-1.53c-.47-.79-2.21-.77-2.86-.13q-.45.21-.9.39a1.32,1.32,0,0,1-.38,1.16,7.11,7.11,0,0,0,1.62-.4.09.09,0,0,1,.09.15,2.11,2.11,0,0,1-.36.31,5.44,5.44,0,0,0,1.41-.42.09.09,0,0,1,.13.1c-.28,1.29-1.8,1.33-2.72,1.94a5.3,5.3,0,0,0-1.28,1.61,2.35,2.35,0,0,1-1.13,1c-1.11.3-1.38-.75-1.16-1.62a5,5,0,0,1,2-2.42,7.21,7.21,0,0,0-2.25,1.26,19,19,0,0,0-1.24,1.7c-.16.21-.58.6-.77.17a1.25,1.25,0,0,1-.09-.37,3.6,3.6,0,0,0-.17,1,.06.06,0,0,0,.06.06,1.28,1.28,0,0,0,.8.61,1.76,1.76,0,0,0,1,.1,2.17,2.17,0,0,0,1,.37,10.39,10.39,0,0,0,1.57.21,4.43,4.43,0,0,0,2.65-.32c.39-.23.71-.59,1.07-.85a3.14,3.14,0,0,1,1.5-.55,3,3,0,0,0,1.88-.69C47.85,95.45,47.74,94.75,47.7,94.06Z"/><path class="cls-5" d="M47.7,94.06a6.53,6.53,0,0,0-.2-.76,3,3,0,0,0-1.19-1.53c-.47-.79-2.21-.77-2.86-.13a15.19,15.19,0,0,1-2.61,1,7.51,7.51,0,0,0-2.2.93,4.74,4.74,0,0,0-2.34,3.66.06.06,0,0,0,.06.06,1.28,1.28,0,0,0,.8.61,1.76,1.76,0,0,0,1,.1,2.17,2.17,0,0,0,1,.37,10.39,10.39,0,0,0,1.57.21,4.43,4.43,0,0,0,2.65-.32c.39-.23.71-.59,1.07-.85a3.14,3.14,0,0,1,1.5-.55,3,3,0,0,0,1.88-.69C47.85,95.45,47.74,94.75,47.7,94.06Zm-2,2.53a5,5,0,0,0-2,1.11,3.5,3.5,0,0,1-2.62.58,8.57,8.57,0,0,1-2.7-.43h0c.12-.45,0-.92.15-1.38A4.34,4.34,0,0,1,39,95.34a5.77,5.77,0,0,1,1.79-1.79s0-.06,0,0a4.37,4.37,0,0,0-2.64,4.2c-.22,0-.47,0-.7,0a1.52,1.52,0,0,1-1-.43.05.05,0,0,0,0,0,6.69,6.69,0,0,1,.89-2.07A5.5,5.5,0,0,1,39,93.65c1.46-.88,3.34-.81,4.7-1.84a.11.11,0,0,0,.06-.1,2.71,2.71,0,0,1,2.31.13,3.45,3.45,0,0,1,1.19,1.67A8,8,0,0,1,47.5,96,3.63,3.63,0,0,1,45.71,96.59Z"/><path class="cls-2" d="M77.89,91.68a5.44,5.44,0,0,0-1-2.05,2.23,2.23,0,0,0-1.5-1.33,3,3,0,0,0-2.28.61c-.91.23-1.82.51-2.73.74a12.87,12.87,0,0,0-2.6.81,3.72,3.72,0,0,0-1.53,1.33,6.32,6.32,0,0,0-.71,2.8s0,0,0,0a.13.13,0,0,0,0,.19,2.77,2.77,0,0,0,2.15.58.28.28,0,0,1,0,.09.09.09,0,0,0,0,0,.11.11,0,0,0,0,.08c.16.41.9.46,1.26.55a7.27,7.27,0,0,0,3.08,0,16.09,16.09,0,0,0,5.89-1.72h0a.15.15,0,0,0,.1-.14A14.52,14.52,0,0,0,77.89,91.68Z"/><path class="cls-4" d="M77.89,91.68a5.44,5.44,0,0,0-1-2.05,2.23,2.23,0,0,0-1.5-1.33,3,3,0,0,0-2.28.61c-.91.23-1.82.51-2.73.74a12.87,12.87,0,0,0-2.6.81,3.72,3.72,0,0,0-1.53,1.33,6.32,6.32,0,0,0-.71,2.8s0,0,0,0a.13.13,0,0,0,0,.19,2.77,2.77,0,0,0,2.15.58.28.28,0,0,1,0,.09.09.09,0,0,0,0,0,.11.11,0,0,0,0,.08c.16.41.9.46,1.26.55a7.27,7.27,0,0,0,3.08,0,16.09,16.09,0,0,0,5.89-1.72h0a.15.15,0,0,0,.1-.14A14.52,14.52,0,0,0,77.89,91.68Z"/><path class="cls-4" d="M77.89,91.68a5.44,5.44,0,0,0-1-2.05,2.23,2.23,0,0,0-1.5-1.33,3,3,0,0,0-2.28.61l-1.61.44a3.72,3.72,0,0,0,2.33,0,.09.09,0,0,1,.09.15q-.33.28-.63.6a6.67,6.67,0,0,0,1.94-.19s.1,0,.11.09a5.63,5.63,0,0,0,.14.59c.17.45.23,1-.23,1.24a6.51,6.51,0,0,1-1.31.44,6,6,0,0,0-1.43.77c-.75.54-2.12,2-3.23,2a.83.83,0,0,1-.81-.34A1.78,1.78,0,0,1,68.53,93a3,3,0,0,1,1.66-1.4c.86-.34,1.75-.61,2.62-.93a14,14,0,0,0-2.57.37,4.84,4.84,0,0,0-3,1.87c-.2.34-.65,1.52-1.2,1.33-.22-.07-.31-.38-.35-.67-.05.33-.08.66-.11,1,0,0,0,0,0,0a.13.13,0,0,0,0,.19,2.77,2.77,0,0,0,2.15.58.28.28,0,0,1,0,.09.09.09,0,0,0,0,0,.11.11,0,0,0,0,.08c.16.41.9.46,1.26.55a7.27,7.27,0,0,0,3.08,0,16.09,16.09,0,0,0,5.89-1.72h0a.15.15,0,0,0,.1-.14A14.52,14.52,0,0,0,77.89,91.68Z"/><path class="cls-5" d="M77.89,91.68a5.44,5.44,0,0,0-1-2.05,2.23,2.23,0,0,0-1.5-1.33,3,3,0,0,0-2.28.61c-.91.23-1.82.51-2.73.74a12.87,12.87,0,0,0-2.6.81,3.72,3.72,0,0,0-1.53,1.33,6.32,6.32,0,0,0-.71,2.8s0,0,0,0a.13.13,0,0,0,0,.19,2.77,2.77,0,0,0,2.15.58.28.28,0,0,1,0,.09.09.09,0,0,0,0,0,.11.11,0,0,0,0,.08c.16.41.9.46,1.26.55a7.27,7.27,0,0,0,3.08,0,16.09,16.09,0,0,0,5.89-1.72h0a.15.15,0,0,0,.1-.14A14.52,14.52,0,0,0,77.89,91.68ZM75.41,95.2a28.77,28.77,0,0,1-2.9.62,9.32,9.32,0,0,1-2.83.22,5,5,0,0,1-1.74-.44.14.14,0,0,0,.06-.12,4.38,4.38,0,0,1,1.08-3.1,4.51,4.51,0,0,1,1.55-.85c.59-.24,1.19-.45,1.79-.68,0,0,0-.08,0-.07-1.22.32-2.72.56-3.64,1.5a4.41,4.41,0,0,0-1.07,2.88c-.3-.08-.62-.06-.93-.11a2.75,2.75,0,0,1-.93-.35.08.08,0,0,0,0,0A6.44,6.44,0,0,1,66.48,92a3.62,3.62,0,0,1,1.85-1.48,22.55,22.55,0,0,1,2.47-.7,14.91,14.91,0,0,0,2.33-.8,4.87,4.87,0,0,1,2.08-.48,1.9,1.9,0,0,1,1,.51c.26.23.4.53.64.76a7.31,7.31,0,0,1,.81,2,17.32,17.32,0,0,1,.13,2.49h0C77,94.61,76.22,95,75.41,95.2Z"/><path class="cls-2" d="M59.81,94.94a2.26,2.26,0,0,0-1-1.5,2.66,2.66,0,0,0-.71-.27,5.59,5.59,0,0,0-2-.61,2.94,2.94,0,0,0-2.09.53,19.56,19.56,0,0,0-3,.45,7.19,7.19,0,0,0-2.58,1,4.31,4.31,0,0,0-1.59,2.06,3.84,3.84,0,0,0,.25,2.5.05.05,0,0,0,0,0,1,1,0,0,0,.7.21,2.05,2.05,0,0,0,.81,0l0,0h0a0,0,0,0,0,0,0l.12.06a1.37,1.37,0,0,0,.61.25l.09,0a11.21,11.21,0,0,0,1.87.26,7.83,7.83,0,0,0,2.85-.28,6.79,6.79,0,0,0,2.32-1.49,3.15,3.15,0,0,1,1.56-.69c.42-.05.85,0,1.26-.07.34.08.53-.21.54-.53A7.63,7.63,0,0,0,59.81,94.94Z"/><path class="cls-3" d="M59.81,94.94a2.26,2.26,0,0,0-1-1.5,2.66,2.66,0,0,0-.71-.27,5.59,5.59,0,0,0-2-.61,2.94,2.94,0,0,0-2.09.53,21.18,21.18,0,0,0-2.36.31,1.79,1.79,0,0,1,.46.16.09.09,0,0,1,0,.16c-.51.25-1.07.38-1.58.63a8.49,8.49,0,0,0-1.58.9,3.6,3.6,0,0,0-1.31,1.63,4.47,4.47,0,0,1-.3,1c-.25.43-.57-.07-.65-.34a4.84,4.84,0,0,0,.36,1.58.05.05,0,0,0,0,0,1,1,0,0,0,.7.21,2.05,2.05,0,0,0,.81,0l0,0h0a0,0,0,0,0,0,0l.12.06a1.37,1.37,0,0,0,.61.25l.09,0a11.21,11.21,0,0,0,1.87.26,7.83,7.83,0,0,0,2.85-.28,6.79,6.79,0,0,0,2.32-1.49,3.15,3.15,0,0,1,1.56-.69c.42-.05.85,0,1.26-.07.34.08.53-.21.54-.53A7.63,7.63,0,0,0,59.81,94.94Zm-6.24,0c-.69.54-1.46,1-2.1,1.59a4.58,4.58,0,0,0-.82.94,6.76,6.76,0,0,1-.46.72c-.23.29-.69.55-.9.1a2.18,2.18,0,0,1,.31-1.72A4.11,4.11,0,0,1,51.27,95a7.74,7.74,0,0,1,1.88-.83c.31-.14.71-.29.92-.08S53.78,94.78,53.57,94.94Z"/><path class="cls-3" d="M59.81,94.94a2.26,2.26,0,0,0-1-1.5,2.66,2.66,0,0,0-.71-.27,5.59,5.59,0,0,0-2-.61,2.94,2.94,0,0,0-2.09.53c-.6,0-1.21.12-1.82.21a1.66,1.66,0,0,0,.31.23,2.4,2.4,0,0,0,1.9.25.09.09,0,0,1,.11.11c-.09.28-.12.58-.2.86a4.49,4.49,0,0,0,1.14-.5,2.18,2.18,0,0,1,.64-.41c.18,0,.5.19.66.26a5.84,5.84,0,0,0,1.28.37,1,1,0,0,1,0-.36.09.09,0,0,1,.16-.06,2,2,0,0,1,.32,1.84c-.18.54-.83.72-1.34.77a5.6,5.6,0,0,0-1.52.23A3.68,3.68,0,0,0,54.34,98a3.41,3.41,0,0,1-2.2,1A6.62,6.62,0,0,1,49.71,99a1,1,0,0,1-.7-1.25,4.56,4.56,0,0,1,2.18-3.12,4.33,4.33,0,0,0-3,2.68c-.12.49-.25,1-.81,1.18a.77.77,0,0,1-.45,0,5.31,5.31,0,0,0,.21.64.05.05,0,0,0,0,0,1,1,0,0,0,.7.21,2.05,2.05,0,0,0,.81,0l0,0h0a0,0,0,0,0,0,0l.12.06a1.37,1.37,0,0,0,.61.25l.09,0a11.21,11.21,0,0,0,1.87.26,7.83,7.83,0,0,0,2.85-.28,6.79,6.79,0,0,0,2.32-1.49,3.15,3.15,0,0,1,1.56-.69c.42-.05.85,0,1.26-.07.34.08.53-.21.54-.53A7.63,7.63,0,0,0,59.81,94.94Z"/><path class="cls-5" d="M59.81,94.94a2.26,2.26,0,0,0-1-1.5,2.66,2.66,0,0,0-.71-.27,5.59,5.59,0,0,0-2-.61,2.94,2.94,0,0,0-2.09.53,19.56,19.56,0,0,0-3,.45,7.19,7.19,0,0,0-2.58,1,4.31,4.31,0,0,0-1.59,2.06,3.84,3.84,0,0,0,.25,2.5.05.05,0,0,0,0,0,1,1,0,0,0,.7.21,2.05,2.05,0,0,0,.81,0l0,0h0a0,0,0,0,0,0,0l.12.06a1.37,1.37,0,0,0,.61.25l.09,0a11.21,11.21,0,0,0,1.87.26,7.83,7.83,0,0,0,2.85-.28,6.79,6.79,0,0,0,2.32-1.49,3.15,3.15,0,0,1,1.56-.69c.42-.05.85,0,1.26-.07.34.08.53-.21.54-.53A7.63,7.63,0,0,0,59.81,94.94Zm-.47,2.29a3.94,3.94,0,0,0-2.33.35c-.85.47-1.47,1.25-2.35,1.67a6.8,6.8,0,0,1-2.93.48c-.49,0-1-.07-1.47-.11l-.49-.07a2,2,0,0,1-.87-.25,0,0,0,0,0,0,0,6.48,6.48,0,0,1,.61-2.78,4.59,4.59,0,0,1,2.12-1.85,0,0,0,0,0,0,0,4.37,4.37,0,0,0-2.27,1.64,4.14,4.14,0,0,0-.57,1.29A4.47,4.47,0,0,0,48.64,99a2.52,2.52,0,0,0-.57,0c-.22,0-.68,0-.86-.11l0,0a5.53,5.53,0,0,1-.09-2.18,4.22,4.22,0,0,1,1.76-2.19,8.05,8.05,0,0,1,2.46-.84c1-.24,2-.32,3-.52a.12.12,0,0,0,0,0c.22-.05.42-.17.63-.23a3.14,3.14,0,0,1,1.33-.07,5.45,5.45,0,0,1,.8.18s0,0,0,0c.93.25,1.84.46,2.28,1.4A3.58,3.58,0,0,1,59.63,96C59.64,96.36,59.79,97.08,59.34,97.23Z"/><path class="cls-5" d="M91.74,93.79a2,2,0,0,0-.62-1.17.12.12,0,0,0,0-.14c-.37-.78-.59-1.94-1.56-2.19s-1.76,1-2.34,1.68a2.69,2.69,0,0,1-.54.26,6.1,6.1,0,0,1-1.47.18,6.37,6.37,0,0,0-2.52.5c-1.69.9-2,3-2.42,4.71a.14.14,0,0,0,.07.16h0a2.87,2.87,0,0,0,2,.34,1.79,1.79,0,0,1,0,.23.14.14,0,0,0,.16.14,4.5,4.5,0,0,0,2,.38,14,14,0,0,0,2.67,0,11.8,11.8,0,0,0,4.68-1.92l0-.06a.12.12,0,0,0,.06-.08A10.33,10.33,0,0,0,91.74,93.79ZM87.3,98.53a11.33,11.33,0,0,1-2.47.1,7,7,0,0,1-2.23-.29c.15-.48.18-1,.3-1.48a7.73,7.73,0,0,1,.57-1.7,2.69,2.69,0,0,1,1.19-1.28c.41-.21.87-.33,1.27-.57,0,0,0-.06,0-.06-.47.15-1,.28-1.42.47a2.52,2.52,0,0,0-1.09,1,8,8,0,0,0-1,3.14c-.3,0-.59,0-.9,0s-.59-.13-.89-.19c.4-1.76.76-4,2.74-4.69a13.92,13.92,0,0,1,2.74-.39,2.7,2.7,0,0,0,1.73-.94s0,0,0,0a2.91,2.91,0,0,1,1.56-1c.81-.09,1.16,1.15,1.42,1.82l-.21-.12a0,0,0,0,0,0,.06,3,3,0,0,1,1,1.82c.14.85.09,1.7.18,2.54h0A12.2,12.2,0,0,1,87.3,98.53Z"/><path class="cls-6" d="M49.12,45.33a9.45,9.45,0,0,0-1.77-4.86,8.26,8.26,0,0,0-4.78-2.87,11.83,11.83,0,0,0-10.5,3.06,14.25,14.25,0,0,0-3.38,4.85c-.75,1.75-1.16,3.87-.27,5.63A14.71,14.71,0,0,0,29,55.26a11.93,11.93,0,0,0,1.23,2.9,11.44,11.44,0,0,0,2.07,2.43c1.77,1.65,3.77,3,5.57,4.65a15,15,0,0,1,4.26,6.06.75.75,0,0,1,0,.16c-.07.7-.56,1.71.06,2.29a6,6,0,0,0,.79.56s0,0,0,0a6.91,6.91,0,0,1,.76,3.22c.19,1.46.36,2.9.42,4.37s0,3-.08,4.53a8.51,8.51,0,0,1-.83,3.73,1.34,1.34,0,0,0-.86.93,1.15,1.15,0,0,0,.11.68,1,1,0,0,1,0,1,0,0,0,0,0,0,0l-.07.05s0,.1.05.09A4.27,4.27,0,0,0,44,92.15c-.12.27-.24.53-.34.81,0,0,0,.06,0,0l0,0c.46-.3,1.07-.46,1.34-1a2.19,2.19,0,0,0,.34.46,2.37,2.37,0,0,0,.69.58l0,0a0,0,0,0,0,.08,0c0-.15-.07-.3-.1-.44a1.55,1.55,0,0,1,0-.21,2.09,2.09,0,0,0,.41.52h0s0,0,0,0,.09,0,.08,0,0,0,0-.07a0,0,0,0,0,0,0s0,0,0,0c0-.21,0-.43-.07-.64a2,2,0,0,0,.67.67.06.06,0,0,0,.06,0,1.19,1.19,0,0,0,.18.15.06.06,0,0,0,.08-.08,1.7,1.7,0,0,1-.39-1.05c0-.29.46-.36.62-.53.41-.44.17-1-.06-1.47-.22-1.14-.5-2.25-.7-3.39-.23-1.37-.32-2.78-.48-4.17s-.35-2.74-.45-4.12-.06-2.73-.14-4.09c.09-.18.2-.37.3-.56a2.34,2.34,0,0,0,.18-1.74,24.34,24.34,0,0,1-1-6.12,22.19,22.19,0,0,1,.86-5.89c.36-1.39.85-3.17,1.09-4.21.29-.66.5-1.26.75-1.94a17.35,17.35,0,0,0,.67-2.76A20,20,0,0,0,49.12,45.33Z"/><path class="cls-7" d="M49.12,45.33a9.45,9.45,0,0,0-1.77-4.86,8.26,8.26,0,0,0-4.78-2.87,11.83,11.83,0,0,0-10.5,3.06,14.25,14.25,0,0,0-3.38,4.85c-.75,1.75-1.16,3.87-.27,5.63a15.25,15.25,0,0,0,.07,1.66,11.45,11.45,0,0,0,3.36,1.9c3.47.93,7.23.43,9.35,4.31,1.88,3.43,2,6.44,2.76,10.14a9.75,9.75,0,0,0,.27,1.43c.21.5,1,1.14,1.07,1.69.15,1.08-.56,1.27-.54,2.35a19.42,19.42,0,0,0,.54,3.71A29.54,29.54,0,0,1,45.84,82c.13,1.52.27,3,.48,4.54a10,10,0,0,0,.36,1.71,4.78,4.78,0,0,1,.3,1.24c0,.86-1,1.24-1,2.13a.09.09,0,0,1-.15.07c-.25-.23-.57-.38-.8-.62a7.9,7.9,0,0,1-.49.69.1.1,0,0,1-.14,0c-.12-.13-.32-.46-.48-.31l-.42.4c-.32.32-.63.66-1,1h0a0,0,0,0,0,0,0l-.07.05s0,.1.05.09A4.27,4.27,0,0,0,44,92.15c-.12.27-.24.53-.34.81,0,0,0,.06,0,0l0,0c.46-.3,1.07-.46,1.34-1a2.19,2.19,0,0,0,.34.46,2.37,2.37,0,0,0,.69.58l0,0a0,0,0,0,0,.08,0c0-.15-.07-.3-.1-.44a1.55,1.55,0,0,1,0-.21,2.09,2.09,0,0,0,.41.52h0s0,0,0,0,.09,0,.08,0,0,0,0-.07a0,0,0,0,0,0,0s0,0,0,0c0-.21,0-.43-.07-.64a2,2,0,0,0,.67.67.06.06,0,0,0,.06,0,1.19,1.19,0,0,0,.18.15.06.06,0,0,0,.08-.08,1.7,1.7,0,0,1-.39-1.05c0-.29.46-.36.62-.53.41-.44.17-1-.06-1.47-.22-1.14-.5-2.25-.7-3.39-.23-1.37-.32-2.78-.48-4.17s-.35-2.74-.45-4.12-.06-2.73-.14-4.09c.09-.18.2-.37.3-.56a2.34,2.34,0,0,0,.18-1.74,24.34,24.34,0,0,1-1-6.12,22.19,22.19,0,0,1,.86-5.89c.36-1.39.85-3.17,1.09-4.21.29-.66.5-1.26.75-1.94a17.35,17.35,0,0,0,.67-2.76A20,20,0,0,0,49.12,45.33Z"/><path class="cls-6" d="M88.94,69.38c-.19-.57-.88-.93-1.2-1.44a11.32,11.32,0,0,1-1.14-2.68,33.89,33.89,0,0,1-1.07-4,12.55,12.55,0,0,1-.13-4,29.17,29.17,0,0,1,.94-4A21.24,21.24,0,0,0,87,45.56c-.22-2-1-4.12-3-4.94s-4.14,0-5.9.75a25.22,25.22,0,0,0-5,3c-3,2.31-6.07,5.63-6.19,9.65a6,6,0,0,0,.4,2.34,7.11,7.11,0,0,0,0,3.52s0,0,0,0a.66.66,0,0,1,0,.14,0,0,0,0,0,.08,0,6.72,6.72,0,0,1,.41-1.6,6,6,0,0,1,.36-.72,3.78,3.78,0,0,0,.16,2.49.1.1,0,0,0,0,0,2.38,2.38,0,0,0,.06.37c0,.06.1,0,.1,0A6.12,6.12,0,0,1,69,58.43a5.64,5.64,0,0,0,.84,3.42,11.34,11.34,0,0,0,3.84,3.48c1.63,1,3.37,1.82,5,2.73,1.36.74,3.09,1.37,3.92,2.76a2,2,0,0,0,0,1.05.9.9,0,0,0,.2.28.82.82,0,0,1,.3.78c0,.07,0,.13-.05.19a7.39,7.39,0,0,1-.47.76,10,10,0,0,0-.55,1c-.43.84-.89,1.67-1.37,2.49a54.53,54.53,0,0,1-3,4.76c-.41.57-.79,1.16-1.23,1.71a4.35,4.35,0,0,1-1.68,1.45c-.38.15-1,.26-1.26.67s0,.79.21,1.16.18.83-.09,1c-.48.34-1,.66-1.5.95,0,0,0,0,0,0h0s0,.06,0,.07a3.55,3.55,0,0,0,2.22-.31,3.15,3.15,0,0,0-.42.56.88.88,0,0,0-.18.21,0,0,0,0,0,0,0h0a0,0,0,0,0,0,.08,11.52,11.52,0,0,0,1.8-.44c0,.51.8.91,1.06,1.22,0,0,0,0,0,0s0,0,0,0a0,0,0,0,0,.06,0,2.9,2.9,0,0,1,0-.66,2.7,2.7,0,0,0,.71.8,1.07,1.07,0,0,0,.31.25,0,0,0,0,0,0,0,1.64,1.64,0,0,1-.25-1.83,2.73,2.73,0,0,1,.62-.39.86.86,0,0,0,.53-.64,17.07,17.07,0,0,1,0-2,6.81,6.81,0,0,1,.84-1.74c.37-.72.73-1.44,1.09-2.17a53.82,53.82,0,0,1,4-7.07,13.62,13.62,0,0,1,2-2.42c.74-.64,1.42-.93,1.86-1.86C88.74,70.39,89.08,69.78,88.94,69.38Z"/><path class="cls-7" d="M88.94,69.38c-.19-.57-.88-.93-1.2-1.44a11.32,11.32,0,0,1-1.14-2.68,33.89,33.89,0,0,1-1.07-4,12.55,12.55,0,0,1-.13-4,29.17,29.17,0,0,1,.94-4A21.24,21.24,0,0,0,87,45.56c-.22-2-1-4.12-3-4.94s-4.14,0-5.9.75a25.22,25.22,0,0,0-5,3c-3,2.31-6.07,5.63-6.19,9.65a6,6,0,0,0,.4,2.34,7.11,7.11,0,0,0,0,3.52s0,0,0,0a.66.66,0,0,1,0,.14,0,0,0,0,0,.08,0,6.72,6.72,0,0,1,.41-1.6,6,6,0,0,1,.36-.72,3.78,3.78,0,0,0,.16,2.49.1.1,0,0,0,0,0,2.38,2.38,0,0,0,.06.37c0,.06.1,0,.1,0A6.12,6.12,0,0,1,69,58.43a5.6,5.6,0,0,0,.23,2.08c0-.84.58-2.83,1.91-2.66C74,58.24,74,65,85.68,68.23c.54.15,1.54.67,1.68,1.31s-.52,1-1,1.2a2.81,2.81,0,0,0-1.22.67,1.37,1.37,0,0,0-.31,1,4.88,4.88,0,0,1-1.08,2.66,24.34,24.34,0,0,0-1.85,3.15c-.59,1.27-1.49,2.52-2.12,3.77-.78,1.57-2.19,3.71-2,4.64A1.09,1.09,0,0,1,77,88.09a3,3,0,0,1-2-.48A4.14,4.14,0,0,1,73.53,86a1.44,1.44,0,0,0,.24,1.1c.11.4.18.83-.09,1-.48.34-1,.66-1.5.95,0,0,0,0,0,0h0s0,.06,0,.07a3.55,3.55,0,0,0,2.22-.31,3.15,3.15,0,0,0-.42.56.88.88,0,0,0-.18.21,0,0,0,0,0,0,0h0a0,0,0,0,0,0,.08,11.52,11.52,0,0,0,1.8-.44c0,.51.8.91,1.06,1.22,0,0,0,0,0,0s0,0,0,0a0,0,0,0,0,.06,0,2.9,2.9,0,0,1,0-.66,2.7,2.7,0,0,0,.71.8,1.07,1.07,0,0,0,.31.25,0,0,0,0,0,0,0,1.64,1.64,0,0,1-.25-1.83,2.73,2.73,0,0,1,.62-.39.86.86,0,0,0,.53-.64,17.07,17.07,0,0,1,0-2,6.81,6.81,0,0,1,.84-1.74c.37-.72.73-1.44,1.09-2.17a53.82,53.82,0,0,1,4-7.07,13.62,13.62,0,0,1,2-2.42c.74-.64,1.42-.93,1.86-1.86C88.74,70.39,89.08,69.78,88.94,69.38Z"/><path class="cls-8" d="M110.86,62.7a2,2,0,0,0,1-.48h0a.07.07,0,0,0,0-.07s0-.08,0-.07h0c-.45,0-.88.06-1.17-.34a1,1,0,0,1,.06-1.33c.48-.54,1.12-.84,1.07-1.66a6.41,6.41,0,0,0-.94-2.48,3,3,0,0,0-1.5-1.45,2,2,0,0,0,1.23-.55.06.06,0,0,0-.07-.1l-.3.1a1.79,1.79,0,0,1-1.66-.81,6.33,6.33,0,0,1-.84-2.33,51.18,51.18,0,0,0-1.52-5.09c-.58-1.66-1.37-3.21-2.09-4.81a12.55,12.55,0,0,1-1.2-4.62c.1-.88.17-1.76.27-2.64.11-1.07.31-2.12.44-3.18a12.09,12.09,0,0,0-.06-4,7.39,7.39,0,0,0-1.84-3.61,13.49,13.49,0,0,0-2.4-1.92,26.78,26.78,0,0,0-2.88-1.69c-1.94-1-4-1.91-5.93-2.87a19.8,19.8,0,0,1-5.08-3.09C84.3,12.17,83.18,10.69,82,9.28A30.24,30.24,0,0,0,76.41,4a13.58,13.58,0,0,0-2.89-1.54A6.61,6.61,0,0,0,71,1.86a5.53,5.53,0,0,1,.92-.16.06.06,0,0,0,0-.11,1,1,0,0,0-.38-.07,3.25,3.25,0,0,0-2.35-.13c.15-.19.26-.43.39-.63a2.24,2.24,0,0,1,.65-.65,0,0,0,0,0,0-.08L70,.07s0,0,0,0a3.76,3.76,0,0,0-2.32.4c-.21.09-.73.34-.85.64A2.2,2.2,0,0,0,65.11.33a0,0,0,0,0,0,0l.11.06s0,0,0,0c.35.14.36.5.42.83A2,2,0,0,0,64.31.72a2.45,2.45,0,0,0-1.81.53s0,.1,0,.08l.12-.05a3.08,3.08,0,0,1,1.48.38,10.33,10.33,0,0,0-3.62,1.17A12.76,12.76,0,0,0,57.27,5,14.11,14.11,0,0,0,54.74,8.3c-.39.65-.75,1.32-1.14,2s-.8,1.13-1.15,1.71a13.1,13.1,0,0,0-2.3-1,4.19,4.19,0,0,0-3,.11,9.35,9.35,0,0,0-1.25.67,6.11,6.11,0,0,0-1.2.73,2.94,2.94,0,0,1-.6-1s0,0-.06,0h0a.07.07,0,0,0-.08,0,2.94,2.94,0,0,1-.31.47,1.88,1.88,0,0,0-.23.61c-.06.25-.26.59-.16.86a1.2,1.2,0,0,0-.51-.11,1.76,1.76,0,0,0-1,.49s0,0,0,0,0,.06,0,.07.2.08.3.12a3,3,0,0,0-1.38.87s0,.09.06.07l0,0a2.38,2.38,0,0,1,1.12.09H42a6.39,6.39,0,0,0-1.13,1.25c-.53.71-1,1.47-1.47,2.22A37.81,37.81,0,0,0,36.52,24a31.91,31.91,0,0,1-2.05,4.76c-.83,1.29-2.12,2.2-3.66,1.7a11.82,11.82,0,0,1-2.64-3h0c.33-.23.39-.71.52-1.06a7.46,7.46,0,0,0,.44-1.91,4.18,4.18,0,0,0-.35-2.15c.34.24.7.46.75.9a0,0,0,0,0,.07,0,.7.7,0,0,0,0-.38,3.31,3.31,0,0,0-.21-1.26,2.35,2.35,0,0,0-.23-.48l.13,0a1.44,1.44,0,0,1,.68.44.54.54,0,0,0,0,.1s0,0,0,0,.08,0,.07,0a.81.81,0,0,0-.07-.22A3.44,3.44,0,0,0,29.51,20a3.29,3.29,0,0,0-1-.92A6.55,6.55,0,0,0,30,17.37a1.88,1.88,0,0,0,.2-.77,1.3,1.3,0,0,0,1.17.47,5.56,5.56,0,0,0,1.47-.67,2.09,2.09,0,0,0,1-.93A1.47,1.47,0,0,0,33.46,14l.22.11c.18.1.35.3.54.35l.09.2s.06,0,.06,0a1.93,1.93,0,0,0-.45-1.4l.18.05a2.51,2.51,0,0,1,.76.48s.13,0,.11-.08a.57.57,0,0,0-.11-.22,6.36,6.36,0,0,0-1.29-2.4c-.44-.54-1.14-1.29-1.86-1.32-.87,0-1.58.73-2.25,1.22a7.67,7.67,0,0,0-.88.72,1.19,1.19,0,0,0-.15-.77,4,4,0,0,0-.72-.91,4.87,4.87,0,0,0-.89-.81,2.19,2.19,0,0,0-1.34-1.65,1.12,1.12,0,0,0-.82.19c-2.32-1.48-4.93-3-7.71-3.35a7.34,7.34,0,0,0-3.85.76A13.37,13.37,0,0,0,9.83,7.33.93.93,0,0,0,9,7.18c-.44.13-.67.68-.85,1.05a1.54,1.54,0,0,1-.08.19c-.42.22-.82.5-1.23.74a5.05,5.05,0,0,0-1.29,1.1L5.33,10a3,3,0,0,0-2.07-1.1A2.66,2.66,0,0,0,1.42,10a5.25,5.25,0,0,0-1,2l0,0a.06.06,0,0,0,0,.08s0,0,.06,0h0a1.57,1.57,0,0,0,.23-.09l-.15.15a2.51,2.51,0,0,0-.46,1.52.64.64,0,0,0-.08.14A0,0,0,0,0,.06,14c.21-.07.41-.21.62-.29a1.29,1.29,0,0,1,.21-.06A1,1,0,0,0,.71,14a1.6,1.6,0,0,0,.45,1.26,3.21,3.21,0,0,0,1.16,1c.44.12.6-.17,1.16-.46l.07,0a1.73,1.73,0,0,0-.48,1.36,1.49,1.49,0,0,0,.8,1,7.08,7.08,0,0,0,2.77,1.16,3.66,3.66,0,0,0-1,2,.85.85,0,0,0,0,.29,0,0,0,0,0,.06,0,1.64,1.64,0,0,1,1-.7,3.33,3.33,0,0,0-.54,2.28l0,0a.25.25,0,0,0,0,.09,0,0,0,0,0,.07,0c.17-.38.67-.47,1-.73A5.28,5.28,0,0,0,7.39,26a1,1,0,0,0,.06.25,0,0,0,0,0,.08,0,4.53,4.53,0,0,1,.08-.73,2.32,2.32,0,0,1,.13-.37,4.91,4.91,0,0,0,.44,2.66l0,0,0,.11s0,0,0,0a3.54,3.54,0,0,1,.18-.81,4.66,4.66,0,0,0,1,2.88s0,0,0,0l0,.12s.06,0,.06,0V29a19,19,0,0,0,1.68,5.4,65.26,65.26,0,0,0,2.93,5.93c2.06,3.66,5,7.17,8.85,9a3.15,3.15,0,0,0,.84,2,1.22,1.22,0,0,0,.18.36c0,.05.1,0,.08,0A2.85,2.85,0,0,1,24.07,50c.16.87,1,1.48,1.76,2a.82.82,0,0,0,.26.14c.05,0,.1-.05.05-.09a1.94,1.94,0,0,1-.58-1.45,3.76,3.76,0,0,0,.94.52,14.82,14.82,0,0,0,2.07.7,40.27,40.27,0,0,0,4.79.66,20.11,20.11,0,0,0,4.58.26A9.52,9.52,0,0,0,41.75,51c.66,2.3,2.94,3.91,4.83,5.18a3.59,3.59,0,0,0,1.2.65,1.73,1.73,0,0,0-.33,1.44v0s0,0,0,0,0,.1.06.07A4.74,4.74,0,0,1,48.58,58a1.7,1.7,0,0,0,.22,1,.2.2,0,0,1,0,.07c0,.06.09.1.12,0a1.08,1.08,0,0,1,.3-.43,1.17,1.17,0,0,1,.47-.21s0,0,0,0a10.35,10.35,0,0,1,1,.84,3.48,3.48,0,0,1,.91,1.53,27.51,27.51,0,0,1,.84,3.7c.26,1.37.51,2.75.78,4.13s.55,2.47.77,3.72a2.11,2.11,0,0,1-.09.78c-.07.22-.28.34-.3.58,0,.39.43.75.82,1,.36,1.12.15,2.6.07,4.51-.08,1.65-.27,3.2-.37,4.85,0,.86-.2,1.79-.24,2.65s-.15,1.82-.2,2.72c-.09,1.69-.54,1.54-.31,2.22a1.53,1.53,0,0,0,.67.73,5.51,5.51,0,0,1-.79.44c-.3.13-.64.14-.93.26l0,0h-.15s-.06.07,0,.08a6.51,6.51,0,0,0,.71.33,3.41,3.41,0,0,0,.85.1,2,2,0,0,0,1-.16,2.79,2.79,0,0,0-.35.77s0,0,0,0a.05.05,0,0,0,0,0,.11.11,0,0,0,.16,0l.11-.15c.44-.24,1.08-.37,1.35-.77.31.5,1.1.63,1.62.74h0a.49.49,0,0,0,.16,0s.09-.06,0-.09a1.07,1.07,0,0,1-.34-.44s0,0,0-.08a2.25,2.25,0,0,0,1-.27l0,0h0c.06,0,.06-.09,0-.1l-.43-.2a.85.85,0,0,0,.42-.19,0,0,0,0,0,0,0l.08,0a.06.06,0,0,0,0-.11,1.28,1.28,0,0,1-.81-.23c-.22-.18-.08-.43,0-.65a.9.9,0,0,0,.48-.55,3.08,3.08,0,0,0-.36-1.75,19.47,19.47,0,0,1-1-5.51,56,56,0,0,1-.08-5.8c0-.82.06-1.64,0-2.45a5.17,5.17,0,0,1,.08-1.84,2.8,2.8,0,0,0,.73-1.67A3.57,3.57,0,0,0,57,70.89a5.57,5.57,0,0,1-.1-2.08,24.24,24.24,0,0,1,.62-6.69,53.6,53.6,0,0,1,3.06-5.93l.1-.15a19.12,19.12,0,0,0,4.82.6,8.46,8.46,0,0,0,2.64-.5,7.91,7.91,0,0,0,2.53-1.67c1.7-1.53,3.18-3.31,4.76-4.95s3.17-3.37,5.27-4.23c0,.23,0,.46.06.7A8.82,8.82,0,0,0,82,49.28a46.85,46.85,0,0,0,4.63,6.63c.85,1.06,1.73,2.1,2.55,3.19s1.44,2,2.18,3a21.22,21.22,0,0,1,1.59,2.4,12.24,12.24,0,0,1,.93,2.69,1.94,1.94,0,0,1,0,.24,12.25,12.25,0,0,1-.54,1.58,1.88,1.88,0,0,0,1,1.74,10.51,10.51,0,0,1-.49,4.48c-.45,1.6-1,3.19-1.53,4.76a40.47,40.47,0,0,1-2,4.83,5.15,5.15,0,0,1-2.87,2.9.15.15,0,0,0-.11.15c-.34.46-.1,1.2.07,1.68a1.92,1.92,0,0,1,.18,1.26,2.35,2.35,0,0,1-1,1.15s0,0,0,0l-.11,0h-.28s0,.07,0,.08a2.94,2.94,0,0,0,2.29-.54,2.78,2.78,0,0,1-.66.83s0,.07,0,.06l.08,0s0,0,0,0A5.92,5.92,0,0,0,90,91.74c.09.49.77.81,1.17,1h0a.38.38,0,0,0,.26.1s0,0,0,0a.89.89,0,0,1-.23-.69c.31-.61,1-.86,1.29-1.48s-.17-1.21-.49-1.76a17.06,17.06,0,0,1,1.22-4.33c.75-1.93,1.47-3.87,2.23-5.8S97,74.9,97.85,73a21.61,21.61,0,0,1,1.47-2.72,3.94,3.94,0,0,0,.51-1,1.45,1.45,0,0,0,0-.51.11.11,0,0,0,0-.08,8,8,0,0,0-1-3.28,15.54,15.54,0,0,1-1.4-3.34c-.63-2.6,0-5.43.41-8,.19-1.41.4-2.82.68-4.21A32.84,32.84,0,0,1,99.8,45.6q.7-2,1.44-4.05c.13-.35.26-.71.38-1.06a10.49,10.49,0,0,1,1.29,1.91c.71,1.24,1.36,2.51,2,3.8A29.28,29.28,0,0,1,106.29,50c.19.67.36,1.35.5,2a2.78,2.78,0,0,1-.05,1.78,2.89,2.89,0,0,1-.95.45c-.42.13-1,.3-1.26.72s.12.8.45,1.07a.69.69,0,0,1-.19,1.25l-.84.32c-1,.4-2,1.26-1.46,2.43.34.66,1,1.14,1.3,1.82a1.16,1.16,0,0,1-1.39,1.7.08.08,0,0,0-.08.13,1.11,1.11,0,0,0,.24.16,1.78,1.78,0,0,0,.81.39,1.46,1.46,0,0,0,.55,0,4.21,4.21,0,0,0-.82,1.44,1.93,1.93,0,0,0-.11,1.54c.53,1,1.92.76,2.58,1.55.43.82-.77,1.94-.53,2.86.2.75,1,1.14,1.56,1.56.33.24.89.49.73,1a1.51,1.51,0,0,1-.74.83.05.05,0,0,0,0,.1h.11a1.24,1.24,0,0,0,.6-.07c-.25.56.23,1.21.75,1.47a1.57,1.57,0,0,0,.76.39s.07-.05,0-.08c-.42-.21-.65-.37-.68-.87a1.75,1.75,0,0,1,.38-1.08,10.53,10.53,0,0,1,1.65-1.4c1-.9.27-2.21-.4-3.13a2.65,2.65,0,0,0,1.36.07s0-.08,0-.09l-.18,0a1.45,1.45,0,0,1-.84-.67,2.12,2.12,0,0,1,.07-1.62c.43-1,1.54-1,2.09-1.86C113.08,65,111.82,63.44,110.86,62.7Z"/><path class="cls-7" d="M34.47,28.8c-.83,1.29-2.12,2.2-3.66,1.7l-.4-.34A4.84,4.84,0,0,0,32.22,32a13.31,13.31,0,0,0,3.94,1.39,10.57,10.57,0,0,0,3.07.24,14.77,14.77,0,0,0,2.54-.56,11.11,11.11,0,0,1-1.52.21,7.19,7.19,0,0,1-3.52-.53,3.33,3.33,0,0,1-2-2.77A6.19,6.19,0,0,1,35,27.8C34.85,28.14,34.67,28.48,34.47,28.8Z"/><path class="cls-7" d="M110.86,62.7a2,2,0,0,0,1-.48h0a.07.07,0,0,0,0-.07s0-.08,0-.07h0c-.45,0-.88.06-1.17-.34a1,1,0,0,1,.06-1.33c.48-.54,1.12-.84,1.07-1.66a6.41,6.41,0,0,0-.94-2.48,3,3,0,0,0-1.5-1.45,2,2,0,0,0,1.23-.55.06.06,0,0,0-.07-.1l-.3.1a1.79,1.79,0,0,1-1.66-.81,6.33,6.33,0,0,1-.84-2.33,51.18,51.18,0,0,0-1.52-5.09c-.58-1.66-1.37-3.21-2.09-4.81a12.55,12.55,0,0,1-1.2-4.62c.1-.88.17-1.76.27-2.64.11-1.07.31-2.12.44-3.18a12.09,12.09,0,0,0-.06-4,5.66,5.66,0,0,0-.15-.59,17.2,17.2,0,0,1,0,2.15,38.53,38.53,0,0,1-2.78,10.46C99,43,98,48.38,94.11,51.1c-5,3.49-10.86-1.13-11.8-6.52a8.74,8.74,0,0,1,.85-5.19A5.91,5.91,0,0,1,86,36.57c-.66.1-1.33.18-2,.29-.08,0-.16-.09-.08-.15a6.35,6.35,0,0,1,2.6-1.38c-.57.05-1.14.11-1.72.19a.09.09,0,0,1-.08-.15,8.24,8.24,0,0,1,2.36-1.59,7.93,7.93,0,0,1,1-.37,15.9,15.9,0,0,0-4.35.25c-4.55.81-9.33,5.82-14,4.74-2.08-.48-3.88-3.33-6.28-4.63a8.48,8.48,0,0,0-5.57-1,10.49,10.49,0,0,1,2.95.39c.07,0,.1.15,0,.17-.45.06-.9.13-1.34.23a5.32,5.32,0,0,1,2.07.49c.09,0,0,.2-.06.17a2.7,2.7,0,0,0-1.09-.1c1.15.76,2.33,1.22,2.56,4.07.4,4.78-1.33,10.45-5.93,12.46-8.42,3.68-13.87,1.37-14.12-4a19.24,19.24,0,0,1,.43-3.85A21.67,21.67,0,0,1,44.17,39a28.88,28.88,0,0,1,3.6-6.41c-.55.42-1.06.92-1.61,1.35a19.89,19.89,0,0,1-2.08,1.4A13.43,13.43,0,0,1,39.61,37a13,13,0,0,1-5.17-.17,12.06,12.06,0,0,1-2.39-1A6.7,6.7,0,0,1,30.67,35c-3-2.15-5.11-6.38-4.23-10.06a.09.09,0,0,1,.16,0c.36.57.62,1.2,1,1.78a4.59,4.59,0,0,0,.79,1.08l-.2-.31h0c.33-.23.39-.71.52-1.06a7.46,7.46,0,0,0,.44-1.91,4.18,4.18,0,0,0-.35-2.15c.34.24.7.46.75.9a0,0,0,0,0,.07,0,.7.7,0,0,0,0-.38,3.31,3.31,0,0,0-.21-1.26,2.35,2.35,0,0,0-.23-.48l.13,0a1.44,1.44,0,0,1,.68.44.54.54,0,0,0,0,.1s0,0,0,0,.08,0,.07,0a.81.81,0,0,0-.07-.22A3.44,3.44,0,0,0,29.51,20a3.29,3.29,0,0,0-1-.92A6.55,6.55,0,0,0,30,17.37a1.88,1.88,0,0,0,.2-.77,1.3,1.3,0,0,0,1.17.47,5.56,5.56,0,0,0,1.47-.67,2.09,2.09,0,0,0,1-.93A1.47,1.47,0,0,0,33.46,14l.22.11c.18.1.35.3.54.35l.09.2s.06,0,.06,0a1.93,1.93,0,0,0-.45-1.4l.18.05a2.51,2.51,0,0,1,.76.48s.13,0,.11-.08a.57.57,0,0,0-.11-.22,6.11,6.11,0,0,0-1.12-2.18,15.33,15.33,0,0,0,.57,1.52c0,.07-.4-.19-1.2-.95-.26-.24-.9-.71-2.3-.12a7.06,7.06,0,0,0-1.47.94,1.86,1.86,0,0,1-1,.44c-.07,0-.11-.05-.09-.11a4.85,4.85,0,0,1,1.41-2.17l-.17.13a7.67,7.67,0,0,0-.88.72,1.19,1.19,0,0,0-.15-.77,4,4,0,0,0-.72-.91,4.87,4.87,0,0,0-.89-.81,2.19,2.19,0,0,0-1.34-1.65,1.12,1.12,0,0,0-.82.19A25.72,25.72,0,0,0,19.2,4.94c.62.3,1.29.61,1.93,1l1.51.89a2.16,2.16,0,0,1,.83,1c.24.67-.19,1.33-.44,2A10.68,10.68,0,0,1,24,8.7a1.72,1.72,0,0,1,1.4-.58c1.21.29,1.11,2.24,1,3.17,0,.1-.16.13-.18,0-.13-.66-.32-2-1.14-2.11C24,9,23.8,10.39,23.53,11.11c0,0-.06.08-.11.06a3.79,3.79,0,0,1-1.17-.67,5.9,5.9,0,0,0-1.42-.71A13,13,0,0,0,17.48,9a10.46,10.46,0,0,0-6.42,1.43.09.09,0,0,1-.13-.05c-.26-.65-1.12-2.23-2-1.4a7.16,7.16,0,0,0-1,1.57.09.09,0,0,1-.17,0,4,4,0,0,1,.4-1.64c.17-.39.39-1,.79-1.21.89-.48,1.41.68,1.9,1.33a2.49,2.49,0,0,1-.21-1.44,2.75,2.75,0,0,1,1-1.13,15.11,15.11,0,0,1,1.48-1.16l.2-.14-.25.11A13.37,13.37,0,0,0,9.83,7.33.93.93,0,0,0,9,7.18c-.44.13-.67.68-.85,1.05a1.54,1.54,0,0,1-.08.19c-.42.22-.82.5-1.23.74a5.05,5.05,0,0,0-1.29,1.1L5.33,10A3.55,3.55,0,0,0,5,9.7a10.61,10.61,0,0,1,1.46,2.52.09.09,0,0,1-.15.09c-.68-.67-1.36-1.9-2.51-1.5-.89.31-1.2,1-1.91,1.58-1,.76-.87.35-.84.27.19-.56.7-.73,1-1.2-.11,0,.31-.25.2-.23a.09.09,0,0,1-.1-.13,1.12,1.12,0,0,1,.25-.28c-.53.16-1,.49-1.54.62a.09.09,0,0,1-.11-.11A3.18,3.18,0,0,1,1,10.65,5.55,5.55,0,0,0,.42,12l0,0a.06.06,0,0,0,0,.08s0,0,.06,0h0a1.57,1.57,0,0,0,.23-.09l-.15.15a2.51,2.51,0,0,0-.46,1.52.64.64,0,0,0-.08.14A0,0,0,0,0,.06,14c.21-.07.41-.21.62-.29a1.29,1.29,0,0,1,.21-.06A1,1,0,0,0,.71,14a1.6,1.6,0,0,0,.45,1.26,3.21,3.21,0,0,0,1.16,1c.44.12.6-.17,1.16-.46l.07,0a1.73,1.73,0,0,0-.48,1.36,1.49,1.49,0,0,0,.8,1,7.08,7.08,0,0,0,2.77,1.16,3.66,3.66,0,0,0-1,2,.85.85,0,0,0,0,.29,0,0,0,0,0,.06,0,1.64,1.64,0,0,1,1-.7,3.33,3.33,0,0,0-.54,2.28l0,0a.25.25,0,0,0,0,.09,0,0,0,0,0,.07,0c.17-.38.67-.47,1-.73A5.28,5.28,0,0,0,7.39,26a1,1,0,0,0,.06.25,0,0,0,0,0,.08,0,4.53,4.53,0,0,1,.08-.73,2.32,2.32,0,0,1,.13-.37,4.91,4.91,0,0,0,.44,2.66l0,0,0,.11s0,0,0,0a3.54,3.54,0,0,1,.18-.81,4.66,4.66,0,0,0,1,2.88s0,0,0,0l0,.12s.06,0,.06,0V29a19,19,0,0,0,1.68,5.4,65.26,65.26,0,0,0,2.93,5.93c2.06,3.66,5,7.17,8.85,9a3.15,3.15,0,0,0,.84,2,1.22,1.22,0,0,0,.18.36c0,.05.1,0,.08,0A2.85,2.85,0,0,1,24.07,50c.16.87,1,1.48,1.76,2a.82.82,0,0,0,.26.14c.05,0,.1-.05.05-.09a1.94,1.94,0,0,1-.58-1.45,3.76,3.76,0,0,0,.94.52,14.82,14.82,0,0,0,2.07.7,40.27,40.27,0,0,0,4.79.66,20.11,20.11,0,0,0,4.58.26A9.52,9.52,0,0,0,41.75,51c.66,2.3,2.94,3.91,4.83,5.18a3.59,3.59,0,0,0,1.2.65,1.73,1.73,0,0,0-.33,1.44v0s0,0,0,0,0,.1.06.07A4.74,4.74,0,0,1,48.58,58a1.7,1.7,0,0,0,.22,1,.2.2,0,0,1,0,.07c0,.06.09.1.12,0a1.08,1.08,0,0,1,.3-.43,1.17,1.17,0,0,1,.47-.21s0,0,0,0a10.35,10.35,0,0,1,1,.84,3.48,3.48,0,0,1,.91,1.53,27.51,27.51,0,0,1,.84,3.7c.26,1.37.51,2.75.78,4.13s.55,2.47.77,3.72a2.11,2.11,0,0,1-.09.78c-.07.22-.28.34-.3.58,0,.39.43.75.82,1,.36,1.12.15,2.6.07,4.51-.08,1.65-.27,3.2-.37,4.85,0,.86-.2,1.79-.24,2.65s-.15,1.82-.2,2.72c-.09,1.69-.54,1.54-.31,2.22a1.53,1.53,0,0,0,.67.73,5.51,5.51,0,0,1-.79.44c-.3.13-.64.14-.93.26l0,0h-.15s-.06.07,0,.08a6.51,6.51,0,0,0,.71.33,3.41,3.41,0,0,0,.85.1,2,2,0,0,0,1-.16,2.79,2.79,0,0,0-.35.77s0,0,0,0a.05.05,0,0,0,0,0,.11.11,0,0,0,.16,0l.11-.15c.44-.24,1.08-.37,1.35-.77.31.5,1.1.63,1.62.74h0a.49.49,0,0,0,.16,0s.09-.06,0-.09a1.07,1.07,0,0,1-.34-.44s0,0,0-.08a2.25,2.25,0,0,0,1-.27l0,0h0c.06,0,.06-.09,0-.1l-.43-.2a.85.85,0,0,0,.42-.19,0,0,0,0,0,0,0l.08,0a.06.06,0,0,0,0-.11,1.28,1.28,0,0,1-.81-.23c-.22-.18-.08-.43,0-.65a.9.9,0,0,0,.48-.55,3.08,3.08,0,0,0-.36-1.75,19.47,19.47,0,0,1-1-5.51,56,56,0,0,1-.08-5.8c0-.82.06-1.64,0-2.45a5.17,5.17,0,0,1,.08-1.84,2.8,2.8,0,0,0,.73-1.67A3.57,3.57,0,0,0,57,70.89a5.57,5.57,0,0,1-.1-2.08,24.24,24.24,0,0,1,.62-6.69,53.6,53.6,0,0,1,3.06-5.93l.1-.15a19.12,19.12,0,0,0,4.82.6,8.46,8.46,0,0,0,2.64-.5,7.91,7.91,0,0,0,2.53-1.67c1.7-1.53,3.18-3.31,4.76-4.95s3.17-3.37,5.27-4.23c0,.23,0,.46.06.7A8.82,8.82,0,0,0,82,49.28a46.85,46.85,0,0,0,4.63,6.63c.85,1.06,1.73,2.1,2.55,3.19s1.44,2,2.18,3a21.22,21.22,0,0,1,1.59,2.4,12.24,12.24,0,0,1,.93,2.69,1.94,1.94,0,0,1,0,.24,12.25,12.25,0,0,1-.54,1.58,1.88,1.88,0,0,0,1,1.74,10.51,10.51,0,0,1-.49,4.48c-.45,1.6-1,3.19-1.53,4.76a40.47,40.47,0,0,1-2,4.83,5.15,5.15,0,0,1-2.87,2.9.15.15,0,0,0-.11.15c-.34.46-.1,1.2.07,1.68a1.92,1.92,0,0,1,.18,1.26,2.35,2.35,0,0,1-1,1.15s0,0,0,0l-.11,0h-.28s0,.07,0,.08a2.94,2.94,0,0,0,2.29-.54,2.78,2.78,0,0,1-.66.83s0,.07,0,.06l.08,0s0,0,0,0A5.92,5.92,0,0,0,90,91.74c.09.49.77.81,1.17,1h0a.38.38,0,0,0,.26.1s0,0,0,0a.89.89,0,0,1-.23-.69c.31-.61,1-.86,1.29-1.48s-.17-1.21-.49-1.76a17.06,17.06,0,0,1,1.22-4.33c.75-1.93,1.47-3.87,2.23-5.8S97,74.9,97.85,73a21.61,21.61,0,0,1,1.47-2.72,3.94,3.94,0,0,0,.51-1,1.45,1.45,0,0,0,0-.51.11.11,0,0,0,0-.08,8,8,0,0,0-1-3.28,15.54,15.54,0,0,1-1.4-3.34c-.63-2.6,0-5.43.41-8,.19-1.41.4-2.82.68-4.21A32.84,32.84,0,0,1,99.8,45.6q.7-2,1.44-4.05c.13-.35.26-.71.38-1.06a10.49,10.49,0,0,1,1.29,1.91c.71,1.24,1.36,2.51,2,3.8A29.28,29.28,0,0,1,106.29,50c.19.67.36,1.35.5,2a2.78,2.78,0,0,1-.05,1.78,2.89,2.89,0,0,1-.95.45c-.42.13-1,.3-1.26.72s.12.8.45,1.07a.69.69,0,0,1-.19,1.25l-.84.32c-1,.4-2,1.26-1.46,2.43.34.66,1,1.14,1.3,1.82a1.16,1.16,0,0,1-1.39,1.7.08.08,0,0,0-.08.13,1.11,1.11,0,0,0,.24.16,1.78,1.78,0,0,0,.81.39,1.46,1.46,0,0,0,.55,0,4.21,4.21,0,0,0-.82,1.44,1.93,1.93,0,0,0-.11,1.54c.53,1,1.92.76,2.58,1.55.43.82-.77,1.94-.53,2.86.2.75,1,1.14,1.56,1.56.33.24.89.49.73,1a1.51,1.51,0,0,1-.74.83.05.05,0,0,0,0,.1h.11a1.24,1.24,0,0,0,.6-.07c-.25.56.23,1.21.75,1.47a1.57,1.57,0,0,0,.76.39s.07-.05,0-.08c-.42-.21-.65-.37-.68-.87a1.75,1.75,0,0,1,.38-1.08,10.53,10.53,0,0,1,1.65-1.4c1-.9.27-2.21-.4-3.13a2.65,2.65,0,0,0,1.36.07s0-.08,0-.09l-.18,0a1.45,1.45,0,0,1-.84-.67,2.12,2.12,0,0,1,.07-1.62c.43-1,1.54-1,2.09-1.86C113.08,65,111.82,63.44,110.86,62.7ZM8.85,16.88a7.8,7.8,0,0,1-2.31-.05,4.28,4.28,0,0,1-2-.49c-.46-.33-.37-.83.05-1.17a8.76,8.76,0,0,1,2.11-1.08,13.37,13.37,0,0,0,2.63-1.78,19.53,19.53,0,0,1,2.83-1.74,15.34,15.34,0,0,1,2.64-.91,9.16,9.16,0,0,0-1.93,2.74,5.62,5.62,0,0,1-1.42,2.54c-.5.45-1,.83-1.54,1.28A2.44,2.44,0,0,1,8.85,16.88Zm6.29,4.36c-.49.31-1.47.84-2,.47-.35-.22-.48-.58-.72-.9a1.87,1.87,0,0,0-1.6-.72c-.21,0-1.32.08-1-.46s1-.91,1.42-1.31a8.43,8.43,0,0,0,1-1.49,0,0,0,0,1,0,0c.09-.22.21-.44.46-.48s.53.26.69.43a4.21,4.21,0,0,0,1,.85c.64.36,1.16.57,1.29,1.36S15.91,20.75,15.14,21.24Zm6.93-.2a1.77,1.77,0,0,1-1.5-1.23,1.37,1.37,0,0,0-.27.76,4.26,4.26,0,0,0,.13.64c.05.32-.16.5-.43.64-.66.37-1.69-.28-2.27-.56s-1.44-.56-1.48-1.43.24-1.77,1.09-1.95h.06a5.27,5.27,0,0,1,.51-.19c.5-.17,1-.3,1.53-.48s.93-.36,1.11-.8l0-.16a.1.1,0,0,1,.09-.12c1,.11,1.48,1.28,1.81,2a3.85,3.85,0,0,1,.26.79,1.67,1.67,0,0,0,.28.88c.23.27.61.54.72.89C23.85,21.36,22.27,21.08,22.07,21ZM24,17c-.37-.33-.64-.75-1-1.07s-1-.54-1.47-.89c-.73-.55-.84-1.41-1.15-2.21a6.67,6.67,0,0,0-.94-1.85,14.5,14.5,0,0,0-.91-1.16,8.51,8.51,0,0,1,2.11.64,20.21,20.21,0,0,1,2.27,1.27,37.25,37.25,0,0,1,3.31,3c-.08-.19-.27-.59-.35-.78a.08.08,0,0,1,.06-.11,3.53,3.53,0,0,1,2.7.77c.49.36,1.22,1.09,1.11,1.77s-1,1-1.79,1.12a6.71,6.71,0,0,1-2,.12A3.25,3.25,0,0,1,24,17Z"/><path class="cls-7" d="M3.55,15.8a2.83,2.83,0,0,0-.36.59C4.25,14.92,6,14,7.42,13a3.4,3.4,0,0,0-1.18.2.11.11,0,0,1-.11,0C5.73,12.44,5.05,10.63,4,11c-.58.17-.85.72-1.1,1.22a2.78,2.78,0,0,0-.23,1.65c0,.31,0,.62-.36.75a.62.62,0,0,1-.65-.12,1.11,1.11,0,0,1-.17-1.39,2.36,2.36,0,0,0-1,.36,1.36,1.36,0,0,0-.44.52h0c.21-.07.41-.21.62-.29a1.29,1.29,0,0,1,.21-.06A1,1,0,0,0,.71,14a1.6,1.6,0,0,0,.45,1.26,3.21,3.21,0,0,0,1.16,1c.44.12.6-.17,1.16-.46Z"/><path class="cls-7" d="M2.84,12.24a2.28,2.28,0,0,0,0,.44,1,1,0,0,0,.62,1c.16.06.33.1.5.15a.1.1,0,0,1,0,.15,1.91,1.91,0,0,0-.25.33A2.5,2.5,0,0,1,4.09,14a.09.09,0,0,1,.13.1c-.07.25-.15.49-.21.75.26-.29.54-.55.77-.85a2.66,2.66,0,0,1,.53-.53l-.17-.33A.1.1,0,0,1,5.22,13a5.26,5.26,0,0,1,.89,0C5.71,12.38,5,10.64,4,11c-.58.17-.85.72-1.1,1.22Z"/><path class="cls-7" d="M34.59,13.6a1.29,1.29,0,0,0-.16-.17,2.93,2.93,0,0,0-1.53-.68,4.65,4.65,0,0,1,.61.72.09.09,0,0,1-.12.13,3.34,3.34,0,0,1-.6-.37c-.22-.21-.29-.66-.5-.88-.77-.81-1.71,0-2.33.66-.24.23-.6.84-1,.84s-.82,0-1.23-.06a4.88,4.88,0,0,1,2.36,3.14,1.88,1.88,0,0,0,0-.33,1.3,1.3,0,0,0,1.17.47,5.56,5.56,0,0,0,1.47-.67,2.09,2.09,0,0,0,1-.93A1.47,1.47,0,0,0,33.46,14l.22.11c.18.1.35.3.54.35l.09.2s.06,0,.06,0a1.93,1.93,0,0,0-.45-1.4l.18.05A1.93,1.93,0,0,1,34.59,13.6Z"/><path class="cls-7" d="M29.64,14.26a4.42,4.42,0,0,1,.47.39,8.92,8.92,0,0,0,1.37,1.08,1.64,1.64,0,0,1-.1-.38.09.09,0,0,1,.11-.11c.2.07.59.49.77.27a1.91,1.91,0,0,0,.36-1.27c0-.07.1-.13.15-.06a1.71,1.71,0,0,1,.2.27,8.55,8.55,0,0,0-.18-1.22h0c-.22-.21-.29-.66-.5-.88-.77-.81-1.71,0-2.33.66-.16.15-.37.47-.61.67A.55.55,0,0,0,29.64,14.26Z"/><path class="cls-7" d="M111.86,62.08h0c-.45,0-.88.06-1.17-.34a1,1,0,0,1,.06-1.33c.35-.39.78-.66,1-1.09-.15.13-.28.18-.45,0s-1,.6-1.21.71c-.06,0-.12-.06-.11-.11a4.73,4.73,0,0,0,.14-1,4.62,4.62,0,0,0-.77,1,.09.09,0,0,1-.17,0c0-.35,0-.69,0-1a2.2,2.2,0,0,0-.17,1.91,3.52,3.52,0,0,1,.16,1.67c0,.1-.14.08-.17,0-.29-.88-1.13-1.57-1.34-2.47a1.82,1.82,0,0,0,.21,1.34.09.09,0,0,1-.12.12c-.61-.32-1.76-.58-1.88-1.41a2.4,2.4,0,0,1,.29-1.4,2,2,0,0,0-.77,1.91c.19.6,1,1.3.29,1.86-.06,0-.15,0-.15-.06a2.23,2.23,0,0,0-.15-.86,2.28,2.28,0,0,1-.44,1.18.09.09,0,0,1-.15-.1c.53-1.26-.69-1.8-1.07-2.85a1.18,1.18,0,0,1,.09-1.1.08.08,0,0,1,0-.1,2.79,2.79,0,0,1,1.52-.83c.41-.12,1.57-.3,1.69-.81.08-.35-.34-.69-.58-.87s-.74-.4-.9-.73.22-.44.39-.52c.44-.23,1-.33,1.4-.57a.84.84,0,0,0,.43-.69,4.83,4.83,0,0,0-.17-1.2c-.22-.84-.54-1.64-.8-2.46-.33-1-.64-2.07-1-3.09a23,23,0,0,0-1.45-3.29,12.5,12.5,0,0,1-1.34-2.75A8.49,8.49,0,0,1,102.8,38a6.75,6.75,0,0,1,.12-1.32s0-.07,0-.1c.1-.88.17-1.76.27-2.64,0-.23,0-.45.08-.67-.05.21-.09.42-.14.63-.26,1.11-.62,2.19-1,3.28s-.69,2.38-1.1,3.56-.85,2.34-1.28,3.51c-.88,2.33-1.69,4.66-2.39,7A50.39,50.39,0,0,0,96,57.24l0,.29a10.27,10.27,0,0,1-.46,2.53c-.2.56-.56,1.26-1.23,1.36a2.53,2.53,0,0,1-2-1c-.76-.76-1.47-1.59-2.22-2.36-3.41-3.49-7.3-7.16-8.54-12.08a8.74,8.74,0,0,1,.54-6,7.55,7.55,0,0,1,2.73-3.26l-.76.12c-.08,0-.16-.09-.08-.15a6.35,6.35,0,0,1,2.6-1.38c-.57.05-1.14.11-1.72.19a.09.09,0,0,1-.08-.15,8.24,8.24,0,0,1,2.36-1.59l.15-.06a9.09,9.09,0,0,0-1.35.4,6.46,6.46,0,0,0-2.79,2.25,1.08,1.08,0,0,1,.44-.09l0,0c.09-.07.18.09.09.15h0a.08.08,0,0,1-.08.05c-.56.37-1.13.74-1.65,1.16a5,5,0,0,0-1.17,1.21,3.28,3.28,0,0,1,2.15-.91.1.1,0,0,1,.06.16c-1.21,1.21-1.6,2.9-2.35,4.39a6.12,6.12,0,0,1-1.36,1.9,19.4,19.4,0,0,1-2,1.39,18.75,18.75,0,0,0-2.89,2.74,20,20,0,0,1-2.52,2.6,4.25,4.25,0,0,1-2.69.93c-.48,0-1-.09-1.44-.15a2.53,2.53,0,0,1-1.07-.3c-.74-.46-.52-1.41-.34-2.12a17.17,17.17,0,0,0,.44-3.64,14,14,0,0,0-1.74-7.32.09.09,0,0,1,.12-.12,5.91,5.91,0,0,1,1.18.85,22.38,22.38,0,0,0-2.14-3.44.09.09,0,0,1,.1-.13,3,3,0,0,1,1.18.59c-1.29-1.61-2.81-3.32-4.9-3.49a13.08,13.08,0,0,1,1.6.77.09.09,0,0,1,0,.17h-.68a4.69,4.69,0,0,1,1.72,1,.09.09,0,0,1-.11.14,3.83,3.83,0,0,0-1.49-.35h0l.11.07a.06.06,0,0,1,0,.08,11,11,0,0,1,2.75,5.57,13.07,13.07,0,0,1,.18,5.9,18.08,18.08,0,0,1-2.89,6.19,43.85,43.85,0,0,0-4.2,6.2c-.49,1-.75,2.16-1.28,3.15a1.7,1.7,0,0,1-1.45,1.08c-1.67-.08-1.73-2.18-2.61-3.19-1.41-1.63-3.56-2.45-5.34-3.58s-3.55-2.32-4.39-4.19c-1-2.23-.47-4.52-.16-6.83a20.81,20.81,0,0,1,1.53-6.62A34.91,34.91,0,0,1,47,33.26c-.28.24-.55.48-.84.71l-.45.33A21.11,21.11,0,0,0,41,43a2.59,2.59,0,0,1-.09.4L41,43a14.19,14.19,0,0,0,.18-2.34,8.86,8.86,0,0,1-2.29,4.16,7.15,7.15,0,0,1-3.53,1.85,10.33,10.33,0,0,1-3,0l.45.24a.09.09,0,0,1,0,.17,19.71,19.71,0,0,1-10.63-2.82A6.28,6.28,0,0,0,23.82,46l.32.15c.09.05,0,.2-.07.16h0l-.25-.13A25.53,25.53,0,0,1,21,44.73a18,18,0,0,1-2.23-1.67,23.06,23.06,0,0,1-3.89-4.42c-.32-.48-.61-1-.88-1.45a24.19,24.19,0,0,1-4.14-9.67c-.21,2.86,1,5.73,2.19,8.6.67,1.43,1.38,2.85,2.16,4.22,2.06,3.66,5,7.17,8.85,9a3.15,3.15,0,0,0,.84,2,1.22,1.22,0,0,0,.18.36c0,.05.1,0,.08,0A2.85,2.85,0,0,1,24.07,50c.16.87,1,1.48,1.76,2a.82.82,0,0,0,.26.14c.05,0,.1-.05.05-.09a1.94,1.94,0,0,1-.58-1.45,3.76,3.76,0,0,0,.94.52,14.82,14.82,0,0,0,2.07.7,40.27,40.27,0,0,0,4.79.66,20.11,20.11,0,0,0,4.58.26A9.52,9.52,0,0,0,41.75,51c.66,2.3,2.94,3.91,4.83,5.18a3.59,3.59,0,0,0,1.2.65,1.73,1.73,0,0,0-.33,1.44v0s0,0,0,0,0,.1.06.07A4.74,4.74,0,0,1,48.58,58a1.7,1.7,0,0,0,.22,1,.2.2,0,0,1,0,.07c0,.06.09.1.12,0a1.08,1.08,0,0,1,.3-.43,1.17,1.17,0,0,1,.47-.21s0,0,0,0a10.35,10.35,0,0,1,1,.84,3.48,3.48,0,0,1,.91,1.53,27.51,27.51,0,0,1,.84,3.7c.26,1.37.51,2.75.78,4.13s.55,2.47.77,3.72a2.11,2.11,0,0,1-.09.78c-.07.22-.28.34-.3.58,0,.39.43.75.82,1,.36,1.12.15,2.6.07,4.51-.08,1.65-.27,3.2-.37,4.85,0,.86-.2,1.79-.24,2.65s-.15,1.82-.2,2.72c-.09,1.69-.54,1.54-.31,2.22a1.53,1.53,0,0,0,.67.73,5.51,5.51,0,0,1-.79.44c-.3.13-.64.14-.93.26l0,0h-.15s-.06.07,0,.08a6.51,6.51,0,0,0,.71.33,3.41,3.41,0,0,0,.85.1,2,2,0,0,0,1-.16,2.79,2.79,0,0,0-.35.77s0,0,0,0a.05.05,0,0,0,0,0,.11.11,0,0,0,.16,0l.11-.15c.44-.24,1.08-.37,1.35-.77.31.5,1.1.63,1.62.74h0a.49.49,0,0,0,.16,0s.09-.06,0-.09a1.07,1.07,0,0,1-.34-.44s0,0,0-.08a2.25,2.25,0,0,0,1-.27l0,0h0c.06,0,.06-.09,0-.1l-.43-.2a.85.85,0,0,0,.42-.19,0,0,0,0,0,0,0l.08,0a.06.06,0,0,0,0-.11,1.28,1.28,0,0,1-.81-.23c-.22-.18-.08-.43,0-.65a.9.9,0,0,0,.48-.55,3.08,3.08,0,0,0-.36-1.75,19.47,19.47,0,0,1-1-5.51,56,56,0,0,1-.08-5.8c0-.82.06-1.64,0-2.45a5.17,5.17,0,0,1,.08-1.84,2.8,2.8,0,0,0,.73-1.67A3.57,3.57,0,0,0,57,70.89a5.57,5.57,0,0,1-.1-2.08,24.24,24.24,0,0,1,.62-6.69,53.6,53.6,0,0,1,3.06-5.93l.1-.15a19.12,19.12,0,0,0,4.82.6,8.46,8.46,0,0,0,2.64-.5,7.91,7.91,0,0,0,2.53-1.67c1.7-1.53,3.18-3.31,4.76-4.95s3.17-3.37,5.27-4.23c0,.23,0,.46.06.7A8.82,8.82,0,0,0,82,49.28a46.85,46.85,0,0,0,4.63,6.63c.85,1.06,1.73,2.1,2.55,3.19s1.44,2,2.18,3a21.22,21.22,0,0,1,1.59,2.4,12.24,12.24,0,0,1,.93,2.69,1.94,1.94,0,0,1,0,.24,12.25,12.25,0,0,1-.54,1.58,1.88,1.88,0,0,0,1,1.74,10.51,10.51,0,0,1-.49,4.48c-.45,1.6-1,3.19-1.53,4.76a40.47,40.47,0,0,1-2,4.83,5.15,5.15,0,0,1-2.87,2.9.15.15,0,0,0-.11.15c-.34.46-.1,1.2.07,1.68a1.92,1.92,0,0,1,.18,1.26,2.35,2.35,0,0,1-1,1.15s0,0,0,0l-.11,0h-.28s0,.07,0,.08a2.94,2.94,0,0,0,2.29-.54,2.78,2.78,0,0,1-.66.83s0,.07,0,.06l.08,0s0,0,0,0A5.92,5.92,0,0,0,90,91.74c.09.49.77.81,1.17,1h0a.38.38,0,0,0,.26.1s0,0,0,0a.89.89,0,0,1-.23-.69c.31-.61,1-.86,1.29-1.48s-.17-1.21-.49-1.76a17.06,17.06,0,0,1,1.22-4.33c.75-1.93,1.47-3.87,2.23-5.8S97,74.9,97.85,73a21.61,21.61,0,0,1,1.47-2.72,3.94,3.94,0,0,0,.51-1,1.45,1.45,0,0,0,0-.51.11.11,0,0,0,0-.08,8,8,0,0,0-1-3.28,15.54,15.54,0,0,1-1.4-3.34c-.63-2.6,0-5.43.41-8,.19-1.41.4-2.82.68-4.21A32.84,32.84,0,0,1,99.8,45.6q.7-2,1.44-4.05c.13-.35.26-.71.38-1.06a10.49,10.49,0,0,1,1.29,1.91c.71,1.24,1.36,2.51,2,3.8A29.28,29.28,0,0,1,106.29,50c.19.67.36,1.35.5,2a2.78,2.78,0,0,1-.05,1.78,2.89,2.89,0,0,1-.95.45c-.42.13-1,.3-1.26.72s.12.8.45,1.07a.69.69,0,0,1-.19,1.25l-.84.32c-1,.4-2,1.26-1.46,2.43.34.66,1,1.14,1.3,1.82a1.16,1.16,0,0,1-1.39,1.7.08.08,0,0,0-.08.13,1.11,1.11,0,0,0,.24.16,1.78,1.78,0,0,0,.81.39,1.46,1.46,0,0,0,.55,0,4.21,4.21,0,0,0-.82,1.44,1.93,1.93,0,0,0-.11,1.54c.53,1,1.92.76,2.58,1.55.43.82-.77,1.94-.53,2.86a2,2,0,0,0,.2.44,1.94,1.94,0,0,1,.82-1.84.08.08,0,0,1,.13,0c.06.4-.16,1.23.38,1.27,0-.14,0-.28-.06-.42s.09-.17.15-.09a1.25,1.25,0,0,0,2.16-.58.09.09,0,0,1,.17,0,1.79,1.79,0,0,1,.17,1.54,2.24,2.24,0,0,0,.42-.72.09.09,0,0,1,.13,0c.46.28.4.86.47,1.34.35-.13.43-.53.39-.94a5.51,5.51,0,0,0-.75-1.29,2.65,2.65,0,0,0,1.36.07s0-.08,0-.09l-.18,0a1.45,1.45,0,0,1-.84-.67l0-.08a1.72,1.72,0,0,1-.61-.91,2.66,2.66,0,0,1,.27-1.87,2.72,2.72,0,0,0-.78,1.53c0,.09-.16.13-.18,0a3,3,0,0,1,.13-1.71c-.78.67-1.49,1.79-.94,2.76,0,.07-.05.18-.13.12a1.51,1.51,0,0,1-.66-1.46c.07-.65.72-1,.86-1.64.1-.42-.17-.35-.42-.21a6.1,6.1,0,0,1-.57.29.92.92,0,0,1-1,0,2.36,2.36,0,0,0-.17,1,.09.09,0,0,1-.11.09,2.46,2.46,0,0,1-1-.57,1.92,1.92,0,0,0,.71,1c.07.07,0,.16-.09.15-.76-.11-1.6-.48-1.67-1.35a2.6,2.6,0,0,1,0-.56s-.1-.07-.06-.13.14-.26.21-.4a4.78,4.78,0,0,1,.68-1.16.11.11,0,0,1,.13,0c.23-.17.53-.33.77-.19.48.3.75,1.27,1.47.85a3.48,3.48,0,0,0,1.19-1.44.09.09,0,0,1,.16,0c0,.33,0,.66.07,1,.24-.26.47-.71.86-.62a.18.18,0,0,1,.08.07c.08.13.25.17.39.23.36.16.38,0,.52-.38,0,0,.08-.09.13,0,.28.2,1.28,1.18,1.4.34a1.83,1.83,0,0,0-.16-.92,5.19,5.19,0,0,0-.8-.77,2,2,0,0,0,1-.48h0a.07.07,0,0,0,0-.07S111.9,62.07,111.86,62.08Z"/><path class="cls-7" d="M108.19,76a.28.28,0,0,1,0-.09.89.89,0,0,1,0-.71,9.12,9.12,0,0,1,.58-1.12,2.1,2.1,0,0,0,.33-.87,1.77,1.77,0,0,1-.45.65.09.09,0,0,1-.15-.06,2.18,2.18,0,0,0-.32-1.17,3.34,3.34,0,0,1,0,.62c0,.07-.12.08-.16,0a1.45,1.45,0,0,0-.47-.54,2,2,0,0,1-.74,2.45,1.51,1.51,0,0,0,.51-.08c-.25.56.23,1.21.75,1.47a1.57,1.57,0,0,0,.76.39s.07-.05,0-.08C108.45,76.64,108.22,76.48,108.19,76Z"/><path class="cls-7" d="M110.11,56.13a3.72,3.72,0,0,1,1.2,1c-.15-.3-.31-.59-.45-.86a3,3,0,0,0-1.5-1.45,2,2,0,0,0,1.23-.55.06.06,0,0,0-.07-.1l-.3.1h0c-.68.21-1.4.24-2.1.4a2.19,2.19,0,0,1,.46.31c.07.06,0,.17-.09.15a2.29,2.29,0,0,0-1.16-.06,2.79,2.79,0,0,1,1.5,1.5,4,4,0,0,0-.09-1c0-.06,0-.14.11-.11a3,3,0,0,1,1.25.93c0-.07,0-.13-.07-.2S110,56.1,110.11,56.13Z"/><path class="cls-7" d="M28,20.31a4.78,4.78,0,0,1,1.35.23,7.24,7.24,0,0,1-.76-.9c0-.06,0-.12.08-.13a2.18,2.18,0,0,1,.51,0,2.83,2.83,0,0,0-.59-.47,7.81,7.81,0,0,0,1.16-1.28,5.13,5.13,0,0,1-2,1.12c-1.12.39-2.46.72-3.48-.1a5.36,5.36,0,0,1-1.11-1.31,5.85,5.85,0,0,0-1.16-1.32,4,4,0,0,1-1.06-1.08c-.12-.2-.22-.41-.32-.62a1.73,1.73,0,0,1-.21,1.25c1.62.27,2.76,2.3,2.91,3.79a4.64,4.64,0,0,0,.69,1c.31.4.39.84-.19,1a4.17,4.17,0,0,1-2.07-.22,1.45,1.45,0,0,1-.93-.82,1.87,1.87,0,0,0,.05.87.79.79,0,0,1-.11.58,1.09,1.09,0,0,1-1,.4,5.38,5.38,0,0,1-1.73-.44c-.53-.24-1.17-.83-1.78-.76-1.07.13-1.67,1.28-2.72,1.43a1.19,1.19,0,0,1-1-.28,5.54,5.54,0,0,0-1-.87,1.82,1.82,0,0,1,.31.79.1.1,0,0,1-.14.08c-.36-.24-.81-.37-1.19-.61A9.4,9.4,0,0,1,9.29,21c-.66-.57-.25-1.18.31-1.72.73-.69,1.38-.86,2.05-2.13.54-1,1.44-1.29,2.11-2.2-.28-.1-.76-.75-1-.57a2.15,2.15,0,0,0-.61,1,6.81,6.81,0,0,1-3,3.29c-.36.18-.73.32-1.1.49-.14.07-.35.2-.51.16-.48-.12-.31-1-.32-1.44a2.75,2.75,0,0,1-2.53.46,6.76,6.76,0,0,1-1.28-.46,2.58,2.58,0,0,0,.45.35,7.08,7.08,0,0,0,2.77,1.16,3.66,3.66,0,0,0-1,2,.85.85,0,0,0,0,.29,0,0,0,0,0,.06,0,1.64,1.64,0,0,1,1-.7,3.25,3.25,0,0,0-.56,2A4,4,0,0,1,7.2,21.4c.07-.06.2,0,.14.11s-.18.3-.26.45c1.54-1.47,2.93.64,3.19,1.91A4.26,4.26,0,0,0,11.4,26c.09.12-.68.34-.65,1A1.45,1.45,0,0,1,12,26.55s-.9.44-.77,1.27c.4-.65,1.06-.69,1.18-.52a8.86,8.86,0,0,0,1.91,2.18,6,6,0,0,0,5.12.56,4.7,4.7,0,0,0,2.66-2.61.76.76,0,0,1,.87.06,1.84,1.84,0,0,0-.42-.51,2.16,2.16,0,0,1,.87.15c-.12-.28-.22-.54-.56-.64-.06,0,.41-.7.76-1.55.59-1.46.86-1.69,1.73-2,.63.84,3.23,5.8,2.36,3.29-.26-.75-.13-2.27-1.46-4,0,0,.08-.07.13,0l.23.13a2.51,2.51,0,0,0-.52-.57c-.08-.07,0-.18.11-.14a15.33,15.33,0,0,1,1.85,1,2.73,2.73,0,0,0-1.14-1.37.09.09,0,0,1,.05-.17,10.13,10.13,0,0,1,1.74.25c-.22-.33-.54-.59-.78-.9A.09.09,0,0,1,28,20.31Z"/><path class="cls-7" d="M49.66,11.16A18.43,18.43,0,0,1,53.75,13a7.78,7.78,0,0,0,2.17.85,10.47,10.47,0,0,0,2.62.15,22.07,22.07,0,0,0,4.71-.85c-1,0-1.89.13-2.84.15-1.15,0-2.62.07-3.56-.71-1.09-.91-.75-2.48-.35-3.65.79-2.29,2.41-5,4.67-6.37l-.65.3A12.76,12.76,0,0,0,57.27,5,14.11,14.11,0,0,0,54.74,8.3c-.39.65-.75,1.32-1.14,2s-.8,1.13-1.15,1.71a13.1,13.1,0,0,0-2.3-1,4.24,4.24,0,0,0-2.66,0A7,7,0,0,1,49.66,11.16Z"/><path class="cls-7" d="M89.1,18.28a19.38,19.38,0,0,0,4.82,2.45l-.53-.29a10.12,10.12,0,0,1-3.51-2.67c0-.06,0-.12.08-.13a6.94,6.94,0,0,1,3.22.85c1.22.47,2.45.9,3.69,1.32l-.43-.22c-1.94-1-4-1.91-5.93-2.87a19.8,19.8,0,0,1-5.08-3.09l-.53-.7A16.71,16.71,0,0,0,89.1,18.28Z"/><path class="cls-9" d="M6.85,12.32s.11,0,.08-.06a9.44,9.44,0,0,0-1.31-1.94c.48-.28.9-.65,1.38-.93a6.7,6.7,0,0,0,.93-.53,2.7,2.7,0,0,0-.11.84,0,0,0,0,0,.09,0,7,7,0,0,1,.88-2c.6-.82,1.39.34,1.78.77,0,0,.09,0,.07,0a3.69,3.69,0,0,0-.68-1l1.19-.77.44-.41a10.38,10.38,0,0,1,1-.83,13.09,13.09,0,0,0-2.79,1.9A.93.93,0,0,0,9,7.18c-.44.13-.67.68-.85,1.05a1.54,1.54,0,0,1-.08.19c-.42.22-.82.5-1.23.74a5.05,5.05,0,0,0-1.29,1.1L5.33,10a4.54,4.54,0,0,0-.74-.64A14.35,14.35,0,0,1,6.33,11.6C6.51,11.83,6.68,12.07,6.85,12.32Z"/><path class="cls-9" d="M24.4,8l-.15.11a3.12,3.12,0,0,0-.89,1.2,0,0,0,0,0,.05,0c.47-.54,1.21-1.51,2-1.41a1.35,1.35,0,0,1,.8.66h0c.27.54.52,1.06.75,1.62,0,0,0,0,0,0a2,2,0,0,0-.09-.63c.36.39.73.77,1,1.19a1.46,1.46,0,0,1,.38,1,.7.7,0,0,1-.1.34,4.45,4.45,0,0,0-.71,1,0,0,0,0,0,.06,0l.32-.36a2.44,2.44,0,0,0,.27-.29c.1-.11.2-.21.31-.31a10.28,10.28,0,0,1,1.11-1.28l-.15.12a7.67,7.67,0,0,0-.88.72,1.19,1.19,0,0,0-.15-.77,4,4,0,0,0-.72-.91,4.87,4.87,0,0,0-.89-.81,2.19,2.19,0,0,0-1.34-1.65,1.12,1.12,0,0,0-.82.19C23.81,7.24,22.93,6.69,22,6.2a14.51,14.51,0,0,1,1.82,1.41Z"/><path class="cls-9" d="M3.55,15.8a2.28,2.28,0,0,0-.48,1,5.26,5.26,0,0,1,1.31-1.53l.07-.09a8.32,8.32,0,0,1,2.17-1.59s0-.07,0-.06a5.91,5.91,0,0,0-2.74,1.9l-.21.16-.11.07c-.27.1-.49.28-.76.39s-.82-.36-1.08-.61c-.61-.58-1-1.33-.26-2,0,0,0-.08,0-.07H1.32l0,0c-.2-.1-.49,0-.69.09a2.23,2.23,0,0,0-.35.17c.12-.3.18-.62.32-.92a2,2,0,0,1,1.1-.87,0,0,0,0,0,0-.09H1.49v0c-.14-.14-.38-.06-.55,0a1.11,1.11,0,0,0-.29.14l.14-.26a.08.08,0,0,1,0-.12,15.91,15.91,0,0,1,1-1.76,2.33,2.33,0,0,0-.31.32,5.25,5.25,0,0,0-1,2l0,0a.06.06,0,0,0,0,.08s0,0,.06,0h0a1.57,1.57,0,0,0,.23-.09l-.15.15a2.51,2.51,0,0,0-.46,1.52.64.64,0,0,0-.08.14A0,0,0,0,0,.06,14c.21-.07.41-.21.62-.29a1.29,1.29,0,0,1,.21-.06A1,1,0,0,0,.71,14a1.6,1.6,0,0,0,.45,1.26,3.21,3.21,0,0,0,1.16,1c.44.12.6-.17,1.16-.46Z"/><path class="cls-9" d="M29.06,15a3.15,3.15,0,0,1,1,2.23,1.79,1.79,0,0,0,.14-.63,1.3,1.3,0,0,0,1.17.47,5.56,5.56,0,0,0,1.47-.67,2.09,2.09,0,0,0,1-.93A1.47,1.47,0,0,0,33.46,14l.22.11c.18.1.35.3.54.35l.09.2s.06,0,.06,0a1.93,1.93,0,0,0-.45-1.4l.18.05a2.51,2.51,0,0,1,.76.48s.13,0,.11-.08a.57.57,0,0,0-.11-.22,6.29,6.29,0,0,0-1.17-2.25c.27.49.52,1,.74,1.5a.09.09,0,0,1,0,.1l.25.47A2,2,0,0,0,33.31,13s-.05.06,0,.07l.1,0s0,0,0,0a2.45,2.45,0,0,1,.56.72A.61.61,0,0,0,34,14L33.91,14a1.52,1.52,0,0,0-.82-.13,0,0,0,0,0,0,0l.22.09a2.08,2.08,0,0,1,.11,1.45,1.9,1.9,0,0,1-.9.78c-.32.17-.65.32-1,.48-.59.28-.94,0-1.4-.31a3.89,3.89,0,0,0-2-2.41s-.06,0,0,.06C28.42,14.32,28.76,14.65,29.06,15Z"/><path class="cls-9" d="M28.31,19.27h.05a1.52,1.52,0,0,1,1,.51,2.9,2.9,0,0,0-.81-.72c.26-.25.52-.5.77-.78-.37.3-.77.57-1.13.82a12.86,12.86,0,0,1-1.09.86c-.24.16-1.09.62-1.34.79a5.3,5.3,0,0,0,.57-.24A6.73,6.73,0,0,0,28.31,19.27Z"/><path class="cls-10" d="M31.21,31.17a12.52,12.52,0,0,0,6.13,2.42,31.26,31.26,0,0,1-3.14-1,12.47,12.47,0,0,1-1.93-1.05c-1.24-.83-.33-.67.14-.79A3.8,3.8,0,0,0,34,29.52a10.63,10.63,0,0,0,1.64-3.21c.26-.73.6-1.47.82-2.24a30.49,30.49,0,0,1-2,4.73c-.83,1.29-2.12,2.2-3.66,1.7a11.69,11.69,0,0,1-2.43-2.68,4.6,4.6,0,0,1-.73-.93A14.54,14.54,0,0,0,31.21,31.17Z"/><path class="cls-10" d="M110.86,62.7a2,2,0,0,0,1-.48h0a.07.07,0,0,0,0-.07s0-.08,0-.07h0c-.45,0-.88.06-1.17-.34a1,1,0,0,1,.06-1.33c.48-.54,1.12-.84,1.07-1.66a6.41,6.41,0,0,0-.94-2.48,3,3,0,0,0-1.5-1.45,2.23,2.23,0,0,0,1.1-.42,2.81,2.81,0,0,1-1.25.24l-.58.17s0,.08,0,.08l.5,0a3.91,3.91,0,0,1,1.8,2.17,10.08,10.08,0,0,1,.51,1.39,1.23,1.23,0,0,1-.52,1.39c-.58.5-1,.92-.72,1.72a1,1,0,0,0,1.1.76l-.27.11A.92.92,0,0,1,109.9,62s-.12,0-.09,0a.89.89,0,0,0,.8.63,8.07,8.07,0,0,1,1.44,1.9,1.49,1.49,0,0,1,.07,1.3c-.22.48-.82.71-1.25,1a2.37,2.37,0,0,0-1.11,2.33,1.23,1.23,0,0,0,.67,1c-.67-.11-1.35-.26-1.64-.92,0,0-.07,0-.06,0a1.38,1.38,0,0,0,.85,1,5.19,5.19,0,0,1,.87,2.14c0,.82-1.1,1.33-1.64,1.78a2.35,2.35,0,0,0-.93,1.65,1.85,1.85,0,0,0,0,.25c-.27-.31-.53-.62-.26-1a.11.11,0,0,0,0-.11,1.38,1.38,0,0,0,.72-1.6s-.08,0-.07,0a1.59,1.59,0,0,1-.6,1.21,1.8,1.8,0,0,1-.4.23,1.55,1.55,0,0,0,.36-.89c0-.33-.39-.58-.62-.74A7.35,7.35,0,0,1,105.56,72c-.58-.69.1-1.59.31-2.29a1,1,0,0,0-.29-1.2c-.42-.54-1.26-.65-1.86-1-1.23-.67-.09-2.49.5-3.35a1.13,1.13,0,0,0,.61-.64s0-.07-.06,0a1.51,1.51,0,0,1-1.35.44.58.58,0,0,1-.18,0,1.29,1.29,0,0,0,.61-.36,1.62,1.62,0,0,0,.17-1.93c-.36-.73-1.2-1.27-1.37-2.09s.78-1.36,1.4-1.63a2.27,2.27,0,0,0,1.35-1c.31-.67-.26-1-.6-1.48s1.31-1,1.61-1.15l.19-.1a.09.09,0,0,0,.12,0,1.33,1.33,0,0,0,.14-.19,1.13,1.13,0,0,0,.37-.83,0,0,0,0,0-.06,0l0,.09a6.51,6.51,0,0,0-.4-2.54,28.71,28.71,0,0,0-1.51-4.32,43.13,43.13,0,0,0-2-4,7.75,7.75,0,0,0-1.51-2.13,10.43,10.43,0,0,0,.59-2.48.86.86,0,0,0,0-.16s0,0,0,0a25.44,25.44,0,0,1-1.35,4c-.5,1.34-1,2.7-1.44,4.05a31,31,0,0,0-1.17,4c-.3,1.39-.49,2.8-.69,4.21-.34,2.54-.91,5.16-.54,7.73.36,2.41,2,4.36,2.5,6.75a1.79,1.79,0,0,1,0,.4.1.1,0,0,0,0,.1,2.23,2.23,0,0,1-.15.63,12.83,12.83,0,0,1-.84,1.32,17.26,17.26,0,0,0-1.29,2.58c-.81,1.9-1.54,3.84-2.3,5.76s-1.44,3.77-2.17,5.65c-.3.74-.57,1.5-.8,2.27a8,8,0,0,0-.31,1.41.09.09,0,0,0-.07.09.94.94,0,0,0,.05.3,2.13,2.13,0,0,0,0,.44.15.15,0,0,0,.22.1c.26.47.55.92.13,1.43-.24.28-.56.49-.78.76a1.28,1.28,0,0,0,0-.39,0,0,0,0,0-.08,0,1.72,1.72,0,0,0-.22,1.3c-.32-.27-.74-.46-.88-.87l.09-.15c0-.06,0-.12-.11-.08a4.81,4.81,0,0,1-1.16.57l-.55.19a1.74,1.74,0,0,0,.44-.94l0,0a.1.1,0,0,0,0-.12.05.05,0,0,0-.05,0,.11.11,0,0,0-.08,0A5.07,5.07,0,0,1,87,92a2,2,0,0,0,1-1.49,2.87,2.87,0,0,0-.29-1.14,2.39,2.39,0,0,1-.12-1.29s0,0,0,0a5.06,5.06,0,0,0,2.8-2.6,30,30,0,0,0,2.17-5.16c.55-1.65,1.08-3.32,1.57-5a8.56,8.56,0,0,0,.42-4.42,1.12,1.12,0,0,0,.35.12c.17,0,.21-.19.08-.27a3.17,3.17,0,0,1-1.16-1c-.36-.58.1-1.18.29-1.73a2.18,2.18,0,0,0,.11-.52.14.14,0,0,0,0-.07v0a3.07,3.07,0,0,0-.33-1.56,0,0,0,0,1,0,0,8.68,8.68,0,0,0-.71-1.59,25.84,25.84,0,0,0-2-3c-.77-1-1.47-2.12-2.26-3.14s-1.73-2.1-2.57-3.17a36.28,36.28,0,0,1-4.52-6.81,9.19,9.19,0,0,1,.12-7.34,11,11,0,0,1,2.68-3.66l.45-.06c.08,0,.1-.13,0-.14a2.23,2.23,0,0,0-1.81.49,5.46,5.46,0,0,1,1.21-1.14,8.92,8.92,0,0,1,1.73-.69.05.05,0,0,0,0-.1l-.46.06a.12.12,0,0,0-.08,0,2.63,2.63,0,0,0-1.26.24A6.31,6.31,0,0,1,87,34.08S87,34,87,34a4.17,4.17,0,0,0-3.24,2.15.07.07,0,0,0,0,.06.52.52,0,0,0-.1.11s0,.12.07.08a1.86,1.86,0,0,1,.43-.28A2.44,2.44,0,0,0,83,37.47s0,.06.06.06l-.18.16s0,.09,0,.06a4.49,4.49,0,0,1,1-.47,1.5,1.5,0,0,1,.29-.06,6.8,6.8,0,0,0-1.9,2.13A10.86,10.86,0,0,0,81,42.44,10.13,10.13,0,0,0,80.73,45h0A14.73,14.73,0,0,0,76,48.58c-1.62,1.64-3.13,3.39-4.77,5a10.2,10.2,0,0,1-2.62,2,7.25,7.25,0,0,1-2.79.68,23.24,23.24,0,0,1-5-.4,61.63,61.63,0,0,0,3.51-6A12.65,12.65,0,0,0,65.57,43a23.15,23.15,0,0,0-2.12-6.45,5.13,5.13,0,0,0-1.15-1.78,3.29,3.29,0,0,1,1.08.62s.11,0,.08-.08l-.1-.14a0,0,0,0,0,0,0,2.5,2.5,0,0,0-1.86-1.45,2.88,2.88,0,0,1,1.19.39s.1,0,.07-.08l0,0s0,0,0,0a5.72,5.72,0,0,0-1.62-1,7,7,0,0,0-2.2-.3s0,0,0,0a12.71,12.71,0,0,1,2.09.5,7.89,7.89,0,0,1,.88.41,5.39,5.39,0,0,0-.9,0h-.11a0,0,0,0,0,0,.07A4.2,4.2,0,0,1,63,34.78a2.91,2.91,0,0,0-1.17-.32,1.2,1.2,0,0,0-.38-.05l0,0h0s0,0,0,0l.11,0c.84.23,1.32,1.19,1.67,1.91s.7,1.66,1,2.5A18,18,0,0,1,65.28,43a10.57,10.57,0,0,1-.21,3.8,23,23,0,0,1-3.14,6.69l-1.48,2.39h0l-.06.08h0a41.43,41.43,0,0,0-2.27,4.2c-.18.38-.34.76-.5,1.15a.5.5,0,0,0,0,.12,9.57,9.57,0,0,0-.77,2.9,30.47,30.47,0,0,0-.22,3.82c0,.65,0,1.31,0,2a2.53,2.53,0,0,0,.46,1.46c.65,1.05-.6,1.9-.86,2.86,0,.08.07,0,.12,0s.18-.13.27-.25a14,14,0,0,0-.05,2.74c-.08,1.89-.12,3.78-.06,5.67A29.34,29.34,0,0,0,57.18,88c.17.72.42,1.39.66,2.09a1.4,1.4,0,0,1,.06,1.13.8.8,0,0,1-.13.13.09.09,0,0,0-.1,0l-.06.08a4.61,4.61,0,0,0-.57.36s0,.15.07.12l.32-.1a.63.63,0,0,0,.08.61.85.85,0,0,0,.49.27,1.11,1.11,0,0,1-.36,0l-.29-.06c-.06,0-.08.05-.05.09a1.38,1.38,0,0,0,.75.38,2.1,2.1,0,0,1-.24.06,1.24,1.24,0,0,1-.47,0,.71.71,0,0,0-.08-.15.08.08,0,0,0-.15,0,.61.61,0,0,0,0,.19,1.35,1.35,0,0,0,.17.45s0,0,0,0a2.82,2.82,0,0,1-1.24-.67c0-.06-.07-.12-.14-.07a4.78,4.78,0,0,1-.84.57,2.29,2.29,0,0,0-.27.14,3.28,3.28,0,0,0,.21-.65l0,0a.07.07,0,0,0,0-.09h0c0-.07-.08-.09-.1,0l0,0a2.86,2.86,0,0,1-1.36.27,3.47,3.47,0,0,1-.45-.06,2.16,2.16,0,0,0,1.12-.76,2.2,2.2,0,0,1,.25.17c.09.07.24,0,.15-.14a3.21,3.21,0,0,0-.51-.46c-.34-.26-.49-.4-.31-1.11a11.1,11.1,0,0,0,.28-2.29c.11-1.77.29-3.53.4-5.3.1-1.57.26-3.13.38-4.69a20.49,20.49,0,0,0-.08-3.82l.38.08c.08,0-.17-.12-.23-.2a3.17,3.17,0,0,0-.65-.49,1.21,1.21,0,0,1-.35-.43c0-.12.08-.23.14-.32a1.45,1.45,0,0,0,.17-.57.08.08,0,0,0,0,0,8.3,8.3,0,0,0-.29-2c-.18-.78-.34-1.57-.49-2.36-.31-1.48-.62-3-.9-4.46a18.71,18.71,0,0,0-.8-3.65,4.8,4.8,0,0,0-2.42-2.26s-.11.06-.06.09l.17.11a.67.67,0,0,0-.57.41,5.4,5.4,0,0,0-.14-.82.78.78,0,0,0,.15-.1,0,0,0,0,0,0-.08,2,2,0,0,0-1.29.46,2.66,2.66,0,0,0,.1-.49,3.86,3.86,0,0,1,.24-.8h0c.09,0,.71.2.65.14s-1-.52-1.18-.63-.54-.32-.81-.49c-1.86-1.23-4.09-2.94-4.68-5.19a8.66,8.66,0,0,1,0-3.17c.12-1,.24-2.08.44-3.11a28.52,28.52,0,0,1,1.68-6.16,33.13,33.13,0,0,1,3.05-5s0-.07-.05,0a22.22,22.22,0,0,0-3.33,5.09A28.85,28.85,0,0,0,42,44.67c-.2,1.07-.31,2.15-.43,3.23a8.82,8.82,0,0,0,.07,2.81.06.06,0,0,0-.05,0,6.76,6.76,0,0,1-3.71,1.78,49.51,49.51,0,0,1-9.46-.87l-.67-.1.79.23a40.27,40.27,0,0,0,4.79.66,20.11,20.11,0,0,0,4.58.26A9.52,9.52,0,0,0,41.75,51c.66,2.3,2.94,3.91,4.83,5.18a3.59,3.59,0,0,0,1.2.65,1.73,1.73,0,0,0-.33,1.44v0s0,0,0,0,0,.1.06.07A4.74,4.74,0,0,1,48.58,58a1.7,1.7,0,0,0,.22,1,.2.2,0,0,1,0,.07c0,.06.09.1.12,0a1.08,1.08,0,0,1,.3-.43,1.17,1.17,0,0,1,.47-.21s0,0,0,0a10.35,10.35,0,0,1,1,.84,3.48,3.48,0,0,1,.91,1.53,27.51,27.51,0,0,1,.84,3.7c.26,1.37.51,2.75.78,4.13s.55,2.47.77,3.72a2.11,2.11,0,0,1-.09.78c-.07.22-.28.34-.3.58,0,.39.43.75.82,1,.36,1.12.15,2.6.07,4.51-.08,1.65-.27,3.2-.37,4.85,0,.86-.2,1.79-.24,2.65s-.15,1.82-.2,2.72c-.09,1.69-.54,1.54-.31,2.22a1.53,1.53,0,0,0,.67.73,5.51,5.51,0,0,1-.79.44c-.3.13-.64.14-.93.26l0,0h-.15s-.06.07,0,.08a6.51,6.51,0,0,0,.71.33,3.41,3.41,0,0,0,.85.1,2,2,0,0,0,1-.16,2.79,2.79,0,0,0-.35.77s0,0,0,0a.05.05,0,0,0,0,0,.11.11,0,0,0,.16,0l.11-.15c.44-.24,1.08-.37,1.35-.77.31.5,1.1.63,1.62.74h0a.49.49,0,0,0,.16,0s.09-.06,0-.09a1.07,1.07,0,0,1-.34-.44s0,0,0-.08a2.25,2.25,0,0,0,1-.27l0,0h0c.06,0,.06-.09,0-.1l-.43-.2a.85.85,0,0,0,.42-.19,0,0,0,0,0,0,0l.08,0a.06.06,0,0,0,0-.11,1.28,1.28,0,0,1-.81-.23c-.22-.18-.08-.43,0-.65a.9.9,0,0,0,.48-.55,3.08,3.08,0,0,0-.36-1.75,19.47,19.47,0,0,1-1-5.51,56,56,0,0,1-.08-5.8c0-.82.06-1.64,0-2.45a5.17,5.17,0,0,1,.08-1.84,2.8,2.8,0,0,0,.73-1.67A3.57,3.57,0,0,0,57,70.89a5.57,5.57,0,0,1-.1-2.08,24.24,24.24,0,0,1,.62-6.69,53.6,53.6,0,0,1,3.06-5.93l.1-.15a19.12,19.12,0,0,0,4.82.6,8.46,8.46,0,0,0,2.64-.5,7.91,7.91,0,0,0,2.53-1.67c1.7-1.53,3.18-3.31,4.76-4.95s3.17-3.37,5.27-4.23c0,.23,0,.46.06.7A8.82,8.82,0,0,0,82,49.28a46.85,46.85,0,0,0,4.63,6.63c.85,1.06,1.73,2.1,2.55,3.19s1.44,2,2.18,3a21.22,21.22,0,0,1,1.59,2.4,12.24,12.24,0,0,1,.93,2.69,1.94,1.94,0,0,1,0,.24,12.25,12.25,0,0,1-.54,1.58,1.88,1.88,0,0,0,1,1.74,10.51,10.51,0,0,1-.49,4.48c-.45,1.6-1,3.19-1.53,4.76a40.47,40.47,0,0,1-2,4.83,5.15,5.15,0,0,1-2.87,2.9.15.15,0,0,0-.11.15c-.34.46-.1,1.2.07,1.68a1.92,1.92,0,0,1,.18,1.26,2.35,2.35,0,0,1-1,1.15s0,0,0,0l-.11,0h-.28s0,.07,0,.08a2.94,2.94,0,0,0,2.29-.54,2.78,2.78,0,0,1-.66.83s0,.07,0,.06l.08,0s0,0,0,0A5.92,5.92,0,0,0,90,91.74c.09.49.77.81,1.17,1h0a.38.38,0,0,0,.26.1s0,0,0,0a.89.89,0,0,1-.23-.69c.31-.61,1-.86,1.29-1.48s-.17-1.21-.49-1.76a17.06,17.06,0,0,1,1.22-4.33c.75-1.93,1.47-3.87,2.23-5.8S97,74.9,97.85,73a21.61,21.61,0,0,1,1.47-2.72,3.94,3.94,0,0,0,.51-1,1.45,1.45,0,0,0,0-.51.11.11,0,0,0,0-.08,8,8,0,0,0-1-3.28,15.54,15.54,0,0,1-1.4-3.34c-.63-2.6,0-5.43.41-8,.19-1.41.4-2.82.68-4.21A32.84,32.84,0,0,1,99.8,45.6q.7-2,1.44-4.05c.13-.35.26-.71.38-1.06a10.49,10.49,0,0,1,1.29,1.91c.71,1.24,1.36,2.51,2,3.8A29.28,29.28,0,0,1,106.29,50c.19.67.36,1.35.5,2a2.78,2.78,0,0,1-.05,1.78,2.89,2.89,0,0,1-.95.45c-.42.13-1,.3-1.26.72s.12.8.45,1.07a.69.69,0,0,1-.19,1.25l-.84.32c-1,.4-2,1.26-1.46,2.43.34.66,1,1.14,1.3,1.82a1.16,1.16,0,0,1-1.39,1.7.08.08,0,0,0-.08.13,1.11,1.11,0,0,0,.24.16,1.78,1.78,0,0,0,.81.39,1.46,1.46,0,0,0,.55,0,4.21,4.21,0,0,0-.82,1.44,1.93,1.93,0,0,0-.11,1.54c.53,1,1.92.76,2.58,1.55.43.82-.77,1.94-.53,2.86.2.75,1,1.14,1.56,1.56.33.24.89.49.73,1a1.51,1.51,0,0,1-.74.83.05.05,0,0,0,0,.1h.11a1.24,1.24,0,0,0,.6-.07c-.25.56.23,1.21.75,1.47a1.57,1.57,0,0,0,.76.39s.07-.05,0-.08c-.42-.21-.65-.37-.68-.87a1.75,1.75,0,0,1,.38-1.08,10.53,10.53,0,0,1,1.65-1.4c1-.9.27-2.21-.4-3.13a2.65,2.65,0,0,0,1.36.07s0-.08,0-.09l-.18,0a1.45,1.45,0,0,1-.84-.67,2.12,2.12,0,0,1,.07-1.62c.43-1,1.54-1,2.09-1.86C113.08,65,111.82,63.44,110.86,62.7Z"/><path class="cls-9" d="M25.85,14.28a11.7,11.7,0,0,0-9.14-5C12.94,9.1,9.59,11.38,7.1,14c0,0,0,.09.05.06,2.61-2.33,5.64-4.48,9.27-4.52a11.18,11.18,0,0,1,5.24,1.37,11.2,11.2,0,0,1,2.22,1.52c.68.59,1.27,1.27,1.91,1.9C25.82,14.37,25.87,14.32,25.85,14.28Z"/><path class="cls-9" d="M12.66,15.89a7,7,0,0,0-1.57,1.77,11.18,11.18,0,0,1-1.66,1.49,1.68,1.68,0,0,0-.68,1.41c.05.64.8,1.14,1.27,1.46,0,0,.06,0,0,0-.49-.5-1.29-1-1-1.79a3,3,0,0,1,1.2-1.27,5.72,5.72,0,0,0,1.26-1.29c.41-.57.94-1.35,1.4-1.88A2,2,0,0,0,12.66,15.89Z"/><path class="cls-9" d="M24.16,20.31a3,3,0,0,1-.78-1,7.75,7.75,0,0,0-.44-1.07c-.5-1-1.22-2.23-2.4-2.41,0,0-.06,0,0,.07a4.59,4.59,0,0,1,2.12,2.42,9.48,9.48,0,0,0,.82,1.77,5.55,5.55,0,0,0,.61.57,1.6,1.6,0,0,1,.42,1.11.05.05,0,0,0,.1,0A1.69,1.69,0,0,0,24.16,20.31Z"/><path class="cls-7" d="M22.33,24a2.21,2.21,0,0,0,.25-1.4s0,0,0,0,0,.16-.05.24a4.06,4.06,0,0,1-.92,1.1c-.26.23-.58.36-.84.57a.86.86,0,0,0-.39-.06.06.06,0,0,0,0,.11A5.75,5.75,0,0,1,21,25l.31.29a1.87,1.87,0,0,0-1.07.09.88.88,0,0,0-.36-.14.1.1,0,0,0-.06.18,1.67,1.67,0,0,1,.6.42,2.48,2.48,0,0,1,.19.26,2.2,2.2,0,0,0-.91-.17s0,0-.07,0l-.05,0a2.62,2.62,0,0,0-.56.09,0,0,0,0,0,0,.09h.24a2.86,2.86,0,0,1-.61.44,2.78,2.78,0,0,1-1.46.06,3.7,3.7,0,0,1-1.39-.54l-.13-.1a.1.1,0,0,0-.05,0,.74.74,0,0,0-.52-.25s0,.07,0,.08a.42.42,0,0,1,.25.12,2,2,0,0,0-1.34.41,1.58,1.58,0,0,1,1-1.08c.13,0,.09-.26,0-.24a17.08,17.08,0,0,0-1.92.32,3.74,3.74,0,0,1,1-.69c.05,0,0-.09,0-.08a1.37,1.37,0,0,0-.41.1l0-.05c-.3-.31-.49-.71-.77-1a1.75,1.75,0,0,0-.51-.43l0,0c-.33-.3-.78-.32-1.15-.54,0,0,0,0,0,0l.23.14A3,3,0,0,1,12.24,24a3.5,3.5,0,0,0,.52,1l-.12.25c-.09.2-.21.4-.3.6,0,0,0,0,0,0v0s0,0,0,0a1.36,1.36,0,0,1,.84-.33h.21A2.43,2.43,0,0,0,13.3,27s0,0,0,0a0,0,0,0,0,0,0h0c.33-.24.45-.29.76,0a4.71,4.71,0,0,0,1,.68,7.09,7.09,0,0,0,2.41.44c1.24.06,2.6-.27,3.07-1.49q.33,0,.66.12h0s0,0,0,0a0,0,0,0,0,.05,0,3.83,3.83,0,0,0-.27-.83h.09a2.09,2.09,0,0,1,.51.07h0l.07,0s0,0,0,0,0,0,.05,0,0-.05,0-.06h0a4.93,4.93,0,0,0-.24-.64l0-.07A3.73,3.73,0,0,0,22.33,24Z"/><path class="cls-9" d="M22.5,22.88a4.06,4.06,0,0,1-.92,1.1c-.26.23-.58.36-.84.57a.86.86,0,0,0-.39-.06.06.06,0,0,0,0,.11A5.75,5.75,0,0,1,21,25l.31.29a1.87,1.87,0,0,0-1.07.09.88.88,0,0,0-.36-.14.1.1,0,0,0-.06.18,1.67,1.67,0,0,1,.6.42,2.48,2.48,0,0,1,.19.26,2.2,2.2,0,0,0-.91-.17s0,0-.07,0l-.05,0a2.62,2.62,0,0,0-.56.09,0,0,0,0,0,0,.09h.24a2.86,2.86,0,0,1-.61.44,2.78,2.78,0,0,1-1.46.06,3.7,3.7,0,0,1-1.39-.54l-.13-.1a.1.1,0,0,0-.05,0h0a.74.74,0,0,0-.52-.25s0,.07,0,.08a.42.42,0,0,1,.25.12,2,2,0,0,0-1.34.41,1.58,1.58,0,0,1,1-1.08c.13,0,.09-.26,0-.24a17.08,17.08,0,0,0-1.92.32,3.74,3.74,0,0,1,1-.69c.05,0,0-.09,0-.08a2.42,2.42,0,0,0-1.5,1c-.07.06,0,.2.11.15a4.55,4.55,0,0,1,1.65-.34,2.08,2.08,0,0,0-.71,1.35.12.12,0,0,0,.22.1,2,2,0,0,1,1.65-.63l.06.06a1.87,1.87,0,0,0,.55.38,4.4,4.4,0,0,0,1.27.37,3,3,0,0,0,1.22-.07,2.2,2.2,0,0,0,1-.72,5.49,5.49,0,0,1,1.26.29c.08,0,.17-.06.11-.13a9.28,9.28,0,0,0-.58-.78c.16,0,.32,0,.49,0s.44,0,.66,0l.05,0s.09,0,.06,0,0,0,0,0a.07.07,0,0,0,0-.06h0a2.4,2.4,0,0,0-.63-.76,2.5,2.5,0,0,0,.78-.53,3.05,3.05,0,0,0,.83-1.23S22.51,22.85,22.5,22.88Z"/><path class="cls-9" d="M22,21.38a4.08,4.08,0,0,1-.69-.26,1.69,1.69,0,0,1-.54-.67s0,0,0,0a1.3,1.3,0,0,0,.39.88l.11.08a.91.91,0,0,0-.16.24c-.26.63-.47,1-1.22,1a5.15,5.15,0,0,1-2.15-.61c-.45-.2-.8-.57-1.27-.73a14.08,14.08,0,0,1-.28-2.51,1.81,1.81,0,0,1,1.44-1.89c.2,0-2.91-.24-2.72-.21,1.11.22,1,1.24,1,2.13a6.8,6.8,0,0,0,.39,2.45l-.06,0c-.48-.07-.88.35-1.22.62a3.85,3.85,0,0,1-1.68.94c-1.22.22-.79-1.5-1.72-1.51a0,0,0,0,0,0,.09c.4.08.49.82.64,1.14a1,1,0,0,0,.87.55,2.42,2.42,0,0,0,1.36-.49,6.72,6.72,0,0,0,.69-.5,2.27,2.27,0,0,1,.94-.59c.53-.09,1.18.61,1.66.83a6.08,6.08,0,0,0,1.95.57,1.37,1.37,0,0,0,1.11-.29,1.82,1.82,0,0,0,.39-.56c.07-.16.08-.52.29-.54a.65.65,0,0,0,.53-.05A.07.07,0,0,0,22,21.38Z"/><path class="cls-9" d="M32.69,13.35c-.19-.64-.52-1.59-1.36-1.31a3.17,3.17,0,0,0-1,.69,4.86,4.86,0,0,0-1.08,1.09c-.16.27.63.55.79.6a2,2,0,0,0-.21-.32L29.73,14h0c.33-.41.47-.59.73-.86s.36-.33.57-.5.62-.44.94-.15a4.63,4.63,0,0,1,.76,1.14S32.71,13.38,32.69,13.35Z"/><path class="cls-9" d="M6.06,13a.61.61,0,0,0-.16-.16v0A2.85,2.85,0,0,0,4.47,11c-.76-.33-1.41.78-1.66,1.32a0,0,0,0,0,0,0c.41-.48,1-1.43,1.71-.95a3.77,3.77,0,0,1,1,1.34,2.19,2.19,0,0,0-.73.08c-.13,0-.1.2,0,.26a1.06,1.06,0,0,1,.23.19c.12.12,0,.16-.11.24s-.29.54-.45.77c0,0,0,.06,0,0s.33-.33.49-.5.32-.22.38-.39-.06-.28-.18-.4a2,2,0,0,1,.78,0S6.08,13.05,6.06,13Z"/><path class="cls-10" d="M108.37,70.69a.72.72,0,0,1-.63.4,1,1,0,0,0,.09-1.37c-.28-.34-.7-.58-.85-1-.21-.66.45-1.6.71-2.17,0,0,0-.11-.09-.06-.45.65-1.26,1.68-.82,2.52a3.67,3.67,0,0,0,.72.81.7.7,0,0,1-.36,1.26,1.93,1.93,0,0,1-.44-.13,0,0,0,0,0,0,0c.43.46,1.75.58,1.81-.26C108.47,70.66,108.39,70.63,108.37,70.69Z"/><path class="cls-10" d="M108.16,63.24a1,1,0,0,1-1.18.64l-.16,0a.72.72,0,0,0,.62-.58,1.73,1.73,0,0,0-.56-1.51c-.43-.53-1.09-1-1.17-1.7-.11-1,.81-1.81,1.36-2.47,0,0,0-.09,0-.06-.91.72-2.1,2-1.39,3.22a12.05,12.05,0,0,0,1.14,1.34,1.66,1.66,0,0,1,.41.84.74.74,0,0,1-.18.55c-.18.23-.56.17-.83.13l-.39-.21s0,0,0,0a2.19,2.19,0,0,0,1.47.76,1,1,0,0,0,1-.93S108.18,63.21,108.16,63.24Z"/><path d="M24.42,12.6c.32-.1.5-.41.65-.95.36-1.29.15-1.94-.23-2s-.87.56-1.1,1.46a3.9,3.9,0,0,0-.12.78A7,7,0,0,1,24.42,12.6Z"/><path d="M9.49,9.06c-.4,0-.43.78-.46,1.23,0,.63.21,1.55.56,1.48.15-.09.68-.48,1-.67C10.47,9.64,9.86,9.07,9.49,9.06Z"/><path class="cls-11" d="M9.29,9.5a2.41,2.41,0,0,0-.09.85c.13.26.33-.25.39-.69S9.36,9.18,9.29,9.5Z"/><path class="cls-11" d="M24.31,10.13c-.15.26-.25.53-.11.63s.34-.45.42-.7S24.57,9.66,24.31,10.13Z"/><path class="cls-8" d="M20.61,14.16c-.1-.39-.24-.79-.32-1.07a7.38,7.38,0,0,0-.62-1.51,5.16,5.16,0,0,0-1.92-2.39A3.27,3.27,0,0,0,16,9a3,3,0,0,0-1.8,1.15A10.19,10.19,0,0,0,13,12.2a4.53,4.53,0,0,0-.55,2.62l0,0A2.05,2.05,0,0,0,13.11,16a6.42,6.42,0,0,0,3.3,1,6.56,6.56,0,0,0,3.35-.59,1.61,1.61,0,0,0,.95-1.21A2.66,2.66,0,0,0,20.61,14.16Z"/><path class="cls-7" d="M20.61,14.16c-.1-.39-.24-.79-.32-1.07a7.34,7.34,0,0,0-.45-1.18c.16.67.36,1.65-.13,2.17a.86.86,0,0,1-.91.24c-.66-.12-1,.77-1.62.61-.34-.07-.41-.59-.42-.86,0-.47-.06-2.05-.07-2.52-.09,1.24-.25,3.95-1.24,3.24-.29-.21-.39-.6-.74-.76a4,4,0,0,1-.85-.44,1.41,1.41,0,0,1-.52-1,5.67,5.67,0,0,1,.62-2.2,12,12,0,0,0-1,1.82,4.53,4.53,0,0,0-.55,2.62l0,0A2.05,2.05,0,0,0,13.11,16a6.42,6.42,0,0,0,3.3,1,6.56,6.56,0,0,0,3.35-.59,1.61,1.61,0,0,0,.95-1.21A2.66,2.66,0,0,0,20.61,14.16Z"/><path class="cls-7" d="M20.46,15a1.77,1.77,0,0,0-1.29-.32A3.94,3.94,0,0,0,16.44,16a.09.09,0,0,1-.14,0,6.14,6.14,0,0,0-2.43-1.79c-.57-.2-1.32-.28-1.5.3l0,.32,0,0A2.05,2.05,0,0,0,13.11,16a6.42,6.42,0,0,0,3.3,1,6.56,6.56,0,0,0,3.35-.59,1.55,1.55,0,0,0,.92-1.1A.77.77,0,0,0,20.46,15Z"/><path class="cls-12" d="M20.61,14.16c-.1-.39-.24-.79-.32-1.07a7.38,7.38,0,0,0-.62-1.51c-.16-.3-.33-.63-.52-.94.63,1,1.73,3.62,1.16,4.88a1.43,1.43,0,0,1-.85.67,5.38,5.38,0,0,1-2,.42c-.25-.1.23-.33.34-.43a2.26,2.26,0,0,1,1.27-.31,1.75,1.75,0,0,0,.79-.08c.5-.17.06-.67-.28-.81,0-.05,0-.1-.1-.1a2.46,2.46,0,0,0-1.67.82,4.51,4.51,0,0,1-1.38,1c-.81-.11-1.25-1.23-1.91-1.66-.37-.24-1-.69-1.51-.5,0,0,0,0,0,0-.26.18-.07.86.21,1a3.34,3.34,0,0,0,1,.12c.24,0,.88.24.92.5.08.48-1.29,0-1.48-.09a1.85,1.85,0,0,1-1.08-1.8,10.64,10.64,0,0,1,.78-2.47,6,6,0,0,1,1.11-1.92,2.16,2.16,0,0,0-.25.27A10.19,10.19,0,0,0,13,12.2a4.53,4.53,0,0,0-.55,2.62l0,0A2.05,2.05,0,0,0,13.11,16a6.42,6.42,0,0,0,3.3,1,6.56,6.56,0,0,0,3.35-.59,1.61,1.61,0,0,0,.95-1.21A2.66,2.66,0,0,0,20.61,14.16Z"/><path class="cls-13" d="M13,14.5s0,0,0,0a.34.34,0,0,0-.06.06.76.76,0,0,0,.6.88l.15,0,.29,0a2.91,2.91,0,0,1,.72,0,1.74,1.74,0,0,1,.67.32,3.89,3.89,0,0,0-.81-.85C14.15,14.76,13.49,14.31,13,14.5Z"/><path class="cls-13" d="M19.58,15c0-.05,0-.1-.1-.1a2.46,2.46,0,0,0-1.67.82c-.15.12-.37.33-.62.53a2.73,2.73,0,0,1,1.43-.52c.51,0,1.26.09,1.34-.45A.94.94,0,0,0,19.58,15Z"/><path class="cls-14" d="M18,22.51l-.33-.15c-.48-.22-1.13-.92-1.66-.83a2.27,2.27,0,0,0-.94.59c-.16.13-.33.26-.51.38l-.18.12-.08.05a2.06,2.06,0,0,1,1.32.63c.46.51.29,1.32,1,1.59.51.19.89-.32,1.06-.72s.16-.68.27-1a2.19,2.19,0,0,1,.28-.55Z"/><path class="cls-15" d="M18,22.51l-.33-.15,0,.13a.76.76,0,0,1-.86.82,2.15,2.15,0,0,1-1.53-.77.62.62,0,0,1-.1-.54l-.14.12c-.16.13-.33.26-.51.38l-.18.12-.08.05a2.06,2.06,0,0,1,1.32.63c.46.51.29,1.32,1,1.59.51.19.89-.32,1.06-.72s.16-.68.27-1a2.19,2.19,0,0,1,.28-.55Z"/><path class="cls-16" d="M5.91,11.41a4.12,4.12,0,0,0-2.2-2.27c-1.18-.38-1.92.77-2.46,1.64v0L1.09,11s0,.06,0,0c.32-.27.62-.57,1-.82A3.1,3.1,0,0,1,3.4,9.81a0,0,0,0,0,0-.06,1.63,1.63,0,0,0-1.22.16,1.44,1.44,0,0,1,1.7-.37,5.54,5.54,0,0,1,2,1.89S5.92,11.43,5.91,11.41Z"/><path class="cls-16" d="M3.31,10.08a2,2,0,0,0-1.47.6s0,.06,0,.05l.67-.33c.25-.12.53-.16.79-.26C3.34,10.13,3.34,10.08,3.31,10.08Z"/><path class="cls-16" d="M3,10.47a.84.84,0,0,0-.31.12,0,0,0,1,0,0,0c.09-.05.19-.07.29-.12S3,10.47,3,10.47Z"/><path class="cls-16" d="M9.2,7.51a1.24,1.24,0,0,0-.76.79A6.62,6.62,0,0,0,8,9.93s0,0,0,0q.18-.51.39-1a2.67,2.67,0,0,1,.67-1.12c.62-.45,1.35.93,1.63,1.28,0,0,.05,0,0,0C10.54,8.55,10,7.33,9.2,7.51Z"/><path class="cls-16" d="M25.3,8a1.37,1.37,0,0,0-1,.53,15.78,15.78,0,0,0-1.24,1.59s0,0,0,0A7.39,7.39,0,0,1,25,8.31c.94-.43,1.31,1,1.45,1.58,0,0,.07,0,.08,0C26.51,9.14,26.27,8,25.3,8Z"/><path class="cls-16" d="M33.9,12c-.54-1-1.3-2.05-2.59-1.84a4.15,4.15,0,0,0-2.48,2s0,0,0,0a4.78,4.78,0,0,1,2.3-1.75c1.28-.36,1.94.81,2.71,1.58C33.89,12,33.91,12,33.9,12Z"/><path class="cls-16" d="M34.09,12.56a3.28,3.28,0,0,0-1-1.16s0,0,0,0c.18.19.35.39.53.59s.29.4.46.58S34.11,12.59,34.09,12.56Z"/><path class="cls-16" d="M21.93,6.49a10,10,0,0,0-5.38-2A6.57,6.57,0,0,0,12,6.37s0,0,0,0A7.9,7.9,0,0,1,16.77,5a11.22,11.22,0,0,1,4.39,1.13S22,6.52,21.93,6.49Z"/><path class="cls-16" d="M16.65,8.89c-2,0-2.79,1.5-3.13,3.25,0,0,0,0,0,0,.69-1.35,1.27-2.71,3.07-2.62s2.52,1.76,3.2,3.23c0,0,.08,0,.07,0C19.38,11,18.87,8.9,16.65,8.89Z"/><path class="cls-16" d="M15.28,20.57A7.48,7.48,0,0,1,14,21c-.54.11-1-.41-1.3-.73a2.68,2.68,0,0,0-2.11-.49s0,0,0,0a2.65,2.65,0,0,1,2,.9,3.17,3.17,0,0,0,.78.77c.63.38,1.63-.29,2-.73C15.46,20.66,15.37,20.53,15.28,20.57Z"/><path class="cls-16" d="M20.15,20.34s-.06,0-.06,0c.18,1.65-2.78.32-3.39-.15a0,0,0,1,0,0,0,4.62,4.62,0,0,0,2.45,1.39C20.05,21.75,20.37,21.13,20.15,20.34Z"/><path class="cls-16" d="M23.27,20.56a3.29,3.29,0,0,1-2.52-.84s0,0,0,0c.71.66,1.53,1.47,2.58,1C23.41,20.72,23.39,20.55,23.27,20.56Z"/><path class="cls-16" d="M26.48,13.91s0,.06,0,.07a4.7,4.7,0,0,1,1.93.94c.48.38.84.88,1.29,1.29,0,0,.09,0,.08-.05A3.62,3.62,0,0,0,26.48,13.91Z"/><path class="cls-16" d="M6.54,14.13a3.72,3.72,0,0,0-2.5,2c0,.07.07.12.12.07a8.94,8.94,0,0,1,2.41-2S6.59,14.12,6.54,14.13Z"/><path class="cls-8" d="M105.4,57.93c-.66.12-1.74.31-1.71,1.21s.78,1.41,1.22,2c0,0,.07,0,.06,0a11.85,11.85,0,0,0-.67-1.39c-.35-.87.55-1.25,1.15-1.66C105.51,58,105.48,57.91,105.4,57.93Z"/><path class="cls-8" d="M110.48,56.63c0-.07-.14,0-.13.06a8.39,8.39,0,0,1,.23,1.26c-.47.52-.77-.42-1.12-.52s-.53.2-.71.41-.9,1.33-1.13.85a1.73,1.73,0,0,1,0-1c0-.08-.09-.1-.12,0a2.69,2.69,0,0,0-.16.29,3,3,0,0,0-1.14,1.62c-.11.64.42,1,.89,1.34,0,0,.07,0,0,0a1.27,1.27,0,0,1-.4-1.49,4,4,0,0,1,.44-.85,1,1,0,0,0,.07.44c.22.5.79.32,1.14.11a1.92,1.92,0,0,0,.57-.72c.13-.2.37-.62.62-.33a1.53,1.53,0,0,0,.3.27.81.81,0,0,0,.75,0,2.1,2.1,0,0,1-.34,1.07s0,.09.06.06a1.79,1.79,0,0,0,.74-1.3A2.44,2.44,0,0,0,110.48,56.63Z"/><path class="cls-8" d="M107.69,52.23s-.06,0,0,0c.18.67.37,1.36-.24,1.87a9.62,9.62,0,0,1-1.09.62c-.46.31-.44.65.13.75a0,0,0,0,0,0,0c-.69-.42.16-.61.55-.71a1.74,1.74,0,0,0,.92-.5C108.45,53.7,108,52.74,107.69,52.23Z"/><path class="cls-16" d="M44.83,32.06a18.57,18.57,0,0,1-5.28,1.77,11.47,11.47,0,0,1-5.31-.78c-3.48-1.36-5.75-4.47-7.63-7.54,0,0-.07,0-.06,0,1.62,3.33,3.92,6.58,7.44,8.06a11.33,11.33,0,0,0,10.9-1.44C45,32.13,44.9,32,44.83,32.06Z"/><path class="cls-16" d="M49.45,32.13a14.84,14.84,0,0,0-5.86,11.19s0,0,0,0a20.38,20.38,0,0,1,5.9-11.12A.05.05,0,0,0,49.45,32.13Z"/><path class="cls-16" d="M58.93,32.25a6,6,0,0,0-3.88.17s0,0,0,0a15.43,15.43,0,0,1,3.84-.13C59,32.34,59,32.27,58.93,32.25Z"/><path class="cls-16" d="M60.46,32.62a12.05,12.05,0,0,0-3,0,0,0,0,0,0,0,0c1,.06,2,0,3,.09C60.49,32.68,60.49,32.62,60.46,32.62Z"/><path class="cls-16" d="M60.6,33.17A3.3,3.3,0,0,0,58.49,33s-.05.08,0,.08a20.87,20.87,0,0,0,2.08.19A.05.05,0,0,0,60.6,33.17Z"/><path class="cls-16" d="M61.77,34.2a3,3,0,0,0-2-.58s0,.07,0,.07a8.43,8.43,0,0,1,2,.62C61.76,34.32,61.83,34.25,61.77,34.2Z"/><path class="cls-16" d="M60.26,34s-.08,0,0,.08c1.39.79,1.9,2.29,2.3,3.74,0,0,.08,0,.07,0C62.27,36.2,62,34.56,60.26,34Z"/><path class="cls-16" d="M55.51,31.8a4.79,4.79,0,0,0-2.25.49s0,.08,0,.07c.37-.06.73-.14,1.1-.22a6.45,6.45,0,0,0,1.14-.25A0,0,0,0,0,55.51,31.8Z"/><path class="cls-16" d="M42.63,14.84c-1.36.69-2.26,2.41-3,3.66a23.58,23.58,0,0,0-2.68,5.36,0,0,0,0,0,.05,0c.95-1.64,1.74-3.32,2.78-4.92.9-1.4,2-2.63,3-4C42.75,14.91,42.7,14.81,42.63,14.84Z"/><path class="cls-16" d="M43.2,14.07c-.87-.41-1.6.3-2.33.66,0,0,0,.08,0,.07.35-.1.67-.25,1-.35a6.89,6.89,0,0,1,1.27-.22A.09.09,0,0,0,43.2,14.07Z"/><path class="cls-16" d="M44,11.81s0-.06-.05,0a2.92,2.92,0,0,0-.56,1.68c-.42-.29-1.14,0-1.51.26,0,0,0,.07,0,.06a3.19,3.19,0,0,1,.81-.13c.25,0,.48,0,.72,0h0a1.27,1.27,0,0,0,.12.23s.11,0,.1,0A4.56,4.56,0,0,1,44,11.81Z"/><path class="cls-16" d="M53.09,12.81a8.5,8.5,0,0,0-4.28-1.88,6.42,6.42,0,0,0-4.27,2s0,.07,0,.05a8.4,8.4,0,0,1,4-1.63,9.17,9.17,0,0,1,4.5,1.52S53.12,12.83,53.09,12.81Z"/><path class="cls-16" d="M65.11,1.8a5.83,5.83,0,0,0-4.86,1.64,0,0,0,0,0,0,0,8.76,8.76,0,0,1,2.34-1.19,9.31,9.31,0,0,1,2.87-.42C65.59,1.86,65.19,1.82,65.11,1.8Z"/><path class="cls-16" d="M65.7,1.46a2.4,2.4,0,0,0-2.64-.38s0,0,0,0a3.83,3.83,0,0,1,2.55.44C65.68,1.58,65.75,1.51,65.7,1.46Z"/><path class="cls-16" d="M69.1.22c-.74.09-2,.34-2.29,1.19A.85.85,0,0,0,66.52,1a2.24,2.24,0,0,0-.65-.34s0,0,0,0,.29.29.44.42a4.93,4.93,0,0,1,.42.49h0a.06.06,0,0,0,.09,0c.36-.23.62-.57,1-.79A6.49,6.49,0,0,1,69.1.23S69.11.22,69.1.22Z"/><path class="cls-16" d="M71.39,1.56a3.55,3.55,0,0,0-1.48-.17A3.2,3.2,0,0,0,68.55,2s0,0,0,0a10.61,10.61,0,0,1,1.36-.4,9.91,9.91,0,0,1,1.44,0S71.44,1.57,71.39,1.56Z"/><path class="cls-16" d="M92.81,20.37a19.38,19.38,0,0,1-5.37-3.44A19.05,19.05,0,0,1,85.36,14a18.71,18.71,0,0,0-1.91-2.7c-.78-1-1.61-2-2.48-3a32.76,32.76,0,0,0-5.22-4.69,10.41,10.41,0,0,0-3.14-1.44,9.43,9.43,0,0,0-3.59,0,0,0,0,0,0,0,.06,9.25,9.25,0,0,1,7.14,2.05,40.2,40.2,0,0,1,5.36,5.16,41.46,41.46,0,0,1,3.92,5.39,10.14,10.14,0,0,0,4.48,4.21C91,19.69,92.93,20.43,92.81,20.37Z"/><path class="cls-16" d="M86.17,36.52c-1.69.65-2.73,2.43-3.27,4.07A8.46,8.46,0,0,0,83.16,46a0,0,0,0,0,.07,0c-.86-3.48,0-7.19,3-9.35C86.31,36.61,86.25,36.48,86.17,36.52Z"/><path class="cls-16" d="M86.77,35.24a4.61,4.61,0,0,0-1.39.49c-.47.3-.88.7-1.36,1,0,0,0,0,0,0,.4-.2.77-.45,1.15-.67s1.11-.47,1.64-.76C86.87,35.3,86.82,35.23,86.77,35.24Z"/><path class="cls-16" d="M89.61,33.7A6.15,6.15,0,0,0,85.49,35s0,.08,0,.07a14.08,14.08,0,0,1,4.09-1.27S89.67,33.7,89.61,33.7Z"/><path class="cls-16" d="M92.14,33.05a5.47,5.47,0,0,0-3.89.34c-.07,0,0,.14,0,.11a9.46,9.46,0,0,1,3.82-.36S92.19,33.07,92.14,33.05Z"/><path class="cls-16" d="M93,33.31c-.13,0-.26-.09-.39-.12s0,0,0,0,.26.09.39.12A0,0,0,0,0,93,33.31Z"/><path class="cls-16" d="M102.64,24.64A8.52,8.52,0,0,0,99.93,22a12.08,12.08,0,0,0-3.65-2s0,0,0,0a15.9,15.9,0,0,1,3.21,2.05,10.31,10.31,0,0,1,2.58,2.65c1.41,2.31.76,5.53.58,8.05a0,0,0,0,0,.08,0C103.2,30.15,104,27.17,102.64,24.64Z"/></g></g></g></svg>