<svg xmlns="http://www.w3.org/2000/svg" viewBox="0 0 118.27 100"><defs><style>.cls-1{isolation:isolate;}.cls-2{fill:#252524;}.cls-3,.cls-4,.cls-5,.cls-7{fill:#3d3e3d;}.cls-20,.cls-28,.cls-4,.cls-5,.cls-6{opacity:0.5;}.cls-10,.cls-11,.cls-14,.cls-16,.cls-18,.cls-20,.cls-21,.cls-26,.cls-4,.cls-7{mix-blend-mode:multiply;}.cls-25,.cls-27,.cls-28,.cls-5,.cls-6,.cls-9{mix-blend-mode:screen;}.cls-12,.cls-25,.cls-6{fill:#fff;}.cls-27,.cls-7,.cls-9{opacity:0.3;}.cls-14,.cls-8{fill:#1d1d1b;}.cls-17,.cls-18,.cls-9{fill:#575857;}.cls-10{fill:#5d5d5d;}.cls-10,.cls-21{opacity:0.9;}.cls-11{fill:#0c0d09;opacity:0.6;}.cls-13{fill:#b0b0b0;}.cls-13,.cls-18{opacity:0.4;}.cls-15,.cls-28{fill:#c7747a;}.cls-16{fill:#999998;}.cls-19,.cls-20,.cls-21,.cls-27{fill:#9b9b9b;}.cls-22{fill:#512d19;}.cls-23{fill:#2a1300;}.cls-24,.cls-26{fill:#212220;}</style></defs><title>Ресурс 3</title><g class="cls-1"><g id="Слой_2" data-name="Слой 2"><g id="Layer_1" data-name="Layer 1"><path class="cls-2" d="M116.41,29a51.81,51.81,0,0,0-7.34-13.54.29.29,0,0,0-.07.15c.06.65.27,1.27.35,1.91,0,.15,0,.29,0,.44a15.44,15.44,0,0,0-1.87-2.72,13.5,13.5,0,0,0-1.33-1.29c-.33-.3-.57-.68-1-.83a.18.18,0,0,0-.19.06l-.08.09a.2.2,0,0,0,0,.19,7.43,7.43,0,0,1,.25.74,8.41,8.41,0,0,0-1.22-1.09,6.77,6.77,0,0,0-.71-.46c.28.47.53,1,.75,1.44a38.22,38.22,0,0,1,1.69,4.51c.28.89.54,1.79.78,2.71.11.36.22.74.31,1.12s.12.62.17.93C108,28.53,108.12,34,106,38.93a26,26,0,0,1-2.48,4.51,8.21,8.21,0,0,1-2.86,2.82,4.63,4.63,0,0,1-1.1.41,3.43,3.43,0,0,1-2,.07,9.09,9.09,0,0,1-4-2l0,0c-.38-.22-.76-.43-1.15-.63-1.13-.58-2.19-1.31-3.33-1.86l-1.76-.82a15,15,0,0,0-1.63-.57.93.93,0,0,0-.1-.1,2.24,2.24,0,0,0-.92-.24c-.92-.11-1.84-.28-2.75-.46a5.9,5.9,0,0,0-4.33,1A12,12,0,0,0,72,48.64,10.88,10.88,0,0,0,73.69,58a16.24,16.24,0,0,0,4.1,3.51c.66.43,1.34.84,2,1.23.84.49,1.76.82,2.64,1.23.67.32,1.34.7,2,1a22,22,0,0,0,2.39.74,17.7,17.7,0,0,0,4.38.74A14.4,14.4,0,0,0,95.54,66c.43-.12.85-.27,1.26-.43l.3-.14c1.2-.59,2.41-1.16,3.59-1.78l.39-.24h0l.68-.35c.32-.19.64-.38,1-.58A61.57,61.57,0,0,0,108,58.64a13.93,13.93,0,0,0,2.48-2.31c.34-.44.66-.9,1-1.35a3.74,3.74,0,0,0-.52.09q-.39.07-.78.18c.18-.17.35-.34.51-.52,1.2-1.22,2.4-2.46,3.51-3.76a21.48,21.48,0,0,0,1.38-2c.25-.37.5-.74.74-1.12a6.47,6.47,0,0,0,.51-1.35c.28-.82.64-1.62.86-2.46a23.7,23.7,0,0,0,.5-2.51l.06-.49A34.4,34.4,0,0,0,116.41,29Z"/><path class="cls-3" d="M116.41,29a51.81,51.81,0,0,0-7.34-13.54.29.29,0,0,0-.07.15c.06.65.27,1.27.35,1.91,0,.15,0,.29,0,.44a15.44,15.44,0,0,0-1.87-2.72,13.5,13.5,0,0,0-1.33-1.29c-.33-.3-.57-.68-1-.83a.18.18,0,0,0-.19.06l-.08.09a.2.2,0,0,0,0,.19,7.43,7.43,0,0,1,.25.74,8.41,8.41,0,0,0-1.22-1.09,6.77,6.77,0,0,0-.71-.46c.28.47.53,1,.75,1.44a38.22,38.22,0,0,1,1.69,4.51c.28.89.54,1.79.78,2.71.11.36.22.74.31,1.12s.12.62.17.93C108,28.53,108.12,34,106,38.93c-.12.29-.25.57-.38.85s-.19.58-.29.86a19.52,19.52,0,0,0,2-3.63s.22-.14.2,0a27.12,27.12,0,0,1-.75,3.9c1.67-1.63,1.89-4.19,3.41-5.93,0,0,.17-.11.18,0,.72,4.68-1.51,9.27-3.16,13.53a14,14,0,0,0,3.06-3.28c0-.06.19-.11.18,0a7.21,7.21,0,0,1-.63,2.45,11.34,11.34,0,0,0,3.83-6.54c0-.07.19-.18.21-.07a17.71,17.71,0,0,1-.36,8.06,18.86,18.86,0,0,1-3,5.78l.13,0,.11-.12c1.2-1.22,2.4-2.46,3.51-3.76a21.48,21.48,0,0,0,1.38-2c.25-.37.5-.74.74-1.12a6.47,6.47,0,0,0,.51-1.35c.28-.82.64-1.62.86-2.46a23.7,23.7,0,0,0,.5-2.51l.06-.49A34.4,34.4,0,0,0,116.41,29Z"/><path class="cls-4" d="M116.41,29a51.81,51.81,0,0,0-7.34-13.54.29.29,0,0,0-.07.15c.06.65.27,1.27.35,1.91,0,.15,0,.29,0,.44a15.44,15.44,0,0,0-1.87-2.72,13.5,13.5,0,0,0-1.33-1.29c-.33-.3-.57-.68-1-.83a.18.18,0,0,0-.19.06l-.08.09a.2.2,0,0,0,0,.19,7.43,7.43,0,0,1,.25.74,8.41,8.41,0,0,0-1.22-1.09,6.25,6.25,0,0,0-.57-.38c.49.61,1.06,1.17,1.61,1.74A13.82,13.82,0,0,1,107,17.12c1.11,2,1.8,4.13,2.83,6.14a11.32,11.32,0,0,0-.51-3.2s.07-.13.11-.08l.07.09c4.44,5.84,5,13.57,4.89,20.65,0,0-.1.12-.12.05a24.19,24.19,0,0,0-1.32-4.65,18.25,18.25,0,0,1-.32,4.24,14.91,14.91,0,0,1-1.68,4.26,22.17,22.17,0,0,1-5.34,6c2-.14,3.77-1.39,5.54-2.24,0,0,.1,0,.07,0a15.55,15.55,0,0,1-3.7,4.53,10.47,10.47,0,0,1-5,2.54s0-.05,0-.08a26.5,26.5,0,0,0,2.39-2.21,8.83,8.83,0,0,1-4.26.82,21,21,0,0,1-3-.63,23.89,23.89,0,0,1-2.83-.91,21.22,21.22,0,0,1-2.63-1.27,11,11,0,0,1-2-1.43,4.17,4.17,0,0,1-1.24-2,6.35,6.35,0,0,1-.1-2.34,27,27,0,0,1,.65-3.07l-.32-.16-1.76-.82a15,15,0,0,0-1.63-.57.93.93,0,0,0-.1-.1,2.24,2.24,0,0,0-.92-.24c-.92-.11-1.84-.28-2.75-.46a5.9,5.9,0,0,0-4.33,1A12,12,0,0,0,72,48.64,10.88,10.88,0,0,0,73.69,58a16.24,16.24,0,0,0,4.1,3.51c.66.43,1.34.84,2,1.23.84.49,1.76.82,2.64,1.23.67.32,1.34.7,2,1a22,22,0,0,0,2.39.74,17.7,17.7,0,0,0,4.38.74A14.4,14.4,0,0,0,95.54,66c.43-.12.85-.27,1.26-.43l.3-.14c1.2-.59,2.41-1.16,3.59-1.78l.39-.24h0l.68-.35c.32-.19.64-.38,1-.58A61.57,61.57,0,0,0,108,58.64a13.93,13.93,0,0,0,2.48-2.31c.34-.44.66-.9,1-1.35a3.74,3.74,0,0,0-.52.09q-.39.07-.78.18c.18-.17.35-.34.51-.52,1.2-1.22,2.4-2.46,3.51-3.76a21.48,21.48,0,0,0,1.38-2c.25-.37.5-.74.74-1.12a6.47,6.47,0,0,0,.51-1.35c.28-.82.64-1.62.86-2.46a23.7,23.7,0,0,0,.5-2.51l.06-.49A34.4,34.4,0,0,0,116.41,29Z"/><path class="cls-5" d="M111.9,28.86c-.07-.26-.14-.52-.22-.78-.48-1.17-1-2.33-1.49-3.49,0,0,0,.06,0,.09a7.21,7.21,0,0,1,.11,2,1.09,1.09,0,0,0,0,.18l-.15-.85A21.38,21.38,0,0,0,107.8,20c-.46-.53-.9-1.05-1.31-1.61l.12.23c.09.59.28,1.17.43,1.76s.28,1.4.41,2.11c.24,1.33.28,2.71.58,4a18.15,18.15,0,0,1,.15,1.81c.07.66.09,1.33.14,2a21.62,21.62,0,0,1-.27,4.47c-.08.54-.18,1.06-.3,1.59-.06.36-.13.71-.2,1.07A19.87,19.87,0,0,1,106,42.15a15.51,15.51,0,0,1-6.6,6.38,6.24,6.24,0,0,0,2.12-.26,9,9,0,0,0,2-1.11l-.13.15a21.61,21.61,0,0,1-3.84,3.56c-.06,0-.13.16-.08.23l0,0a9,9,0,0,0,2-.17,11.39,11.39,0,0,0,3.36-1.18,12.35,12.35,0,0,0,2.71-2c.15-.18.3-.35.44-.53a13.12,13.12,0,0,0,2.53-5.06c.13-.51.23-1,.31-1.54,0,.09,0,.18,0,.27a11.27,11.27,0,0,1,.13,1.29,2.7,2.7,0,0,0,0,.9l1-1.49a18.86,18.86,0,0,0,.61-2.71c.13-.88.15-1.82.2-2.71a23,23,0,0,0,0-2.49A24.72,24.72,0,0,0,111.9,28.86Z"/><path class="cls-5" d="M101,58.62a3,3,0,0,0,1.47.08,13.32,13.32,0,0,1,1.45-.34c-.16.19-.41.32-.57.5a5.89,5.89,0,0,1-1.12,1l-.07,0a13.06,13.06,0,0,0,8.47-8.36A21.82,21.82,0,0,1,107,55.26a18.6,18.6,0,0,1-3.37,2.27,8.79,8.79,0,0,1-2.53.95l-.21.08A.07.07,0,0,0,101,58.62Z"/><path class="cls-6" d="M108.2,25.6s1.72,11.08-1.86,16.73a13.85,13.85,0,0,1-4.61,5.16s6-3,7.23-8.54C110.88,30.62,108.2,25.6,108.2,25.6Z"/><path class="cls-3" d="M115.91,34.75s1.37,8.06-.76,12.87c0,0,2.34-4.93,2.13-8.81a54.06,54.06,0,0,0-2.54-11.7Z"/><path class="cls-6" d="M99.05,52.16a9.46,9.46,0,0,0,6.12-1.51A5,5,0,0,1,99.05,52.16Z"/><path class="cls-2" d="M61.89,76.14c0-.54-.1-1.09-.17-1.63v-.38c0-.33.1-.65.13-1s-.12-.71-.12-1a6.07,6.07,0,0,0-1.1-3.65,13.72,13.72,0,0,0-3-3A8.64,8.64,0,0,0,54,64a15,15,0,0,0-4.23-.2c-.78.13-2,.89-2,1.8,0,1.33.75,2.41,1.06,3.67-.07-.19-.15-.38-.22-.56a4.65,4.65,0,0,0-.45-1.18c0,.09.09.25.09.24a4.64,4.64,0,0,1,.19.8c.1.49.26,1,.38,1.46a12.87,12.87,0,0,1,.47,3,23.72,23.72,0,0,1-.47,6.4,32.17,32.17,0,0,1-1.69,5.51,26.08,26.08,0,0,1-1.84,3.31,4.06,4.06,0,0,0-1.15-.2A7,7,0,0,0,40,89.16a4,4,0,0,0-1.52,3.52c0,.48.61.53,1,.59a4.5,4.5,0,0,0,1.1,0c.41,0,.86.06,1.29.06,1.74,0,3.48.07,5.21-.07a15.29,15.29,0,0,0,2-.16A6.58,6.58,0,0,1,50.19,93a3.19,3.19,0,0,0,1-.21,6.07,6.07,0,0,0,3.13-3c.86-1.4,1.61-2.88,2.56-4.23.48-.67.93-1.39,1.44-2,.19-.25.73-.39.72-.78a.39.39,0,0,0-.08-.29c-.08-.14,0-.06.08-.14.36-.22.73-.42,1.1-.6a3.73,3.73,0,0,0,1.48-.93,1.61,1.61,0,0,0,.1-.78c0-.43.08-.87.12-1.3A17.93,17.93,0,0,0,61.89,76.14Z"/><path class="cls-2" d="M48.09,67.42l0,.07S48.1,67.42,48.09,67.42Z"/><path class="cls-2" d="M48.06,67.42v.06h0a.32.32,0,0,1,0-.06h0S48.06,67.41,48.06,67.42Z"/><path class="cls-7" d="M61.89,76.14c0-.54-.1-1.09-.17-1.63v-.38c0-.33.1-.65.13-1s-.12-.71-.12-1a6.07,6.07,0,0,0-1.1-3.65,13.72,13.72,0,0,0-3-3A8.64,8.64,0,0,0,54,64a15,15,0,0,0-4.23-.2c-.78.13-2,.89-2,1.8,0,1.33.75,2.41,1.06,3.67-.07-.19-.15-.38-.22-.56a4.65,4.65,0,0,0-.45-1.18c0,.09.09.25.09.24a4.64,4.64,0,0,1,.19.8c.1.49.26,1,.38,1.46a12.87,12.87,0,0,1,.47,3,23.72,23.72,0,0,1-.47,6.4,32.17,32.17,0,0,1-1.69,5.51,26.08,26.08,0,0,1-1.84,3.31,4.06,4.06,0,0,0-1.15-.2,6.11,6.11,0,0,0-2.47.4,5.89,5.89,0,0,0-.83.58,4.23,4.23,0,0,0-1.36,1.82c-.09.31-.12.79-.37,1s-.37,0-.49-.2a8,8,0,0,0-.09,1.09c0,.48.61.53,1,.59a4.5,4.5,0,0,0,1.1,0c.41,0,.86.06,1.29.06,1.74,0,3.48.07,5.21-.07a15.29,15.29,0,0,0,2-.16A6.58,6.58,0,0,1,50.19,93a3.19,3.19,0,0,0,1-.21,6.07,6.07,0,0,0,3.13-3c.86-1.4,1.61-2.88,2.56-4.23.48-.67.93-1.39,1.44-2,.19-.25.73-.39.72-.78a.39.39,0,0,0-.08-.29c-.08-.14,0-.06.08-.14.36-.22.73-.42,1.1-.6a3.73,3.73,0,0,0,1.48-.93,1.61,1.61,0,0,0,.1-.78c0-.43.08-.87.12-1.3A17.93,17.93,0,0,0,61.89,76.14ZM40.68,91.79s-.07.1-.11.06A1.88,1.88,0,0,1,41,89.19a1.23,1.23,0,0,1,1.56-.47.06.06,0,0,1,0,.07C42,89.83,40.86,90.51,40.68,91.79Zm4.22-3.21A5,5,0,0,0,44,90.22c-.11.52-.07,1.07-.23,1.58,0,0-.07.09-.1.06a1.08,1.08,0,0,1-.45-.9c-.27.46-.5.94-.81,1.38,0,0-.08.06-.1,0-.67-1.27,0-2.51,1-3.37.45-.48,1.08-.93,1.62-.46C44.92,88.54,44.91,88.57,44.9,88.58Zm9.43-4.12a8,8,0,0,0-1.61-2,6.41,6.41,0,0,1,1.18,3.44,5.63,5.63,0,0,1-1.65,3.53A4.87,4.87,0,0,1,51,90.71a3.56,3.56,0,0,1-1.49.43c-1.22.09-2.43-.2-3.66-.15a0,0,0,0,1,0,0,3.19,3.19,0,0,1,.45-1.76,1.67,1.67,0,0,1,1.21-.63c.86-.1,1.69.19,2.55.14a1.62,1.62,0,0,0,1.35-.85,4.1,4.1,0,0,0,.44-1.06A3.4,3.4,0,0,1,50.16,88s-.06,0-.06-.05c.16-.88.77-1.75.53-2.66a7.93,7.93,0,0,1-3.74,2.07s-.06,0,0-.07c.54-.87,1.16-1.69,1.68-2.58a12.29,12.29,0,0,0,1.25-3,16.18,16.18,0,0,0,.64-6.37s.08-.11.11-.07l.17.17s.1-.07.12,0,.14.28.22.42a6.36,6.36,0,0,1,.45.74l.64,1a12.34,12.34,0,0,1,1.08,2.07,16.51,16.51,0,0,1,1.23,4.78S54.36,84.51,54.33,84.46Z"/><path class="cls-3" d="M108.64,87.67a2,2,0,0,0-.2-.21c-.08-.41-.18-.83-.24-1.24a21.1,21.1,0,0,0-.65-2.72c-.26-.89-.57-1.77-.81-2.66a23.52,23.52,0,0,0-.81-2.5c-.71-1.78-1.25-3.62-1.88-5.43s-1.24-3.62-1.87-5.42a88.15,88.15,0,0,1-3-10.8,53.05,53.05,0,0,1-1-5.85c-.09-.89-.06-1.79-.14-2.68s.13-2,.13-3a13,13,0,0,0-.24-3,11.62,11.62,0,0,0-.43-1.42,11.44,11.44,0,0,0-.55-1.62s-.1-.19-.23-.41c-.29-.6-.61-1.19-.91-1.75a97.07,97.07,0,0,0-6.24-9.79,64.69,64.69,0,0,0-6.71-8.31c-.65-.65-1.27-1.33-2-1.94s-1.38-1.16-2-1.79-1.08-1-1.65-1.5-1.36-1-2.07-1.53a13.67,13.67,0,0,0-2-1.15c-.49-.23-1-.43-1.49-.63a21.44,21.44,0,0,0-5.06.39A45.5,45.5,0,0,0,61.11,12a50.45,50.45,0,0,0-5.24,1.92c-.88.37-1.76.73-2.62,1.13s-1.49.58-2.23.9c-1.74.77-3.45,1.64-5.11,2.56-3.32,1.83-6.51,3.89-9.72,5.9S29.88,28.81,26.72,31c-1.6,1.11-3.18,2.27-4.72,3.47s-2.88,2.44-4.38,3.59C16.41,39,15.15,39.86,14,40.8a18.5,18.5,0,0,0-1.49,1.32c-.17.16-.33.34-.49.52a4.23,4.23,0,0,0-.89,1h0l-.08.13c-.07.14,0,.26.16.21.62-.21,1.23-.46,1.84-.69l-.31.23A26.7,26.7,0,0,0,9.13,46.6a9.72,9.72,0,0,0-2.69,4.09c-.18.76-.37,1.52-.49,2.28a9.28,9.28,0,0,0-.13,1.44c-.05.47-.08.94-.09,1.4,0,.15.15.13.23,0a4.55,4.55,0,0,0,.63-.74A13.59,13.59,0,0,0,6,56.42a6.67,6.67,0,0,0,0,4.43,44.38,44.38,0,0,1,1.13,5.48c.33,1.9.59,3.81.81,5.73.11.9.21,1.81.31,2.71s.11,1.77.19,2.66.05,1.7.06,2.56.15,2,.1,3a31.31,31.31,0,0,1-.54,5.21,5.53,5.53,0,0,1-1.18,2.75,10.64,10.64,0,0,1-1.53,1.47.67.67,0,0,0-.2-.13,4,4,0,0,0-1.1-.18,1.1,1.1,0,0,0-.56.11,1.4,1.4,0,0,0-.69-.07,2.77,2.77,0,0,0-1.73,1,5.61,5.61,0,0,0-.92,2,1.74,1.74,0,0,0,.73,2,2.74,2.74,0,0,0,.46.29,2.18,2.18,0,0,0,.55.29,14.58,14.58,0,0,0,3.05.8,21,21,0,0,0,6.12-.38,8.3,8.3,0,0,0,4.71-2.32,4.53,4.53,0,0,0,.61-.89c1.2-1.82,1.26-4.08,1.51-6.18.08-.61.19-1.2.22-1.81a2.71,2.71,0,0,1,0-.29c.05-.44.12-.88.21-1.31.33-1.68.65-3.36,1.09-5,.08-.31.17-.62.26-.93.35-1,.72-2.08,1.13-3.1.48-1.21,1-2.4,1.54-3.58s1-2.42,1.6-3.57a6.34,6.34,0,0,1,2-2.38l1.13.51a14.44,14.44,0,0,0,4.58,1,9.71,9.71,0,0,0,4.09-.68c.77-.26,1.53-.54,2.28-.85a23.67,23.67,0,0,1,2.4.47,17.43,17.43,0,0,1,4.59,2.08,29.84,29.84,0,0,1,8,6.87c1.1,1.36,1.74,3,2.74,4.38a18,18,0,0,1,1,2c.37.7.65,1.42,1,2.13a18.38,18.38,0,0,1,.68,1.93,15.12,15.12,0,0,1,.74,2.57c.14.85.36,1.71.44,2.56a5.56,5.56,0,0,1-.22,1.5,16.4,16.4,0,0,1-1,2.35,2.58,2.58,0,0,0-.31,1.69,3.75,3.75,0,0,0,1.43,1.6,8.68,8.68,0,0,0,4.11,1,21.39,21.39,0,0,0,5.42-.17,11.24,11.24,0,0,0,4.23-1.4c1.19-.77,1.17-2.22.78-3.41A3,3,0,0,0,71.58,93a14.25,14.25,0,0,1-1.09-3.46,26.57,26.57,0,0,1-.62-5.33c0-3.64,0-7.27.36-10.9.15-1.79.26-3.59.48-5.38s.59-3.74.73-5.63c.12-1.47.35-2.93.54-4.39.74-.23,1.53-.35,2.28-.51a12.5,12.5,0,0,0,2.08-.72,13.79,13.79,0,0,0,1.45,1.41c.69.55,1.45,1,2.13,1.56s1.42,1.3,2.09,2c1.3,1.3,2.6,2.62,3.86,4s2.32,2.85,3.43,4.28,2.3,3.15,3.37,4.78a32,32,0,0,1,2.74,4.88,34.88,34.88,0,0,1,2,5.51c.11.48.23.95.36,1.42h0a2.08,2.08,0,0,0-1.22.64,5,5,0,0,0-1.21,3.51c0,1.29,1.1,1.92,2.15,2.37a11.45,11.45,0,0,0,4.6.69,10.52,10.52,0,0,0,4.06-.6c1.22-.52,2.53-1,3.24-2.15S109.43,88.53,108.64,87.67Z"/><path class="cls-3" d="M23,64.81a5.74,5.74,0,0,1,.3.72c0,.09-.1.18-.18.15-2.77-.93-4.5-3.19-6.31-5.33a14.81,14.81,0,0,0,.83,2.31c0,.1-.13.2-.2.14a16.3,16.3,0,0,1-5.16-7,11.44,11.44,0,0,0,.42,2.52c0,.08-.13.23-.19.14-1.43-2-3.07-4-3.38-6.42-.1.38-.19.77-.27,1.15,0,.06-.17.18-.2.07a12.72,12.72,0,0,1,.16-6.31,8.89,8.89,0,0,0-2.41,3.78c-.18.76-.37,1.52-.49,2.28a9.28,9.28,0,0,0-.13,1.44c-.05.47-.08.94-.09,1.4,0,.15.15.13.23,0a4.55,4.55,0,0,0,.63-.74A13.59,13.59,0,0,0,6,56.42a6.67,6.67,0,0,0,0,4.43,44.38,44.38,0,0,1,1.13,5.48c.33,1.9.59,3.81.81,5.73.11.9.21,1.81.31,2.71s.11,1.77.19,2.66.05,1.7.06,2.56.15,2,.1,3a31.31,31.31,0,0,1-.54,5.21,5.53,5.53,0,0,1-1.18,2.75,10.64,10.64,0,0,1-1.53,1.47.67.67,0,0,0-.2-.13,4,4,0,0,0-1.1-.18,1.1,1.1,0,0,0-.56.11,1.4,1.4,0,0,0-.69-.07,2.77,2.77,0,0,0-1.73,1,5.61,5.61,0,0,0-.92,2,1.74,1.74,0,0,0,.73,2,2.74,2.74,0,0,0,.46.29,2.18,2.18,0,0,0,.55.29,14.58,14.58,0,0,0,3.05.8,21,21,0,0,0,6.12-.38,8.3,8.3,0,0,0,4.71-2.32,4.53,4.53,0,0,0,.61-.89c1.2-1.82,1.26-4.08,1.51-6.18.08-.61.19-1.2.22-1.81a2.71,2.71,0,0,1,0-.29c.05-.44.12-.88.21-1.31.33-1.68.65-3.36,1.09-5,.08-.31.17-.62.26-.93.35-1,.72-2.08,1.13-3.1.48-1.21,1-2.4,1.54-3.58s1-2.42,1.6-3.57A6.59,6.59,0,0,1,25.68,67,15,15,0,0,1,23,64.81Z"/><path class="cls-8" d="M71.8,55a27.9,27.9,0,0,0-.09,3.54,5.69,5.69,0,0,1,.29-.85c.09-1,.13-2.11.24-3.17a10.07,10.07,0,0,0,.08-3.71,8.17,8.17,0,0,0-2-2.94A3.55,3.55,0,0,0,69.17,47l-.43-.3.5.17a3.94,3.94,0,0,1,2,1.15c.06.07.16-.07.14-.13a9.17,9.17,0,0,0-2.48-3.83c-.23-.23-.43-.49-.66-.73s-.72-.56-1-.83c-.69-.57-1.39-1.12-2.12-1.63s-1.34-.86-2-1.29c-.4-.26-.77-.55-1.14-.84s-.54-.52-.81-.77c-1.11-1-2.42-1.92-3.49-3a13.07,13.07,0,0,1-1.5-1.82,13.3,13.3,0,0,0-.89-1.51s0,0,0,0a14.61,14.61,0,0,1,.75,1.6,15.92,15.92,0,0,0,1.25,1.79,9.36,9.36,0,0,0,1.82,1.79c.4.36.8.69,1.2,1s.63.56.95.84A19.8,19.8,0,0,1,63.32,41a13.43,13.43,0,0,1,2,3.64,7.55,7.55,0,0,0-.25-1.76,10.16,10.16,0,0,0-1-1.68c-.2-.29-.4-.56-.62-.82l.68.41a18.81,18.81,0,0,1,2.13,1.53,24.86,24.86,0,0,1,2,1.67A15.39,15.39,0,0,1,71,47.58a6,6,0,0,0-1.55-.76,15.83,15.83,0,0,0-1.55-.56l-.27-.14c-.18-.09-.58-.19-.86-.32.21.22.42.43.64.64a.62.62,0,0,1,.16.1,15.68,15.68,0,0,1,2,1.46,10.06,10.06,0,0,1,2.5,3.61A26.14,26.14,0,0,1,71.8,55Z"/><path class="cls-8" d="M83.78,39.33a5,5,0,0,0-1.89-2.72c-.15-.09-.41-.29-.5-.34l.77.43a4.86,4.86,0,0,1,1.25.83,3.19,3.19,0,0,1,.43.32,4.36,4.36,0,0,0,0-1.14l-.09-.32A5.89,5.89,0,0,0,83,34.63a9,9,0,0,0-1.94-2,4,4,0,0,0-.58-.31c.24.24.47.51.69.77.36.42.77.81,1.13,1.25A5.59,5.59,0,0,1,83.19,36a8.73,8.73,0,0,1,.43,1.28c-.66-.55-1.62-.69-2.33-1.18,0,0-.09,0-.06.06A8.68,8.68,0,0,1,83,38.33a17.24,17.24,0,0,1,1,3,14.56,14.56,0,0,1,.09,6.85,8.77,8.77,0,0,1-2,3.59,14.69,14.69,0,0,1-1.91,2.07,27.34,27.34,0,0,1-4.18,3,2,2,0,0,0,1-.45c.52-.33,1-.72,1.49-1.07a14.94,14.94,0,0,0,2.69-2.05,18.61,18.61,0,0,0,2.31-2.7,9,9,0,0,0,1.19-3.39A16.35,16.35,0,0,0,83.78,39.33Z"/><path class="cls-8" d="M13.36,92.32c-.36.59-1.46.38-2,.32a10.24,10.24,0,0,0-1.75-.13,2.34,2.34,0,0,0-1,.28c-.28-.62-1.66-.73-2.21-.68a3.54,3.54,0,0,0-1,.24c-.23-.4-1.12-.48-1.47-.41a3.28,3.28,0,0,0-2,1.47A4,4,0,0,0,1.17,96a2.06,2.06,0,0,0,.71,1.44,5,5,0,0,0,.54.35A3,3,0,0,1,1.88,94a4,4,0,0,1,1.53-1.63,2.23,2.23,0,0,1,1.92,0,3.06,3.06,0,0,0-1.24,1.05,2.69,2.69,0,0,0-.44,2.65,4.28,4.28,0,0,0,.42.89,3.18,3.18,0,0,0,.39.66,4,4,0,0,0,1.26.65,3.44,3.44,0,0,1-1-.74,4.19,4.19,0,0,1-.83-1.43,2.85,2.85,0,0,1,.36-2.44,2.71,2.71,0,0,1,2.36-1.3,4.38,4.38,0,0,1,2,.46,2.52,2.52,0,0,0-1,1.24c-.45,1.08-.56,3.46.63,4.15l.34,0c-.64-.32-.81-1.13-.9-1.88-.15-1.16,0-2.74,1.18-3.34.89-.46,2.26,0,3.21,0,.65,0,1.16-.1,1.36-.76Z"/><path class="cls-8" d="M72.15,93.07a1.67,1.67,0,0,0-1.08.1,1.92,1.92,0,0,0-.46.27.92.92,0,0,0-.18.22,3.27,3.27,0,0,0-2.09-.94,1.58,1.58,0,0,0-.64.14,2.47,2.47,0,0,0-.21-.27,2.43,2.43,0,0,0-1.43-.75c-.64-.21-1.35.25-2,.91-.08,0-.11-.12-.18-.14a1.42,1.42,0,0,0-.58-.1,3.38,3.38,0,0,0-1.21.27,3.89,3.89,0,0,0-.93.49.34.34,0,0,0-.32-.09,3,3,0,0,0-.86.34,2.33,2.33,0,0,0-.65.56c-.24.26-.37.62-.61.86h0a2.28,2.28,0,0,0,.33-.41,4.63,4.63,0,0,1,.71-.69c.2-.16.9-.56,1.18-.4a4.88,4.88,0,0,0-.89,1,4.48,4.48,0,0,0-.82,2.47,2.76,2.76,0,0,0,1.15,2.27s0,0,0,0a4.22,4.22,0,0,1-.72-.86,3.33,3.33,0,0,1-.13-1.63,4.42,4.42,0,0,1,.91-2.24,3.73,3.73,0,0,1,2-1.41,6.27,6.27,0,0,1,1.3-.19l.21,0A9.62,9.62,0,0,0,62.59,95a5,5,0,0,0-.38,3.55A2,2,0,0,0,64.36,100s0,0,0,0a1.33,1.33,0,0,1-1.24-.38,3.75,3.75,0,0,1-.6-1,4.4,4.4,0,0,1,.1-3,6.89,6.89,0,0,1,2.2-3.14,1.54,1.54,0,0,1,.84-.24,2.46,2.46,0,0,1,1.91,1.29,5.15,5.15,0,0,1,.51,1.24,16.55,16.55,0,0,1,.11,1.72c0,1,0,2.54-.76,3.37,0,0,0,.07,0,0,.91-.63,1-2,1-3a8.5,8.5,0,0,0-.14-2,4.35,4.35,0,0,0-.6-1.83,3.36,3.36,0,0,1,1.66.45,2.72,2.72,0,0,1,1.24,1.11,5.64,5.64,0,0,1,.61,3s0,.08,0,.12c-.05.3-.27,1.61-.71,1.63,0,0,0,0,0,0,.26.1.54-.22.74-.52a.1.1,0,0,0,0-.06s0,0,0,0a1.78,1.78,0,0,0,.14-.3,3.48,3.48,0,0,0,0-2.14A4.06,4.06,0,0,0,70.74,94a2.73,2.73,0,0,0-.27-.31,2.06,2.06,0,0,1,.53-.33,3.49,3.49,0,0,1,1.11-.23S72.2,93.08,72.15,93.07Z"/><path class="cls-8" d="M108.44,87.18a1.11,1.11,0,0,0-1.44.23l-.11-.21a2.26,2.26,0,0,0-1.43-1,2.12,2.12,0,0,0-.9-.06,1.61,1.61,0,0,0-.62.29l0,0a1.23,1.23,0,0,0-.57-.31,1.86,1.86,0,0,0-1.21,0,3.37,3.37,0,0,0-1,.69,1.46,1.46,0,0,0-1.6-.53,2.67,2.67,0,0,0-.92.5c-.15-.27-.35-.56-.7-.5a2.2,2.2,0,0,0-1.14.7s0,.09,0,.06a1.86,1.86,0,0,1,1-.46c.26,0,.43.19.65.3a4.19,4.19,0,0,0-.81,1c-.89,1.48-1.3,4.26.57,5.2,0,0,0,0,0,0-1.35-.9-1.08-3-.64-4.32A4.26,4.26,0,0,1,99,86.74c.48-.41,1.42-.13,2,.08a4.31,4.31,0,0,0-1,1.71,7.38,7.38,0,0,0-.26,3.81,1.87,1.87,0,0,0,2.43,1.28s0-.05,0,0A1.88,1.88,0,0,1,100,91.82a7.68,7.68,0,0,1,.2-2.94,3.5,3.5,0,0,1,1.76-2.5,2,2,0,0,1,1.24-.09,1.53,1.53,0,0,1,.52.18,6.22,6.22,0,0,1,1.08,3A9.76,9.76,0,0,1,105,93c0,.06.08,0,.09,0a6.67,6.67,0,0,0,.06-3.86,4.93,4.93,0,0,0-1-2.4,2.38,2.38,0,0,0-.17-.31l.24-.09a2,2,0,0,1,1.23.21,2.4,2.4,0,0,1,1.3,1.28,10.8,10.8,0,0,1,1.18,4.11s0,0,0,0a9.31,9.31,0,0,0-.85-4.32.93.93,0,0,1,.67-.28,1.52,1.52,0,0,1,.86.54,3.49,3.49,0,0,1,1,1.91s0,0,0,0A2.93,2.93,0,0,0,108.44,87.18Z"/><path class="cls-7" d="M108.64,87.67a2,2,0,0,0-.2-.21c-.08-.41-.18-.83-.24-1.24a21.1,21.1,0,0,0-.65-2.72c-.26-.89-.57-1.77-.81-2.66a23.52,23.52,0,0,0-.81-2.5c-.71-1.78-1.25-3.62-1.88-5.43s-1.24-3.62-1.87-5.42a88.15,88.15,0,0,1-3-10.8,53.05,53.05,0,0,1-1-5.85c-.09-.89-.06-1.79-.14-2.68s.13-2,.13-3a13,13,0,0,0-.24-3,11.62,11.62,0,0,0-.43-1.42,11.44,11.44,0,0,0-.55-1.62s-.1-.19-.23-.41c-.29-.6-.61-1.19-.91-1.75a97.07,97.07,0,0,0-6.24-9.79,64.69,64.69,0,0,0-6.71-8.31c-.65-.65-1.27-1.33-2-1.94s-1.38-1.16-2-1.79-1.08-1-1.65-1.5-1.36-1-2.07-1.53a13.67,13.67,0,0,0-2-1.15c-.49-.23-1-.43-1.49-.63a21.44,21.44,0,0,0-5.06.39A45.5,45.5,0,0,0,61.11,12a50.45,50.45,0,0,0-5.24,1.92c-.88.37-1.76.73-2.62,1.13s-1.49.58-2.23.9c-1.74.77-3.45,1.64-5.11,2.56-3.32,1.83-6.51,3.89-9.72,5.9S29.88,28.81,26.72,31c-1.6,1.11-3.18,2.27-4.72,3.47s-2.88,2.44-4.38,3.59C16.41,39,15.15,39.86,14,40.8a18.5,18.5,0,0,0-1.49,1.32c-.17.16-.33.34-.49.52a4.23,4.23,0,0,0-.89,1h0l-.08.13c-.07.14,0,.26.16.21.62-.21,1.23-.46,1.84-.69l-.31.23A26.7,26.7,0,0,0,9.13,46.6a9.72,9.72,0,0,0-2.69,4.09c-.18.76-.37,1.52-.49,2.28a9.28,9.28,0,0,0-.13,1.44c-.05.47-.08.94-.09,1.4,0,.15.15.13.23,0a4.55,4.55,0,0,0,.63-.74A13.59,13.59,0,0,0,6,56.42a6.67,6.67,0,0,0,0,4.43,44.38,44.38,0,0,1,1.13,5.48c.33,1.9.59,3.81.81,5.73.11.9.21,1.81.31,2.71s.11,1.77.19,2.66.05,1.7.06,2.56.15,2,.1,3a31.31,31.31,0,0,1-.54,5.21,5.53,5.53,0,0,1-1.18,2.75,10.64,10.64,0,0,1-1.53,1.47.67.67,0,0,0-.2-.13h0a6.51,6.51,0,0,1-.74.39,2.63,2.63,0,0,0-.89.77,2.88,2.88,0,0,0-.67,1.93c0,.34.05.75-.33.86-.69.19-.87-1.21-.86-1.63A3.12,3.12,0,0,1,3,92.35a4.89,4.89,0,0,0-1,.87A4.13,4.13,0,0,0,.76,96s-.06.09-.1.07a1,1,0,0,1-.49-.61s0,0,0-.06a1.75,1.75,0,0,0,.79,1.67,2.74,2.74,0,0,0,.46.29,2.18,2.18,0,0,0,.55.29,14.58,14.58,0,0,0,3.05.8,21,21,0,0,0,6.12-.38,8.3,8.3,0,0,0,4.71-2.32,4.53,4.53,0,0,0,.61-.89c1.2-1.82,1.26-4.08,1.51-6.18.08-.61.19-1.2.22-1.81a2.71,2.71,0,0,1,0-.29c.05-.44.12-.88.21-1.31.33-1.68.65-3.36,1.09-5,.08-.31.17-.62.26-.93.35-1,.72-2.08,1.13-3.1.48-1.21,1-2.4,1.54-3.58s1-2.42,1.6-3.57a6.34,6.34,0,0,1,2-2.38l1.13.51a14.44,14.44,0,0,0,4.58,1,9.71,9.71,0,0,0,4.09-.68c.77-.26,1.53-.54,2.28-.85a23.67,23.67,0,0,1,2.4.47,17.43,17.43,0,0,1,4.59,2.08,29.84,29.84,0,0,1,8,6.87c1.1,1.36,1.74,3,2.74,4.38a18,18,0,0,1,1,2c.37.7.65,1.42,1,2.13a18.38,18.38,0,0,1,.68,1.93,15.12,15.12,0,0,1,.74,2.57c.14.85.36,1.71.44,2.56a5.56,5.56,0,0,1-.22,1.5,9.39,9.39,0,0,1-.63,1.54,2.62,2.62,0,0,1,1-.78c.08,0,.07,0,0,.09A3,3,0,0,0,58.8,96.2c0,.37.24.94,0,1.26s-.51,0-.68-.23a0,0,0,0,1,0,0,3.75,3.75,0,0,0,1.43,1.6,8.68,8.68,0,0,0,4.11,1,21.39,21.39,0,0,0,5.42-.17,11.24,11.24,0,0,0,4.23-1.4c1.19-.77,1.17-2.22.78-3.41A3,3,0,0,0,71.58,93a14.25,14.25,0,0,1-1.09-3.46,26.57,26.57,0,0,1-.62-5.33c0-3.64,0-7.27.36-10.9.15-1.79.26-3.59.48-5.38s.59-3.74.73-5.63c.12-1.47.35-2.93.54-4.39.74-.23,1.53-.35,2.28-.51a12.5,12.5,0,0,0,2.08-.72,13.79,13.79,0,0,0,1.45,1.41c.69.55,1.45,1,2.13,1.56s1.42,1.3,2.09,2c1.3,1.3,2.6,2.62,3.86,4s2.32,2.85,3.43,4.28,2.3,3.15,3.37,4.78a32,32,0,0,1,2.74,4.88,34.88,34.88,0,0,1,2,5.51c.11.48.23.95.36,1.42h0a2.08,2.08,0,0,0-1.22.64,3.47,3.47,0,0,0-.25.29,2.06,2.06,0,0,1,1.15-.46c.07,0,0,.07,0,.09a3.4,3.4,0,0,0-.85,2.72c0,.62.27,1.36-.42,1.68a.71.71,0,0,1-.72-.06,3.44,3.44,0,0,0,2,1.62,11.45,11.45,0,0,0,4.6.69,10.52,10.52,0,0,0,4.06-.6c1.22-.52,2.53-1,3.24-2.15S109.43,88.53,108.64,87.67ZM70.79,93.82a2.25,2.25,0,0,1,2.1,1c.49.76-.17,1.59-.79,2,0,0-.09,0-.09,0a5.18,5.18,0,0,0-.09-.78,3.94,3.94,0,0,1-.33,1.11s-.11.09-.11,0a7.36,7.36,0,0,0-.39-2.34,6.68,6.68,0,0,1-.37-1A.1.1,0,0,1,70.79,93.82ZM6.9,93.42a2.39,2.39,0,0,0-.37,1.22,2.64,2.64,0,0,1-.36,1.49,1.74,1.74,0,0,1-2.21,0c-.57-.54-.31-1.39,0-2a4,4,0,0,1,1.56-1.59c.06,0,.09,0,.07,0a1.72,1.72,0,0,1,2.2,0s0,.08,0,.09A3.56,3.56,0,0,0,6.9,93.42Zm6.48,0a2.49,2.49,0,0,0-1.68.75A3.44,3.44,0,0,0,11,95.72c-.26,1-1.35,1-2.21,1a1.5,1.5,0,0,1-1-.2,1.34,1.34,0,0,1-.28-1.18A3,3,0,0,1,8.81,93s.07,0,.07,0a3.41,3.41,0,0,1,2.88,0c.05,0,0,.09,0,.1a3.73,3.73,0,0,0-1.29.89c.86-.5,2.1-1.12,3-.61C13.5,93.37,13.42,93.44,13.38,93.44Zm5.09-21.69a18.92,18.92,0,0,0-3.14-3.54,16.92,16.92,0,0,1,1.82,4.61,10.69,10.69,0,0,1-.9,5,44.72,44.72,0,0,0-1.33,5.83c-.37,2-.7,4.06-1,6.1,0,0-.11.12-.12,0-.4-1.94-.61-3.93-1.16-5.85-.2,1.81-.16,3.7-.92,5.38a2.75,2.75,0,0,1-1.28,1.5,6.81,6.81,0,0,1-1.9.37s0,0,0,0A33.1,33.1,0,0,0,10,82,66.24,66.24,0,0,0,8.61,69.07c-.2-1.1-.41-2.2-.63-3.29s-.51-2.13-.67-3.21c-.1-.66-1.09-3.89-.62-4.83.65-1.3,1-2.1,1.74-3.38,0,0,.1-.09.11,0,.17,1.19.44,2.37.66,3.56a6,6,0,0,1,.18-2.15s.1-.1.12,0a20.1,20.1,0,0,0,5.23,8.45A10.75,10.75,0,0,1,14,62c0-.05.08-.11.12-.07a43.15,43.15,0,0,1,3.14,4.58,11.1,11.1,0,0,1,1.34,5.22S18.51,71.8,18.47,71.75ZM45.8,51.68a33.35,33.35,0,0,0,1.55-3.11,23.21,23.21,0,0,1-3.06,2.11c-1.15.69-2.34,1.3-3.51,2a7.75,7.75,0,0,0-1.7,1.19,5,5,0,0,0-1.16,1.85s-.09.1-.11,0a9.19,9.19,0,0,1-.18-5.54,13.15,13.15,0,0,0-3.22,4.41s-.11.08-.12,0a27.25,27.25,0,0,1-.11-3.26,7.84,7.84,0,0,1,.32-1.75A12.55,12.55,0,0,0,30,57.18s-.1.1-.12,0A11.45,11.45,0,0,0,27.15,53a8.23,8.23,0,0,1,.66,2s-.07.12-.11.07a19.06,19.06,0,0,0-4-3.83,23.72,23.72,0,0,1-4-2.66,9.65,9.65,0,0,0,1,2.68c0,.05-.05.14-.09.1-2.47-1.89-5.86-5.48-3.93-8.8,0,0,.08-.08.11,0a18.4,18.4,0,0,0,1.58,2.76,11.37,11.37,0,0,1-.95-3s.07-.1.11-.08A11.71,11.71,0,0,1,20,44.54a13,13,0,0,0,2.82,2.51,10.38,10.38,0,0,0,3.48,1.51,13.15,13.15,0,0,0,3.86.18,15.51,15.51,0,0,0,8.16-3.14,10.58,10.58,0,0,0,1.91-2.1A4.18,4.18,0,0,1,41.86,42c.8-.32,1.66-.45,2.46-.78A13.18,13.18,0,0,0,48.7,38s.11-.06.1,0a8.72,8.72,0,0,1-1.42,3.6,19.2,19.2,0,0,0,5-7.24,4.88,4.88,0,0,0,.12-.55s.09-.09.11,0a7.23,7.23,0,0,1,.74,3.89c0,.18,0,.36,0,.54a14.42,14.42,0,0,0,.63-3s.08-.11.11-.06c1.75,2.68,3.28,6.35,1.23,9.29,0,0-.1.06-.1,0-.12-.82-.2-1.65-.3-2.47-.16.66-.34,1.31-.55,2a12,12,0,0,1-1.53,3.24,9.72,9.72,0,0,1-3,2.41c-1.29.75-2.63,1.41-4,2.1C45.82,51.75,45.77,51.73,45.8,51.68Zm14,34.67c-.37-1.66-.89-3.28-1.42-4.89-.27-.8-.54-1.6-.87-2.37s-.65-1.34-1-2l-.09-.22a13.65,13.65,0,0,0-1.6-2.34c-.75-.86-1.6-1.64-2.39-2.47,0,0,0-.1.07-.1,1.13-.05,2.19.36,3.31.41-1.39-2.47-4.42-3.66-7.07-4.15-.07,0,0-.1,0-.11a19.48,19.48,0,0,0,5.85-2.93,14.55,14.55,0,0,1-4.65.91c-.07,0,0-.1,0-.11a23.61,23.61,0,0,0,6.33-3.55c1.86-1.48,3.75-3.46,4-5.95,0,0,.09-.12.12-.05.33.81.8,1.55,1.15,2.35l.26.59q.36-1.47.6-3s.09-.1.11,0A10.58,10.58,0,0,1,64.17,60,6.44,6.44,0,0,1,64.26,61a23.15,23.15,0,0,0,1.14-2.54,12.82,12.82,0,0,0,1.24-5.82c0-.05.09-.12.12-.06a13.89,13.89,0,0,1,.65,1.84,14.84,14.84,0,0,0,.19-3.71s.08-.11.12-.06a8.36,8.36,0,0,1,1,1.74,10.88,10.88,0,0,1,.7,5.27c-.1,1-.31,1.88-.49,2.82-.22,1.14-.42,2.28-.6,3.43-.68,4.39-1.08,8.82-1.43,13.26,0,0-.09.11-.12,0a35,35,0,0,1-1.37-4.13,16.64,16.64,0,0,0,.1,3.38c.06,1.18.07,2.36.16,3.54a38.45,38.45,0,0,0,.58,4.29,16.52,16.52,0,0,0,1.16,3.5,20.81,20.81,0,0,1,1.35,3.32.09.09,0,0,1-.11.09,8.9,8.9,0,0,0-7.51.68s-.09,0-.07,0a7.62,7.62,0,0,0,.71-3.09c-.37.95-.48,2-1.24,2.78,0,0-.09,0-.09,0A27.6,27.6,0,0,0,59.8,86.35Zm1.46,11.06s-.06.09-.11.07a1.09,1.09,0,0,1-.52-.42,9.55,9.55,0,0,0,0,1.31s-.07.1-.11.07a2.34,2.34,0,0,1-.85-2.33,3.52,3.52,0,0,1,1.41-2.27,1.74,1.74,0,0,1,1.6-.55c.05,0,0,.07,0,.09a4.25,4.25,0,0,0-1.25,1.77,3.94,3.94,0,0,0-.23,1.23C61.2,96.72,61.3,97.07,61.26,97.41Zm5.48-2.19a4.47,4.47,0,0,0-.44-.52,6.44,6.44,0,0,1,.33,1.08,3.45,3.45,0,0,1,0,1.28,1.3,1.3,0,0,1-1.32,1,2.91,2.91,0,0,1-1.75-.25A1.4,1.4,0,0,1,63,96.54a4.38,4.38,0,0,0-.23.88s-.1.1-.11,0c-.54-1.53.42-3.12,1.36-4.32l0-.06a2.09,2.09,0,0,1,.14-.17.07.07,0,0,1,.06,0,1.23,1.23,0,0,1,1.77,0,3.34,3.34,0,0,1,.86,2.28S66.78,95.27,66.74,95.22Zm3.36-.51a1.86,1.86,0,0,1-.5,2.16s-.08,0-.09,0a5.23,5.23,0,0,1-.12-.57c-.14.36-.28.72-.44,1.08,0,0-.1.08-.11,0-.09-.81-.19-1.62-.3-2.42-.12-.56-.2-1.13-.36-1.67a.09.09,0,0,1,.07-.09A2.49,2.49,0,0,1,70.1,94.71Zm9.76-65.23c-.68-.42-1.37-.83-2.06-1.24.18,1.27.3,2.54.39,3.81,0,0-.07.1-.11.07A15.86,15.86,0,0,0,76.5,31a10.28,10.28,0,0,1,1.82,3s-.08.13-.11.08A5.8,5.8,0,0,0,76,32.26a21.82,21.82,0,0,1,4.25,9.18,5.85,5.85,0,0,1-.15,2.85,11.5,11.5,0,0,1-1.24,2.51c-1,1.57-2.28,2.93-3.39,4.42,0,0-.1.06-.1,0a10.22,10.22,0,0,0-.56-3.47,5.13,5.13,0,0,1-1.2,3.2s-.09.06-.1,0a10.14,10.14,0,0,0-.92-3.14,18.06,18.06,0,0,0-5.86-6.34C65,40.2,63.24,39,61.6,37.66a14,14,0,0,1-4-3.41,6.86,6.86,0,0,1-1.53-4.94c.29-1.55,1.43-2.66,2.44-3.8a4.9,4.9,0,0,0-2.65,1.67s-.12.05-.1,0A8.12,8.12,0,0,1,58,23.24a6.12,6.12,0,0,0-2.09,1.39s-.12,0-.09,0c2.36-5.83,8.35-8.49,14-10.33-2.33,0-4.56.76-6.85,1-.08,0,0-.08,0-.1a47.78,47.78,0,0,1,6-3,2.64,2.64,0,0,1,1.69-.65,2.38,2.38,0,0,1,1.56.5,14,14,0,0,1,3,3,48.16,48.16,0,0,1,5.13,7.38,41,41,0,0,1,3.85,10.79s-.08.13-.12.08A14.16,14.16,0,0,0,79.86,29.48Zm20,57.76a8.45,8.45,0,0,1-.28.85c-.37,1,.11,2.19-.33,3.2a.91.91,0,0,1-1,.58,1.21,1.21,0,0,1-.91-1.1,4.07,4.07,0,0,1,.5-2.76l0,0a3.87,3.87,0,0,1,1-1.11c.26-.21.75-.51,1-.16C99.94,86.86,99.88,87.07,99.83,87.24Zm0-4.35a48.45,48.45,0,0,1-1.74-5.18A14.9,14.9,0,0,1,98.26,82s-.11.1-.12,0q-.24-.9-.54-1.77A54.34,54.34,0,0,0,92,69.45c-2-3.2-3.73-6.59-6.88-8.84,0,0,0-.06,0-.08A14.82,14.82,0,0,1,87.33,59a6.57,6.57,0,0,0-3.72.38c-.06,0-.08,0,0-.07,1.6-2,3.69-3.57,4.88-5.83-1.09.55-2.16,1.13-3.26,1.67-.08,0-.09,0,0-.09a10.69,10.69,0,0,0,4.13-5.9,11.34,11.34,0,0,0,.32-7.05s.07-.12.12-.08a20,20,0,0,1,1.92,2.08A20.27,20.27,0,0,0,89.15,36s.06-.13.11-.09c1.41,1.52,2.88,3,4.22,4.56a11.29,11.29,0,0,1,1.92,2.6A14.15,14.15,0,0,1,96,49.25c-.08,2.08-.05,4.17-.24,6.24a18.14,18.14,0,0,0,.49,6,37.83,37.83,0,0,0,2,5.86c.78,1.87,1.71,3.69,2.45,5.57a10.9,10.9,0,0,1,1,5,14.14,14.14,0,0,1-1.7,4.91S99.91,82.94,99.88,82.89Zm2.82,8.54c-.68.68-2.07.79-2.48-.25a3.56,3.56,0,0,1,.32-3s0,0,0-.05c.35-.75,1.38-2.44,2.27-1.26a3.85,3.85,0,0,1,.63,2.29A3.19,3.19,0,0,1,102.7,91.43Zm2.81-.36s-.06,0-.07,0a6.71,6.71,0,0,1-.53-2.6c-.09-.35-.21-.7-.31-1l0-.08a0,0,0,0,1,0,0c0-.14-.07-.28-.1-.43a.08.08,0,0,1,.1-.08C106.18,87.34,107.2,90.06,105.51,91.07Zm3-.92a.1.1,0,0,1-.1.06c-.41-.13-.6-.59-.72-1-.35-.56-.61-1.36,0-1.42C108.79,87.66,108.73,89.53,108.49,90.15Z"/><path class="cls-7" d="M64.94,42.48a18.07,18.07,0,0,0-1.79-2.29,10.45,10.45,0,0,1-2.63-2.09c0-.05.07-.14.11-.09a9.44,9.44,0,0,0,2.15,1.79A48.2,48.2,0,0,0,59,36.42a4.91,4.91,0,0,1,.44,1.73,9.67,9.67,0,0,1-.11,2.4,15.56,15.56,0,0,1-2,5.52s-.12.09-.12,0a8.15,8.15,0,0,0-.35-2.19,9.08,9.08,0,0,1,0,2,9,9,0,0,1-1,2.32s-.1.08-.11,0a9.48,9.48,0,0,0-.88-2.63,6.59,6.59,0,0,1-1,2,12.19,12.19,0,0,1-2.44,2.58,18.7,18.7,0,0,1-3.57,2c-1.31.61-2.58,1.3-3.88,1.93,0,0-.07,0-.07,0a4,4,0,0,1,.61-1.54l.52-1c-.26.12-.52.23-.78.36a21.19,21.19,0,0,0-2.6,1.71,9.64,9.64,0,0,0-2.22,1.91A15.19,15.19,0,0,0,38,57.86s-.08.08-.1,0a9,9,0,0,1-1.23-5,10.45,10.45,0,0,0-1.37,5s-.07.11-.11.06A7.27,7.27,0,0,1,34,55.41c-.27-1-.53-2.06-.72-3.11,0-.18-.06-.37-.08-.55-1.69,1.81-2.38,4.45-2.84,6.88,0,0-.08.09-.11,0a4.23,4.23,0,0,1-.69-1.29,15.33,15.33,0,0,0-.92-1.69l-.46-.79a12.34,12.34,0,0,1,0,2.65s-.1.12-.11,0a8.72,8.72,0,0,0-3.6-4.89,9.35,9.35,0,0,1,.54,2s-.07.13-.1.08l-.12-.18c-2.59-3.67-9.39-3.72-10.12-8.74a7.9,7.9,0,0,0-.11,3.42c0,.05-.07.12-.12.08-1.2-1.21-2.76-2.89-1.61-4.64,1-1.46,2.72-2,3.85-3.33a5.8,5.8,0,0,0-3,1.35s-.09,0-.08,0a5.54,5.54,0,0,1,1-2.41c-.2.15-.39.29-.57.44a18.5,18.5,0,0,0-1.49,1.32c-.17.16-.33.34-.49.52a4.23,4.23,0,0,0-.89,1h0l-.08.13c-.07.14,0,.26.16.21.62-.21,1.23-.46,1.84-.69l-.31.23a28.68,28.68,0,0,0-3.22,2.71,4.82,4.82,0,0,1-.06,1.14c-.1.59-.28,1.22-.33,1.83,0,0,.05,0,.07,0,.42.93-.08,1.94-.07,2.91a10,10,0,0,0,.8,3.73,14.43,14.43,0,0,0,4,5c-.21-.83-.45-1.64-.7-2.46,0,0,.09-.13.12-.06,1.39,2.94,3.95,5.08,5.71,7.77a8,8,0,0,0-.67-2.48s.07-.11.11-.07a13.46,13.46,0,0,1,3.86,5.17s-.07.12-.11.08a6.37,6.37,0,0,0-1.82-1.17A2.65,2.65,0,0,1,21,69.15,6,6,0,0,1,20.67,71c-.5,1.67-1.12,3.31-1.66,5A60.38,60.38,0,0,0,16.4,86.5c-.23,1.73-.22,3.51-.55,5.22A7,7,0,0,1,15.06,94a6.48,6.48,0,0,1-1.66,1.84A7.85,7.85,0,0,1,11,97.13a9,9,0,0,1-1.29.34,2.07,2.07,0,0,1-1.53-.27,1.82,1.82,0,0,1-.83-1.61,4.49,4.49,0,0,0-.27,1.28c-.1.7-.7.84-1.34.77a2.25,2.25,0,0,1-1.83-1,2.55,2.55,0,0,1-.31-1.13,2.42,2.42,0,0,0,0,.76,1.5,1.5,0,0,1,.06.91c-.11.21-.44.19-.63.16a1.68,1.68,0,0,1-1.47-1.23,4.9,4.9,0,0,1,0-1.79,6.22,6.22,0,0,0-.31,2.5.09.09,0,0,1-.09.08c-.73,0-.92-.75-1.07-1.4a1.74,1.74,0,0,0,.79,1.64,2.74,2.74,0,0,0,.46.29,2.18,2.18,0,0,0,.55.29,14.58,14.58,0,0,0,3.05.8,21,21,0,0,0,6.12-.38,8.3,8.3,0,0,0,4.71-2.32,4.53,4.53,0,0,0,.61-.89c1.2-1.82,1.26-4.08,1.51-6.18.08-.61.19-1.2.22-1.81a2.71,2.71,0,0,1,0-.29c.05-.44.12-.88.21-1.31.33-1.68.65-3.36,1.09-5,.08-.31.17-.62.26-.93.35-1,.72-2.08,1.13-3.1.48-1.21,1-2.4,1.54-3.58s1-2.42,1.6-3.57a6.34,6.34,0,0,1,2-2.38l1.13.51a14.44,14.44,0,0,0,4.58,1,9.71,9.71,0,0,0,4.09-.68c.77-.26,1.53-.54,2.28-.85a23.67,23.67,0,0,1,2.4.47,17.43,17.43,0,0,1,4.59,2.08,29.68,29.68,0,0,1,6.64,5.33,26.11,26.11,0,0,0-6.47-7.31s0-.09,0-.11a5.69,5.69,0,0,1,2.74.2c-.72-.5-1.54-.85-2.23-1.4,0,0,0-.08,0-.1,1.34-.64,2.86-.73,4.22-1.29a22.91,22.91,0,0,0,4.51-2.76A15.9,15.9,0,0,0,58,58.73a23.13,23.13,0,0,0,2.1-3.61h0l0-.14s.05-.07.09-.06c.9.14,1.49,1,1.88,1.88a14.06,14.06,0,0,0,.55-2s.08-.09.11-.05a9.18,9.18,0,0,1,1.33,2.46c0,.05,0,.1,0,.15,1.42-2.26,3.12-4.87,1.56-7.48,0,0,0-.12.09-.09a2.56,2.56,0,0,1,1.1,1.6,10.84,10.84,0,0,0-.17-4.57A13.33,13.33,0,0,0,64.94,42.48Z"/><path class="cls-7" d="M74.08,94.92a2.46,2.46,0,0,0-.57-1c.38,1.81.06,3.83-2,4.24a0,0,0,0,1,0,0c0-.44-.12-.87-.18-1.31a1.8,1.8,0,0,1-.68,1.28,4.16,4.16,0,0,1-2.27.55,0,0,0,0,1,0,0,17.65,17.65,0,0,0,.06-2.06,2.63,2.63,0,0,1-.34.91c-.65,1.07-2,1.15-3.11,1.14s-2.59-.2-2.73-1.55a3.26,3.26,0,0,1,.12-1.16c0,.07,0,.14-.07.21-.17.59,0,1.2-.13,1.79A1.44,1.44,0,0,1,60.43,99,3.54,3.54,0,0,1,59,98.49a4.29,4.29,0,0,0,.5.37,8.68,8.68,0,0,0,4.11,1,21.39,21.39,0,0,0,5.42-.17,11.24,11.24,0,0,0,4.23-1.4C74.49,97.56,74.47,96.11,74.08,94.92Z"/><path class="cls-9" d="M62.84,94.92c.09-.18.17-.35.27-.52-.12.19-.24.4-.35.61Z"/><path class="cls-10" d="M109.59,89.29a3.23,3.23,0,0,1-1.47,1.79s-.08,0-.08,0a5.64,5.64,0,0,0-.39-1.33,3.19,3.19,0,0,1-.23,1.11,2.92,2.92,0,0,1-2.11,1.42s-.08,0-.06,0a2.2,2.2,0,0,0-.18-1.69c0,1-.31,1.89-1.35,2.16a6.6,6.6,0,0,1-1.47.14,3.31,3.31,0,0,1-1.25-.2,1.44,1.44,0,0,1-.92-1,5.71,5.71,0,0,1,0-1.09.13.13,0,0,0,0-.06c-.08.66,0,1.33-.06,2a.11.11,0,0,1-.08.08,2.32,2.32,0,0,1-2.7-1.92,2.09,2.09,0,0,0,.39,1.71s0,.11-.08.1a4.06,4.06,0,0,1-1.92-.81A3.78,3.78,0,0,0,97.47,93a11.45,11.45,0,0,0,4.6.69,10.52,10.52,0,0,0,4.06-.6c1.22-.52,2.53-1,3.24-2.15A2.07,2.07,0,0,0,109.59,89.29Z"/><path class="cls-10" d="M97.7,86.18l.11,0a1.05,1.05,0,0,1,.59.78,2.71,2.71,0,0,1,1.52-.68,1.71,1.71,0,0,1,1.06.53,2.05,2.05,0,0,1,2.33-.67,2.36,2.36,0,0,1,.59.43,2,2,0,0,1,2.24.07,2.82,2.82,0,0,1,.8.89,1.76,1.76,0,0,1,.66-.32,1.37,1.37,0,0,1,.81.08c-.07-.37-.16-.73-.21-1.1a21.1,21.1,0,0,0-.65-2.72c-.26-.89-.57-1.77-.81-2.66s-.44-1.54-.72-2.27c.14,2.29.2,4.59.24,6.88a.08.08,0,0,1-.09.08c-.51-.06-1-.24-1.49-.34a4.87,4.87,0,0,0-1.66,0c-.56.09-1.12.23-1.68.3a4,4,0,0,1-.69,0,3.35,3.35,0,0,0-.63,0c-.1,0-.22.09-.3,0a2.33,2.33,0,0,1-.48-.72,11.55,11.55,0,0,1-.36-1.57,8.47,8.47,0,0,1-.12,2.3s-.12.09-.12,0a3.67,3.67,0,0,0-.41-1.22c-.14-.38-.25-.76-.36-1.15a20.91,20.91,0,0,0-.75-2.32,54.34,54.34,0,0,0-2.46-5.31,70.42,70.42,0,0,0-5.53-9.21,32.69,32.69,0,0,0-4-4.5L83.89,60.7c-.34-.29-.66-.63-1-.9s-.56-.39-.82-.6-.35-.3-.36-.53a2.52,2.52,0,0,1,.88-1.6,9.35,9.35,0,0,0,.74-.8l.86-1.14c.27-.36.53-.73.77-1.11a11.27,11.27,0,0,1-3.58,1.91c-.08,0-.06-.07,0-.1,2.58-1.48,4.12-4.47,4.68-7.31a10.59,10.59,0,0,0-2-8.91s.06-.12.11-.08a9.21,9.21,0,0,1,2.09,1.89,20,20,0,0,0-.72-3.15,8.58,8.58,0,0,0-1.65-2.91,19.14,19.14,0,0,0-2.34-2.25,14.53,14.53,0,0,1,1.73,3.54s-.06.12-.1.08A11,11,0,0,0,79.45,35a10.24,10.24,0,0,1,3.1,4.4c1.09,3.2.17,6.51-1.62,9.27-1.67,2.58-4.17,5.16-7.29,5.77a0,0,0,0,1,0,0,7,7,0,0,0-1.43-5,8.8,8.8,0,0,0-4.29-2.92c.4.61.85,1.2,1.26,1.8a8.07,8.07,0,0,1,1.12,2.16,10.5,10.5,0,0,1,.44,2.68,32.65,32.65,0,0,1-.46,6c-.31,2.08-.55,4.17-.82,6.25-.29,2.24-.61,4.47-.87,6.71s-.5,4.48-.64,6.74a40.82,40.82,0,0,0,0,5.53,24.29,24.29,0,0,0,.91,5.22,14.88,14.88,0,0,0,.89,2.36A11.9,11.9,0,0,0,70.33,93a4.4,4.4,0,0,1,.44.79s0,0,0,0h.06A2,2,0,0,1,72,93.1a3.29,3.29,0,0,0-.43-.09,14.25,14.25,0,0,1-1.09-3.46,26.57,26.57,0,0,1-.62-5.33c0-3.64,0-7.27.36-10.9.15-1.79.26-3.59.48-5.38s.59-3.74.73-5.63c.12-1.47.35-2.93.54-4.39.74-.23,1.53-.35,2.28-.51a12.5,12.5,0,0,0,2.08-.72,13.79,13.79,0,0,0,1.45,1.41c.69.55,1.45,1,2.13,1.56s1.42,1.3,2.09,2c1.3,1.3,2.6,2.62,3.86,4s2.32,2.85,3.43,4.28,2.3,3.15,3.37,4.78a32,32,0,0,1,2.74,4.88,34.88,34.88,0,0,1,2,5.51C97.5,85.43,97.59,85.8,97.7,86.18Z"/><path class="cls-7" d="M27.9,54.27c0-.19-.07-.38-.12-.57-.2-.24-.41-.47-.63-.7a2,2,0,0,1,.1.21Z"/><path class="cls-11" d="M53.87,22.31a2,2,0,0,1,1,1.18,4,4,0,0,0-.37-1.43s0-.09.07-.09-.05-.17-.07-.26a.09.09,0,0,1,.07-.09A3.52,3.52,0,0,0,57,20.1a15.37,15.37,0,0,0,1.58-2.21,14.12,14.12,0,0,0,1.67-5.64c-1.47.48-2.92,1.06-4.35,1.65-.88.37-1.76.73-2.62,1.13s-1.49.58-2.23.9c-1.74.77-3.45,1.64-5.11,2.56-3.32,1.83-6.51,3.89-9.72,5.9S29.88,28.81,26.72,31c-1.6,1.11-3.18,2.27-4.72,3.47s-2.88,2.44-4.38,3.59c-.91.7-1.86,1.36-2.78,2.05.53.14,1.07.27,1.6.43a8.42,8.42,0,0,1,2.35,1.2c.76.53,1.5,1.09,2.28,1.6a13,13,0,0,0,5.25,2.08A16.64,16.64,0,0,0,37.2,43.3a20.31,20.31,0,0,0,2.37-1.63,9.42,9.42,0,0,1,2.24-1.24,30.56,30.56,0,0,0,5.13-2.19,10.87,10.87,0,0,0,4.77-6.7,9.57,9.57,0,0,0,.13-2.13s.08-.11.12-.07a3,3,0,0,1,.59,1,6.25,6.25,0,0,0,1-3.94s.07-.13.11-.08a3.42,3.42,0,0,1,.53,1.51,5.42,5.42,0,0,0,.41-2.64,6.09,6.09,0,0,0-.77-2.77C53.75,22.36,53.82,22.29,53.87,22.31Z"/><path class="cls-12" d="M44.94,63c-.34.61-.62,1.26-.9,1.89a6.82,6.82,0,0,0,3.59-2.31s.2-.1.18,0a5.15,5.15,0,0,1-.72,1.71,15.14,15.14,0,0,0,4-2.05c1.19-.8,2.41-1.58,3.57-2.44a14,14,0,0,0,5.18-6.37l0,0s0-.08,0-.12a.15.15,0,0,1,.18-.15,4.35,4.35,0,0,1,2.22,2A9.62,9.62,0,0,0,62,52.61c0-.08.13-.22.2-.14a19,19,0,0,1,2,3.33,9.21,9.21,0,0,0,1.29-5A4.69,4.69,0,0,0,64.63,48c-.42-.6-.89-1.14-1.25-1.78,0-.09.08-.22.17-.17A6.28,6.28,0,0,1,65.81,48a14.76,14.76,0,0,0,0-1.76A6.44,6.44,0,0,0,65.16,44a18.38,18.38,0,0,0-2.43-3.79,27.6,27.6,0,0,0-2.46-2.61,5.07,5.07,0,0,1,.34,2.07,18.82,18.82,0,0,1-2.89,8.54c0,.06-.18.15-.2,0a3.24,3.24,0,0,0-.3-1.05c-.42.92-1.06,1.77-1.45,2.68,0,.07-.18.13-.2,0a22.36,22.36,0,0,0-.45-2.72,8,8,0,0,1-3,3.85,41,41,0,0,1-4.81,2.44,26.21,26.21,0,0,0-4.74,2.79s-.16.07-.16,0a6.25,6.25,0,0,1,.5-2.13c-.35.23-.69.48-1,.74a38.3,38.3,0,0,0-4.53,4.74s-.17.12-.18,0a28.61,28.61,0,0,0-.93-3.25c-.39,1.23-.81,2.43-1.3,3.61,0,.05-.17.19-.21.07-.66-2.21-1.56-4.36-2.19-6.59A21.29,21.29,0,0,0,30.64,60c0,.07-.13.19-.2.11a20.41,20.41,0,0,1-1.75-2.57c-.06.75-.12,1.51-.12,2.28,0,.06-.15.2-.2.11a24.74,24.74,0,0,0-1.91-3.51l-.62-.73a11.08,11.08,0,0,1,0,1.63c0,.06-.14.21-.2.11A12.75,12.75,0,0,0,22.8,54a14.05,14.05,0,0,0-3.73-2.07,12.86,12.86,0,0,1-4.21-2.25,16.41,16.41,0,0,0,.92,2.06c0,.07-.12.2-.18.14a9.32,9.32,0,0,1-3.54-4.25,6.49,6.49,0,0,0,.37,2.89c0,.09-.13.2-.2.13a10.92,10.92,0,0,1-2.78-4.35l-.32.33a12.65,12.65,0,0,0-.33,6c.1-.41.2-.83.32-1.24,0-.08.2-.19.2,0,.1,2.5,1.65,4.52,3.08,6.46a5.94,5.94,0,0,1-.24-2.58c0-.06.18-.17.21-.07a15.36,15.36,0,0,0,4.88,7.12,17.68,17.68,0,0,1-.76-2.37c0-.09.12-.22.19-.14C18.55,62,20.26,64.35,23,65.39c-.15-.39-.35-.76-.51-1.15,0-.08.13-.21.2-.13a14.44,14.44,0,0,0,3.17,2.69l.13-.09,1.13.51a14.44,14.44,0,0,0,4.58,1,9.71,9.71,0,0,0,4.09-.68c.77-.26,1.53-.54,2.28-.85l.25,0A22.94,22.94,0,0,0,44.79,63C44.86,62.91,45,62.93,44.94,63Z"/><path class="cls-13" d="M63.55,46.07A6.28,6.28,0,0,1,65.81,48a14.76,14.76,0,0,0,0-1.76A6.44,6.44,0,0,0,65.16,44a18.38,18.38,0,0,0-2.43-3.79,27.6,27.6,0,0,0-2.46-2.61,5.07,5.07,0,0,1,.34,2.07,18.82,18.82,0,0,1-2.89,8.54c0,.06-.18.15-.2,0a3.24,3.24,0,0,0-.3-1.05c-.42.92-1.06,1.77-1.45,2.68,0,.07-.18.13-.2,0a22.36,22.36,0,0,0-.45-2.72,8,8,0,0,1-3,3.85,41,41,0,0,1-4.81,2.44,26.21,26.21,0,0,0-4.74,2.79s-.16.07-.16,0a6.25,6.25,0,0,1,.5-2.13c-.35.23-.69.48-1,.74a38.3,38.3,0,0,0-4.53,4.74s-.17.12-.18,0a28.61,28.61,0,0,0-.93-3.25c-.39,1.23-.81,2.43-1.3,3.61,0,.05-.17.19-.21.07-.66-2.21-1.56-4.36-2.19-6.59A21.29,21.29,0,0,0,30.64,60c0,.07-.13.19-.2.11a20.41,20.41,0,0,1-1.75-2.57c-.06.75-.12,1.51-.12,2.28,0,.06-.15.2-.2.11a24.74,24.74,0,0,0-1.91-3.51l-.62-.73a11.08,11.08,0,0,1,0,1.63c0,.06-.14.21-.2.11A12.75,12.75,0,0,0,22.8,54a14.05,14.05,0,0,0-3.73-2.07,12.86,12.86,0,0,1-4.21-2.25,16.41,16.41,0,0,0,.92,2.06c0,.07-.12.2-.18.14a9.32,9.32,0,0,1-3.54-4.25,6.49,6.49,0,0,0,.37,2.89c0,.09-.13.2-.2.13A10.84,10.84,0,0,1,9.73,47a8.42,8.42,0,0,0,3.78,5.21,5.11,5.11,0,0,1-.34-2.08s.07-.11.11-.06a10.52,10.52,0,0,0,3.11,2.76l1,.47c-.24-.53-.47-1.07-.72-1.59,0-.05.07-.11.11-.09a20.89,20.89,0,0,1,5.59,3.81,10.8,10.8,0,0,1,3.22,5.46,6.74,6.74,0,0,0,.12-1.9s.09-.11.12,0a8.62,8.62,0,0,1,.76,2.28,5.06,5.06,0,0,0,0-1.82s.06-.12.1-.08a11.6,11.6,0,0,1,2.24,4.61,9.89,9.89,0,0,1,.41-3.11s.08-.1.11-.05a8.25,8.25,0,0,0,1.72,2.51c0-.15,0-.3,0-.45,0-2.52-.4-5.2,1.24-7.3,0,0,.1-.06.1,0a15.76,15.76,0,0,0,1.08,4c.34.81.74,1.59,1.11,2.39a12.52,12.52,0,0,1,1.5-3.41s.08-.06.1,0a7.18,7.18,0,0,1,.18,3.87,4.47,4.47,0,0,1-1.77,2.23c1.65,0,3.12-.93,4.69-1.3.06,0,.08,0,.05.07a8.55,8.55,0,0,1-4.58,2.48,5.54,5.54,0,0,1-4.7-.82c.28.63.74,1.18,1,1.83a.08.08,0,0,1-.08.1,5.86,5.86,0,0,1-3.56-3.49,17.83,17.83,0,0,0,.55,2s-.07.11-.11.07a13.8,13.8,0,0,1-1.49-1.66c-.64-.51-1.1-1.21-1.76-1.69A12.42,12.42,0,0,1,26,64.75a.08.08,0,0,1-.09.09,10.36,10.36,0,0,1-4.4-2.72,9.17,9.17,0,0,1-1.7-2c-.42-.7-.78-1.42-1.25-2.09,0,1.38.86,2.56,1.06,3.91a.08.08,0,0,1-.1.08c-1.33-.62-2.23-2.06-3-3.22a10.74,10.74,0,0,1-2-4.23,20.85,20.85,0,0,0,0,3.62s-.07.1-.11.06a11.6,11.6,0,0,1-2.65-6.52,6.56,6.56,0,0,0-.72,2.83s-.08.12-.12.06a9.62,9.62,0,0,1-1.17-6,8.72,8.72,0,0,0-.64,2s-.11.11-.12,0a13.15,13.15,0,0,1,.25-4.15l-.16.16a12.65,12.65,0,0,0-.33,6c.1-.41.2-.83.32-1.24,0-.08.2-.19.2,0,.1,2.5,1.65,4.52,3.08,6.46a5.94,5.94,0,0,1-.24-2.58c0-.06.18-.17.21-.07a15.36,15.36,0,0,0,4.88,7.12,17.68,17.68,0,0,1-.76-2.37c0-.09.12-.22.19-.14C18.55,62,20.26,64.35,23,65.39c-.15-.39-.35-.76-.51-1.15,0-.08.13-.21.2-.13a14.44,14.44,0,0,0,3.17,2.69l.13-.09,1.13.51a14.44,14.44,0,0,0,4.58,1,9.71,9.71,0,0,0,4.09-.68c.77-.26,1.53-.54,2.28-.85l.25,0A22.94,22.94,0,0,0,44.79,63c.07-.05.21,0,.15.08-.34.61-.62,1.26-.9,1.89a6.82,6.82,0,0,0,3.59-2.31s.2-.1.18,0a5.15,5.15,0,0,1-.72,1.71,15.14,15.14,0,0,0,4-2.05c1.19-.8,2.41-1.58,3.57-2.44a14,14,0,0,0,5.18-6.37l0,0s0-.08,0-.12a.15.15,0,0,1,.18-.15,4.35,4.35,0,0,1,2.22,2A9.62,9.62,0,0,0,62,52.61c0-.08.13-.22.2-.14a19,19,0,0,1,2,3.33,9.21,9.21,0,0,0,1.29-5A4.69,4.69,0,0,0,64.63,48c-.42-.6-.89-1.14-1.25-1.78C63.34,46.15,63.46,46,63.55,46.07Zm-.9-.18s0,.12-.1.09c-.3-.2-.54-.47-.82-.69.43,1.05,1.12,2,1.57,3a4.38,4.38,0,0,1,.42,1.77c0,.62-.07,1.23-.1,1.84,0,.05-.11.13-.12.06-.17-.76-1-1.29-1.62-1.64a6.35,6.35,0,0,0-1.51-.64,5.45,5.45,0,0,1,.45,2.78s-.08.11-.11.06a3.52,3.52,0,0,0-2-1.55,13.65,13.65,0,0,1-3.3,6,19.47,19.47,0,0,1-2.61,2.28,8.57,8.57,0,0,1-3,1.6s-.07,0,0-.06c.64-1.1,1.4-2.13,2-3.25A19.55,19.55,0,0,1,49.32,59a13.52,13.52,0,0,1-3.41,1c-.67.13-1.33.28-2,.45a3.25,3.25,0,0,1-1.45.16s0,0,0-.06A28.65,28.65,0,0,1,44,57.41a4.85,4.85,0,0,0-1.67,1.15s-.14,0-.1,0c1-2,3.24-2.73,5.1-3.61,1-.46,2-.94,3-1.47A6.62,6.62,0,0,0,53,51.15s.11-.09.11,0a3.76,3.76,0,0,1-.27,1.28,11.06,11.06,0,0,0,1.77-2.6s.09-.09.11,0a5.13,5.13,0,0,1,0,1.66,14.67,14.67,0,0,0,1.14-1.09,5.22,5.22,0,0,0,.7-1,3.52,3.52,0,0,1,.49-.72s.11-.06.1,0a8.68,8.68,0,0,1-.39,2.14,26.45,26.45,0,0,0,3.08-4,12.45,12.45,0,0,0,1.23-5.35s.08-.11.11-.06c.87,1.2,2.35,2.34,2.49,3.92,0,0-.07.1-.11.06-.46-.41-1-.77-1.43-1.17C62.34,44.76,62.52,45.32,62.65,45.89Z"/><path class="cls-13" d="M63.55,46.07A6.28,6.28,0,0,1,65.81,48a14.76,14.76,0,0,0,0-1.76A6.44,6.44,0,0,0,65.16,44a18.38,18.38,0,0,0-2.43-3.79,24.58,24.58,0,0,0-1.68-1.85,24,24,0,0,1,2.24,3.51c.35.7.68,1.41,1,2.12a5.38,5.38,0,0,1,.55,2,.09.09,0,0,1-.09.08,18.38,18.38,0,0,1-2.09-.27,5.68,5.68,0,0,1,1.89,3.76,10.45,10.45,0,0,1-.47,4.64s-.08.09-.11.05a16.8,16.8,0,0,0-2.74-3.09c.22.79.39,1.59.58,2.39a.08.08,0,0,1-.07.09c-.25,0-.54-.31-.74-.43l-1.06-.62c-.35-.22-.69-.43-1-.67a4.73,4.73,0,0,1-.34,2.34,11,11,0,0,1-2.5,3.23A25,25,0,0,1,48.39,63s-.06,0-.06,0a6.6,6.6,0,0,1,.81-2.52,33.52,33.52,0,0,1-3.76,3s-.08,0-.07,0c.13-.64.25-1.28.37-1.93l-.34.31a15,15,0,0,1-2.88,1.91,31.14,31.14,0,0,1-5.52,2.5,15.25,15.25,0,0,1-6.14,1,15,15,0,0,1-3.1-.78A14.38,14.38,0,0,1,25,65.19a25.14,25.14,0,0,1-4.11-3.45c.07.22.16.44.24.63a14.63,14.63,0,0,0,.8,1.81s-.07.11-.1.08a27.09,27.09,0,0,1-3.41-2.92c-.81-.89-1.41-1.94-2.14-2.9.18.5.36,1,.56,1.48,1.83,2.14,3.52,4.46,6.22,5.47-.15-.39-.35-.76-.51-1.15,0-.08.13-.21.2-.13a14.44,14.44,0,0,0,3.17,2.69l.13-.09,1.13.51a14.44,14.44,0,0,0,4.58,1,9.71,9.71,0,0,0,4.09-.68c.77-.26,1.53-.54,2.28-.85l.25,0A22.94,22.94,0,0,0,44.79,63c.07-.05.21,0,.15.08-.34.61-.62,1.26-.9,1.89a6.82,6.82,0,0,0,3.59-2.31s.2-.1.18,0a5.15,5.15,0,0,1-.72,1.71,15.14,15.14,0,0,0,4-2.05c1.19-.8,2.41-1.58,3.57-2.44a14,14,0,0,0,5.18-6.37l0,0s0-.08,0-.12a.15.15,0,0,1,.18-.15,4.35,4.35,0,0,1,2.22,2A9.62,9.62,0,0,0,62,52.61c0-.08.13-.22.2-.14a19,19,0,0,1,2,3.33,9.21,9.21,0,0,0,1.29-5A4.69,4.69,0,0,0,64.63,48c-.42-.6-.89-1.14-1.25-1.78C63.34,46.15,63.46,46,63.55,46.07Z"/><path class="cls-13" d="M58.55,51.44l.2.15c0-.18-.06-.35-.1-.53C58.62,51.18,58.59,51.31,58.55,51.44Z"/><path class="cls-14" d="M50.83,87.9c-.3,1.26-2.54.43-3.33.36a2.28,2.28,0,0,0-1.47.36,1.2,1.2,0,0,0-.75-.57,2.19,2.19,0,0,0-1.79.32c-.16-.12-.25-.27-.48-.31a1.8,1.8,0,0,0-1,0,4,4,0,0,0-1.48,1.29,4.53,4.53,0,0,0-.76,2.17,1.3,1.3,0,0,0,.78,1.57s.12-.07.08-.11c-1-.82-.41-2.43.09-3.38a2.84,2.84,0,0,1,1.48-1.25,3.15,3.15,0,0,1,1.19.09,5.93,5.93,0,0,0-.8.78c-.88,1-1.93,3.65,0,4.1,0,0,.05,0,0,0-.74-.33-.79-1.24-.73-2a3.72,3.72,0,0,1,.9-1.92,3.43,3.43,0,0,1,1.36-1.09,2.17,2.17,0,0,1,1.83.32,2.73,2.73,0,0,0-.69.74A4.92,4.92,0,0,0,44.48,92a1.24,1.24,0,0,0,1.67,1.27s0,0,0,0c-.7.16-1.26-.62-1.32-1.2a4.15,4.15,0,0,1,.25-1.56,4,4,0,0,1,.75-1.37,2,2,0,0,1,1.73-.48,11.8,11.8,0,0,0,2.37.21,1.22,1.22,0,0,0,.91-1S50.83,87.9,50.83,87.9Z"/><path class="cls-3" d="M.09,7.13A27.83,27.83,0,0,1,.62,3.6a7.85,7.85,0,0,1,.77-2.26C2.3-.24,4.83,0,6.31.37A23.87,23.87,0,0,1,10,1.64a21.12,21.12,0,0,1,5.83,3.51,7.17,7.17,0,0,1,2,2.88,6.71,6.71,0,0,0-.44-.84c1.15,2.16.68,4.39-.11,6.6a16.54,16.54,0,0,1-2.48,4.51,14.71,14.71,0,0,1-1.77,1.76,11.4,11.4,0,0,1-1.6,1.36,4.44,4.44,0,0,1-1.23.76,4.48,4.48,0,0,1-2.06.11,7.06,7.06,0,0,1-2-.56c-.2-.19-.39-.39-.6-.57s-.53-.41-.79-.62a4.92,4.92,0,0,0,1.21,0,7.39,7.39,0,0,1-2.94-2.08A13.25,13.25,0,0,1,0,9.84,22.24,22.24,0,0,1,.09,7.13Z"/><path class="cls-15" d="M8.29,2.62a12.23,12.23,0,0,1,5.06,4.54,7.93,7.93,0,0,1,1.15,4.75,8.83,8.83,0,0,1-1.78,4.45,6,6,0,0,1-6.59,2.33A7.72,7.72,0,0,1,2.69,16.2,12,12,0,0,1,1,10.09a19.81,19.81,0,0,1,.07-2.31,24.77,24.77,0,0,1,.45-3A6.51,6.51,0,0,1,2.2,2.86C3,1.51,5.13,1.76,6.4,2A14.19,14.19,0,0,1,8.29,2.62Z"/><path class="cls-16" d="M17.41,7.19a6.71,6.71,0,0,1,.44.84,7.17,7.17,0,0,0-2-2.88A21.12,21.12,0,0,0,10,1.64,23.87,23.87,0,0,0,6.31.37c-1.48-.33-4-.61-4.92,1A7.85,7.85,0,0,0,.62,3.6,27.83,27.83,0,0,0,.09,7.13,22.24,22.24,0,0,0,0,9.84a13.25,13.25,0,0,0,3.06,8.65A7.39,7.39,0,0,0,6,20.57a4.92,4.92,0,0,1-1.21,0c.26.21.55.39.79.62s.4.38.6.57a7.06,7.06,0,0,0,2,.56,4.48,4.48,0,0,0,2.06-.11,4.44,4.44,0,0,0,1.23-.76,11.4,11.4,0,0,0,1.6-1.36,14.71,14.71,0,0,0,1.77-1.76,16.54,16.54,0,0,0,2.48-4.51C18.09,11.58,18.56,9.35,17.41,7.19ZM12.59,5.7c-1.15-.55-2.1-1.46-3.29-1.93a12,12,0,0,1,2,2.1s0,.12-.09.1A11,11,0,0,0,5.83,4.32c.76,1,1.58,1.88,2.4,2.79,0,0,0,.11-.08.1a11.56,11.56,0,0,1-2.55-1l.29.55a9.74,9.74,0,0,1,1.29,3.88s-.07.11-.11.06A8.58,8.58,0,0,0,5.38,9.18,16.18,16.18,0,0,1,6.05,13a27,27,0,0,1,.11,2.85,5.1,5.1,0,0,1-.54,2.39s-.08.07-.11,0c-.31-.39-.61-.77-.89-1.18.31.73.66,1.44,1,2.14,0,.05,0,.12-.09.1a7.09,7.09,0,0,1-3.43-2.8A13.41,13.41,0,0,1,.29,9.17,19,19,0,0,1,1.43,2.66s0,0,0,0A2.11,2.11,0,0,1,2.57,1,4.36,4.36,0,0,1,5.15.86,12.26,12.26,0,0,1,8.37,2a14.43,14.43,0,0,1,2.83,1.8,4.27,4.27,0,0,1,1.49,1.85S12.63,5.71,12.59,5.7Z"/><path class="cls-3" d="M59.66,7.13a27.83,27.83,0,0,0-.53-3.53,7.58,7.58,0,0,0-.78-2.26c-.9-1.58-3.44-1.3-4.92-1a24.6,24.6,0,0,0-3.71,1.27,21.42,21.42,0,0,0-5.83,3.51A7.25,7.25,0,0,0,41.9,8a6.71,6.71,0,0,1,.44-.84c-1.15,2.16-.68,4.39.11,6.6a16.28,16.28,0,0,0,2.48,4.51,14,14,0,0,0,1.77,1.76,10.86,10.86,0,0,0,1.6,1.36,4.3,4.3,0,0,0,1.23.76,4.48,4.48,0,0,0,2.06.11,7.15,7.15,0,0,0,2-.56c.2-.19.39-.39.59-.57s.53-.41.79-.62a4.82,4.82,0,0,1-1.2,0,7.29,7.29,0,0,0,2.93-2.08,13.31,13.31,0,0,0,3.07-8.65C59.76,8.94,59.73,8,59.66,7.13Z"/><path class="cls-15" d="M51.45,2.62A12.27,12.27,0,0,0,46.4,7.16a7.94,7.94,0,0,0-1.16,4.75A8.84,8.84,0,0,0,47,16.36a6,6,0,0,0,6.59,2.33,7.72,7.72,0,0,0,3.44-2.49,12.12,12.12,0,0,0,1.68-6.11,22.28,22.28,0,0,0-.07-2.31,24.77,24.77,0,0,0-.45-3,6.8,6.8,0,0,0-.67-1.93c-.77-1.35-2.94-1.1-4.2-.82A14.33,14.33,0,0,0,51.45,2.62Z"/><path class="cls-16" d="M59.66,7.13a27.83,27.83,0,0,0-.53-3.53,7.58,7.58,0,0,0-.78-2.26A2.86,2.86,0,0,0,55.8.12a6.27,6.27,0,0,1,.58.29,3.46,3.46,0,0,1,1,.94C58.56,2.89,58.81,5,58.94,6.87a19.72,19.72,0,0,1-.18,5A11.41,11.41,0,0,1,57,16.25,9.3,9.3,0,0,1,55.46,18a8.2,8.2,0,0,1-2.21,1.45s0,0-.06,0a3.38,3.38,0,0,1-.29-1.63A17.87,17.87,0,0,1,53,15.9a10.06,10.06,0,0,1,.63-2.61c-.53.68-.93,1.47-1.4,2.2,0,0-.11.09-.11,0a9.27,9.27,0,0,1,2.52-6.44c-.74.43-1.47.89-2.17,1.38a0,0,0,0,1-.07-.06A8,8,0,0,1,54,8.55a6.93,6.93,0,0,0-2.19,1.36s-.11,0-.08,0A7.65,7.65,0,0,1,54.4,6.79a29.69,29.69,0,0,0-4.2.32c-.06,0,0-.07,0-.09a9.51,9.51,0,0,1,3.3-2l.36-.13a12.88,12.88,0,0,0-7.16,1s-.09,0-.07,0a5,5,0,0,1,1.73-2.43A9.28,9.28,0,0,0,46.1,5.12c-.05,0-.15,0-.09,0a15.43,15.43,0,0,1,4.77-3.85l-1.06.42a21.42,21.42,0,0,0-5.83,3.51A7.25,7.25,0,0,0,41.9,8a6.71,6.71,0,0,1,.44-.84c-1.15,2.16-.68,4.39.11,6.6a16.28,16.28,0,0,0,2.48,4.51,14,14,0,0,0,1.77,1.76,10.86,10.86,0,0,0,1.6,1.36,4.3,4.3,0,0,0,1.23.76,4.48,4.48,0,0,0,2.06.11,7.15,7.15,0,0,0,2-.56c.2-.19.39-.39.59-.57s.53-.41.79-.62a4.82,4.82,0,0,1-1.2,0,7.29,7.29,0,0,0,2.93-2.08,13.31,13.31,0,0,0,3.07-8.65C59.76,8.94,59.73,8,59.66,7.13Z"/><path class="cls-17" d="M53.36,25.58c0-.34.09-.68.11-1a6.68,6.68,0,0,0-.84-2.25,6.31,6.31,0,0,0-.73-1c.32.16.65.31,1,.48a.1.1,0,0,0,.15-.06,7,7,0,0,1-1.26-2.56,1.7,1.7,0,0,1-.14-.82,5.27,5.27,0,0,1,0-1.12.11.11,0,0,0-.07,0c-.15.13-.39.29-.58.46a12.71,12.71,0,0,1,.52-5.39,10.16,10.16,0,0,1,.33-1.07,4.73,4.73,0,0,0-.94.44,5.66,5.66,0,0,0-1,.68l-.07.06A7.72,7.72,0,0,1,50,11.41a8.43,8.43,0,0,1,2-3.62c.09-.1,0-.27-.16-.26a23.08,23.08,0,0,0-3.2.58l-.11,0A8.11,8.11,0,0,1,49.31,7a8.22,8.22,0,0,1,1-.87c.07,0,0-.17-.1-.16a23.1,23.1,0,0,0-2.75.42A5.89,5.89,0,0,0,45.9,7l-.19.12a9.18,9.18,0,0,0-3.22-2.45,11.22,11.22,0,0,0-3.64-1.2,12.19,12.19,0,0,0-1.6,0h0a4.34,4.34,0,0,1,.62-.88,3.36,3.36,0,0,1-.65-.05l-.7,0c-.33.06-.67.14-1,.23a3.59,3.59,0,0,0-1,.44,10.18,10.18,0,0,1,.89-2.08c-.37.11-.74.22-1.12.3a5.46,5.46,0,0,0-1,.67,5.22,5.22,0,0,0-.8,1A6.23,6.23,0,0,1,33.15.74s0,0,0,0q-.67.2-1.35.45a11.85,11.85,0,0,0-1.55,1.17c-.17.14-.33.3-.48.45a2.18,2.18,0,0,0,0-.25A7.36,7.36,0,0,1,30.25,0h0a3,3,0,0,0-.45.11,9.46,9.46,0,0,0-1.49.65A11.28,11.28,0,0,0,26.92,2a5.36,5.36,0,0,0-.87,1.33,5.63,5.63,0,0,0-1-1.31,6.89,6.89,0,0,0-.71-.53A6.34,6.34,0,0,0,22.94,1a11.27,11.27,0,0,1,.93,2.15,3.59,3.59,0,0,0-1-.44c-.38-.1-.76-.19-1.15-.26s-.82-.25-1.26-.29c-.09,0-.23.13-.14.22a3.74,3.74,0,0,1,.81,1.08h0a12.21,12.21,0,0,0-1.6,0,11.3,11.3,0,0,0-3.64,1.2A9.27,9.27,0,0,0,12.7,7.12L12.51,7A6,6,0,0,0,11,6.34a23.42,23.42,0,0,0-2.75-.42c-.07,0-.17.11-.11.16a7.61,7.61,0,0,1,1,.87,8.11,8.11,0,0,1,.82,1.19l-.11,0a21.15,21.15,0,0,0-3-.55c.31.65.56,1.33.85,2a8.08,8.08,0,0,1,.73,1.87,9.65,9.65,0,0,1,.19,1.05l-.08-.06a5,5,0,0,0-1-.68,4.65,4.65,0,0,0-.93-.44l.21.83c.83,1.66.71,3.8.64,5.63-.19-.17-.43-.33-.58-.46h0a4.61,4.61,0,0,1,0,1,2.62,2.62,0,0,1-.45,1.52h0c-.28.65-.61,1.29-.93,1.92a.09.09,0,0,0,.13,0c.3-.17.63-.32,1-.48a5.24,5.24,0,0,0-.73,1,6.51,6.51,0,0,0-.66,1.48c0,.55,0,1.1,0,1.65a9.39,9.39,0,0,1,1.14-1.31L6.51,24A5.37,5.37,0,0,0,6,25.1a7.11,7.11,0,0,0-.06,2.26c.13.49.29,1,.46,1.43a7.58,7.58,0,0,0,.56-1.1l.16-.26v.11A11.17,11.17,0,0,0,7.35,30a15.91,15.91,0,0,0,.76,2.43A13.09,13.09,0,0,0,9.3,35a4.56,4.56,0,0,0,1.47,1.36c.75.48,1.53.92,2.31,1.33a43.49,43.49,0,0,0,5,2.23c.06.06.11.12.17.17a7.9,7.9,0,0,0,1.24.91,22.69,22.69,0,0,0,5.89,2.78,13.68,13.68,0,0,0,3.85.51,13.56,13.56,0,0,0,3.84-.51A22.6,22.6,0,0,0,39,41a7.82,7.82,0,0,0,1.23-.91l.18-.17a44.28,44.28,0,0,0,5-2.23c.78-.41,1.56-.85,2.3-1.33A4.49,4.49,0,0,0,49.12,35a12.51,12.51,0,0,0,1.18-2.61A16,16,0,0,0,51.07,30a11.82,11.82,0,0,0,.25-2.44.45.45,0,0,1,0-.11,2.26,2.26,0,0,1,.16.26,10.32,10.32,0,0,0,.53,1,7.22,7.22,0,0,0,.41-.78,7.86,7.86,0,0,0,0-2.86A5.87,5.87,0,0,0,51.91,24l.19.16A13.46,13.46,0,0,1,53.36,25.58Z"/><path class="cls-18" d="M53.36,25.58c0-.34.09-.68.11-1a6.68,6.68,0,0,0-.84-2.25,6.31,6.31,0,0,0-.73-1c.32.16.65.31,1,.48a.1.1,0,0,0,.15-.06,7,7,0,0,1-1.26-2.56,1.7,1.7,0,0,1-.14-.82,5.27,5.27,0,0,1,0-1.12.11.11,0,0,0-.07,0c-.15.13-.39.29-.58.46a12.71,12.71,0,0,1,.52-5.39,10.16,10.16,0,0,1,.33-1.07,4.73,4.73,0,0,0-.94.44,5.66,5.66,0,0,0-1,.68l-.07.06A7.72,7.72,0,0,1,50,11.41a8.43,8.43,0,0,1,2-3.62c.09-.1,0-.27-.16-.26a23.08,23.08,0,0,0-3.2.58l-.11,0A8.11,8.11,0,0,1,49.31,7a8.22,8.22,0,0,1,1-.87c.07,0,0-.17-.1-.16a23.1,23.1,0,0,0-2.75.42A5.89,5.89,0,0,0,45.9,7l-.19.12a9.18,9.18,0,0,0-3.22-2.45,11.22,11.22,0,0,0-3.64-1.2,12.19,12.19,0,0,0-1.6,0h0a4.34,4.34,0,0,1,.62-.88,3.36,3.36,0,0,1-.65-.05l-.7,0c-.33.06-.67.14-1,.23a3.59,3.59,0,0,0-1,.44,10.18,10.18,0,0,1,.89-2.08c-.37.11-.74.22-1.12.3a5.46,5.46,0,0,0-1,.67,5.22,5.22,0,0,0-.8,1A6.23,6.23,0,0,1,33.15.74s0,0,0,0q-.67.2-1.35.45a11.85,11.85,0,0,0-1.55,1.17c-.17.14-.33.3-.48.45a2.18,2.18,0,0,0,0-.25A7.36,7.36,0,0,1,30.25,0h0a3,3,0,0,0-.45.11,9.46,9.46,0,0,0-1.49.65A11.28,11.28,0,0,0,26.92,2a5.36,5.36,0,0,0-.87,1.33,5.63,5.63,0,0,0-1-1.31,6.89,6.89,0,0,0-.71-.53A6.34,6.34,0,0,0,22.94,1a11.27,11.27,0,0,1,.93,2.15,3.59,3.59,0,0,0-1-.44c-.38-.1-.76-.19-1.15-.26s-.82-.25-1.26-.29c-.09,0-.23.13-.14.22a3.74,3.74,0,0,1,.81,1.08h0a12.21,12.21,0,0,0-1.6,0,11.3,11.3,0,0,0-3.64,1.2A9.27,9.27,0,0,0,12.7,7.12L12.51,7A6,6,0,0,0,11,6.34a23.42,23.42,0,0,0-2.75-.42c-.07,0-.17.11-.11.16a7.61,7.61,0,0,1,1,.87,8.11,8.11,0,0,1,.82,1.19l-.11,0a21.15,21.15,0,0,0-3-.55c.31.65.56,1.33.85,2a8.08,8.08,0,0,1,.73,1.87,9.65,9.65,0,0,1,.19,1.05l-.08-.06a5,5,0,0,0-1-.68,4.65,4.65,0,0,0-.93-.44l.21.83c.83,1.66.71,3.8.64,5.63-.19-.17-.43-.33-.58-.46h0a4.61,4.61,0,0,1,0,1,2.62,2.62,0,0,1-.45,1.52h0c-.28.65-.61,1.29-.93,1.92a.09.09,0,0,0,.13,0c.3-.17.63-.32,1-.48a5.24,5.24,0,0,0-.73,1,6.51,6.51,0,0,0-.66,1.48c0,.55,0,1.1,0,1.65a9.39,9.39,0,0,1,1.14-1.31L6.51,24A5.37,5.37,0,0,0,6,25.1a7.11,7.11,0,0,0-.06,2.26c.13.49.29,1,.46,1.43a7.58,7.58,0,0,0,.56-1.1l.16-.26v.11A11.17,11.17,0,0,0,7.35,30a15.91,15.91,0,0,0,.76,2.43A13.09,13.09,0,0,0,9.3,35a4.56,4.56,0,0,0,1.47,1.36c.75.48,1.53.92,2.31,1.33a43.49,43.49,0,0,0,5,2.23c.06.06.11.12.17.17a7.9,7.9,0,0,0,1.24.91,22.69,22.69,0,0,0,5.89,2.78,13.68,13.68,0,0,0,3.85.51,13.56,13.56,0,0,0,3.84-.51A22.6,22.6,0,0,0,39,41a7.82,7.82,0,0,0,1.23-.91l.18-.17a44.28,44.28,0,0,0,5-2.23c.78-.41,1.56-.85,2.3-1.33A4.49,4.49,0,0,0,49.12,35a12.51,12.51,0,0,0,1.18-2.61A16,16,0,0,0,51.07,30a11.82,11.82,0,0,0,.25-2.44.45.45,0,0,1,0-.11,2.26,2.26,0,0,1,.16.26,10.32,10.32,0,0,0,.53,1,7.22,7.22,0,0,0,.41-.78,7.86,7.86,0,0,0,0-2.86A5.87,5.87,0,0,0,51.91,24l.19.16A13.46,13.46,0,0,1,53.36,25.58Z"/><path class="cls-7" d="M53.36,25.58c0-.34.09-.68.11-1a6.68,6.68,0,0,0-.84-2.25,6.31,6.31,0,0,0-.73-1c.32.16.65.31,1,.48a.1.1,0,0,0,.15-.06,7,7,0,0,1-1.26-2.56,1.7,1.7,0,0,1-.14-.82,5.27,5.27,0,0,1,0-1.12.11.11,0,0,0-.07,0c-.15.13-.39.29-.58.46a12.71,12.71,0,0,1,.52-5.39,10.16,10.16,0,0,1,.33-1.07,4.73,4.73,0,0,0-.94.44,5.66,5.66,0,0,0-1,.68l-.07.06A7.72,7.72,0,0,1,50,11.41a8.43,8.43,0,0,1,2-3.62c.09-.1,0-.27-.16-.26a23.08,23.08,0,0,0-3.2.58l-.11,0A8.11,8.11,0,0,1,49.31,7a8.22,8.22,0,0,1,1-.87c.07,0,0-.17-.1-.16a23.1,23.1,0,0,0-2.75.42A5.89,5.89,0,0,0,45.9,7l-.19.12a9.18,9.18,0,0,0-3.22-2.45,11.22,11.22,0,0,0-3.64-1.2,12.19,12.19,0,0,0-1.6,0h0a4.34,4.34,0,0,1,.62-.88,3.36,3.36,0,0,1-.65-.05l-.7,0c-.33.06-.67.14-1,.23a3.59,3.59,0,0,0-1,.44,10.18,10.18,0,0,1,.89-2.08c-.37.11-.74.22-1.12.3a5.46,5.46,0,0,0-1,.67,5.22,5.22,0,0,0-.8,1A6.23,6.23,0,0,1,33.15.74s0,0,0,0q-.67.2-1.35.45a11.85,11.85,0,0,0-1.55,1.17c-.17.14-.33.3-.48.45a2.18,2.18,0,0,0,0-.25A7.36,7.36,0,0,1,30.25,0h0a3,3,0,0,0-.45.11,9.46,9.46,0,0,0-1.49.65A11.28,11.28,0,0,0,26.92,2a5.36,5.36,0,0,0-.87,1.33,5.63,5.63,0,0,0-1-1.31,6.89,6.89,0,0,0-.71-.53A6.34,6.34,0,0,0,22.94,1a11.27,11.27,0,0,1,.93,2.15,3.59,3.59,0,0,0-1-.44c-.38-.1-.76-.19-1.15-.26s-.82-.25-1.26-.29c-.09,0-.23.13-.14.22a3.74,3.74,0,0,1,.81,1.08h0a12.21,12.21,0,0,0-1.6,0,11.3,11.3,0,0,0-3.64,1.2A9.27,9.27,0,0,0,12.7,7.12L12.51,7A6,6,0,0,0,11,6.34a23.42,23.42,0,0,0-2.75-.42c-.07,0-.17.11-.11.16a7.61,7.61,0,0,1,1,.87,8.11,8.11,0,0,1,.82,1.19l-.11,0a21.15,21.15,0,0,0-3-.55c.31.65.56,1.33.85,2a8.08,8.08,0,0,1,.73,1.87,9.65,9.65,0,0,1,.19,1.05l-.08-.06a5,5,0,0,0-1-.68,4.65,4.65,0,0,0-.93-.44l.21.83c.83,1.66.71,3.8.64,5.63-.19-.17-.43-.33-.58-.46h0a4.61,4.61,0,0,1,0,1,2.62,2.62,0,0,1-.45,1.52h0c-.28.65-.61,1.29-.93,1.92a.09.09,0,0,0,.13,0c.3-.17.63-.32,1-.48a5.24,5.24,0,0,0-.73,1,6.51,6.51,0,0,0-.66,1.48c0,.55,0,1.1,0,1.65a9.39,9.39,0,0,1,1.14-1.31L6.51,24A5.37,5.37,0,0,0,6,25.1a7.11,7.11,0,0,0-.06,2.26c.13.49.29,1,.46,1.43a7.58,7.58,0,0,0,.56-1.1l.16-.26v.11A11.17,11.17,0,0,0,7.35,30a15.91,15.91,0,0,0,.76,2.43A13.09,13.09,0,0,0,9.3,35a4.56,4.56,0,0,0,1.47,1.36c.75.48,1.53.92,2.31,1.33a43.49,43.49,0,0,0,5,2.23c.06.06.11.12.17.17a7.9,7.9,0,0,0,1.24.91,22.69,22.69,0,0,0,5.89,2.78,13.68,13.68,0,0,0,3.85.51,13.56,13.56,0,0,0,3.84-.51A22.6,22.6,0,0,0,39,41a7.82,7.82,0,0,0,1.23-.91l.18-.17a44.28,44.28,0,0,0,5-2.23c.78-.41,1.56-.85,2.3-1.33A4.49,4.49,0,0,0,49.12,35a12.51,12.51,0,0,0,1.18-2.61A16,16,0,0,0,51.07,30a11.82,11.82,0,0,0,.25-2.44.45.45,0,0,1,0-.11,2.26,2.26,0,0,1,.16.26,10.32,10.32,0,0,0,.53,1,7.22,7.22,0,0,0,.41-.78,7.86,7.86,0,0,0,0-2.86A5.87,5.87,0,0,0,51.91,24l.19.16A13.46,13.46,0,0,1,53.36,25.58Zm-3.79-4.79a6.71,6.71,0,0,0-1.86-.72c.52.87,1.89,1.39,1.87,2.53a9.67,9.67,0,0,1-.5,2.24c-.23.84-.3,1.71-.56,2.54,0,0-.09.1-.12,0a8.81,8.81,0,0,0-.79-1.6,2.67,2.67,0,0,0-.75-.82c.41,1.66.94,3.45.26,5.11a6.35,6.35,0,0,1-1.79,2.2c-.83.73-1.7,1.4-2.48,2.18,0,0-.12,0-.08,0a5.22,5.22,0,0,0,.82-2.31,3.5,3.5,0,0,0-.69-2.23,6.27,6.27,0,0,0-2.74-2.56,0,0,0,0,1,0-.06,3.81,3.81,0,0,1,1.63-1.39,4.55,4.55,0,0,0-2.28,1s-.11,0-.08,0a6.34,6.34,0,0,1,4.29-3.1,7.79,7.79,0,0,0-1.6.21,4.87,4.87,0,0,0-1.56.65c-.39.26-.75.55-1.16.78,0,0-.08,0-.07,0a7.14,7.14,0,0,0,.18-2.72A3.14,3.14,0,0,0,39,21.4a1.52,1.52,0,0,0-.91-.7c-.71-.1-1.12.82-1.3,1.38a3.14,3.14,0,0,0-.15,1.84s-.07.12-.11.07c-.41-.45-1.33-1-1.24-1.74a3.62,3.62,0,0,1,.93-1.81s.11-.06.11,0a10.87,10.87,0,0,0,.06,1.28c.74-1.65,2.29-2.56,3.82-3.43s3.28-1.74,4.94-2.6H45c-.42,0-.84.05-1.26.08a10.8,10.8,0,0,0-3.23.56c-.07,0-.06-.06,0-.09.26-.26.53-.52.81-.76-1,.31-2.07.57-3.09.92-.47.16-.95.34-1.41.55a9.68,9.68,0,0,0-3.3,4s-.11.07-.11,0a7.11,7.11,0,0,1,.3-2,3.57,3.57,0,0,1,.67-1.35c-1.13.63-2.43,1.57-2.5,2.94,0,0-.07.1-.11.07a4.2,4.2,0,0,1-1.12-1.51,6.51,6.51,0,0,1-.15,1.32s-.08.09-.11.05a4.35,4.35,0,0,1-.67-2.15c-.18.57-.43,1.12-.6,1.69,0,0-.1.1-.11,0a4.32,4.32,0,0,1,0-1.68c0-.16,0-.31.08-.47s0-.19-.18-.09a1.47,1.47,0,0,0-.42.37,7.75,7.75,0,0,0-1,2.24s-.1.1-.12,0a4.41,4.41,0,0,1-.06-1.88c-.27.69-.56,1.37-.78,2.07,0,0-.1.1-.12,0A14.91,14.91,0,0,0,25,17.35a5.4,5.4,0,0,1-.23,2.37c0,.05-.09.09-.12,0A7.57,7.57,0,0,0,23.33,18a4.27,4.27,0,0,1,.46,2s-.08.12-.11.07c-.38-.62-.63-1.32-1.05-1.91A4,4,0,0,0,21,16.83,18.14,18.14,0,0,0,16.75,15a6.88,6.88,0,0,1,.89.9c0,.05-.05.12-.1.1a6.05,6.05,0,0,0-2.27-.5,3.57,3.57,0,0,0-2,.32c1.29.82,2.76,1.35,4.13,2a7.53,7.53,0,0,1,3.51,3s-.06.11-.1.08a1.21,1.21,0,0,0-1.58-.1,2.73,2.73,0,0,0-.82,1.42c-.27,1.13.28,2.17.3,3.29a.09.09,0,0,1-.09.08A5,5,0,0,0,16,26.4l.71-.19a4.22,4.22,0,0,1,3.29.26s0,.08,0,.09c-1.89,1-4.3,2.28-4.77,4.55A5.75,5.75,0,0,0,16,35a16.43,16.43,0,0,0,2.66,3.5s0,.11-.1.09c-1.19-.52-2.39-1-3.57-1.55a11.17,11.17,0,0,1-3-1.67,6.12,6.12,0,0,1-1.66-4.61,8,8,0,0,0-.2,2.66c0,.06-.09.12-.12.06a10.69,10.69,0,0,1-1.29-4.87,7.34,7.34,0,0,1,1.47-4.2,6.28,6.28,0,0,0-1.86,2s-.13.08-.11,0a12.68,12.68,0,0,1,1-2.69,5.3,5.3,0,0,0-2.35,2.77c0,.05-.14.09-.11,0a14.44,14.44,0,0,1,1.12-3.9A25.86,25.86,0,0,1,10,20.11a8.09,8.09,0,0,0-2.54,1.4s-.12,0-.07-.06c1.79-2.28,1.44-5.11,1.17-7.8,0,0,.07-.1.11-.08A5.76,5.76,0,0,1,10.07,15a6.55,6.55,0,0,0-.15-1.47,17.15,17.15,0,0,0-.74-2.08c0-.05.07-.13.11-.08a16,16,0,0,1,1.31,1.75,13,13,0,0,0-.53-2.24A5,5,0,0,0,8.82,8.72c-.05,0,0-.11.08-.1a10.4,10.4,0,0,1,2.36.79,8,8,0,0,1,1,.55,8.29,8.29,0,0,0-1.64-2.53s.05-.11.09-.1a14.16,14.16,0,0,1,2.4,1.12,3.79,3.79,0,0,1,.81.79,2.52,2.52,0,0,0-.46-1s0-.06,0-.08a20.43,20.43,0,0,1,4-2.57,9.71,9.71,0,0,1,3.88-.74,12.37,12.37,0,0,1,1.35.08,2.81,2.81,0,0,0-.93-1.13s0-.11.06-.11a7.93,7.93,0,0,1,3.07.64,5.9,5.9,0,0,0-.44-1.24s.05-.1.09-.09a3.32,3.32,0,0,1,1.9,1.61c.14-.24.28-.47.39-.64a20.1,20.1,0,0,1,1.86-2.36s.1-.06.1,0c-.05.88-.26,1.73-.33,2.6a10,10,0,0,0,0,2.12,7.32,7.32,0,0,1,3.14-3.82s.1,0,.07,0a7.51,7.51,0,0,0-.9,2.69l.27-.32a7.44,7.44,0,0,1,2.17-1.78s.09,0,.06,0a15.93,15.93,0,0,0-.82,2.05c.18-.17.37-.34.56-.49a5.78,5.78,0,0,1,3.64-1.39c.05,0,0,.07,0,.09a9.15,9.15,0,0,0-1.37,1.34,8.79,8.79,0,0,1,4.64-.2C42,5,44.39,6.16,45.25,8.22a6.08,6.08,0,0,1,2.56-.39s0,.08,0,.1a6.51,6.51,0,0,0-2.43,3A13.47,13.47,0,0,1,47,10,4.63,4.63,0,0,1,49,9.3c.06,0,0,.08,0,.09C47,11,47,13.79,47,16.2a7.75,7.75,0,0,1,1.91-2s.11,0,.08,0a5.41,5.41,0,0,0-.49,3.49,13.55,13.55,0,0,0,1.14,3S49.61,20.81,49.57,20.79Z"/><path class="cls-19" d="M40.16,29.58A31.82,31.82,0,0,0,37,26.79c-.67-.66-1.41-1.26-2.11-1.89l-.33-.35a8.42,8.42,0,0,1-1.45-2.14c-.07-.2-.15-.41-.22-.62a9.32,9.32,0,0,1-.12-1.39c-.16.18-.32.36-.47.55s-.15.27-.21.41h0a1.09,1.09,0,0,0,0,.17,5.16,5.16,0,0,0-.22,1.62,2.76,2.76,0,0,1-.08-.27c-.1-.33-.13-.74-.23-1.11-.15-.16-.3-.32-.44-.49a10.82,10.82,0,0,1-.34,1.52,9,9,0,0,0-.22.93,5.39,5.39,0,0,0-.1-.91,12.87,12.87,0,0,0-.5-1.48,3.89,3.89,0,0,0-.46-.53h0A9.68,9.68,0,0,1,29,23.64,10.25,10.25,0,0,1,28.55,21c-.19.26-.4.51-.59.77a8.5,8.5,0,0,0-.37,1.11,6.67,6.67,0,0,0-.1.91q-.09-.48-.21-.93a10.73,10.73,0,0,1-.27-1c-.07-.19-.15-.38-.23-.58l-.05,0a5.51,5.51,0,0,0-.46,1.67l-.09.27A5.46,5.46,0,0,0,26,21.54c-.09-.26-.15-.57-.24-.86a2.49,2.49,0,0,0-.51-.65,8.74,8.74,0,0,1-.12,1.76c-.07.21-.14.42-.22.62a8.42,8.42,0,0,1-1.45,2.14c-.1.12-.21.24-.32.35-.7.63-1.45,1.23-2.12,1.89a31.71,31.71,0,0,0-3.12,2.79,5,5,0,0,0-1,3.72c.29,2.8,2.6,5,4.81,6.45a11,11,0,0,0,2.16,1A14.61,14.61,0,0,0,27.42,42a7.74,7.74,0,0,0,1.45.13h.29A7.9,7.9,0,0,0,30.61,42a14.76,14.76,0,0,0,3.55-1.22,10.66,10.66,0,0,0,2.15-1c2.21-1.44,4.53-3.65,4.81-6.45A4.91,4.91,0,0,0,40.16,29.58Z"/><path class="cls-20" d="M40.16,29.58A31.82,31.82,0,0,0,37,26.79c-.67-.66-1.41-1.26-2.11-1.89l-.33-.35a8.42,8.42,0,0,1-1.45-2.14c-.07-.2-.15-.41-.22-.62a7.68,7.68,0,0,1-.12-1.26,6.14,6.14,0,0,0-.58,3.56A6.93,6.93,0,0,0,34,27.68a4.41,4.41,0,0,1-.13-2.07s.08-.1.11-.05a12.25,12.25,0,0,0,2.2,2.62,9.89,9.89,0,0,1,2.15,2.55c.87,1.83-.28,3.68-2,4.51,0,0-.06,0-.07,0-.18-.67.35-1.33.48-2-.69.74-1.37,1.74-2.41,1.92,0,0-.06,0,0,0,.13-.34.4-.78.22-1.14-.52.84-.9,2.05-2,2.33-.06,0-.07,0,0-.08l.1-.14c.89-1.4,1.17-3.55-.33-4.65a6.77,6.77,0,0,0-4.95-.81,4.94,4.94,0,0,0-3.47,1.92,5.32,5.32,0,0,0-.52,4s-.05.11-.1.08a3.76,3.76,0,0,1-1.85-2.28,13.5,13.5,0,0,0,0,1.8s-.07.1-.11.06a5.91,5.91,0,0,1-1.57-3.14,3,3,0,0,1,.05-1.56,8,8,0,0,1,.63-1.28,4.65,4.65,0,0,0-1.4,1.14s-.12.06-.1,0c.51-1.58,2-2.52,3.35-3.38s3-1.9,3.28-3.65A14,14,0,0,1,23.84,26a0,0,0,0,1-.07-.06c1-1.69,2.24-3.81,1.54-5.8L25.22,20a8.74,8.74,0,0,1-.12,1.76c-.07.21-.14.42-.22.62a8.42,8.42,0,0,1-1.45,2.14c-.1.12-.21.24-.32.35-.7.63-1.45,1.23-2.12,1.89a31.71,31.71,0,0,0-3.12,2.79,5,5,0,0,0-1,3.72c.29,2.8,2.6,5,4.81,6.45a11,11,0,0,0,2.16,1A14.61,14.61,0,0,0,27.42,42a7.74,7.74,0,0,0,1.45.13h.29A7.9,7.9,0,0,0,30.61,42a14.76,14.76,0,0,0,3.55-1.22,10.66,10.66,0,0,0,2.15-1c2.21-1.44,4.53-3.65,4.81-6.45A4.91,4.91,0,0,0,40.16,29.58ZM27.58,38.29a3.92,3.92,0,0,1-2,1.51,2.06,2.06,0,0,1-1.3-.14.07.07,0,0,1-.08,0,2.07,2.07,0,0,1-.73-.55l-.11-.1a0,0,0,0,1,0,0c-.1-.13-.2-.26-.31-.38s.05-.12.1-.1a3.66,3.66,0,0,0,2.46.18c.67-.17,1.33-.38,2-.5C27.61,38.2,27.61,38.26,27.58,38.29Zm7.18.16c-.73.41-1.33,1-2.22,1.06a3.84,3.84,0,0,1-1.4-.34c-.4-.15-.8-.33-1.2-.5a.5.5,0,0,1-.2-.08l-.22-.09c-.05,0,0-.07,0-.09a1.42,1.42,0,0,1-.23-.48s.05-.11.1-.09a10.48,10.48,0,0,0,3.9.5,3.74,3.74,0,0,0-.1-1.05s.07-.13.11-.08a3,3,0,0,0,1.46,1.14C34.84,38.37,34.78,38.43,34.76,38.45Z"/><path class="cls-20" d="M27.24,30.91a7.12,7.12,0,0,0-1.24.37A12.68,12.68,0,0,1,27.24,30.91Z"/><path class="cls-21" d="M23.57,34.41a3.24,3.24,0,0,0,1.22,2.24,4.94,4.94,0,0,0,1.79.78,7,7,0,0,0,4.89-.4,4.37,4.37,0,0,0,1.61-2.11,2.45,2.45,0,0,0-.32-2.31,4.87,4.87,0,0,0-4-1.84A9.75,9.75,0,0,0,25,31.83,3,3,0,0,0,23.57,34.41Z"/><path class="cls-21" d="M24.77,40.19a9.89,9.89,0,0,0,4.71.34,18.47,18.47,0,0,0,2.35-.34,7.24,7.24,0,0,0,1.26-.37.74.74,0,0,1-.21,0,4.19,4.19,0,0,1-1.26-.28,7,7,0,0,1-1.08-.39c-.64-.31-1.23-.72-1.85-1.07a15,15,0,0,1-2.23,1.73A2.29,2.29,0,0,1,24.77,40.19Z"/><path class="cls-21" d="M40.16,29.58a7.2,7.2,0,0,0-1-1,8.53,8.53,0,0,1,1.54,2.9,6.15,6.15,0,0,1-.93,4.84A11.66,11.66,0,0,1,36,39.45a14.86,14.86,0,0,1-4.79,2.06A12.45,12.45,0,0,1,25.38,41,12.37,12.37,0,0,1,22.76,40a11.55,11.55,0,0,1-2.2-1.62,9.52,9.52,0,0,1-2.93-4.68,8.16,8.16,0,0,1,.43-4.32,2,2,0,0,0-.19.22,5,5,0,0,0-1,3.72c.29,2.8,2.6,5,4.81,6.45a11,11,0,0,0,2.16,1A14.61,14.61,0,0,0,27.42,42a7.74,7.74,0,0,0,1.45.13h.29A7.9,7.9,0,0,0,30.61,42a14.76,14.76,0,0,0,3.55-1.22,10.66,10.66,0,0,0,2.15-1c2.21-1.44,4.53-3.65,4.81-6.45A4.91,4.91,0,0,0,40.16,29.58Z"/><path class="cls-22" d="M21.47,23.43c0,1.2-.38,2.18-.92,2.2s-1-.94-1.05-2.14.38-2.18.92-2.2S21.43,22.23,21.47,23.43Z"/><path class="cls-23" d="M21.25,23.46c0,.93-.29,1.7-.72,1.71s-.79-.73-.81-1.67.29-1.7.71-1.71S21.22,22.53,21.25,23.46Z"/><path class="cls-12" d="M20.62,22.71c0,.45-.15.83-.36.84s-.38-.36-.39-.82.14-.84.35-.85S20.6,22.24,20.62,22.71Z"/><path class="cls-12" d="M20,24.37c0,.18-.05.32-.13.33s-.15-.15-.16-.32.06-.32.14-.32S20,24.19,20,24.37Z"/><path class="cls-22" d="M39,23.43c0,1.2-.38,2.18-.92,2.2s-1-.94-1.05-2.14.38-2.18.92-2.2S38.94,22.23,39,23.43Z"/><path class="cls-23" d="M38.76,23.46c0,.93-.29,1.7-.71,1.71s-.79-.73-.82-1.67.29-1.7.71-1.71S38.73,22.53,38.76,23.46Z"/><path class="cls-12" d="M38.13,22.71c0,.45-.14.83-.35.84s-.39-.36-.4-.82.14-.84.35-.85S38.12,22.24,38.13,22.71Z"/><path class="cls-12" d="M37.55,24.37c0,.18-.06.32-.14.33s-.15-.15-.15-.32.05-.32.13-.32S37.54,24.19,37.55,24.37Z"/><path class="cls-3" d="M34.74,38c0,.2.18.43.37.57a5.57,5.57,0,0,1-1.51,1,4.47,4.47,0,0,1-2.5-.43A4.93,4.93,0,0,1,28.83,38a4.7,4.7,0,0,1-.56-1.91h0c0-.07,0-.13,0-.19s0,0,0,0A5.72,5.72,0,0,0,28.46,38a11.69,11.69,0,0,1-2.4,1.9c-.94.55-2.16-.23-2.79-1a1.48,1.48,0,0,1-.35-.44,2.27,2.27,0,0,1-.69.69s.08.05.16,0a2.22,2.22,0,0,0,.42-.29,3.45,3.45,0,0,0,2.47,1.57c.59,0,1.16-.45,1.6-.74.63-.4,1.15-.92,1.8-1.3a5.07,5.07,0,0,0,2.25,1c.54.15,1.1.25,1.64.37a2.3,2.3,0,0,0,1,0,2.48,2.48,0,0,0,1-.56c.24-.2.52-.39.75-.61a1.78,1.78,0,0,0,1.48-.44h0A2.19,2.19,0,0,1,34.74,38Z"/><path class="cls-24" d="M36.34,19.48l.21-.18-.23.28c-.14.17,0,.41.19.26a29.6,29.6,0,0,1,2.59-1.7l.37-.18.06,0a24.92,24.92,0,0,0,2.93-1.65.16.16,0,0,0-.15,0,7.31,7.31,0,0,0-3.14,1.08c.1-.1.19-.21.28-.32h0c.17-.2.25-.49.09-.6-1,.39-1.92.81-2.85,1.28l-.54.51-.39.39a10.43,10.43,0,0,0-1.6,3.13C34.9,21,35.58,20.18,36.34,19.48Z"/><path class="cls-24" d="M21.47,19.48l-.21-.18c.07.1.15.19.22.28s0,.41-.19.26a26.88,26.88,0,0,0-2.59-1.7L18.34,18l-.06,0a24.92,24.92,0,0,1-2.93-1.65.14.14,0,0,1,.14,0,7.35,7.35,0,0,1,3.15,1.08c-.1-.1-.2-.21-.29-.32h0c-.17-.2-.25-.49-.09-.6,1,.39,1.91.81,2.84,1.28.19.17.38.34.55.51l.39.39a10.4,10.4,0,0,1,1.59,3.13C22.91,21,22.22,20.18,21.47,19.48Z"/><path class="cls-24" d="M32.8,34.25a2.91,2.91,0,0,0-1.25-1.94,6.24,6.24,0,0,0-5.28-.7,3.6,3.6,0,0,0-2.19,1.83,3.07,3.07,0,0,0,.2,2,3,3,0,0,0,1.34,1.3A6.06,6.06,0,0,0,32,36.11,2.68,2.68,0,0,0,32.8,34.25Z"/><path class="cls-25" d="M26.13,33.19c-.06-.4-.12-.8-.16-1.19a4.28,4.28,0,0,0-1,.64A1.73,1.73,0,0,0,24.85,34,9.23,9.23,0,0,1,26.13,33.19Z"/><path class="cls-25" d="M28,32.46a7.79,7.79,0,0,1,2.5-.14,4.5,4.5,0,0,1,1.26.39l-.19-.15a6.27,6.27,0,0,0-5.1-.77c0,.39,0,.78.08,1.17A7.75,7.75,0,0,1,28,32.46Z"/><path class="cls-26" d="M28.39,35.14A5,5,0,0,1,25,34.42a1.48,1.48,0,0,1-.44-1.71,2.44,2.44,0,0,0-.48.73,3.07,3.07,0,0,0,.2,2,3,3,0,0,0,1.34,1.3A6.06,6.06,0,0,0,32,36.11a2.68,2.68,0,0,0,.82-1.86,2.06,2.06,0,0,0-.27-.85C31.76,34.54,29.62,35.07,28.39,35.14Z"/><path class="cls-8" d="M48.55,32.27A43.12,43.12,0,0,1,43.6,33.4c-1.73.3-4,1-5.7.38,0,0,0,0,0,0,1.68.66,3.94,0,5.68-.28a39.82,39.82,0,0,0,4.07-.85C48,32.55,48.25,32.42,48.55,32.27Z"/><path class="cls-8" d="M46.63,35.67c-2.78-.39-5.58-.6-8.34-1,0,0,0,0,0,0,2.65.46,5.36.73,8,1Z"/><path class="cls-8" d="M43,40.45a10.84,10.84,0,0,0-1.27-2.86,6.84,6.84,0,0,0-2.91-2.3s0,0,0,0a8.05,8.05,0,0,1,2.65,2.09A10.19,10.19,0,0,1,43,40.77C43,40.66,43,40.55,43,40.45Z"/><path class="cls-8" d="M39.08,44.8a3,3,0,0,0,.2-.4,10.34,10.34,0,0,0-.61-8s0,0,0,0C40,38.84,39.89,42.06,39.08,44.8Z"/><path class="cls-8" d="M42.82,30.79A10,10,0,0,1,41,32.31a4,4,0,0,1-2.62.84s-.06,0,0,.05a3.09,3.09,0,0,0,2.15-.46,8.76,8.76,0,0,0,2-1.46C42.61,31.13,42.72,31,42.82,30.79Z"/><path class="cls-8" d="M10.6,32.27a43.12,43.12,0,0,0,5,1.13c1.73.3,4,1,5.69.38,0,0,0,0,0,0-1.68.66-3.94,0-5.68-.28a39.82,39.82,0,0,1-4.07-.85A9.28,9.28,0,0,1,10.6,32.27Z"/><path class="cls-8" d="M12.52,35.67c2.78-.39,5.57-.6,8.34-1,0,0,0,0,0,0-2.64.46-5.35.73-8,1Z"/><path class="cls-8" d="M16.12,40.45a10.82,10.82,0,0,1,1.26-2.86,6.93,6.93,0,0,1,2.92-2.3s0,0,0,0a8.16,8.16,0,0,0-2.65,2.09,10.38,10.38,0,0,0-1.52,3.36C16.13,40.66,16.12,40.55,16.12,40.45Z"/><path class="cls-8" d="M20.06,44.8c-.07-.13-.14-.26-.2-.4a10.38,10.38,0,0,1,.62-8s0,0,0,0C19.11,38.84,19.26,42.06,20.06,44.8Z"/><path class="cls-8" d="M16.32,30.79a10.31,10.31,0,0,0,1.86,1.52,4,4,0,0,0,2.63.84s.06,0,0,.05a3.09,3.09,0,0,1-2.15-.46,8.56,8.56,0,0,1-2-1.46C16.53,31.13,16.43,31,16.32,30.79Z"/><path class="cls-27" d="M34.08,29.76a3,3,0,0,0-.32-.79c-.28-.41-.54-.83-.8-1.25A13.4,13.4,0,0,1,32,26.37a5.66,5.66,0,0,1-.74-1.62,7.5,7.5,0,0,1-.16-1.25s0,0,0,0a22.26,22.26,0,0,0-.78,3c-.08-.59-.12-1.21-.17-1.8l0-.35a4.58,4.58,0,0,0-.15-.49c-.09-.24-.19-.47-.28-.71h0a20.78,20.78,0,0,1-.38,2.09c-.09.34-.19.66-.28,1a4.86,4.86,0,0,1-.16.63,12.79,12.79,0,0,1,0-1.38c0-.21,0-.43-.06-.64s-.17-.45-.26-.68v0c-.14.53-.19,1.06-.34,1.59a3.81,3.81,0,0,1-.27.66,8.63,8.63,0,0,0,.19-2c0-.06,0-.09-.05-.1-.14.21-.3.43-.45.64a9.35,9.35,0,0,1-1,1.68l.21-.52.06-.26s0,0,0-.06h0c.05-.27.05-.54.09-.81h0a0,0,0,0,1,0,0,6.66,6.66,0,0,0-.2-1.4A3.58,3.58,0,0,1,26.35,25a5.68,5.68,0,0,1-1.57,1.81,34,34,0,0,0-3.47,2.63h0a6.43,6.43,0,0,1,1.24-.53,7.46,7.46,0,0,0-1.52,1.84c-.05.1-.11.22-.16.35a2.94,2.94,0,0,0-.11.78,4.25,4.25,0,0,0,.08,1c.29-.34.44-.78.71-1.14a3.38,3.38,0,0,0,.11,1.1A3.27,3.27,0,0,0,22,33.89a4.62,4.62,0,0,1,2.17-3.18,6.63,6.63,0,0,1,3.1-.91c.06,0,.1-.13,0-.17a1.83,1.83,0,0,0-.74-.18c.8-.1,1.61-.06,2.41-.09a3.23,3.23,0,0,1,.44,0,3.12,3.12,0,0,1,.61,0c.65.11,1.29.23,1.92.4a4.18,4.18,0,0,1,1.69.8,2.51,2.51,0,0,0-1.33-2.07A4,4,0,0,1,34.08,29.76Z"/><path class="cls-28" d="M5.12,3.34a14.25,14.25,0,0,1,2.77-.13A.71.71,0,0,0,7.77,3,8.41,8.41,0,0,0,5.7,2.29a3.35,3.35,0,0,0-3.08,1,7.16,7.16,0,0,0-1,3.93,14.52,14.52,0,0,0,1.29,8A5.32,5.32,0,0,1,3,13s.1-.11.11,0a9.28,9.28,0,0,0,1,2c0-2.63-.45-5.26-.1-7.89h0V7s.07-.13.11-.08A15.19,15.19,0,0,0,5.34,8.26a12.38,12.38,0,0,1-.8-3.88s.08-.11.11-.07A5.72,5.72,0,0,0,6.21,5.5l-.09-.11a4.5,4.5,0,0,1-.53-.83l0-.1a5.09,5.09,0,0,1-.43-.92l-.06-.1S5.08,3.35,5.12,3.34Z"/><path class="cls-28" d="M57.69,6.1a9,9,0,0,0-.63-2.61,2.17,2.17,0,0,0-.36-.4,2.73,2.73,0,0,0-.3-.21,9,9,0,0,0-2.32-.07,8.59,8.59,0,0,0-4,1.32h.07a7.19,7.19,0,0,1,3-.23c.58.07,1.16.11,1.74.18.2,0,.48,0,.74.08l-.2.07c-.34.17-.68.32-1,.52a11.72,11.72,0,0,0-1.23.9,4.41,4.41,0,0,0-.63.81l.08,0,.05,0a5.19,5.19,0,0,1,.89-.21c.3-.08.6-.16.91-.22l1.34-.27a6.1,6.1,0,0,0-1.53,1.72c-.05.13-.1.27-.14.4a.11.11,0,0,0,.12,0l1.3-.76a3.76,3.76,0,0,0-.34.35c-.15.19-.34.38-.5.59h0c-.06.21-.11.41-.15.62.38-.21.72-.43,1.08-.6l-.43.88c-.27.57-.5,1.15-.73,1.74l-.09.24c0,.44-.08.89-.1,1.33.26-.35.49-.74.74-1.1.09-.14.18-.26.28-.39-.08.45-.13.92-.21,1.35s-.18,1.15-.24,1.74.18,1,.3,1.44a16.22,16.22,0,0,0,1.17-2,5.29,5.29,0,0,0,.29-.52,11.74,11.74,0,0,0,.73-2.38A15.09,15.09,0,0,0,57.69,6.1Z"/><path class="cls-9" d="M42.1,8.3a10.38,10.38,0,0,0-2.54-.9A9.26,9.26,0,0,0,37,7.07a13.23,13.23,0,0,1,3.45-.38.09.09,0,0,0,.07,0A11.57,11.57,0,0,0,36.7,5.58a16.25,16.25,0,0,0-2.62.23l-.3.06c.39-.44.8-.85,1.18-1.25A7.81,7.81,0,0,0,33.27,5,14.12,14.12,0,0,0,31.5,6.24a5.92,5.92,0,0,1,.61-1.17,0,0,0,0,0,0,0c-.28.1-.55.2-.82.32s-.36.29-.53.42-.57.44-.85.68c.17-.65.38-1.29.59-1.9a5.14,5.14,0,0,0-.94.53A9.74,9.74,0,0,0,27.75,7.6l0,0c0-.53,0-1.06,0-1.11a13.6,13.6,0,0,1,.05-2c.05-.42.21-.81.28-1.22h0a7.39,7.39,0,0,0-.82.86c-.25.45-.52.89-.75,1.35a2.6,2.6,0,0,0-.79-1.19h0a7.63,7.63,0,0,1,0,.83,15.22,15.22,0,0,1,.07,2.34A13.12,13.12,0,0,0,25,6.21a4.94,4.94,0,0,0-.58-.69c-.38-.19-.78-.35-1.18-.51a4.14,4.14,0,0,1,.26,1.53,7.56,7.56,0,0,0-3.6-.07,7.39,7.39,0,0,0-.93.22,11,11,0,0,0-4.2,2.52A13.71,13.71,0,0,1,18,8.76a17.28,17.28,0,0,0-1.65.61,9.93,9.93,0,0,0-2,1.25,7.32,7.32,0,0,0-.66.59,9.58,9.58,0,0,0-2.11,3.33,6.18,6.18,0,0,1,2.6-1.07c-.47.31-.87.72-1.33,1.06,0,0-.06.1,0,.12.29-.07.59-.15.88-.24s.66-.26,1-.36a3.37,3.37,0,0,1,.89-.14,2,2,0,0,1,.34-.05,5.15,5.15,0,0,1,2.79.46,8.13,8.13,0,0,1,.81.47,6.38,6.38,0,0,1,1.2.75l.12.1c.12.1.23.21.34.32l0,0a9.56,9.56,0,0,1,.83.85c.08.08.2-.07.17-.15a8.85,8.85,0,0,0-1.12-2,6.93,6.93,0,0,1,.54.49c.26.25.54.47.8.71a6.42,6.42,0,0,1,1.44,1.95,7.71,7.71,0,0,0,0-2.58,15.79,15.79,0,0,0-1-2.53c.2.18.39.36.58.56s.49.65.77.7c0,0,.09,0,.11-.08.19-.6-.43-1.18-.62-1.76a8.1,8.1,0,0,1,2.19,1.93,7.12,7.12,0,0,1,.86,1.55c.09.21.14.47.24.69A12.75,12.75,0,0,0,27,14.46c0-.17-.06-.34-.08-.51a8.37,8.37,0,0,0-.42-1.84,4.42,4.42,0,0,1,.81,1.21,5.18,5.18,0,0,0,.4.86A6.18,6.18,0,0,1,28,12.74a7.17,7.17,0,0,1,.3-1.1,6.34,6.34,0,0,1,1.47-2.4c-.08.21-.17.42-.23.63-.11.41-.17.83-.24,1.25a13.68,13.68,0,0,0-.07,2.56,4.36,4.36,0,0,1,.39-.85,6.77,6.77,0,0,1,2.78-3.16l-.16.45a6.5,6.5,0,0,0-.55,2.68,0,0,0,0,0,0,0A9.65,9.65,0,0,1,37,8.94a12.56,12.56,0,0,1,5.81-.23A4.46,4.46,0,0,0,42.1,8.3Z"/><path class="cls-9" d="M13.75,22.54c-.06,0,0-.09,0-.11a12.42,12.42,0,0,1,3.17-1.26A10.77,10.77,0,0,1,18.3,21h0a4.57,4.57,0,0,0-.6-.56,3.35,3.35,0,0,0,.62.17.13.13,0,0,0,.13-.14s0-.05,0-.07a7.28,7.28,0,0,0-1.18-1.88,5.88,5.88,0,0,0-2.26-1,4.9,4.9,0,0,0-1.08-.06,8.82,8.82,0,0,1,1.32,1.05,4.58,4.58,0,0,1,1.13,1.45,4.46,4.46,0,0,0-2.49.24,9.48,9.48,0,0,0-1.22.52,10.37,10.37,0,0,0-1.05.94,8,8,0,0,1,1.77-.26c.3,0-.3.15-.33.16a8.67,8.67,0,0,0-.82.38,6.4,6.4,0,0,0-1.74,1.33,4.31,4.31,0,0,0-.52,1c.42-.19.77-.51,1.22-.69a6.31,6.31,0,0,1,2.2-.36,2.32,2.32,0,0,1,.69.07c.13,0-.57.35-.57.35A6.31,6.31,0,0,0,12,24.62a6.31,6.31,0,0,0-1.78,2.47s0,0,0,0c.33-.42.65-.85,1-1.27a8.57,8.57,0,0,1,2-1.73A10.39,10.39,0,0,1,15.61,23,5.87,5.87,0,0,0,13.75,22.54Z"/><path class="cls-9" d="M15.73,26.65a7,7,0,0,0-1.47.64l0,0A4.12,4.12,0,0,1,15.74,26a2.35,2.35,0,0,1,.43-.19c-.16,0-.32,0-.47.06A7,7,0,0,0,12.94,27a4.27,4.27,0,0,0-1.85,2.17,3.51,3.51,0,0,0,0,2,6.54,6.54,0,0,1,1.61-3.34,8.06,8.06,0,0,0-.71,3,5.87,5.87,0,0,0,.64,2.85c.14.29.65,1.2,1.08,1.36a4.92,4.92,0,0,1-.37-1,4.69,4.69,0,0,1-.18-1.53,5.15,5.15,0,0,1,.92-3A5,5,0,0,1,16,27.79a9.44,9.44,0,0,1,2.47-1.26c-.36,0-.71-.11-1.07-.13A4.86,4.86,0,0,0,15.73,26.65Z"/><path class="cls-9" d="M46.5,25.71l-.09-.33a3.81,3.81,0,0,0-.93-1.23A2.31,2.31,0,0,0,44.31,24a3.92,3.92,0,0,0-1.73.83c-.34.28-.67.59-1,.9a3.52,3.52,0,0,1,.51-.19,4.29,4.29,0,0,1,1.83-.13c-.18.06-.4.09-.51.14a8,8,0,0,0-1.06.51,5.6,5.6,0,0,0-.86.61,4.13,4.13,0,0,1,3.25.37,3.44,3.44,0,0,1,1.19,1.81c.06.15.14.35.21.57a12.62,12.62,0,0,0,.4-1.72v0A5.76,5.76,0,0,0,46.11,26a3.25,3.25,0,0,1,.31.4c0,.07.14,0,.16-.06a.58.58,0,0,0,0-.14C46.58,26,46.54,25.86,46.5,25.71Z"/><path class="cls-9" d="M40.84,24a5.56,5.56,0,0,1,4.53-2.42c.07,0,0,.09,0,.11a13.15,13.15,0,0,0-1.52.93,4.13,4.13,0,0,1,3.37.44,2.66,2.66,0,0,1,1,1.09,6.15,6.15,0,0,0-.07-.88c-.06-.5-.17-1-.27-1.46a4.17,4.17,0,0,0-.71-.93A3.84,3.84,0,0,0,45.78,20a3.69,3.69,0,0,1,.89.14A7.13,7.13,0,0,1,46.18,19a6.27,6.27,0,0,1-.34-1.27,10.13,10.13,0,0,1-.06-1.23.19.19,0,0,0-.08.07,10.2,10.2,0,0,0-.56,1.81A11.89,11.89,0,0,1,45,16.63c-.08.11-.17.21-.26.32a3.69,3.69,0,0,1-1.9,1.44,10.75,10.75,0,0,1-3.93,1.81s0,0,.08,0a9.31,9.31,0,0,1,1.06-.14c.38-.05.79-.14,1.18-.16-.13.06-.27.12-.41.2-.34.2-.67.44-1,.66C40.91,21.28,41.1,22.77,40.84,24Z"/><path class="cls-9" d="M63.49,64.24a9.68,9.68,0,0,1-2.39,1.49,7.89,7.89,0,0,1-.72.33,3.89,3.89,0,0,0,.44-.47,4.28,4.28,0,0,0,.75-2c-.08-.9-.12-1.81-.27-2.7a5.78,5.78,0,0,0-.67-2c-.14.28-.28.55-.43.82a5.4,5.4,0,0,1-.5,1l0,0c-.42.49-.85,1-1.28,1.47,0,.05-.09.11-.14.17a29.78,29.78,0,0,1-2,2.25,9.48,9.48,0,0,1-1,.89.76.76,0,0,0,.16,0,15.06,15.06,0,0,0,3-1.06c.57-.24,1.11-.54,1.66-.83l.11,0c-.2.16-.36.35-.56.52a18.54,18.54,0,0,1-3.3,2.26,22.46,22.46,0,0,0-3.13,1.37c-.07,0-.14.19,0,.24.31.15.65.22,1,.39a7.13,7.13,0,0,1,1.28,1,10.13,10.13,0,0,1,2.22,2.49,8.55,8.55,0,0,1,.6,1.26,10.79,10.79,0,0,0,.49,1.12,7.36,7.36,0,0,1-1.2-.26c-.59-.11-1.17-.18-1.75-.33l.52.69a18.18,18.18,0,0,1,1.31,1.93,28.89,28.89,0,0,1,2.07,4.35,41.76,41.76,0,0,1,1.47,4.6l0-.34c0-.85,0-1.71,0-2.56,0-.17,0-.35-.08-.52s-.13-.56-.19-.85,0-.47,0-.69c-.11-.59-.12-1.18-.19-1.78s-.24-1.2-.35-1.8c-.23-1.21-.43-2.43-.75-3.63-.61-1.31-1.32-2.57-1.87-3.91,0,0,0-.08.06-.09a12.06,12.06,0,0,0,3.89-2.22,5.47,5.47,0,0,0,2-2.59A.25.25,0,0,0,63.49,64.24Z"/><path class="cls-9" d="M10.69,79.29a20.22,20.22,0,0,1-.06,3.21l.09-.15a10.2,10.2,0,0,1,.54-.9c.29-1,.59-2,.88-3,.2-.64.36-1.29.52-1.94.05-.21.1-.42.14-.64,0,.34-.06.67-.1,1a2.56,2.56,0,0,0-.07.79,33.51,33.51,0,0,0,2.34-5A5.32,5.32,0,0,0,14.66,71a20,20,0,0,0-1.93-3.66c-.6-1-1.11-2.11-1.75-3.11a8.06,8.06,0,0,1,.9.63l1,.83.09.08.65.4.44.28A22.32,22.32,0,0,0,11,61.69a13.51,13.51,0,0,1-2.26-3A5.54,5.54,0,0,1,8.33,57c-.25,1.2-.53,2.39-.76,3.58A11.53,11.53,0,0,0,8,62.82C8.52,65,9,67.1,9.52,69.24a65.46,65.46,0,0,1,1,6.7A31.23,31.23,0,0,1,10.69,79.29Z"/><path class="cls-9" d="M96,72.8a32.12,32.12,0,0,0-1.79-6.1c-.79-1.83-1.86-3.64-2.16-5.64-.49-3.33.93-6.4,1.9-9.52a.19.19,0,0,0-.19,0,11.63,11.63,0,0,1-1.18,1.25c-.26.22-.5.46-.75.69a7.17,7.17,0,0,0,.5-4.35,16.44,16.44,0,0,0-.84-2.89c-.16-.39-.36-.79-.49-1.2,0,.41,0,.83,0,1.25A12.58,12.58,0,0,1,91,48c-.15,1-.35,2.06-.58,3.08a14.32,14.32,0,0,1-2.91,6.28,8.41,8.41,0,0,0,2-.7c-.48.73-.93,1.48-1.34,2.25-.14.62-.26,1.25-.36,1.88a1.28,1.28,0,0,0,.41-.29,3.62,3.62,0,0,1,1.39-.75c-.55.61-1.49,1.29-1.21,2.09a1.57,1.57,0,0,0,.09.23,52.59,52.59,0,0,1,5.5,7.12,29.76,29.76,0,0,1,2,3.69S96,72.81,96,72.8Z"/><path class="cls-9" d="M78.76,23.41c-.08-.29-.16-.58-.22-.87s-.13-.55-.21-.81a11.79,11.79,0,0,0-1.76-3.39,20.4,20.4,0,0,0-3.45-3.56c-.62.11-1.25.23-1.86.38a29.27,29.27,0,0,0-5.83,2.06,12.38,12.38,0,0,0-2.2,1.28c-.31.25-.59.53-.87.8-.85.84-1.68,1.71-2.49,2.59-.29.31-.57.63-.86.95.59-.31,1.13-.74,1.71-1.05.2-.12.41-.22.61-.33l-.44.35A8.47,8.47,0,0,0,58.8,23.9a.16.16,0,0,0,0,.16l1.71-.74a7,7,0,0,1,.73-.35c.44-.16.9-.39,1.37-.59l1.17-.55c.4-.29.56-.16,0,.1a11.66,11.66,0,0,0-1.12.95c-.78.73-1.53,1.5-2.26,2.26a19.78,19.78,0,0,0-1.94,2.37c-.09.19-.19.38-.28.58s-.23.44-.34.68a14.94,14.94,0,0,0,3.26,6.67c-.06-.36-.14-.71-.2-1.07a6.36,6.36,0,0,1,0-1.31l.06.43a3.62,3.62,0,0,0,.63,1.69,5.89,5.89,0,0,0,1.58,1.12,24.48,24.48,0,0,1,3.76,2.61c.82.75,1.66,1.49,2.47,2.27-.3-.44-.61-.87-.93-1.3A64.06,64.06,0,0,0,64.4,34.8a2.65,2.65,0,0,1-.83-1.52,6.78,6.78,0,0,1,.51-2.55A19.83,19.83,0,0,1,66.63,26a12.25,12.25,0,0,0-3.54,3.27s-.12.06-.09,0,.14-.44.23-.66a14.72,14.72,0,0,1,2.88-4.46,15.41,15.41,0,0,1,4.13-3.28,4.71,4.71,0,0,1,.76-.42,1.07,1.07,0,0,0,.44-.25.1.1,0,0,1,.1-.05,12.19,12.19,0,0,1,3.92,3.54,11.17,11.17,0,0,0-.59-1.44,8.39,8.39,0,0,1,.78.9,22.63,22.63,0,0,0,1.77,2,5,5,0,0,0,0-1.28c.24.27.53.51.77.79s.52.77.79,1.15A12.85,12.85,0,0,0,78.76,23.41Z"/><path class="cls-9" d="M2.66,92.31a4.71,4.71,0,0,0-.73.31,3.77,3.77,0,0,0-.72.66A2.83,2.83,0,0,0,.6,94.42a7.85,7.85,0,0,0,0,.84,15.4,15.4,0,0,1,.75-1.65,4.17,4.17,0,0,1,1.33-1.28S2.68,92.3,2.66,92.31Z"/><path class="cls-9" d="M2.19,95.72v0a3.64,3.64,0,0,1,.49-1.63,5.64,5.64,0,0,1,1-1c.29-.26.6-.5.91-.74a.1.1,0,0,0,0,0,4.4,4.4,0,0,0-.81.22,4.75,4.75,0,0,0-.92.49l0,0L2.74,93l0,0-.11.11,0,0a3,3,0,0,0-.42,2.51A.07.07,0,0,0,2.19,95.72Z"/><path class="cls-9" d="M5.7,92.84a2.51,2.51,0,0,0-.92.47.46.46,0,0,0-.07.07A2.62,2.62,0,0,0,4,95.13a4.55,4.55,0,0,0,.09.63l0,0,.11,0,0,0,.08,0a1.57,1.57,0,0,0,.72-.87,6.13,6.13,0,0,1,.54-1.23,3.2,3.2,0,0,1,.85-.87A5.26,5.26,0,0,0,5.7,92.84Z"/><path class="cls-9" d="M8.86,93.26a1.12,1.12,0,0,0-.29.21,2.1,2.1,0,0,0-.7,1.41c.08.34.15.69.22,1A3,3,0,0,1,9,94.29L9.35,94a4.65,4.65,0,0,1,.7-.49l.63-.37A11,11,0,0,0,8.86,93.26Z"/><path class="cls-9" d="M64.53,97.38a3.57,3.57,0,0,0,.72.1l0,0,0,0a5.71,5.71,0,0,1-.8-2.06,5,5,0,0,1,.38-2.55l-.08,0a2.75,2.75,0,0,0-.61.7A5.52,5.52,0,0,0,63.12,96a1,1,0,0,0,0,.43A2.46,2.46,0,0,0,64.53,97.38Z"/><path class="cls-9" d="M61.52,93.89a9.23,9.23,0,0,0-.82.57,4.85,4.85,0,0,0-.51.74,2.69,2.69,0,0,0-.13,2.2A7,7,0,0,1,61.52,93.89Z"/><path class="cls-9" d="M59.15,94.67c-.07.06-.13.13-.2.2-.51.74-1.08,1.55-.4,2.4.05.06.17,0,.15-.12a2.39,2.39,0,0,1,0-1.8C58.87,95.13,59,94.9,59.15,94.67Z"/><path class="cls-9" d="M68.55,93.56a7.09,7.09,0,0,1,.71,2.5,3.38,3.38,0,0,0,.42-1A2.67,2.67,0,0,0,68.55,93.56Z"/><path class="cls-9" d="M72.71,95.11a1,1,0,0,0-.06-.23.08.08,0,0,1,0,0,2,2,0,0,0-.71-.47c-.22-.08-.45-.12-.68-.19A3.1,3.1,0,0,1,72,95a2.35,2.35,0,0,1,.3,1.17A6.47,6.47,0,0,0,72.71,95.11Z"/><path class="cls-9" d="M96.26,88a3.75,3.75,0,0,0-.67,2.94.07.07,0,0,0,.13,0,1.9,1.9,0,0,0,.49-1.25,4.94,4.94,0,0,1,.51-2.07Z"/><path class="cls-9" d="M98.26,87.84l-.06.07a3.63,3.63,0,0,0-.61,1.36c-.16.68-.07,1.86.75,2.13,0,0,.12,0,.12-.09a9.57,9.57,0,0,1,.69-4.12,1.28,1.28,0,0,0,.11-.2c-.07.14-.38.28-.51.39A3.07,3.07,0,0,0,98.26,87.84Z"/><path class="cls-9" d="M102.1,86.81l0-.09c0-.06,0-.14-.09-.11a1.06,1.06,0,0,0-.47.35,4.8,4.8,0,0,0-1.3,2.83c0,.1,0,.2,0,.3a1.45,1.45,0,0,0,.69,1,2.91,2.91,0,0,0,.86.29A7.31,7.31,0,0,1,102.1,86.81Z"/><path class="cls-9" d="M105.76,88.3a3.52,3.52,0,0,0-1.05-1c.12.26.23.51.35.76a10.23,10.23,0,0,1,.47,2.49c0,.1.13,0,.15,0a2.66,2.66,0,0,0,.25-1.79C105.88,88.57,105.82,88.43,105.76,88.3Z"/><path class="cls-9" d="M108.37,88.64a1.54,1.54,0,0,0-.74-.81c-.1,0-.23.12-.18.2a7.88,7.88,0,0,1,.33.85l0,.08a3.38,3.38,0,0,0,.24.72c0,.06.12,0,.15,0A1.8,1.8,0,0,0,108.37,88.64Z"/></g></g></g></svg>