<svg xmlns="http://www.w3.org/2000/svg" viewBox="0 0 82.46 100"><defs><style>.cls-1{isolation:isolate;}.cls-2{fill:#f9efef;}.cls-14,.cls-3{opacity:0.3;}.cls-10,.cls-13,.cls-14,.cls-16,.cls-18,.cls-19,.cls-21,.cls-24,.cls-25,.cls-3,.cls-5,.cls-7{mix-blend-mode:multiply;}.cls-13,.cls-14,.cls-23,.cls-4{fill:#bcadad;}.cls-5{fill:#a09595;}.cls-25,.cls-6{fill:#3a3438;}.cls-16,.cls-7{opacity:0.5;}.cls-15,.cls-8{fill:#fff;}.cls-24,.cls-8{opacity:0.8;}.cls-11,.cls-9{fill:#b4a98b;}.cls-10{opacity:0.7;}.cls-11,.cls-22,.cls-23{mix-blend-mode:screen;}.cls-12{fill:#564626;}.cls-13{opacity:0.6;}.cls-16{fill:#894416;}.cls-17,.cls-21,.cls-22{fill:#f9bbae;}.cls-19{fill:#e08475;}.cls-20{fill:none;}</style></defs><title>Ресурс 5</title><g class="cls-1"><g id="Слой_2" data-name="Слой 2"><g id="Layer_1" data-name="Layer 1"><path class="cls-2" d="M20.84,70.53a34.34,34.34,0,0,0,4,2.33,6.48,6.48,0,0,0-1.16,1.45l1.16-.23a1.85,1.85,0,0,0,.76,1.16c.64.41,2.15,5.88,3.2,8.32s1.51,3.38.23,4.31c-1,1.1-1.16,1.22.64,2.27-1.1,2-1.39,3.72.64,4.48s6.11,1.86,8.85.93c2.27-.7,2.79-2.15,2.38-3.67s-2.62-2.5-4.36-2.91c-1.17-.4-.93-1-3.2-1.92-1.17-.58-2.15-3.14-2.85-6.92s-.41-6.23,1.34-7.68a2.14,2.14,0,0,0,.29,1.16,9.81,9.81,0,0,1,1.68-2.56c1-1,1.11-6.75-3.49-8.78s-5.47-2.39-6.28-.24S20.84,70.53,20.84,70.53Z"/><g class="cls-3"><path class="cls-4" d="M41.55,91.88c-.4-1.51-2.62-2.5-4.36-2.91a2.6,2.6,0,0,1-.71-.37c-3.08.9-4.48,4.9-5.62,3.58s1-2.51-.1-3.31.71-1.11-.6-5.13c-1.61-4.32-2.91-10.14-3.92-12.36-.67-1.47.61-4.42.61-4.42l.8,1.41a5.93,5.93,0,0,1,1.2-2.91c1.63-1.92,4-.69,5.68.69A6.56,6.56,0,0,0,31,62.27c-4.59-2-5.47-2.39-6.28-.24s-3.84,8.5-3.84,8.5a34.34,34.34,0,0,0,4,2.33,6.48,6.48,0,0,0-1.16,1.45l1.16-.23a1.85,1.85,0,0,0,.76,1.16c.64.41,2.15,5.88,3.2,8.32s1.51,3.38.23,4.31c-1,1.1-1.16,1.22.64,2.27-1.1,2-1.39,3.72.64,4.48s6.11,1.86,8.85.93C41.44,94.85,42,93.4,41.55,91.88Z"/></g><path class="cls-5" d="M20.84,70.53a34.34,34.34,0,0,0,4,2.33,6.48,6.48,0,0,0-1.16,1.45l1.16-.23a1.85,1.85,0,0,0,.76,1.16c.64.41,2.15,5.88,3.2,8.32s1.51,3.38.23,4.31c-1,1.1-1.16,1.22.64,2.27-1.1,2-1.39,3.72.64,4.48s6.11,1.86,8.85.93c2.27-.7,2.79-2.15,2.38-3.67s-2.62-2.5-4.36-2.91c-1.17-.4-.93-1-3.2-1.92-1.17-.58-2.15-3.14-2.85-6.92s-.41-6.23,1.34-7.68a2.14,2.14,0,0,0,.29,1.16,9.81,9.81,0,0,1,1.68-2.56c1-1,1.11-6.75-3.49-8.78s-5.47-2.39-6.28-.24S20.84,70.53,20.84,70.53Z"/><path class="cls-6" d="M41.55,91.88c-.37-1.38-2.25-2.32-3.9-2.79-4.34.56-4.59,4.63-4.5,6.37a12,12,0,0,0,6,.09C41.44,94.85,42,93.4,41.55,91.88Z"/><path d="M35.12,90l.29-.09a3.78,3.78,0,0,1,.79-.13,3.29,3.29,0,0,1,.54,0,3.37,3.37,0,0,1,.61.1,3.83,3.83,0,0,1,.62.22,3.56,3.56,0,0,1,.58.37A3.24,3.24,0,0,1,39,91c.07.09.13.19.19.28l.16.28.12.29.09.29a2.78,2.78,0,0,1,.11.53,2,2,0,0,1,0,.24c0,.07,0,.14,0,.21a2,2,0,0,1,0,.35c0,.19,0,.3,0,.3s0-.11-.07-.29a3,3,0,0,0-.07-.34q0-.19-.12-.42a2.25,2.25,0,0,0-.08-.24l-.09-.24c0-.09-.08-.17-.11-.26l-.14-.25-.15-.25-.18-.24a3.49,3.49,0,0,0-.43-.43,2.78,2.78,0,0,0-.51-.33,2.83,2.83,0,0,0-.54-.23,5,5,0,0,0-1.06-.22,5.3,5.3,0,0,0-.77,0Z"/><g class="cls-7"><path class="cls-6" d="M36,95c-2.86-.15-2-3.66-2-3.66v0a7.57,7.57,0,0,0-.87,4.16,12,12,0,0,0,6,.09c2-.62,2.64-1.82,2.49-3.13a4.18,4.18,0,0,1-2.36-.64C39.81,93.24,38.9,95.15,36,95Z"/></g><path class="cls-2" d="M55.68,62.74s-2.11,1.81-2,3.62c.81-.8,1.41-.7,1.41-.7a5.14,5.14,0,0,0-2,3.31,4.8,4.8,0,0,1,1.57-.76,4.48,4.48,0,0,0,1.89,5.39,1.67,1.67,0,0,1,.22-1S56.89,74,59,75.1c1.41.91,1.31,3.07,1.56,7.34.2,3,.71,7,.71,7s-1.51-.3-1.46.2,1,1.06.05,1.81a4.17,4.17,0,0,0-1.46,3.26c0,1.26,1.66,2.11,4.32,2.82s7.19,1.25,7.39-.45c1.71.5,2.71-.31,2.61-1s-.4-4.87-6.83-5.53c-1.31-.25-1.06-.75-.71-1.3a1.14,1.14,0,0,0-.25-1.61c-.55-.5-.45-1.21-.25-3s.65-7.29,1.06-7.49.9-.25.75-1a7.71,7.71,0,0,0-1-2s1,.45,1.45,0c0,0-2.11-.76-.55-3s4.07-1.5,4.57-2.76-1-2.66-1-2.66a1.56,1.56,0,0,0,1.15-.56c-.9.06-1.53-.82-.4-2.66,1.76-2.86,2.81-4.42,2.86-5.37s.55-3.82-.35-5.18C73.16,51.94,62.21,57,55.68,62.74Z"/><g class="cls-3"><path class="cls-4" d="M73.16,51.94S62.21,57,55.68,62.74c0,0-2.11,1.81-2,3.62.81-.8,1.41-.7,1.41-.7a5.14,5.14,0,0,0-2,3.31,4.8,4.8,0,0,1,1.57-.76,4.48,4.48,0,0,0,1.89,5.39,1.67,1.67,0,0,1,.22-1S56.89,74,59,75.1c1.41.91,1.31,3.07,1.56,7.34.2,3,.71,7,.71,7s-1.51-.3-1.46.2,1,1.06.05,1.81a4.17,4.17,0,0,0-1.46,3.26c0,1.26,1.66,2.11,4.32,2.82s7.19,1.25,7.39-.45c1.71.5,2.71-.31,2.61-1s-.36-4.26-5.47-5.32c-4.55.2-5.25,3.81-6.1,2.61A2.22,2.22,0,0,1,62.46,90c1.23-.38.09-1-.57-6.33s1-8.78-.94-10.76a5.07,5.07,0,0,1-1.14-5.19,3.37,3.37,0,0,0-1.51,1.7c-1.32-2.36.48-4.63,2.84-5.29a4.84,4.84,0,0,0,3.11-2.27s.29.67,2.17.67c-1.79-2.65,2.74-6.14,4.63-5.2,1.51.76,1,2.55.77,3.23,1.05-1.7,1.66-2.77,1.69-3.48C73.56,56.16,74.06,53.3,73.16,51.94Z"/></g><path class="cls-5" d="M55.68,62.74s-2.11,1.81-2,3.62c.81-.8,1.41-.7,1.41-.7a5.14,5.14,0,0,0-2,3.31,4.8,4.8,0,0,1,1.57-.76,4.48,4.48,0,0,0,1.89,5.39,1.67,1.67,0,0,1,.22-1S56.89,74,59,75.1c1.41.91,1.31,3.07,1.56,7.34.2,3,.71,7,.71,7s-1.51-.3-1.46.2,1,1.06.05,1.81a4.17,4.17,0,0,0-1.46,3.26c0,1.26,1.66,2.11,4.32,2.82s7.19,1.25,7.39-.45c1.71.5,2.71-.31,2.61-1s-.4-4.87-6.83-5.53c-1.31-.25-1.06-.75-.71-1.3a1.14,1.14,0,0,0-.25-1.61c-.55-.5-.45-1.21-.25-3s.65-7.29,1.06-7.49.9-.25.75-1a7.71,7.71,0,0,0-1-2s1,.45,1.45,0c0,0-2.11-.76-.55-3s4.07-1.5,4.57-2.76-1-2.66-1-2.66a1.56,1.56,0,0,0,1.15-.56c-.9.06-1.53-.82-.4-2.66,1.76-2.86,2.81-4.42,2.86-5.37s.55-3.82-.35-5.18C73.16,51.94,62.21,57,55.68,62.74Z"/><path class="cls-2" d="M13.67,14.74s-1.5,1.5-2.48,1.22a3.4,3.4,0,0,1-2-2.08c-.58.92-.69,1.79-.17,2.36-2.71-.4-4.1.18-4.5,1.73a3.22,3.22,0,0,1,1.61.17S1.51,19.76,1.1,21.2s.75,4.55.75,4.55A1.28,1.28,0,0,1,3,24.66a5.92,5.92,0,0,0-.4,5.53C5.66,25.7,13.55,15.61,13.67,14.74Z"/><g class="cls-3"><path class="cls-4" d="M11.19,16a3.4,3.4,0,0,1-2-2.08c-.1.17-.19.33-.27.49A3.49,3.49,0,0,0,9.75,16c1.43,1.74,1.43,1.56-.12,2.49a17.66,17.66,0,0,0-4,4c-.43.68,1.37-.81,1.8-1s-1.92,2.11-3,3.84-1-.24-.12-1.61S1.44,25.76,1.06,22.1c0-.12,0-.23,0-.34a13.39,13.39,0,0,0,.83,4A1.28,1.28,0,0,1,3,24.66a5.92,5.92,0,0,0-.4,5.53c3.06-4.49,11-14.58,11.07-15.45C13.67,14.74,12.17,16.24,11.19,16Z"/></g><path class="cls-6" d="M65.32,91.92c-2.95,1-2.78,4.38-2.62,5.58h0c2.67.7,7.19,1.25,7.39-.45,1.71.5,2.71-.31,2.61-1a5.58,5.58,0,0,0-3.33-4.61A8.41,8.41,0,0,0,65.32,91.92Z"/><path d="M65.32,91.92h.33L66,92a3.7,3.7,0,0,1,.49.09,5.14,5.14,0,0,1,.56.18l.3.14a1.46,1.46,0,0,1,.3.16l.3.18.29.22a5.29,5.29,0,0,1,.54.52,6.46,6.46,0,0,1,.44.59c.12.21.24.42.34.63s.16.42.23.62a5.22,5.22,0,0,1,.14.57l.06.26c0,.08,0,.16,0,.23s0,.28,0,.38,0,.34,0,.34l-.1-.32c0-.1-.06-.22-.1-.37l-.06-.22q0-.11-.09-.24c-.06-.16-.12-.34-.2-.53s-.18-.37-.27-.57-.23-.37-.34-.57-.27-.37-.42-.54-.31-.34-.49-.48L67.77,93l-.26-.18a1.61,1.61,0,0,0-.28-.17L67,92.49c-.18-.08-.35-.17-.51-.23A4.27,4.27,0,0,0,66,92.1L65.64,92l-.24,0Z"/><path class="cls-2" d="M43,6.08l-10.58-2c-5-.94-6.16-.4-9.78,2S14.09,13.72,7,23.49c-4.82,6.7-7.23,9.25-7,13.93S4.31,50,7.25,53.63l-.53,1.21,1.34-.24s.25,2.09.61,2.34S9,56,9,56s1,2.18,1.53,3.66-.05,1.52-3,5.23C5.06,68,4.24,68.69,6,68.13a10.64,10.64,0,0,0-2.08,3.51l1.22-.36s-.87,1.78-.61,2.65c0,.45,1.22-.31,1.22-.31S4,77.41,7.59,85.45c1.14,3,.8,3.75-.07,4.62s-.6,1.28.81,2.55A3.94,3.94,0,0,0,7.65,97c.41.74,4.63,2.14,8.11,2.41,3.08.27,3.75-.2,3.82-.87,1.67.13,2.14-.27,2.14-.94a7.5,7.5,0,0,0-4.82-5.69c-2.48-1-3.75-2.21-3.15-2.81s.67-.87-.27-1.21-1.27-.87-1.81-3-1.47-7.3,2-9.71C17,73,21.52,71.79,21.79,70.31a1.24,1.24,0,0,1,.4,1,6,6,0,0,0,2-3.91l.75,1.15s1.15-2.14.24-3.62c1.07.33,1.15.66,1.15.66a6.79,6.79,0,0,0-.57-4c4.28,1.32,6.67,1.9,7.16,3.46.33,1-1.48,2.14-1.32,3.54a10.42,10.42,0,0,0,2.31-.9,3.91,3.91,0,0,0-.66,3.13c.57-.91,1-1,1-1s-.57,2.23.66,2.48,4.45,2.14,4.7,3.86.74,6.59,1.06,9.47.66,3.29,0,4-1.64,1.24-.9,2.55c.74,1.15.16,1.24-.25,2.14S38.8,97.37,39.3,98s3.7,2,7.73,2c3.63-.08,4.86-.49,4.61-1.23,1.57-.17,2.31-1,1.4-2.56a7.74,7.74,0,0,0-4.69-3.53c-1.15-.42-.9-1-.74-1.65s-.25-1-.74-1.48-.82-1.65-1.56-5.27-2.56-10.53-.58-12.75c2.14-1.9,2.55-1.74,2-2.89s-.82-1.56-.82-1.56a2.51,2.51,0,0,0,1.15.49,2.3,2.3,0,0,1,.5-3.45c1.89.33,8.11.57,10.28-2.54a2.79,2.79,0,0,1-.46,1.55s5.43-1.63,6.75-3.33A2.54,2.54,0,0,0,65,60.88a2.58,2.58,0,0,1,1.63-2.71c1.94-.86,3.88-1.63,4-4.81.7.85.47,1.39.47,1.39A4.63,4.63,0,0,1,73,52.58c1.4-.85,1.78-1.47,1.78-2.4.93-.39,3.88-3.88,4-6.83a4.36,4.36,0,0,1,.39,1.79s1.7-2.57,1.24-4.58a5.58,5.58,0,0,1,.93,1.7s.77-3.33-.16-5c.86-1.24,1.24-4,.7-4.66.85.16.85-4.11-1.47-7.91A51.63,51.63,0,0,0,71.7,11.24C66.81,5.57,64,2,59.21.61S47.85,1.7,43,6.08Z"/><path class="cls-2" d="M71.16,54.75Z"/><path class="cls-8" d="M59.21,1.39C54.4,0,47.85,2.48,43,6.86l-10.58-2c-5-.94-6.16-.4-9.78,2S14.34,14.23,7.53,23.53c.61-.64,10.18-10.76,14.66-12.21s5.17,2.85,10.2,9.11,10.46-1.84,16.51-7.92S64.52,2.76,76.19,17.8A59.68,59.68,0,0,0,71.7,12C66.81,6.35,64,2.79,59.21,1.39Z"/><g class="cls-3"><path class="cls-4" d="M71.16,54.75Z"/><path class="cls-4" d="M81.94,32.64c.85.16.85-4.11-1.47-7.91C79.64,23,78.9,21.52,78.05,20c-.41,3-4.26,6.66-7.66,7,5.19,3.6,8.47.32,9.42,3.49s-.11,6.35-1.38,6.35c1.48,3,.85,4.34.85,4.34A5.48,5.48,0,0,0,77.9,39c.64,6-3,8.89-3,8.89s-.11-1.49-.63-1.7c-.11,3.18-3.29,5.3-3.29,5.3a5.86,5.86,0,0,0-.84-1.7c-.53,4.45-11,9.1-11,9.1s1.06-1.37.43-2.22c-4.45,4.76-8.68,3.6-9.21.85a5.86,5.86,0,0,0-3-3.92c1.58,3.92,1,4.76-1.27,8.47-5.29,8.57-10.48,4.34-15.56-3.49s1.8-13.76,1.8-13.76-.74-.42-2.12.53A21.1,21.1,0,0,1,34,40.89a22.11,22.11,0,0,0-7.94,5.82c-3.7,4.24-6.35,9.53-12.8-.53-7.2-12.69,3.17-18.3,3.17-18.3a2.54,2.54,0,0,0-2.33-.11A6.51,6.51,0,0,1,17.27,26a8.09,8.09,0,0,0-5.93,1.91l1.06.31c-2.54.64-5,5.19-5,5.19l1.16-.32C7.64,34.12,7,37,7,37l1.17-.74S5.84,38.56,9.33,46s-1.37,6.88-6-3.6a16.27,16.27,0,0,1,.31-14.24C1.06,31.72-.18,34,0,37.42.29,42.11,4.31,50,7.25,53.63l-.53,1.21,1.34-.24s.25,2.09.61,2.34S9,56,9,56s1,2.18,1.53,3.66-.05,1.52-3,5.23C5.06,68,4.24,68.69,6,68.13a10.64,10.64,0,0,0-2.08,3.51l1.22-.36s-.87,1.78-.61,2.65c0,.45,1.22-.31,1.22-.31S4,77.41,7.59,85.45c1.14,3,.8,3.75-.07,4.62s-.6,1.28.81,2.55A3.94,3.94,0,0,0,7.65,97c.41.74,4.63,2.14,8.11,2.41,3.08.27,3.75-.2,3.82-.87,1.67.13,2.14-.27,2.14-.94a7.5,7.5,0,0,0-4.82-5.69c-2.48-1-3.75-2.21-3.15-2.81s.67-.87-.27-1.21-1.27-.87-1.81-3-1.47-7.3,2-9.71C17,73,21.52,71.79,21.79,70.31a1.24,1.24,0,0,1,.4,1,6,6,0,0,0,2-3.91l.75,1.15s1.15-2.14.24-3.62c1.07.33,1.15.66,1.15.66a6.79,6.79,0,0,0-.57-4c4.28,1.32,6.67,1.9,7.16,3.46.33,1-1.48,2.14-1.32,3.54a10.42,10.42,0,0,0,2.31-.9,3.91,3.91,0,0,0-.66,3.13c.57-.91,1-1,1-1s-.57,2.23.66,2.48,4.45,2.14,4.7,3.86.74,6.59,1.06,9.47.66,3.29,0,4-1.64,1.24-.9,2.55c.74,1.15.16,1.24-.25,2.14S38.8,97.37,39.3,98s3.7,2,7.73,2c3.63-.08,4.86-.49,4.61-1.23,1.57-.17,2.31-1,1.4-2.56a7.74,7.74,0,0,0-4.69-3.53c-1.15-.42-.9-1-.74-1.65s-.25-1-.74-1.48-.82-1.65-1.56-5.27-2.56-10.53-.58-12.75c2.14-1.9,2.55-1.74,2-2.89s-.82-1.56-.82-1.56a2.51,2.51,0,0,0,1.15.49,2.3,2.3,0,0,1,.5-3.45c1.89.33,8.11.57,10.28-2.54a2.79,2.79,0,0,1-.46,1.55s5.43-1.63,6.75-3.33A2.54,2.54,0,0,0,65,60.88a2.58,2.58,0,0,1,1.63-2.71c1.94-.86,3.88-1.63,4-4.81.65.79.5,1.31.47,1.39A4.61,4.61,0,0,1,73,52.58c1.4-.85,1.78-1.47,1.78-2.4.93-.39,3.88-3.88,4-6.83a4.36,4.36,0,0,1,.39,1.79s1.7-2.57,1.24-4.58a5.58,5.58,0,0,1,.93,1.7s.77-3.33-.16-5C82.1,36.06,82.48,33.34,81.94,32.64Z"/></g><path class="cls-9" d="M53.54,15.12S54.74,6.55,65.39.65C69.74-.89,77.85-.55,81.94,11.3c1.67,7.91-.54,18.76-10.32,15.94,3.22-.33,9.31-6,5.83-13.12C74.17,7.49,66,8.62,62.71,13.31A16.37,16.37,0,0,0,61,17.88Z"/><g class="cls-10"><path class="cls-9" d="M78.32,23.49c3.55-4.95,1.47-11.89-2.75-15.1C70.73,4.7,64.76,6.18,61.21,11.3c-3,4.28-6.6,3.42-5.4-.06,1.81-5.16,7.91-9.58,7.91-9.58h0c-9.1,5.82-10.18,13.47-10.18,13.47L61,17.88a16.37,16.37,0,0,1,1.71-4.57c3.28-4.69,11.46-5.82,14.74.81,3.48,7.16-2.61,12.79-5.83,13.12.22.07.44.12.65.17C75.27,27,76.49,25.51,78.32,23.49Z"/></g><path class="cls-11" d="M61.26,5.58S71.34-3.89,78.37,7.16c2.72,4.72,1.06-3.39-4.55-5.7C65.28-2.06,58.85,6.81,61.26,5.58Z"/><g class="cls-7"><path class="cls-12" d="M54.26,12.51l.35-.09.41-.07.26,0,.28,0c.2,0,.41,0,.64,0s.46,0,.71.08l.37.07.38.1a7.07,7.07,0,0,1,.74.24c.25.1.49.23.72.34s.44.26.66.39l.56.43c.19.14.33.3.48.43a3.27,3.27,0,0,1,.37.39l.27.31.23.28-.26-.25-.29-.29a3.57,3.57,0,0,0-.4-.35,5.27,5.27,0,0,0-.49-.4l-.57-.4L59,13.3c-.23-.1-.46-.23-.7-.32a6.28,6.28,0,0,0-.73-.25l-.36-.1-.36-.07-.18,0-.17,0-.34-.05c-.22,0-.44,0-.63,0H55l-.41,0A2.88,2.88,0,0,0,54.26,12.51Z"/><path class="cls-12" d="M56.49,8.51l.38,0a8.4,8.4,0,0,1,1,0,11.2,11.2,0,0,1,1.39.16c.25.06.51.11.77.19a7.92,7.92,0,0,1,.78.26l.38.17.36.19a4.52,4.52,0,0,1,.67.43l.3.24.26.25a3,3,0,0,1,.24.26,2.43,2.43,0,0,1,.2.25,4.51,4.51,0,0,1,.3.47l.2.39.13.35-.17-.34-.22-.36c-.1-.13-.2-.29-.33-.44a2.25,2.25,0,0,0-.21-.24,1.75,1.75,0,0,0-.24-.23,2,2,0,0,0-.27-.23l-.14-.12L62.11,10c-.21-.14-.43-.27-.66-.4l-.36-.18-.37-.16c-.24-.1-.5-.19-.75-.27s-.51-.14-.76-.19a6.35,6.35,0,0,0-.71-.14l-.65-.09C57,8.51,56.49,8.51,56.49,8.51Z"/><path class="cls-12" d="M57,7.77a3.32,3.32,0,0,1,.38,0,7.68,7.68,0,0,1,1,0l.67.06a7.27,7.27,0,0,1,.75.12,7.44,7.44,0,0,1,.78.2,8.39,8.39,0,0,1,.79.29c.25.11.5.25.74.38a6.58,6.58,0,0,1,.67.46,7.26,7.26,0,0,1,.57.5l.24.26.21.25a5.37,5.37,0,0,1,.34.46c.09.15.17.27.23.38l.17.34s-.07-.12-.21-.32a4.06,4.06,0,0,0-.25-.35l-.36-.44-.22-.23-.25-.24c-.18-.16-.37-.31-.57-.47a3.62,3.62,0,0,1-.32-.22l-.34-.21a10.68,10.68,0,0,0-1.5-.66,7.17,7.17,0,0,0-.76-.21,8.92,8.92,0,0,0-1.39-.23c-.41,0-.76-.06-1-.06Z"/><path class="cls-12" d="M60.36,4.19l.39,0a6.24,6.24,0,0,1,1,.24,7.25,7.25,0,0,1,1.37.58,6.22,6.22,0,0,1,.71.47c.12.08.22.18.34.27l.32.29c.1.11.21.21.3.32l.14.17.13.17a6.22,6.22,0,0,1,.47.71,5.07,5.07,0,0,1,.34.71c.1.23.17.46.24.66s.11.4.14.58.07.32.08.45,0,.39,0,.39,0-.14-.09-.38-.07-.27-.11-.44-.12-.36-.18-.56-.15-.42-.26-.64-.11-.23-.17-.34-.12-.23-.19-.34a5.91,5.91,0,0,0-.47-.68l-.13-.17-.14-.16-.29-.3c-.1-.11-.21-.2-.31-.3l-.33-.27a7.38,7.38,0,0,0-.68-.46,8.22,8.22,0,0,0-1.32-.63,8.83,8.83,0,0,0-1-.3Z"/><path class="cls-12" d="M66.29.39a3.56,3.56,0,0,1,.43.18,6.77,6.77,0,0,1,1.07.65c.21.15.42.33.65.53a6.86,6.86,0,0,1,.64.67,6.18,6.18,0,0,1,.6.8,7.2,7.2,0,0,1,.51.9c.08.15.14.31.21.47s.12.32.17.48l.15.49c0,.16.08.32.11.48l.09.47c0,.15,0,.3,0,.45s0,.29,0,.43,0,.27,0,.4,0,.5,0,.7,0,.4,0,.54c0,.3,0,.47,0,.47s0-.17,0-.47c0-.15,0-.33,0-.54s0-.44,0-.69,0-.26,0-.4,0-.28,0-.42,0-.29-.07-.45-.07-.3-.1-.45-.08-.31-.12-.47-.1-.32-.14-.48l-.18-.47c-.07-.15-.13-.31-.21-.46a7.58,7.58,0,0,0-.49-.88A6.64,6.64,0,0,0,69,2.53c-.2-.25-.41-.47-.61-.68a7.23,7.23,0,0,0-.62-.54,7.26,7.26,0,0,0-1-.7C66.45.46,66.29.39,66.29.39Z"/><path class="cls-12" d="M68.25.08a3.39,3.39,0,0,1,.39.26,7.31,7.31,0,0,1,.92.79,8.69,8.69,0,0,1,1.11,1.34,8.61,8.61,0,0,1,.49.85c.08.15.15.3.22.45l.19.48c.05.16.11.32.15.48a5,5,0,0,1,.12.49,8.81,8.81,0,0,1,.15,1,7.24,7.24,0,0,1,0,.92c0,.29,0,.57-.06.82s-.07.48-.12.68a4.06,4.06,0,0,1-.12.52c-.08.28-.12.44-.12.44l.09-.45c0-.14,0-.32.08-.52s0-.43.07-.68a7,7,0,0,0,0-.81,3.31,3.31,0,0,0,0-.44,3.73,3.73,0,0,0,0-.46,7.65,7.65,0,0,0-.15-.94c0-.17-.08-.33-.13-.48s-.1-.32-.15-.48-.12-.31-.18-.46-.13-.3-.21-.45a8.54,8.54,0,0,0-1-1.57,6.79,6.79,0,0,0-.52-.62,9,9,0,0,0-.87-.84C68.39.18,68.25.08,68.25.08Z"/><path class="cls-12" d="M75.52,2a3.56,3.56,0,0,1,.22.35l.21.41c.07.17.15.36.22.57s.14.44.21.69.06.25.09.38,0,.27.06.41,0,.28,0,.42,0,.29,0,.44a8.83,8.83,0,0,1,0,.89A2.12,2.12,0,0,1,76.5,7c0,.15-.06.3-.08.44s-.16.56-.24.83-.21.51-.31.75a1.68,1.68,0,0,1-.16.33l-.17.3a3.94,3.94,0,0,1-.32.52l-.28.38-.24.32.21-.34.25-.4c.1-.15.18-.34.28-.53l.15-.31a1.66,1.66,0,0,0,.15-.33c.09-.24.19-.48.28-.74s.15-.54.21-.82,0-.28.08-.43a3,3,0,0,0,0-.43,6.35,6.35,0,0,0,0-.87c0-.14,0-.28,0-.42s0-.28,0-.42,0-.27,0-.4,0-.26-.07-.38-.1-.48-.17-.69-.13-.4-.19-.57l-.18-.43-.13-.27Z"/><path class="cls-12" d="M80.19,7.32s0,.11,0,.31a6.61,6.61,0,0,1,0,.81c0,.17,0,.35-.08.54s-.07.39-.12.6-.12.41-.18.63-.16.42-.25.63-.19.41-.31.6-.11.19-.17.29l-.19.26-.18.25c-.07.08-.14.15-.2.23a3.45,3.45,0,0,1-.39.38,4.07,4.07,0,0,1-.35.3l-.3.2-.26.16.24-.2.27-.22c.1-.09.2-.2.32-.32a2.28,2.28,0,0,0,.35-.4,2.11,2.11,0,0,0,.19-.23l.17-.25c.06-.09.12-.17.17-.26l.16-.29a5.39,5.39,0,0,0,.29-.59,6.5,6.5,0,0,0,.25-.61c.07-.2.14-.41.2-.61s.11-.39.15-.58.08-.36.11-.53c0-.32.1-.6.12-.8S80.19,7.32,80.19,7.32Z"/><path class="cls-12" d="M82.24,12.74a1.11,1.11,0,0,1-.15.16,3.42,3.42,0,0,1-.42.39l-.31.22a3.13,3.13,0,0,1-.36.22c-.13.08-.27.15-.41.22s-.29.12-.43.18-.3.1-.45.15l-.44.11-.42.08-.38,0a1.79,1.79,0,0,1-.32,0h-.47l.21,0,.25,0,.31-.06.37-.07.41-.1.42-.13a3.81,3.81,0,0,0,.44-.15l.42-.17a3.71,3.71,0,0,0,.4-.19c.26-.13.5-.27.69-.39A4.85,4.85,0,0,0,82.24,12.74Z"/><path class="cls-12" d="M78,15.39l.2,0h.87l.39,0,.41-.05a3.1,3.1,0,0,0,.42-.08l.2,0,.21-.06.38-.14a3,3,0,0,0,.36-.15l.16-.07.15-.09.25-.14.19-.13.17-.11-.15.14-.17.16-.23.18-.14.1-.16.09a2,2,0,0,1-.36.19,2.08,2.08,0,0,1-.4.15l-.2.07-.22,0a4.77,4.77,0,0,1-.86.12h-.4l-.35,0a3.2,3.2,0,0,1-.52-.1Z"/><path class="cls-12" d="M78.52,17.9h1.92l.7,0,.32,0,.29,0,.24-.05.19,0,.16,0-.15.07a3.69,3.69,0,0,1-.41.17l-.29.07-.33.07-.35,0-.36,0c-.25,0-.49,0-.72,0a5.32,5.32,0,0,1-.62-.07c-.18,0-.32-.06-.43-.08Z"/><path class="cls-12" d="M78.19,20.88l.15,0,.42.08c.17,0,.37.07.59.1l.33,0,.34,0c.12,0,.23,0,.35,0H81a2.19,2.19,0,0,0,.28,0l.24,0,.18,0,.16,0-.15.07-.17.07-.24.07-.28.07-.32,0a1.94,1.94,0,0,1-.34,0H80a6.72,6.72,0,0,1-.69-.1,5.35,5.35,0,0,1-.59-.17A2.85,2.85,0,0,1,78.19,20.88Z"/><path class="cls-12" d="M76.88,23.69l.15,0a3.33,3.33,0,0,1,.41,0,3.17,3.17,0,0,1,.6,0c.1,0,.22,0,.32.08l.17.05.16.06c.11,0,.21.1.32.15a2.75,2.75,0,0,1,.28.19c.09.06.16.14.24.2a1.26,1.26,0,0,1,.2.2,1.1,1.1,0,0,1,.14.18l.11.15.08.13-.12-.1-.12-.13-.17-.15-.22-.17c-.08-.05-.15-.12-.24-.17l-.28-.16a2.55,2.55,0,0,0-.29-.13L78.46,24l-.15-.05L78,23.82a3.16,3.16,0,0,0-.56-.1l-.4,0Z"/><path class="cls-12" d="M75.67,25a2.83,2.83,0,0,1,.44.15,2.69,2.69,0,0,1,.43.2,3.89,3.89,0,0,1,.46.29,3.58,3.58,0,0,1,.41.35,4.08,4.08,0,0,1,.3.37l.1.17a.75.75,0,0,1,.06.13l0,.12-.08-.1-.09-.11-.13-.14a1.06,1.06,0,0,1-.15-.15l-.18-.16-.2-.16-.21-.16c-.29-.21-.59-.41-.82-.55Z"/><path class="cls-12" d="M75.07,25.57a2.47,2.47,0,0,1,.38.14l.37.2a4.56,4.56,0,0,1,.39.27,3.64,3.64,0,0,1,.34.34,2.25,2.25,0,0,1,.25.34l.07.15a.93.93,0,0,1,0,.13l0,.1-.07-.09s0-.06-.08-.1l-.1-.12-.12-.14-.15-.15-.35-.3-.36-.29-.33-.24Z"/></g><path class="cls-11" d="M60.74,6.27c.13.15,0,.46-.27.71s-.61.33-.74.18,0-.46.28-.7S60.61,6.13,60.74,6.27Z"/><path class="cls-9" d="M50.05,15.59S50.12,3.4,41.88,2.66c-7.3-.27-12.93,7.84-9,15.27,2.75,3.62,5.22,5.56,5,7.44s-2.68,2.48-4.56,2c-.53-.07,1.74,1.87,5.23.8s3.34-6.36,2.34-8.7-2.61-7.57-.6-8.45c1.07-.4,3.28,3.29,3.41,5.77A50.07,50.07,0,0,1,50.05,15.59Z"/><g class="cls-10"><path class="cls-9" d="M44.68,3.47c1.77,2.32,5.43,7.84,2.76,9.74-2.66,1.3-2.11-1.91-5.35-4.39-2.45-1.87-8.82.56-4.94,9.37,2.92,5.44,2.36,10.79-3.42,9.69a6.13,6.13,0,0,0,4.74.3c3.48-1.07,3.34-6.36,2.34-8.7s-2.61-7.57-.6-8.45c1.07-.4,3.28,3.29,3.41,5.77a50.07,50.07,0,0,1,6.43-1.21S50.1,6.35,44.68,3.47Z"/></g><path class="cls-11" d="M41.88,3.79s-8.9-.2-9,10.35c.07,1.8-2.14-3.31,1.65-8S43.67,3.24,41.88,3.79Z"/><g class="cls-7"><path class="cls-12" d="M43,14.46a1.73,1.73,0,0,1,.1-.32,3.32,3.32,0,0,1,.16-.35,2.25,2.25,0,0,1,.12-.21l.14-.22c.05-.08.12-.15.18-.23a1.51,1.51,0,0,1,.21-.23l.23-.24.27-.2.14-.11.16-.09.31-.19.34-.14.17-.08.18,0a4.74,4.74,0,0,1,.72-.18,5.94,5.94,0,0,1,.71-.08c.23,0,.46,0,.67,0l.59.05a3.54,3.54,0,0,1,.5.07l.37.07.33.07-.33,0-.39,0c-.14,0-.31,0-.49,0h-.59c-.2,0-.42,0-.65,0a5.68,5.68,0,0,0-.69.09,4.39,4.39,0,0,0-.69.18l-.17,0-.16.07-.33.14-.31.17-.15.08-.14.1-.26.19L44,13l-.21.21c-.06.08-.14.14-.19.21l-.29.4c-.08.13-.14.24-.19.34l-.1.22A.18.18,0,0,0,43,14.46Z"/><path class="cls-12" d="M42.48,13.19s0-.13.08-.36a7.51,7.51,0,0,1,.34-.91,4.6,4.6,0,0,1,.3-.58,5.43,5.43,0,0,1,.41-.61,5.6,5.6,0,0,1,.53-.57,4.62,4.62,0,0,1,.64-.51,4.89,4.89,0,0,1,.72-.37l.38-.13a2.54,2.54,0,0,1,.37-.1A4.84,4.84,0,0,1,47,9h.66a4,4,0,0,1,.54.06l.42.08.36.09-.37,0-.42-.05-.54,0c-.1,0-.2,0-.31,0L47,9.1a6.42,6.42,0,0,0-.7.12,5,5,0,0,0-.71.24,4.52,4.52,0,0,0-.69.36A5.71,5.71,0,0,0,43,12a6.62,6.62,0,0,0-.4.88C42.52,13.06,42.48,13.19,42.48,13.19Z"/><path class="cls-12" d="M42.15,12.59a2.9,2.9,0,0,1,.09-.36,6.28,6.28,0,0,1,.36-.93c.09-.19.19-.38.31-.59a5.68,5.68,0,0,1,.43-.61,4.26,4.26,0,0,1,.55-.58,4.58,4.58,0,0,1,.66-.5,3.69,3.69,0,0,1,.75-.36l.2-.07.19-.05a2.7,2.7,0,0,1,.39-.08,3.92,3.92,0,0,1,.75-.06H47l.17,0,.32,0a3.82,3.82,0,0,1,.55.11l.42.11.35.12-.36-.08L48,8.63l-.56-.07h-.65l-.35,0a2.35,2.35,0,0,0-.37.05,2.49,2.49,0,0,0-.37.09l-.19,0-.18.07a3.9,3.9,0,0,0-.71.35,3.77,3.77,0,0,0-.64.47,5.58,5.58,0,0,0-.54.55,6.45,6.45,0,0,0-.78,1.14,6.51,6.51,0,0,0-.42.89C42.19,12.46,42.15,12.59,42.15,12.59Z"/><path class="cls-12" d="M40.21,11a.51.51,0,0,1-.07-.1,3.51,3.51,0,0,1-.15-.32c0-.08-.05-.15-.09-.24s0-.19-.08-.29,0-.22-.06-.34,0-.24,0-.38a3.21,3.21,0,0,1,.08-.85,4,4,0,0,1,.3-.9c.08-.15.14-.31.23-.45l.28-.44L41,6.31c.11-.14.24-.25.36-.38l.19-.19a1.51,1.51,0,0,1,.2-.17c.14-.11.27-.22.42-.32A4,4,0,0,1,42.56,5l.22-.13L43,4.73a4.59,4.59,0,0,1,.89-.33,3.78,3.78,0,0,1,.85-.12,3.14,3.14,0,0,1,.72.07,2.44,2.44,0,0,1,.52.17l.19.09.13.08.1.07L46.3,4.7A2,2,0,0,0,46,4.55a2.74,2.74,0,0,0-.53-.13,3.91,3.91,0,0,0-.7,0,4.17,4.17,0,0,0-.81.14,5.55,5.55,0,0,0-.86.35L42.87,5l-.21.13c-.15.08-.28.18-.42.27l-.41.32-.19.16-.18.19a3.06,3.06,0,0,0-.35.37l-.32.39c-.1.14-.19.28-.28.42a3,3,0,0,0-.23.43,4.37,4.37,0,0,0-.32.87,4,4,0,0,0-.11.81,5,5,0,0,0,0,.71c0,.1,0,.2.06.28s0,.17.07.25.09.25.12.32Z"/><path class="cls-12" d="M39.25,12.76l-.14,0a2.18,2.18,0,0,1-.39-.13,5.18,5.18,0,0,1-.58-.29,4,4,0,0,1-.67-.5l-.18-.16c0-.06-.1-.13-.16-.19s-.11-.12-.16-.19L36.82,11a3.64,3.64,0,0,1-.28-.47,3.11,3.11,0,0,1-.22-.53,5.53,5.53,0,0,1-.25-1.17c0-.1,0-.2,0-.3V8a2.72,2.72,0,0,1,0-.31A4.44,4.44,0,0,1,36.15,7a4,4,0,0,1,.14-.6,5.4,5.4,0,0,1,.18-.57c0-.09.08-.19.11-.28s.09-.18.13-.26a5.21,5.21,0,0,1,.6-.94c.12-.14.23-.26.35-.38s.23-.23.36-.32a4.22,4.22,0,0,1,.36-.27,3,3,0,0,1,.34-.2A4,4,0,0,1,39.31,3l.23-.07.17,0,.15,0-.14,0a2.1,2.1,0,0,0-.39.14,3.07,3.07,0,0,0-.57.29,3,3,0,0,0-.33.21l-.34.27c-.12.09-.22.22-.34.33s-.22.24-.32.38a5.24,5.24,0,0,0-.56.92l-.13.26c0,.09-.06.18-.1.27a5.18,5.18,0,0,0-.17.56c-.06.19-.09.39-.13.58s-.05.4-.08.6,0,.21,0,.3v.6a2.85,2.85,0,0,0,0,.29A4.53,4.53,0,0,0,36.49,10a3,3,0,0,0,.2.52,3.37,3.37,0,0,0,.25.46l.14.22.15.19.15.18.16.17a4.45,4.45,0,0,0,.64.51c.21.14.4.25.55.33l.38.16Z"/><path class="cls-12" d="M36.14,4.37a2.36,2.36,0,0,0-.3.41,3.22,3.22,0,0,0-.27.5c0,.11-.08.22-.13.33L35.32,6c0,.13-.07.27-.1.41s0,.3-.07.45,0,.32,0,.48,0,.33,0,.5,0,.35,0,.52l.06.53c0,.18.06.36.09.54l0,.26.07.27a4.4,4.4,0,0,0,.18.51,5.11,5.11,0,0,0,.22.48,6,6,0,0,0,.58.87l.16.2.16.18c.11.13.23.24.34.35a5.87,5.87,0,0,0,.68.57c.1.08.22.15.32.22l.3.18.28.14.24.1a2.64,2.64,0,0,0,.36.1h0a1.76,1.76,0,0,1-.37-.07l-.25-.09-.29-.12L38,13.41l-.34-.21a8,8,0,0,1-.71-.55c-.12-.11-.24-.22-.35-.34l-.18-.19c-.06-.06-.11-.13-.17-.2a6.29,6.29,0,0,1-.6-.89,4.66,4.66,0,0,1-.25-.5,5.52,5.52,0,0,1-.18-.53l-.07-.27,0-.28A5,5,0,0,1,35,8.91q0-.29-.06-.54c0-.18,0-.36,0-.53s0-.35,0-.52L35,6.83c0-.15.06-.31.09-.45s.08-.29.11-.42.09-.26.14-.38.1-.23.15-.33a4,4,0,0,1,.31-.5A3.26,3.26,0,0,1,36,4.46Z"/><path class="cls-12" d="M33.83,6.48s0,.17-.08.47a9.54,9.54,0,0,0-.08,1.25A7.48,7.48,0,0,0,33.85,10c0,.15.09.31.13.47s.1.31.17.47a5,5,0,0,0,.47.89c.11.14.19.28.31.41l.16.19.18.18a5,5,0,0,0,.77.62,6.45,6.45,0,0,0,.81.44,3.29,3.29,0,0,0,.39.17,3.43,3.43,0,0,0,.38.13,6,6,0,0,0,.68.19,5.5,5.5,0,0,0,.54.12l.46.09-.47-.05a4.86,4.86,0,0,1-.55-.08L38,14.13l-.36-.1a2.91,2.91,0,0,1-.39-.12c-.14-.05-.28-.09-.41-.15a5.43,5.43,0,0,1-1.65-1.06L35,12.51l-.17-.2a4.23,4.23,0,0,1-.32-.42A5.91,5.91,0,0,1,34,11a4.66,4.66,0,0,1-.16-.49,4.43,4.43,0,0,1-.13-.49A6.37,6.37,0,0,1,33.56,9a8,8,0,0,1,0-.84,7.71,7.71,0,0,1,.16-1.26A3.9,3.9,0,0,1,33.83,6.48Z"/><path class="cls-12" d="M31.62,14a.3.3,0,0,0,.05.08l.16.22a3.85,3.85,0,0,0,.29.31,5.25,5.25,0,0,0,.41.36,3.7,3.7,0,0,0,.55.35,4.89,4.89,0,0,0,.65.3l.37.11a2.24,2.24,0,0,0,.37.1l.39.07a2.71,2.71,0,0,0,.4,0l.4,0h.79l.38-.05.37,0,.18,0,.17,0,.64-.13.54-.13.41-.11.36-.1-.35.13-.4.15a4.15,4.15,0,0,1-.53.17l-.64.16-.17,0-.18,0-.38.06-.39.05-.4,0h-.41l-.41,0c-.13,0-.27,0-.41,0l-.4-.08a1.9,1.9,0,0,1-.39-.11l-.37-.12a5.24,5.24,0,0,1-.67-.34,5.76,5.76,0,0,1-.54-.39,3.6,3.6,0,0,1-.39-.4,2.34,2.34,0,0,1-.27-.34A2.25,2.25,0,0,1,31.62,14Z"/><path class="cls-12" d="M34.33,19.79a1.69,1.69,0,0,1,.19-.2l.24-.22c.1-.07.21-.17.34-.25l.19-.14.22-.13c.15-.1.32-.18.49-.27s.36-.16.55-.22a3.78,3.78,0,0,1,.6-.17l.3-.06.3,0a4.09,4.09,0,0,1,.6,0,3.43,3.43,0,0,1,.56.05,2.4,2.4,0,0,1,.48.09l.41.11.3.12.26.11-.27-.07-.31-.08a3.73,3.73,0,0,0-.41-.08c-.15,0-.31,0-.48-.06s-.35,0-.54,0-.38,0-.58,0l-.29,0c-.1,0-.19,0-.29.06a5.5,5.5,0,0,0-.58.16l-.54.2-.49.23-.22.12-.2.12-.35.22-.26.19Z"/><path class="cls-12" d="M36.39,22.1l.15-.16a1.7,1.7,0,0,1,.19-.18c.07-.06.16-.14.26-.21l.33-.22.4-.2a3,3,0,0,1,.45-.17c.15-.05.31-.08.48-.12s.33,0,.49-.06.32,0,.48,0,.3,0,.44.06a3.82,3.82,0,0,1,.39.08l.32.1.24.09.2.09L41,21.15l-.25-.06c-.1,0-.21,0-.33-.06S40.18,21,40,21l-.43,0-.46,0a4,4,0,0,0-.47.06,3.84,3.84,0,0,0-.46.11l-.43.14-.4.17-.34.18-.49.33Z"/><path class="cls-12" d="M37.75,24.41a.58.58,0,0,1,.11-.12,2.22,2.22,0,0,1,.34-.3,1.21,1.21,0,0,1,.25-.17,2.11,2.11,0,0,1,.3-.16,2,2,0,0,1,.34-.13,2.22,2.22,0,0,1,.37-.09l.19,0h.19a2.17,2.17,0,0,1,.36,0,3.4,3.4,0,0,1,.34.07l.28.11a.7.7,0,0,1,.23.11l.17.1.14.09-.16-.06L41,23.78a1.28,1.28,0,0,0-.23-.06,1.37,1.37,0,0,0-.29-.07,2.79,2.79,0,0,0-.32,0c-.11,0-.22,0-.34,0h-.18l-.17,0a2.17,2.17,0,0,0-.35.07l-.32.11c-.11.05-.21.08-.3.13l-.26.13-.38.23Z"/><path class="cls-12" d="M37.8,25.37l.13-.05.36-.11a4,4,0,0,1,1.14-.09l.31,0,.3.08a1.19,1.19,0,0,1,.26.11,1.42,1.42,0,0,1,.22.13,1.2,1.2,0,0,1,.16.15.63.63,0,0,1,.11.13.86.86,0,0,0,.07.12l-.1-.09s-.07-.08-.13-.1a.71.71,0,0,0-.17-.11l-.22-.1L40,25.4l-.28,0a1.53,1.53,0,0,0-.3,0,5.72,5.72,0,0,0-.58,0l-.52,0Z"/></g><path class="cls-11" d="M44.48,4.69c-.12.24-.6.22-1.06,0s-.74-.64-.62-.88.61-.21,1.07,0S44.61,4.46,44.48,4.69Z"/><path class="cls-4" d="M43.83,25.18s-3.61,2.21-7,8.69c-.75,1.81.91,4.47,3.52,6.69C39.51,42,39,43,43,43.72c-1.26,1.56-1.11,2.36.5,2.31a16.38,16.38,0,0,0,3.27-.5s1,2.76-.4,3.82a10.42,10.42,0,0,0-1.91,1.8,14,14,0,0,0,3.31-.55,4.45,4.45,0,0,0-.35,3.27s.2-1.46,3.17-2.91a9.91,9.91,0,0,0,3.31-2.27c.15,1.46-.55,1.61-.55,1.61s4.42-2.51,3.92-3.92-1.11-2.56.4-3,8.14-3,7.38-5.53a1.88,1.88,0,0,1,.5,1.41s1.51-3.82.16-6.48c.8.95.8,1.36.8,1.36s.5-3.77-1.06-5.88a3.72,3.72,0,0,1,1.36.8,8.57,8.57,0,0,0-3.36-5.57c3.91.5,5.77.3,6.63-1.71s1.4-4.88,1.91-5.48c-1.16-1.3-4.58-2.91-7.14-1.81-2.11,1.06-2.11,2.57-2.86,4.27-.05-.75-1.76-1.86-3-1.7a2.61,2.61,0,0,1,1.15-.51s-2.81-1.4-4.72-.3l.35-.95a4.7,4.7,0,0,0-4.32,1,4.23,4.23,0,0,1,.1-1.15A3.52,3.52,0,0,0,50,16.69a2.16,2.16,0,0,0-1.35-1.35l.45.8s-2.71-.7-3.52-.2l.71.25S41.88,17.85,43,21A26.56,26.56,0,0,1,43.83,25.18Z"/><path class="cls-2" d="M42.82,24.31s-3.62,2.21-7,8.69c-.76,1.81.9,4.48,3.51,6.69-.8,1.45-1.3,2.46,2.72,3.16-1.26,1.56-1.11,2.36.5,2.31a16.21,16.21,0,0,0,3.26-.5s1,2.76-.4,3.82a10.88,10.88,0,0,0-1.91,1.8,14.57,14.57,0,0,0,3.32-.55A4.4,4.4,0,0,0,46.44,53s.2-1.46,3.16-2.92a9.89,9.89,0,0,0,3.32-2.26c.15,1.46-.56,1.61-.56,1.61s4.43-2.51,3.92-3.92-1.1-2.56.4-3,8.14-3,7.39-5.53a1.93,1.93,0,0,1,.5,1.41s1.51-3.82.15-6.48c.81,1,.81,1.36.81,1.36s.5-3.77-1.06-5.88a3.72,3.72,0,0,1,1.36.8,8.56,8.56,0,0,0-3.37-5.57c3.92.5,5.78.3,6.63-1.71S70.5,16,71,15.42c-1.15-1.3-4.57-2.91-7.13-1.81-2.11,1.06-2.11,2.57-2.87,4.27,0-.75-1.75-1.86-3-1.7a2.61,2.61,0,0,1,1.16-.51s-2.82-1.4-4.73-.3l.36-.95a4.7,4.7,0,0,0-4.32,1,4.23,4.23,0,0,1,.1-1.15A3.52,3.52,0,0,0,49,15.82a2.16,2.16,0,0,0-1.36-1.35l.45.8s-2.71-.7-3.51-.2l.7.25S40.86,17,42,20.09A26.79,26.79,0,0,1,42.82,24.31Z"/><path class="cls-13" d="M43.86,24.6s4.21-1.64,9.76,1.14a3.08,3.08,0,0,0-.75-.51s.58-3.32-1-3.32c-.77,0-1,1.83-.71,2.4,0,0-3.34-1.08-5-.54.34-2-.54-2.8-1.18-2.57s-.85,2.1-.44,2.81A2.1,2.1,0,0,0,43.86,24.6Z"/><path class="cls-14" d="M63.87,13.61c-2.11,1.06-2.11,2.57-2.87,4.27,0-.75-1.75-1.86-3-1.7a2.61,2.61,0,0,1,1.16-.51s-2.82-1.4-4.73-.3l.36-.95a4.7,4.7,0,0,0-4.32,1,4.23,4.23,0,0,1,.1-1.15A3.52,3.52,0,0,0,49,15.82a2.16,2.16,0,0,0-1.36-1.35l.45.8s-2.71-.7-3.51-.2l.7.25-.34.15c1.32.11,3,.46,3.76,1.46l-.2-.7.6.8,1-1.44L50,16.93a4.39,4.39,0,0,1,3.22-1.41,2.32,2.32,0,0,0-.81,1.61s1.31-1.31,4.43-1c-1.31.4-1.41,1.2-1.41,1.2s4.52.4,4.92,4.62c.3,3.12-3.29,5-6.92,3.68,6.82,3.15,6.22,6.57,3.51,8.48-2.52,1.71-2.21-.6-2.21-1.11s-1.51.41-1,1.91-.2,1.81-2.51,2.31-1.31,4-5.43,4.62c-3.11.51-3.71-.9-2.21-1.6s5.73-4.12,5.23-6-3.82-2.61-7.34-2.51c-2.94.08-4.12-.89-3.08-2.8A32.5,32.5,0,0,0,35.79,33c-.76,1.81.9,4.48,3.51,6.69-.8,1.45-1.3,2.46,2.72,3.16-1.26,1.56-1.11,2.36.5,2.31a16.21,16.21,0,0,0,3.26-.5s1,2.76-.4,3.82a10.88,10.88,0,0,0-1.91,1.8,14.57,14.57,0,0,0,3.32-.55A4.4,4.4,0,0,0,46.44,53s.2-1.46,3.16-2.92a9.89,9.89,0,0,0,3.32-2.26c.09.91-.15,1.31-.34,1.48.88-.53,4.14-2.57,3.7-3.79-.5-1.4-1.1-2.56.4-3s8.14-3,7.39-5.53a1.93,1.93,0,0,1,.5,1.41s1.51-3.82.15-6.48c.81,1,.81,1.36.81,1.36s.5-3.77-1.06-5.88a3.72,3.72,0,0,1,1.36.8,8.56,8.56,0,0,0-3.37-5.57c3.92.5,5.78.3,6.63-1.71S70.5,16,71,15.42C69.85,14.12,66.43,12.51,63.87,13.61Z"/><path class="cls-13" d="M68.89,17.16s-.11-2.06-2-1.28-4.07,2.41-4.29,3.26C64.11,20.42,67,21.91,68.89,17.16Z"/><path d="M45.89,22.89c0,.79-.23,1.43-.55,1.43s-.61-.64-.63-1.43.23-1.42.56-1.42S45.87,22.11,45.89,22.89Z"/><path class="cls-15" d="M45.71,22.44c0,.3-.07.56-.21.57s-.28-.23-.31-.53.06-.57.21-.58S45.68,22.13,45.71,22.44Z"/><path d="M52.57,23.55c0,.79-.23,1.43-.56,1.43s-.6-.64-.62-1.43.23-1.42.55-1.42S52.55,22.76,52.57,23.55Z"/><path class="cls-15" d="M52.39,23.1c0,.3-.07.56-.21.57s-.28-.23-.31-.53.06-.57.21-.58S52.36,22.79,52.39,23.1Z"/><path class="cls-14" d="M44.17,20.5a1.13,1.13,0,0,1,1.94-.43C45.38,18.8,44.71,18.42,44.17,20.5Z"/><path class="cls-14" d="M51.1,20.18a1.74,1.74,0,0,1,2.51.32C52.69,18.8,51.77,17.8,51.1,20.18Z"/><path class="cls-4" d="M44.13,20.18a1.13,1.13,0,0,1,1.94-.43C45.34,18.48,44.67,18.11,44.13,20.18Z"/><path class="cls-4" d="M51.06,19.86s1.1-1.05,2.51.32C52.65,18.48,51.73,17.49,51.06,19.86Z"/><path class="cls-16" d="M42.43,25.43l.11-.1c.08-.06.2-.15.36-.25l.26-.15.32-.17.38-.16a3.16,3.16,0,0,1,.43-.16l.48-.14a4.52,4.52,0,0,1,.53-.11l.27-.06.29,0c.19,0,.39-.05.59-.06h.92l.31,0,.64.05c.21,0,.42.06.63.09l.63.11.61.16.61.15.57.2.55.19c.18.07.36.13.53.21l.93.43a6.86,6.86,0,0,1,.77.4l.58.32.5.29s-.2-.07-.54-.22l-.61-.26c-.23-.1-.5-.22-.79-.32l-.95-.36a4.68,4.68,0,0,0-.53-.17l-.55-.17c-.19-.06-.37-.13-.57-.18l-.59-.14-.6-.14-.61-.1c-.21,0-.41-.08-.62-.1l-.61-.05-.31,0h-.89l-.57,0h-.28l-.26,0-.52.08-.47.1a3.75,3.75,0,0,0-.43.12,3.59,3.59,0,0,0-.39.12c-.12.05-.23.08-.33.13l-.28.12-.37.2Z"/><path class="cls-16" d="M41.36,42.7s1.11.3.61-.65a4,4,0,0,1-.51-1.71s.7,2.7,3.22,2.51,4.07-.6,4.77-2.16.6-2.36,2.81-2.91,2.62-1,2.62-1.66-1-1.06-.46-2c.26-.4,0,1.61,1.16,1.05s2-1.2,2-.8-2.26,1-2.26,1.61.05,1.5-2,2-2.36.8-3.07,2.16-1,2.41-2.76,2.81S43.47,44,41.36,42.7Z"/><path class="cls-17" d="M62.85,19.1a7.21,7.21,0,0,1,2.59-2c2.17-1.19,2.34-1.19,2.62-.85a9,9,0,0,1,.61,1S66.8,22.16,62.85,19.1Z"/><path class="cls-2" d="M52.58,49.3l-.22.13A.46.46,0,0,0,52.58,49.3Z"/><g class="cls-18"><path class="cls-14" d="M62.61,21.65c-1.71-.6-1.61.2-.1,1.81s2.21,3.31.3,2.21c1.21,1.51,1.91,4.42,1.61,5s-1.91-1.61-1.91-1.61,1.41,4.33.8,5.33-1.4-.7-1.4-.7a9.21,9.21,0,0,1-5.53,6.63c-2.71,1-3.11,2.71-2.21,3.51s.71,1.91-.1,2.82a2.31,2.31,0,0,0-.8-1.51,5.52,5.52,0,0,1-3,3.42c-1.7,1-2.71,1.7-2.71,1.7a4.83,4.83,0,0,1,1.51-1.91c1.2-1-2,.91-3.22,1,2.11-1.71,1.41-2.71,1-4s1-.8,2.61-1.91c.94-.47-4,1.77-8.27,1,0,.51.41.77,1.34.74a16.21,16.21,0,0,0,3.26-.5s1,2.76-.4,3.82a10.88,10.88,0,0,0-1.91,1.8,14.57,14.57,0,0,0,3.32-.55A4.4,4.4,0,0,0,46.44,53s.2-1.46,3.16-2.92a9.89,9.89,0,0,0,3.32-2.26c.09.91-.15,1.31-.34,1.48.88-.53,4.14-2.57,3.7-3.79-.5-1.4-1.1-2.56.4-3s8.14-3,7.39-5.53a1.93,1.93,0,0,1,.5,1.41s1.51-3.82.15-6.48c.81,1,.81,1.36.81,1.36s.5-3.77-1.06-5.88a3.72,3.72,0,0,1,1.36.8,8.56,8.56,0,0,0-3.37-5.57c3.92.5,5.78.3,6.63-1.71.09-.2.16-.4.24-.61C68.13,21.47,66,22.61,62.61,21.65Z"/></g><path class="cls-17" d="M37.65,32.6a19.7,19.7,0,0,1,7.33.15c3.17,1,3.62,1.51,3.11,2.61s-4.72,5.58-7.63,4.83c-2.66-.76-5-3.67-5.53-4.93S34.93,33,37.65,32.6Z"/><path class="cls-19" d="M44.93,36.62s-1.56-.5-1.66,1.41c0,1.1,0,1.49-.8,1.7-.54.15-.37-.59-.09-1.25S43.32,36.16,44.93,36.62Z"/><path class="cls-19" d="M36.46,36.24a3.47,3.47,0,0,1,1.83,1.68c.25,1,.45,1.43.9,1.43S38.64,36.69,36.46,36.24Z"/><path class="cls-20" d="M45,32.76c.31.1.6.19.86.29A6.6,6.6,0,0,0,45,32.76Z"/><path class="cls-17" d="M45,32.75h0Z"/><path class="cls-21" d="M45.86,33.05c2.76,1.12-.2,2.6-1.79,2.7-1.9.12-1.9,2.75-3.39,2.79S38.09,36,35.91,35.26a1.92,1.92,0,0,1-1.17-.82,2.12,2.12,0,0,0,.19.82c.56,1.26,2.87,4.17,5.53,4.93,2.91.75,7.13-3.72,7.63-4.83S48.23,33.87,45.86,33.05Z"/><path class="cls-22" d="M35.75,33.82A13.55,13.55,0,0,1,43,33.49c1.49.33.29-.94-2.87-1S34.74,34,35.75,33.82Z"/><path class="cls-22" d="M45.25,33.68c0,.16-.37.19-.71.09s-.58-.33-.54-.49.37-.19.72-.08S45.3,33.52,45.25,33.68Z"/><path class="cls-16" d="M68.67,17.19l-.16-.27-.2-.3a4.11,4.11,0,0,0-.29-.35.47.47,0,0,0-.2-.12h0l-.07,0-.14,0c-.18.07-.37.13-.56.22l-.3.12-.3.14-.3.15-.3.16c-.2.12-.41.21-.59.34l-.55.35-.5.36-.44.32-.63.54-.25.2.22-.23.58-.59.43-.36c.16-.12.31-.27.49-.38l.55-.38c.19-.13.39-.23.59-.35l.31-.16.31-.14.3-.14.31-.12c.2-.08.41-.13.6-.19l.14,0h.17a.69.69,0,0,1,.25.17,2.12,2.12,0,0,1,.27.39c.07.13.13.23.17.32S68.67,17.19,68.67,17.19Z"/><g class="cls-18"><path class="cls-17" d="M65.63,19.34c-2.26-.15.3-2.11,1.7-2.71a1,1,0,0,1,1,0,4.39,4.39,0,0,0-.27-.39c-.28-.34-.45-.34-2.62.85a7.21,7.21,0,0,0-2.59,2c2.5,1.93,4.16.66,5.05-.54A2.81,2.81,0,0,1,65.63,19.34Z"/></g><path class="cls-2" d="M42.23,21s-4.51,1.37-6.07-2.53-1.34-3.82-1.34-3.82,6.8-1.6,8.67,1.64C42.54,17.33,41.47,18.29,42.23,21Z"/><path class="cls-20" d="M35.87,17.72c-.38-.95-.62-1.61-.78-2.07A12.94,12.94,0,0,0,35.87,17.72Z"/><path class="cls-14" d="M43.49,16.26c-.94-1.63-3.12-2-5.07-2,1.42.16,3.11.56,3.45,1.57.59,1.72-1.08.75-2.48-.11a1.85,1.85,0,0,0-2.86,1c-.22.54,1.51,3,2.91,3.08,1.18.09-1.54,2.11-3.57-2.07.08.22.18.46.29.72,1.56,3.9,6.07,2.53,6.07,2.53C41.47,18.29,42.54,17.33,43.49,16.26Z"/><path class="cls-2" d="M35.09,15.65c-.09-.32-.18-.66-.27-1C34.82,14.62,34.72,14.59,35.09,15.65Z"/><path class="cls-14" d="M42.23,21s-4.51,1.37-6.07-2.53-1.34-3.82-1.34-3.82,6.8-1.6,8.67,1.64C42.54,17.33,41.47,18.29,42.23,21Z"/><path class="cls-17" d="M41.55,18.91S38.83,15.63,38,15.8c-.54.11-.91,1.24-.91,1.24a4.48,4.48,0,0,0,2,2.14A2.22,2.22,0,0,0,41.55,18.91Z"/><path class="cls-16" d="M37.05,17a1.62,1.62,0,0,1,.06-.28,2.13,2.13,0,0,1,.31-.67,1,1,0,0,1,.41-.33.7.7,0,0,1,.29,0l.15,0,.14,0a3.59,3.59,0,0,1,1,.68,9.58,9.58,0,0,1,.84.85c.25.28.47.56.67.79l.45.58.17.22-.2-.19-.51-.53c-.2-.23-.45-.48-.71-.75s-.54-.56-.84-.82a5.45,5.45,0,0,0-.46-.38,3,3,0,0,0-.48-.28.61.61,0,0,0-.47-.06.89.89,0,0,0-.37.26,2.47,2.47,0,0,0-.36.62A2.55,2.55,0,0,0,37.05,17Z"/><g class="cls-18"><path class="cls-17" d="M38,15.8a.93.93,0,0,0-.54.47c.53-.16,1.24,0,2,1,1.31,1.46-.4,2.26-1.9.55l0,0a4.33,4.33,0,0,0,1.55,1.32,2.22,2.22,0,0,0,2.47-.27S38.83,15.63,38,15.8Z"/></g><path class="cls-2" d="M68.67,14.79a5.08,5.08,0,0,0-3.75,1.27c-1.87,1.61-3,.53-1.61-1A3.94,3.94,0,0,1,68.67,14.79Z"/><path class="cls-15" d="M36.43,15.07a5,5,0,0,1,4.26.71C41.4,16.49,40.24,13.33,36.43,15.07Z"/><path class="cls-15" d="M51.73,25.46s-5.4-1.56-8.23,2.29C41,31.6,37.39,31.17,39.57,28S46.3,23.18,51.73,25.46Z"/><path class="cls-15" d="M44,17.14s-2.48,1.13-.53,5.26C42.18,20.75,40.9,18.27,44,17.14Z"/><path class="cls-4" d="M71.16,54.75Z"/><path class="cls-4" d="M13.15,16S7.28,23.6,5.09,26.29C7.18,22.5,11.56,17.13,13.15,16Z"/><path class="cls-23" d="M69,91.8a6.5,6.5,0,0,1,3.08,3.53C72.62,96.21,71.74,92.16,69,91.8Z"/><g class="cls-24"><path class="cls-4" d="M81.7,39.78a5.51,5.51,0,0,1-.45.81,4.33,4.33,0,0,0-1-1.36c0,3-.95,4-.95,4a8.27,8.27,0,0,0-.7-1.71c.25,4.88-3.61,7.95-3.71,7.8a6.64,6.64,0,0,1-.39-.73c-.1,2.58-3.21,4.48-3.21,4.48s0-.49-.92-1c.19,2.38-2.43,4.71-4.18,5.39a2.69,2.69,0,0,0-1.89,2,2.55,2.55,0,0,1-.35-1.31c-.53,1-1.63,2.24-5.45,3.15a3.17,3.17,0,0,0,.3-1.91s-3.24,3.28-6.46,3.28-2.54-2.48-2.61-4.15a8.27,8.27,0,0,0-1.61-3.69s1.48,2.61.67,4.69c-.94,2.68-3.15,4.56-3.35,6.7-.6-.54-.6-2.08-.67.33s-1.87,5.77-4.42,5.56-4.22-3.28-4.22-3.28-.33.27-.6,1.81c-.67-1.81-.2-5.09-.2-5.09a2.75,2.75,0,0,1-1.14.74c.47-1.48-3.15-5.16-6.5-9.52-4.15-5.4,2.48-10.65,2.48-10.65l-1.07.14a9.81,9.81,0,0,1,2.54-3.48,9.56,9.56,0,0,0-4,4.68h.81c-2,1.68-4.36,5.23-2.68,8.31s3.21,4.62-.33,3.42-5.63-.27-11.53-9.72c-7.5-11.25-3.75-15.13-3.75-15.13L8.93,35a18.69,18.69,0,0,1,2.27-3.89l-1,.47a8.65,8.65,0,0,1,4.66-3.46l-1.23-.45s.17-.39,1.46-.95a4.1,4.1,0,0,0-2.8,1.12l1.28.34c-2.62.28-5,4.36-5,4.36l1.23-.22a16.34,16.34,0,0,0-2,3.58l1.12-.12c-2.35,3.92,0,7.21,2.35,12.23S17.78,59.82,14.71,59s-9.24-8-9.24-8h0a27.68,27.68,0,0,0,1.83,2.59l-.53,1.21,1.34-.24s.25,2.09.61,2.34S9,56,9,56s1,2.18,1.53,3.66-.05,1.52-3,5.23C5.06,68,4.24,68.69,6,68.13a10.64,10.64,0,0,0-2.08,3.51l1.22-.36s-.87,1.78-.61,2.65c0,.45,1.22-.31,1.22-.31S4,77.41,7.59,85.45c1.14,3,.8,3.75-.07,4.62s-.6,1.28.81,2.55A3.94,3.94,0,0,0,7.65,97c.41.74,4.63,2.14,8.11,2.41,3.08.27,3.75-.2,3.82-.87,1.67.13,2.14-.27,2.14-.94a7.5,7.5,0,0,0-4.82-5.69c-.26-.1-.5-.21-.73-.32-3.79.61-5.86,3.74-6,2.4-.13-1.61,3-2.15.8-2.28s.27-2.68-.53-4c-3-6.16-4.15-13-.81-19.29S21.45,60.73,22.79,64s-1.07,4.69-1.07,4.69a2.68,2.68,0,0,0-.27-2.41c.27,2.41-1.74,5.22-6.43,7.9a6.14,6.14,0,0,0-1.34,1h0C17,73,21.52,71.79,21.79,70.31a1.24,1.24,0,0,1,.4,1,6,6,0,0,0,2-3.91l.75,1.15s1.15-2.14.24-3.62c1.07.33,1.15.66,1.15.66a6.79,6.79,0,0,0-.57-4c4.28,1.32,6.67,1.9,7.16,3.46.33,1-1.48,2.14-1.32,3.54a10.42,10.42,0,0,0,2.31-.9,3.91,3.91,0,0,0-.66,3.13c.57-.91,1-1,1-1s-.57,2.23.66,2.48,4.45,2.14,4.7,3.86.74,6.59,1.06,9.47.66,3.29,0,4-1.64,1.24-.9,2.55c.74,1.15.16,1.24-.25,2.14S38.8,97.37,39.3,98s3.7,2,7.73,2c3.63-.08,4.86-.49,4.61-1.23,1.57-.17,2.31-1,1.4-2.56a7.72,7.72,0,0,0-3.93-3.29c-2.79.33-5.31,1.38-6.22-.17s.8-1.07,0-4.82C42,82.57,40.74,73.86,42,73.73c.78-.09,1.78,3.53,2.58,6.86-.69-3.47-1.21-7.47.2-9.06,2.14-1.9,2.55-1.74,2-2.89s-.82-1.56-.82-1.56a2.51,2.51,0,0,0,1.15.49,2.3,2.3,0,0,1,.5-3.45c1.89.33,8.11.57,10.28-2.54a2.79,2.79,0,0,1-.46,1.55s5.43-1.63,6.75-3.33A2.54,2.54,0,0,0,65,60.88a2.58,2.58,0,0,1,1.63-2.71c1.94-.86,3.88-1.63,4-4.81.65.79.5,1.31.47,1.39A4.61,4.61,0,0,1,73,52.58c1.4-.85,1.78-1.47,1.78-2.4.93-.39,3.88-3.88,4-6.83a4.36,4.36,0,0,1,.39,1.79s1.7-2.57,1.24-4.58a5.58,5.58,0,0,1,.93,1.7A14,14,0,0,0,81.7,39.78Z"/></g><path class="cls-6" d="M13.23,93.44c-2,1-2.28,3.71-2.27,5a24.26,24.26,0,0,0,4.8.91c3.08.27,3.75-.2,3.82-.87,1.67.13,2.14-.27,2.14-.94a7.5,7.5,0,0,0-3.38-5A7.89,7.89,0,0,0,13.23,93.44Z"/><path d="M13,93.61l.4-.06c.25,0,.61,0,1.05,0l.71,0a5.83,5.83,0,0,1,.79.12l.41.1.21.07.21.09L17,94l.2.12a2.81,2.81,0,0,1,.36.27,5.43,5.43,0,0,1,.63.64,6.72,6.72,0,0,1,.5.69,7,7,0,0,1,.39.69,4.48,4.48,0,0,1,.28.66,4.09,4.09,0,0,1,.18.57,3.44,3.44,0,0,1,.08.46c0,.13,0,.23,0,.3v.1a.65.65,0,0,1,0-.1c0-.07,0-.16-.07-.29a4.45,4.45,0,0,0-.15-.42c-.06-.16-.15-.34-.24-.53a9.1,9.1,0,0,0-.75-1.24,7.52,7.52,0,0,0-.51-.64,4.61,4.61,0,0,0-.59-.58,3.17,3.17,0,0,0-.33-.26l-.16-.1-.18-.09a4.21,4.21,0,0,0-.75-.27c-.26-.07-.51-.12-.75-.16s-.47-.08-.68-.1l-1-.1Z"/><path class="cls-23" d="M17.61,93.19A7.19,7.19,0,0,1,21,97.1C21.62,98.08,20.64,93.58,17.61,93.19Z"/><path class="cls-8" d="M33.83,45.94s-6.61,5.22.69,14.26c6.43,6.78-1.73.52-3.82-3.13A8.23,8.23,0,0,1,33.83,45.94Z"/><path class="cls-8" d="M17.66,29.6s-6.95,5-1.56,15.82C18,49.94,5.84,36.91,17.66,29.6Z"/><path class="cls-15" d="M4.57,29.06s-3,5.81.86,14.54C8.77,51,4.35,44.35,3,40.37S1.88,32.5,4.57,29.06Z"/><path class="cls-16" d="M71,15.42c-.19.52-.37,1-.55,1.56s-.36,1-.53,1.56c-.1.26-.17.52-.25.79l-.23.78a7.41,7.41,0,0,1-.25.8,3.24,3.24,0,0,1-.43.74l-.13.16c0,.06-.1.1-.15.15l-.16.15-.17.12-.18.12-.19.1-.18.1-.2.08a5.78,5.78,0,0,1-.81.24l-.42.06-.42.05c-.27,0-.55,0-.83,0s-.56,0-.84,0-.55,0-.82-.08l-.83-.12.13-.28.32.28a2.7,2.7,0,0,1,.31.28c.1.1.21.19.3.3l.28.31L64,24c.09.11.16.23.25.34s.16.23.23.35.15.24.22.36.14.24.2.37l.19.38c.06.12.12.25.17.38a3.2,3.2,0,0,1,.16.39c.21.51.38,1.06.54,1.57l.16.49-.44-.28-.65-.43-.33-.19-.17-.09-.08,0-.06,0,.19-.3a3.26,3.26,0,0,1,.22.34A2.37,2.37,0,0,1,65,28a5.78,5.78,0,0,1,.31.72c0,.12.09.24.13.37s.07.25.1.38.07.25.09.38,0,.25.07.38l0,.39c0,.13,0,.26,0,.39a2.55,2.55,0,0,1,0,.39v.38c0,.26,0,.52,0,.78s0,.26,0,.39l0,.38-.08.71-.3-.66-.13-.3-.14-.3-.15-.29-.08-.13-.08-.13.33-.19c0,.14.08.27.12.4s.05.25.08.38,0,.26.07.39,0,.27,0,.4,0,.26,0,.39,0,.26,0,.4v.39l0,.4c0,.13,0,.26,0,.39s0,.26,0,.39l-.06.39c0,.13,0,.26-.07.39s0,.26-.08.39l-.11.38c0,.13-.07.25-.11.38l-.13.37-.34,1v-1.1a.57.57,0,0,0,0-.13.68.68,0,0,0,0-.14,1.31,1.31,0,0,0-.12-.27,2.61,2.61,0,0,0-.19-.27l-.1-.12L64,37.1l.28-.18a1.63,1.63,0,0,1-.06.87,1.17,1.17,0,0,1-.1.26L64,38.3l-.15.23a3.39,3.39,0,0,1-.33.42l-.09.11-.09.09-.19.19c-.13.12-.27.23-.41.34a8.81,8.81,0,0,1-.85.62l-.91.53-.94.46-1,.42-1,.37c-.16.06-.32.13-.49.18l-.49.17a3.27,3.27,0,0,0-.89.46.94.94,0,0,0-.36.84,3.24,3.24,0,0,0,.26,1,2.94,2.94,0,0,1,.25,1,1.71,1.71,0,0,1-.42,1,5.69,5.69,0,0,1-.75.72c-.26.23-.54.44-.81.65.27-.22.53-.45.79-.68a6.21,6.21,0,0,0,.71-.74,1.6,1.6,0,0,0,.38-.92,2.82,2.82,0,0,0-.27-1,3.44,3.44,0,0,1-.3-1,1.11,1.11,0,0,1,.4-1,3.22,3.22,0,0,1,.94-.52l.49-.17.48-.19c.32-.13.65-.25,1-.39l.94-.42.92-.48c.29-.17.59-.34.88-.53a9.53,9.53,0,0,0,.81-.61,2.49,2.49,0,0,0,.38-.34l.18-.18.09-.08.08-.1a3.79,3.79,0,0,0,.3-.4l.13-.21.11-.22a2,2,0,0,0,.08-.22,1,1,0,0,0,.06-.23.9.9,0,0,0,0-.23.59.59,0,0,0,0-.2l-.16-.59.45.4.13.14.12.13a3.37,3.37,0,0,1,.21.31,1.87,1.87,0,0,1,.16.35c0,.06,0,.13,0,.2a1.46,1.46,0,0,1,0,.21l-.34-.08.12-.37c0-.12.08-.24.11-.36l.09-.37a2.45,2.45,0,0,0,.08-.37c0-.12.06-.25.07-.38l0-.37c0-.13,0-.25,0-.38s0-.25,0-.38v-.76c0-.13,0-.26,0-.38s0-.25,0-.38,0-.25,0-.38a2.66,2.66,0,0,0-.07-.37c0-.12,0-.25-.08-.37s-.07-.24-.1-.35L64.35,31l.71.94a1,1,0,0,1,.1.16,1.3,1.3,0,0,1,.1.15l.16.31a2.92,2.92,0,0,1,.14.31l.15.31-.38,0,0-.38c0-.12,0-.25,0-.37s0-.5,0-.75v-.37c0-.13,0-.25,0-.38s0-.25,0-.37l0-.37-.06-.37c0-.12,0-.24-.08-.36s-.06-.24-.1-.36A3.59,3.59,0,0,0,65,28.8a5.24,5.24,0,0,0-.28-.69l-.18-.32a2.11,2.11,0,0,0-.2-.29L64,27l.53.15.13,0,.09.05a.77.77,0,0,1,.18.1l.35.2.67.44-.28.21c-.16-.54-.32-1-.52-1.56,0-.13-.1-.25-.15-.38s-.11-.25-.17-.37-.12-.25-.18-.37l-.19-.36-.21-.34a4,4,0,0,0-.22-.34l-.24-.33-.25-.32-.27-.31L63,23.27c-.1-.09-.19-.19-.3-.28l-.3-.26L62,22.37l.54.09.81.13c.26.05.54.06.81.09a7.34,7.34,0,0,0,.81.05c.28,0,.55,0,.82,0l.4,0,.4-.05a6.94,6.94,0,0,0,.78-.22l.19-.07.17-.09.18-.09.17-.11.16-.11.15-.14a.86.86,0,0,0,.14-.13l.13-.16a2.77,2.77,0,0,0,.42-.68,4.86,4.86,0,0,0,.26-.76l.26-.79c.09-.26.17-.53.27-.78.19-.52.37-1,.57-1.55S70.79,15.93,71,15.42Z"/><path class="cls-25" d="M19,96.6c.61,1.21-.23,2.05-2.15,2s-4.73-.47-4.77-2.67a3.6,3.6,0,0,1,.86-2.29c-1.75,1.08-2,3.62-2,4.87a24.26,24.26,0,0,0,4.8.91c3.08.27,3.75-.2,3.82-.87,1.67.13,2.14-.27,2.14-.94,0,0,0-.13,0-.23C21.18,98,19.89,97.52,19,96.6Z"/><path class="cls-6" d="M46.39,94.08a6.44,6.44,0,0,0-4.88,5.08A18.11,18.11,0,0,0,47,100c3.63-.08,4.86-.49,4.61-1.23,1.57-.17,2.31-1,1.4-2.56a7.59,7.59,0,0,0-1.82-2.09A7.38,7.38,0,0,0,46.39,94.08Z"/><path d="M46.27,94.12a2.3,2.3,0,0,1,.34,0,5.22,5.22,0,0,1,.9.05l.59.12a4,4,0,0,1,.64.21,3.59,3.59,0,0,1,.66.31,4.38,4.38,0,0,1,.63.43,3.87,3.87,0,0,1,.54.53,1.94,1.94,0,0,1,.23.29,2,2,0,0,1,.2.31c.06.1.12.2.17.3s.1.21.14.31a5.41,5.41,0,0,1,.18.58,2.6,2.6,0,0,1,.1.5,3.22,3.22,0,0,1,0,.39c0,.21,0,.34,0,.34l-.09-.33c0-.1-.07-.23-.11-.37s-.11-.29-.16-.46-.15-.35-.25-.53a1.82,1.82,0,0,0-.15-.27c-.06-.09-.11-.18-.18-.27l-.19-.27c-.07-.09-.15-.17-.23-.26a4.56,4.56,0,0,0-.5-.48,4.67,4.67,0,0,0-.58-.41,5.7,5.7,0,0,0-.6-.32,7.43,7.43,0,0,0-1.14-.43A9.4,9.4,0,0,0,46.27,94.12Z"/><path class="cls-23" d="M49.74,94.08a6.45,6.45,0,0,1,3.08,3.53C53.35,98.49,52.47,94.43,49.74,94.08Z"/><g class="cls-18"><path class="cls-6" d="M51.17,96.65c1.45,2.3-7.88,3.07-7.68.79s3.12-3.34,3.12-3.34l0-.08-.25.06a6.44,6.44,0,0,0-4.88,5.08A18.11,18.11,0,0,0,47,100c3.63-.08,4.86-.49,4.61-1.23,1.2-.13,1.92-.65,1.77-1.59A2.51,2.51,0,0,1,51.17,96.65Z"/></g><g class="cls-7"><path class="cls-6" d="M72.71,96.05c0-.13,0-.37-.11-.69-.41,1-2.25.7-2.77-.08.21.88.07,2.3-3.64,1.81S63.61,93.18,63.66,93a6,6,0,0,0-1,4.49h0c2.67.7,7.19,1.25,7.39-.45C71.81,97.56,72.81,96.75,72.71,96.05Z"/></g></g></g></g></svg>