<svg xmlns="http://www.w3.org/2000/svg" viewBox="0 0 159.94 100"><defs><style>.cls-1{isolation:isolate;}.cls-2{fill:#53565b;}.cls-3{fill:#989ca0;}.cls-16,.cls-17,.cls-23,.cls-4,.cls-5{fill:#6c6d72;}.cls-15,.cls-19,.cls-30,.cls-35,.cls-4{opacity:0.4;}.cls-13,.cls-16,.cls-17,.cls-18,.cls-19,.cls-24,.cls-35,.cls-4,.cls-5,.cls-7,.cls-8{mix-blend-mode:multiply;}.cls-5,.cls-8{opacity:0.6;}.cls-6{fill:#f9ca87;}.cls-7{fill:#a14d0b;}.cls-20,.cls-7{opacity:0.5;}.cls-9{fill:#bc8c53;}.cls-10{fill:#ffe9cf;}.cls-11,.cls-13,.cls-19,.cls-20,.cls-21{fill:#cccdd1;}.cls-12{fill:#f9f9f7;}.cls-14{fill:#743e43;}.cls-16{opacity:0.2;}.cls-17{opacity:0.3;}.cls-20,.cls-21,.cls-36,.cls-38,.cls-39{mix-blend-mode:screen;}.cls-21{opacity:0.7;}.cls-22{fill:#d8d8d6;}.cls-24{fill:#1c1d1f;}.cls-25{fill:#ff902c;}.cls-26{fill:#47494c;}.cls-27,.cls-39{fill:#fff;}.cls-28{fill:#3b3e43;}.cls-29,.cls-36{fill:#74777c;}.cls-30,.cls-37,.cls-38{fill:#565d65;}.cls-31{fill:#43000b;}.cls-32{fill:#5e0000;}.cls-33{fill:#3d0000;}.cls-34{fill:#ea929f;}.cls-35{fill:#b15d65;}</style></defs><title>Ресурс 6</title><g class="cls-1"><g id="Слой_2" data-name="Слой 2"><g id="Layer_1" data-name="Layer 1"><path class="cls-2" d="M104.78,89a29,29,0,0,0-3.28-2.89l-.3-.26a17.32,17.32,0,0,1,2,1c.4.27,1,.71,1.46.46s.29-.83.2-1.19a2.65,2.65,0,0,0-.85-1.66.09.09,0,0,0-.12,0c-.7-.37-1.33-.85-2-1.27s-1.45-.86-2.18-1.29a36.92,36.92,0,0,1-4-2.6,17.26,17.26,0,0,1-3.19-3.73c-.5-.7-1.08-1.34-1.58-2-.2-.26-.38-.54-.56-.82-.25-.56-.49-1.13-.72-1.69a7.05,7.05,0,0,1-.32-1.28c-.09-.49,0-1-.1-1.49a5,5,0,0,0-.39-1.06c-.15-.36-.24-.73-.38-1.09a1.5,1.5,0,0,0-1.36-1,8.38,8.38,0,0,0-3.86,1,5.44,5.44,0,0,0-1.58.93,2.42,2.42,0,0,0-.55.73c-.12.27-.18.55-.27.82a.06.06,0,0,0-.06,0c-.57,1.37-1,2.79-1.53,4.19-.4,1.12-.81,2.25-1.12,3.4A68.89,68.89,0,0,0,75.7,87.14c-.34,2.06-.57,4.13-.73,6.21-.08,1-.15,1.93-.21,2.9a8.53,8.53,0,0,0,.15,2.62A.14.14,0,0,0,75,99a1.7,1.7,0,0,0,.84.69,2.6,2.6,0,0,0,1.63.29c1-.28,1.33-1.48,1.38-2.52a7.45,7.45,0,0,0,.19.94.13.13,0,0,0,.13.1c.73,1.71,3.07,1.54,4.67,1.13a.15.15,0,0,0,.16,0,.89.89,0,0,0,.52-1c-.07-.85-.23-1.71-.38-2.56-.24-1.42-.52-2.83-.76-4.24.13.57.26,1.13.41,1.7A30.47,30.47,0,0,0,85.6,99a.11.11,0,0,0,0,.05l.12.23h0l0,0a.08.08,0,0,0,0,0c.31.57,1.36.46,1.89.48A6.89,6.89,0,0,0,91.57,99a.09.09,0,0,0,.06-.06h0c.2-.19.12-.52.07-.76a14.78,14.78,0,0,0-.43-1.48c-.1-.29-.21-.58-.33-.86a1.07,1.07,0,0,0,.15.22A15,15,0,0,0,93,98.26a.14.14,0,0,0,.15,0h0c1,.61,2.66-.16,3.61-.6,1.71-.79,3.35-2.07,2.39-4-.12-.24-.23-.46-.36-.68-.45-.77-.92-1.52-1.42-2.27l-.68-1c.46.53.91,1.07,1.37,1.61s.78,1,1.18,1.41.85.76,1.18,1.22a.15.15,0,0,0,.24,0,2.69,2.69,0,0,0,1.45-.18,3.4,3.4,0,0,0,1.6-1,4.56,4.56,0,0,0,.87-1.66,3.24,3.24,0,0,0,.19-1.94A.12.12,0,0,0,104.78,89Z"/><path class="cls-3" d="M85,94.65a5,5,0,0,0,2.11,1.15c1.71.28,2.26-1.68,2.24-3a.09.09,0,0,1,0,0,.09.09,0,0,1,.11,0h0a6.18,6.18,0,0,0,3.28,1.64A2.25,2.25,0,0,0,95,93.15a7.41,7.41,0,0,0,.52-4.69.09.09,0,0,1,.15-.09,5.75,5.75,0,0,0,2.26,1.2c.52.15,1.44.46,1.88,0s.31-1.41.27-2a12.08,12.08,0,0,0-.42-2.67s0-.12.09-.11a10.65,10.65,0,0,0,1.38.19c.63,0,.58-.54.41-1a6.82,6.82,0,0,0-.68-1.28l-1.21-.7c-.64-.38-1.29-.76-1.93-1.16l.67,1a1.32,1.32,0,0,1,.27,1,.08.08,0,0,1-.11.06c-.58-.19-1.21-.31-1.79-.54a6.49,6.49,0,0,1,.23,1.5c0,.54.08,1.75-.6,2s-1.77-.49-2.3-.9a14.66,14.66,0,0,1-1.76-1.67,15.9,15.9,0,0,1,0,2.07,5.73,5.73,0,0,1-.83,3,1.85,1.85,0,0,1-2.45.35A7.07,7.07,0,0,1,86.57,86a12.76,12.76,0,0,1-.1,2.69,10.63,10.63,0,0,1-.35,1.56c-.07.25-.16.59-.42.72s-.62-.14-.8-.32c-.33-.32-.64-.67-1-1A11.51,11.51,0,0,1,82.74,88c-.07.37-.14.73-.22,1.1a7.53,7.53,0,0,1-1,2.75c-1.09,1.44-2.16-.35-2.82-1.7A13.57,13.57,0,0,1,78,92c-.21.47-.59,1.4-1.24,1.34-.31,0-.55-.37-.69-.61a4.77,4.77,0,0,1-.59-1.46,6.72,6.72,0,0,1-.16-1c-.12,1-.22,2-.3,3.08l-.09,1.19a7,7,0,0,0,.29,1c.23.6.69,1.55,1.47,1.46,1.71-.19,1.39-2.72,2-3.85,0-.08.14,0,.16,0A8.91,8.91,0,0,0,80,95.92c.49.58,1.57,1.56,2.32.83,1-1,.75-2.83,1.14-4.13a.07.07,0,0,1,.06-.06c-.05-.26-.1-.52-.14-.77l.18.77a.07.07,0,0,1,.07.06,6.41,6.41,0,0,0,.47,1.16A3,3,0,0,0,85,94.65Z"/><path class="cls-4" d="M104.78,89a29,29,0,0,0-3.28-2.89l-.3-.26a17.32,17.32,0,0,1,2,1c.4.27,1,.71,1.46.46s.29-.83.2-1.19a4.07,4.07,0,0,0-.44-1.22.86.86,0,0,1-.11.5c-.33.53-1.41-.24-1.69-.42-1.2-.75-2.4-1.5-3.59-2.26a21.26,21.26,0,0,1-2.39-1.61c-.54-.44-4.23-3.7-3.59-4.75l-.56-.78c-.5-.7-1.08-1.34-1.58-2-.2-.26-.38-.54-.56-.82-.25-.56-.49-1.13-.72-1.69a7.05,7.05,0,0,1-.32-1.28c-.09-.49,0-1-.1-1.49a5,5,0,0,0-.39-1.06c-.15-.36-.24-.73-.38-1.09a1.5,1.5,0,0,0-1.36-1,8.38,8.38,0,0,0-3.86,1,5.44,5.44,0,0,0-1.58.93,2.42,2.42,0,0,0-.55.73c-.12.27-.18.55-.27.82a.06.06,0,0,0-.06,0c-.57,1.37-1,2.79-1.53,4.19-.4,1.12-.81,2.25-1.12,3.4A68.89,68.89,0,0,0,75.7,87.14c-.34,2.06-.57,4.13-.73,6.21-.08,1-.15,1.93-.21,2.9a8.53,8.53,0,0,0,.15,2.62A.14.14,0,0,0,75,99a1.7,1.7,0,0,0,.84.69,2.6,2.6,0,0,0,1.63.29c1-.28,1.33-1.48,1.38-2.52a7.45,7.45,0,0,0,.19.94.13.13,0,0,0,.13.1c.73,1.71,3.07,1.54,4.67,1.13a.15.15,0,0,0,.16,0,.89.89,0,0,0,.52-1c-.07-.85-.23-1.71-.38-2.56-.24-1.42-.52-2.83-.76-4.24.13.57.26,1.13.41,1.7A30.47,30.47,0,0,0,85.6,99a.11.11,0,0,0,0,.05l.12.23h0l0,0a.08.08,0,0,0,0,0c.31.57,1.36.46,1.89.48A6.89,6.89,0,0,0,91.57,99a.09.09,0,0,0,.06-.06h0c.2-.19.12-.52.07-.76a14.78,14.78,0,0,0-.43-1.48c-.1-.29-.21-.58-.33-.86a1.07,1.07,0,0,0,.15.22A15,15,0,0,0,93,98.26a.14.14,0,0,0,.15,0h0c1,.61,2.66-.16,3.61-.6,1.71-.79,3.35-2.07,2.39-4-.12-.24-.23-.46-.36-.68-.45-.77-.92-1.52-1.42-2.27l-.68-1c.46.53.91,1.07,1.37,1.61s.78,1,1.18,1.41.85.76,1.18,1.22a.15.15,0,0,0,.24,0,2.69,2.69,0,0,0,1.45-.18,3.4,3.4,0,0,0,1.6-1,4.56,4.56,0,0,0,.87-1.66,3.24,3.24,0,0,0,.19-1.94A.12.12,0,0,0,104.78,89Zm-26.35-4.4a31.44,31.44,0,0,0-.4,6c0,1.42,0,2.84-.06,4.25a9.27,9.27,0,0,1-.22,2.29c-.14.41-.67,1.11-1.19.72s-.61-1.36-.7-2a27.27,27.27,0,0,1,.53-7.8,39.34,39.34,0,0,1,2-7.81l0-.05A2.93,2.93,0,0,1,79,79.05a.1.1,0,0,1,.16.07A25.12,25.12,0,0,1,78.43,84.58Zm4.76,12.55c-.41.58-1.37.46-2,.27-1.58-.53-1.68-2.49-1.68-3.9,0-2.24,0-4.49.06-6.73a34,34,0,0,1,.94-8c0-.08.13-.07.17,0,.1-.41.25-1,.6-1.17.85-.48.54,2.8.51,3a35.09,35.09,0,0,0,0,7A39.82,39.82,0,0,0,83,95C83.2,95.54,83.59,96.57,83.19,97.13ZM89,96.88a2.47,2.47,0,0,1-2.24.1,5.1,5.1,0,0,1-1.59-2.44,28.6,28.6,0,0,1-1.65-7.72c-.15-1.41-.26-2.83-.32-4.26s-.08-2.78-.25-4.16c0-.12.17-.12.18,0a.37.37,0,0,1,0,.11.69.69,0,0,0,0-.13,1.94,1.94,0,0,1,.43-1.12c.81-.63,1.15,2.46,1.2,2.74a40.42,40.42,0,0,0,1.08,6.28c.59,1.94,1.4,3.81,2.16,5.68.27.65.52,1.3.82,1.93a13.08,13.08,0,0,1,.56,1.2C89.68,95.78,89.8,96.53,89,96.88Zm7-2.09c-1.14,1.38-3,.19-3.84-.81A19.68,19.68,0,0,1,89,88.42c-.83-2-1.48-4.11-2.16-6.19a1.12,1.12,0,0,1,0-.13,12.57,12.57,0,0,1-.45-1.35l0-.11v0c-.06-.24-.1-.47-.14-.71s-.15-1,.26-1.16,1.32.28,1.78.48a5,5,0,0,1,1.92,1.17,12.31,12.31,0,0,1,1.31,2.88c.58,1.25,1.15,2.52,1.83,3.73.76,1.37,1.67,2.64,2.32,4.07C96,92.05,96.81,93.79,96,94.79Zm6.24-4.62c-1.1.16-1.87-.55-2.69-1.18a35.81,35.81,0,0,1-3-2.59,27.22,27.22,0,0,1-2.77-3c-.81-1-1.54-2.15-2.33-3.21,0-.07,0-.13.09-.12a7,7,0,0,1-.4-.94c-.12-.35-.27-1.3.37-1.29s1.2.64,1.62,1c.79.76,1.6,1.49,2.35,2.3.91,1,1.78,2,2.73,3a30,30,0,0,0,2.88,2.4,14.32,14.32,0,0,1,1.33,1.12,3.52,3.52,0,0,1,.87,1.09A1.08,1.08,0,0,1,102.22,90.17Z"/><path class="cls-4" d="M104.78,89a29,29,0,0,0-3.28-2.89l-.3-.26a17.32,17.32,0,0,1,2,1c.4.27,1,.71,1.46.46s.29-.83.2-1.19a2.65,2.65,0,0,0-.85-1.66.09.09,0,0,0-.12,0c-.7-.37-1.33-.85-2-1.27s-1.45-.86-2.18-1.29a36.92,36.92,0,0,1-4-2.6,17.26,17.26,0,0,1-3.19-3.73c-.5-.7-1.08-1.34-1.58-2-.2-.26-.38-.54-.56-.82-.25-.56-.49-1.13-.72-1.69a7.05,7.05,0,0,1-.32-1.28c-.09-.49,0-1-.1-1.49a5,5,0,0,0-.39-1.06c-.15-.36-.24-.73-.38-1.09a1.5,1.5,0,0,0-1.36-1,8.38,8.38,0,0,0-3.86,1,5.44,5.44,0,0,0-1.58.93,2.42,2.42,0,0,0-.55.73c-.12.27-.18.55-.27.82a.06.06,0,0,0-.06,0c-.57,1.37-1,2.79-1.53,4.19-.4,1.12-.81,2.25-1.12,3.4A68.89,68.89,0,0,0,75.7,87.14c-.34,2.06-.57,4.13-.73,6.21-.08,1-.15,1.93-.21,2.9a8.53,8.53,0,0,0,.15,2.62A.14.14,0,0,0,75,99a1.7,1.7,0,0,0,.84.69,2.6,2.6,0,0,0,1.63.29c1-.28,1.33-1.48,1.38-2.52a7.45,7.45,0,0,0,.19.94.13.13,0,0,0,.13.1c.73,1.71,3.07,1.54,4.67,1.13a.15.15,0,0,0,.16,0,.89.89,0,0,0,.52-1c-.07-.85-.23-1.71-.38-2.56-.24-1.42-.52-2.83-.76-4.24.13.57.26,1.13.41,1.7A30.47,30.47,0,0,0,85.6,99a.11.11,0,0,0,0,.05l.12.23h0l0,0a.08.08,0,0,0,0,0c.31.57,1.36.46,1.89.48A6.89,6.89,0,0,0,91.57,99a.09.09,0,0,0,.06-.06h0c.2-.19.12-.52.07-.76a14.78,14.78,0,0,0-.43-1.48c-.1-.29-.21-.58-.33-.86a1.07,1.07,0,0,0,.15.22A15,15,0,0,0,93,98.26a.14.14,0,0,0,.15,0h0c1,.61,2.66-.16,3.61-.6,1.71-.79,3.35-2.07,2.39-4-.12-.24-.23-.46-.36-.68-.45-.77-.92-1.52-1.42-2.27l-.68-1c.46.53.91,1.07,1.37,1.61s.78,1,1.18,1.41.85.76,1.18,1.22a.15.15,0,0,0,.24,0,2.69,2.69,0,0,0,1.45-.18,3.4,3.4,0,0,0,1.6-1,4.56,4.56,0,0,0,.87-1.66,3.24,3.24,0,0,0,.19-1.94A.12.12,0,0,0,104.78,89Zm-.5,2.08a4.27,4.27,0,0,1-.85,1.53,3.43,3.43,0,0,1-1.66,1,3,3,0,0,1-.88.16.82.82,0,0,0-.22,0,16.42,16.42,0,0,0-1.17-1.19l-1.26-1.39c-.74-.8-1.41-1.7-2.2-2.46l-1.72-2.46c-1-1.51-2-3.08-2.87-4.68-.47-.84-1-1.66-1.37-2.52S89.36,77.5,89,76.75c0,0-.08,0-.06,0,.77,1.64,1.5,3.3,2.35,4.91a49.83,49.83,0,0,0,2.93,4.84c1.06,1.53,2.15,3,3.16,4.61a20.66,20.66,0,0,1,1.42,2.35,2.16,2.16,0,0,1-.35,2.76,6.6,6.6,0,0,1-1.86,1.18,4.79,4.79,0,0,1-3.28.61h0a.15.15,0,0,0-.16-.09,2,2,0,0,0-.32-.36c-.2-.21-.39-.43-.59-.65s-.57-.7-.83-1.07A21.16,21.16,0,0,1,90,93.42a58.56,58.56,0,0,1-2.71-5.51,28.26,28.26,0,0,1-1.56-6.06c-.37-2.12-.73-4.26-1-6.4,0,0,0,0,0,0,.22,2.21.49,4.4.83,6.59A27.17,27.17,0,0,0,87,88a57,57,0,0,0,2.66,5.44l.31.59c0,.11.09.22.13.32.18.45.34.88.56,1.31a9.56,9.56,0,0,1,.56,1.58c.09.31.45,1.17.23,1.48h0a7.21,7.21,0,0,1-3.11.8c-.47,0-.93,0-1.39,0a1.29,1.29,0,0,1-.89-.23.11.11,0,0,0,0-.08,28.26,28.26,0,0,1-1.86-5.45,62.57,62.57,0,0,1-1.29-6.23,47.59,47.59,0,0,1-.54-6.19c0-1.11,0-2.21.07-3.31a23.43,23.43,0,0,0,.08-3,0,0,0,1,0-.08,0c0,2.13-.33,4.23-.33,6.35a44.44,44.44,0,0,0,.51,6.2c.16,1,.34,2.06.56,3.09A36.53,36.53,0,0,0,83.69,95c.11.74.24,1.48.36,2.23.07.5.47,1.78-.14,2.06a7.31,7.31,0,0,1-2.87.19,2.77,2.77,0,0,1-1.69-1.23h0a10.78,10.78,0,0,1-.3-2.26c-.06-.88-.14-1.76-.19-2.64-.1-1.85-.1-3.69,0-5.54s.21-3.59.37-5.38A34.09,34.09,0,0,1,80,77.23s0,0,0,0a44.35,44.35,0,0,0-1.39,10.46c-.09,1.9-.09,3.81,0,5.71,0,.89.13,1.77.19,2.65l0,.39s0,0,0,0c-.18,1-.07,2.58-1.16,3.14a1.88,1.88,0,0,1-1.39-.14,2.23,2.23,0,0,1-1-.61.14.14,0,0,0,0-.09A8.52,8.52,0,0,1,75.09,96c.07-1,.13-2,.21-3,.16-2,.39-4,.72-6a94.2,94.2,0,0,1,2.29-11.15c.82-2.3,1.72-4.58,2.46-6.92a10.59,10.59,0,0,1,.81-1.52,4.89,4.89,0,0,1,1.67-1,8.8,8.8,0,0,1,3.73-1c.85,0,1.13.65,1.36,1.37.11.37.28.72.42,1.08a3.7,3.7,0,0,1,.18,1.4,5.46,5.46,0,0,0,.52,2.1,0,0,0,0,0,0,0,9.59,9.59,0,0,0,.75,1.46c.13.24.27.48.41.71,0,0,0,0,0,0,.47.69,1,1.36,1.45,2a17.72,17.72,0,0,0,3.21,3.85A40.86,40.86,0,0,0,99.27,82c.75.46,1.52.89,2.28,1.34s1.51,1.06,2.33,1.47h.05a4.71,4.71,0,0,1,.29.48,4,4,0,0,1,.25.74,2.78,2.78,0,0,1,.13.65c0,.54-.5.37-.79.24s-.82-.45-1.24-.65-1.08-.49-1.63-.69c-1-.85-2-1.7-3-2.58-1.17-1-2.3-2.11-3.42-3.2a25.1,25.1,0,0,1-3-3.08s-.07,0,0,0a20.37,20.37,0,0,0,2.71,2.94C95.2,80.86,96.31,82,97.47,83S99.83,85.1,101,86.1c.58.48,1.17.94,1.75,1.43s1.12,1,1.69,1.56v0A3,3,0,0,1,104.28,91.06Z"/><path class="cls-5" d="M76.42,89.88a5.27,5.27,0,0,0,2.34,1.73,1.59,1.59,0,0,0,.78,0c.29-.08.43-.32.61-.52a1.28,1.28,0,0,1,.94-.51,3.87,3.87,0,0,0,1.27-.08,2.23,2.23,0,0,0,1.17-.69c.2-.23.38-.68.71-.77s.18-.64.07-.91c-.33-.81-1.23-1.26-1.12-2.23s1-1.14,1.21-1.91c.24-1.13-.88-2.2-1.65-2.86a.09.09,0,0,1,0-.11c.61-.84.16-2.15.3-3.1.18-1.24,1.29-.52,2-.09A18.39,18.39,0,0,1,87,79.34a2.59,2.59,0,0,1,1.07,1.72,12.34,12.34,0,0,1-.51,2.75,5.76,5.76,0,0,0,.21,3,7.73,7.73,0,0,0,1.81,3A5.33,5.33,0,0,0,93,91.66a5.25,5.25,0,0,0,1.88-.57,1.65,1.65,0,0,0,.83-1,9.74,9.74,0,0,0,.83-4.06c0-.81-.15-2.65-1.41-2.1a.09.09,0,0,1-.13,0,2.47,2.47,0,0,0-1.56-1.22.1.1,0,0,1-.07-.09,7.05,7.05,0,0,0-1-2.46,3.69,3.69,0,0,1-.31-2,3.42,3.42,0,0,1,1-1.73c-.19-.28-.39-.55-.59-.82-.5-.7-1.08-1.34-1.58-2-.2-.26-.38-.54-.56-.82-.25-.56-.49-1.13-.72-1.69a7.05,7.05,0,0,1-.32-1.28c-.09-.49,0-1-.1-1.49a5,5,0,0,0-.39-1.06c-.15-.36-.24-.73-.38-1.09a1.5,1.5,0,0,0-1.36-1,8.38,8.38,0,0,0-3.86,1,5.44,5.44,0,0,0-1.58.93,2.42,2.42,0,0,0-.55.73c-.12.27-.18.55-.27.82a.06.06,0,0,0-.06,0c-.57,1.37-1,2.79-1.53,4.19-.4,1.12-.81,2.25-1.12,3.4A68.89,68.89,0,0,0,75.7,87.14c-.09.53-.17,1-.24,1.58C75.77,89.12,76.08,89.51,76.42,89.88Z"/><path class="cls-6" d="M79.92,82.69c-.43-.52-.94-1-1.36-1.49-.24-.31-.59-.64-1-.54s-.79.53-1.23.62c-.13-.07-.17-.22-.11-.48a5.38,5.38,0,0,1,.36-1,26.39,26.39,0,0,1,1.3-2.54v0h0a.1.1,0,0,0,0-.09c0-.57-.61-.74-1.08-.65a1.93,1.93,0,0,0-.48.2.13.13,0,0,0-.21,0,18.49,18.49,0,0,0-1.66,3.58c-.17.45-.33.9-.5,1.34a26.15,26.15,0,0,0-1.76,2.79,9.13,9.13,0,0,0-.67,1.37,2.68,2.68,0,0,0,0,1.46,12.47,12.47,0,0,1,.21,1.51A3.08,3.08,0,0,0,72.12,90a3.54,3.54,0,0,0,2,1.33,3,3,0,0,0,1.11.71c.82.28,1.34-.27,1.92-.76a2,2,0,0,0,.35,0,2.67,2.67,0,0,0,1.85-1.47c.66-.73-.21-2-1.13-2l-.15-.22c-.23-.31-.48-.62-.73-.92,0-.11,0-.22-.08-.33A1.39,1.39,0,0,0,78,87h0L78,87a1.4,1.4,0,0,0,1.25-.12,1.35,1.35,0,0,0,.55-1.16,3.78,3.78,0,0,1,.27-1.24,2.77,2.77,0,0,0,.22-.76A1.43,1.43,0,0,0,79.92,82.69Z"/><path class="cls-7" d="M79.92,82.69c-.43-.52-.94-1-1.36-1.49-.24-.31-.59-.64-1-.54s-.79.53-1.23.62c-.13-.07-.17-.22-.11-.48a5.38,5.38,0,0,1,.36-1,26.39,26.39,0,0,1,1.3-2.54v0h0a.1.1,0,0,0,0-.09c0-.57-.61-.74-1.08-.65a1.93,1.93,0,0,0-.48.2.13.13,0,0,0-.21,0,15.13,15.13,0,0,0-1.43,3,1.08,1.08,0,0,1,.65-.28c.26,0,.26.37.23.64l.08-.07a.09.09,0,0,1,.15.06,4.59,4.59,0,0,1-.17,1c0,.19-.1.61.19.65a1.67,1.67,0,0,0,1-.31c.29-.17.7-.47,1.06-.38a1.41,1.41,0,0,1,.74.58,7.91,7.91,0,0,0,.91,1,1.11,1.11,0,0,1,.48.83c-.05.6-.41,1.47-1.1,1.5-.06,0-.09-.06-.08-.12a.74.74,0,0,1,.21-.41,2,2,0,0,0,.35-.65c-.32.29-.76.6-1.14.46C78,84.1,78,83.8,78,83.6c0-.55.23-1.07.28-1.61-.67.4-.89,1.31-1.16,2A.09.09,0,0,1,77,84a1,1,0,0,1-.21-.34c0,.61.11,1.22.09,1.83,0,0-.06.11-.11.09a1.82,1.82,0,0,1-.61-.41c.32.74.68,1.46.95,2.22.1.2.2.4.29.6.2.47.68,1.55,0,1.92-.88.52-1.66-.82-2-1.44-.77-1.37-.29-2.86-.42-4.33a8.34,8.34,0,0,0-.43,1.5A10.09,10.09,0,0,0,74.32,88a10.05,10.05,0,0,0,.48,1.62.87.87,0,0,1-.11.88c-.25.24-.68.05-.88-.16a3.13,3.13,0,0,1-.71-1.25c-.43-1.4-.06-2.86-.12-4.29-.15.4-.29.81-.43,1.22a3.51,3.51,0,0,0-.3,1.69c0,.38.14.75.19,1.13a1.13,1.13,0,0,1,0,.75c-.15.24-.32.17-.46,0a2.48,2.48,0,0,0,.17.37,3.54,3.54,0,0,0,2,1.33,3,3,0,0,0,1.11.71c.82.28,1.34-.27,1.92-.76a2,2,0,0,0,.35,0,2.67,2.67,0,0,0,1.85-1.47c.66-.73-.21-2-1.13-2l-.15-.22c-.23-.31-.48-.62-.73-.92,0-.11,0-.22-.08-.33A1.39,1.39,0,0,0,78,87h0L78,87a1.4,1.4,0,0,0,1.25-.12,1.35,1.35,0,0,0,.55-1.16,3.78,3.78,0,0,1,.27-1.24,2.77,2.77,0,0,0,.22-.76A1.43,1.43,0,0,0,79.92,82.69Z"/><path class="cls-7" d="M79.92,82.69l-.12-.13a3,3,0,0,1,.16.37,1.28,1.28,0,0,1,0,.72,1.92,1.92,0,0,1-.19.7,3.56,3.56,0,0,0-.29,1.24,1.21,1.21,0,0,1-.78,1.26,1.23,1.23,0,0,1-1.12-.52,2.25,2.25,0,0,1-.28-.8c0-.19,0-.37.08-.56.33.17.76-.06,1-.24a2.71,2.71,0,0,0,.86-1s0,0,0,0a2.93,2.93,0,0,1-.8.69,2.78,2.78,0,0,1-1,.34,5.5,5.5,0,0,1,.71-2.27,0,0,0,0,0-.07,0,3.79,3.79,0,0,0-.74,1.6,8,8,0,0,0-.22,1.33c0-.25-.07-.51-.11-.77,0,0,0,0,0,0a13.26,13.26,0,0,0,.17,1.76l-.38-.47s0,0,0,0a12.34,12.34,0,0,0,.93,1.56,7.39,7.39,0,0,1,.93,1.7c0,.06.13.07.14,0A1.92,1.92,0,0,0,78.41,88a1.5,1.5,0,0,1,.68.55,1.18,1.18,0,0,1,0,1.23s0,0,0,0c-.49.59-1,1.26-1.86,1.16s-1.3-.86-1.63-1.46A6.3,6.3,0,0,1,75,86.89a21.65,21.65,0,0,1,0-2.79s0,0,0,0c-.37,2-.45,4.38.78,6.1a2.6,2.6,0,0,0,1.31,1,4.28,4.28,0,0,1-.82.5,1.34,1.34,0,0,1-1.07-.11,3.74,3.74,0,0,1-1.5-1.55c-.9-1.48-.68-3.37-.61-5,0,0,0,0,0,0a18.67,18.67,0,0,0-.23,3.16,4.78,4.78,0,0,0,.82,2.34,3.79,3.79,0,0,0,.3.4,4.18,4.18,0,0,1-1.45-1.14l-.09-.16a2.41,2.41,0,0,1-.47-1.19c-.13-.62-.26-1.24-.38-1.86a5,5,0,0,0,.09.63,12.47,12.47,0,0,1,.21,1.51A3.08,3.08,0,0,0,72.12,90a3.54,3.54,0,0,0,2,1.33,3,3,0,0,0,1.11.71c.82.28,1.34-.27,1.92-.76a2,2,0,0,0,.35,0,2.67,2.67,0,0,0,1.85-1.47c.66-.73-.21-2-1.13-2l-.15-.22c-.23-.31-.48-.62-.73-.92,0-.11,0-.22-.08-.33A1.39,1.39,0,0,0,78,87h0L78,87a1.4,1.4,0,0,0,1.25-.12,1.35,1.35,0,0,0,.55-1.16,3.78,3.78,0,0,1,.27-1.24,2.77,2.77,0,0,0,.22-.76A1.43,1.43,0,0,0,79.92,82.69Z"/><path class="cls-7" d="M77.55,80.66c-.45.1-.79.53-1.23.62-.13-.07-.17-.22-.11-.48a5.38,5.38,0,0,1,.36-1,26.39,26.39,0,0,1,1.3-2.54v0h0a.1.1,0,0,0,0-.09c0-.57-.61-.74-1.08-.65a1.93,1.93,0,0,0-.48.2.13.13,0,0,0-.21,0,18.49,18.49,0,0,0-1.66,3.58c-.17.45-.33.9-.5,1.34v0a4.16,4.16,0,0,1-.22.48,3.82,3.82,0,0,1-.21.46.58.58,0,0,0,0,.14l.17-.3a5.62,5.62,0,0,0-.48,1.69s.06.06.06,0a7.24,7.24,0,0,1,.71-1.93c.27-.59.51-1.2.77-1.8a23.78,23.78,0,0,1,1.65-3.5s0,0,0,0a2.5,2.5,0,0,1,.53-.13,1.08,1.08,0,0,1,.47,0c.18.07.21.21.26.37a10.87,10.87,0,0,0-1,1.87,8.94,8.94,0,0,0-.52,1.19,1.69,1.69,0,0,0,0,1.13s0,.07,0,.08h0c.11.12.3.15.6,0,0,0,0-.06,0-.06h-.13c.28-.09.55-.28.81-.37a1.08,1.08,0,0,1,.38-.17.81.81,0,0,1,.38,0A.73.73,0,0,0,77.55,80.66Z"/><path class="cls-6" d="M94.25,86c-.2-.53-.68-1-1.27-.69a3.1,3.1,0,0,0-1.18,1.32c0-.32-.07-.64-.07-1a10.12,10.12,0,0,0-.19-1.9,2.83,2.83,0,0,0-.67-1.35,1.91,1.91,0,0,0-.62-.39,2.42,2.42,0,0,1-.74-.31c-.05-.32-.09-.63-.11-1-.05-.93,0-1.87,0-2.8a.16.16,0,0,0,0-.1s0,0,0,0a0,0,0,0,0,0,0c-.34-.93-2.08-1.28-2.55-.34a.15.15,0,0,0,0,.06.17.17,0,0,1,0,.07l0,0v0a8.9,8.9,0,0,0,.07,2.47,12.38,12.38,0,0,0,.28,1.74c-.21.6-.71,1-1,1.49a3.51,3.51,0,0,0-.42,1.82,8.19,8.19,0,0,0,1,3.83,3.4,3.4,0,0,0,1,1.86,4.69,4.69,0,0,0,2.18,1.53,1.64,1.64,0,0,0,1.8-1,1.33,1.33,0,0,0,.74,0c0,.07.1.13.17.07A5.26,5.26,0,0,0,94.25,86Z"/><path class="cls-7" d="M94.25,86l0,0a3.12,3.12,0,0,1-.16.92,3.84,3.84,0,0,1-1.13,2c-.63.48-.9-.44-.92-.89a3.86,3.86,0,0,1,.54-2.36,3.44,3.44,0,0,0-.76,1c0-.32-.07-.64-.07-1a10.12,10.12,0,0,0-.19-1.9,2.83,2.83,0,0,0-.67-1.35,1.91,1.91,0,0,0-.62-.39,2.42,2.42,0,0,1-.74-.31c-.05-.32-.09-.63-.11-1-.05-.93,0-1.87,0-2.8a.16.16,0,0,0,0-.1s0,0,0,0a0,0,0,0,0,0,0c-.34-.93-2.08-1.28-2.55-.34a.15.15,0,0,0,0,.06.17.17,0,0,1,0,.07l0,0v0a8.9,8.9,0,0,0,.07,2.47,12.38,12.38,0,0,0,.28,1.74c-.21.6-.71,1-1,1.49a3.51,3.51,0,0,0-.42,1.82,8.19,8.19,0,0,0,1,3.83,3.4,3.4,0,0,0,1,1.86,4.69,4.69,0,0,0,2.18,1.53,1.64,1.64,0,0,0,1.8-1,1.33,1.33,0,0,0,.74,0c0,.07.1.13.17.07A5.26,5.26,0,0,0,94.25,86Zm-3.09,2.54c-.24.61-.63,1.19-1.13.74a3,3,0,0,1-.6-1.73,16.55,16.55,0,0,1-.22-2.81.1.1,0,0,1,0-.08v-.15a6,6,0,0,0-.33,1.93,12.66,12.66,0,0,1-.07,1.74c-.07.42-.41,1.47-1,1.37-.8-.12-.83-1.46-.83-2.06a15.14,15.14,0,0,1,.28-3.29c-.47.49-.54,1.26-.85,1.86a.09.09,0,0,1-.15,0c-.48-.68-.07-1.81.26-2.47.12-.24.34-.74.68-.74a.47.47,0,0,1,.36.14,4.9,4.9,0,0,1-.14-2.75c.06-.17.21-.43.43-.38a.92.92,0,0,1,.31.16l.23.2a1,1,0,0,0,.16-.2s.13-.07.16,0a10.6,10.6,0,0,1,.39,2.18,7.54,7.54,0,0,0,.66,2c.06-.62.23-1.83.83-1.17a4,4,0,0,1,.71,2.2c.06.52.14,1,.18,1.56A3,3,0,0,1,91.16,88.52Z"/><path class="cls-7" d="M87,82.39a.09.09,0,0,1,.1,0,1.34,1.34,0,0,0,.09-.26c.07.25.14.49.23.74,0,0,.07,0,.06,0A18,18,0,0,1,87,77.51h0c.53-.7,1.81-.29,2.14.43h0c0,.88,0,1.77,0,2.65a22,22,0,0,0,.57,2.89s0,0,0,0c0-.52-.14-1-.23-1.54a1.54,1.54,0,0,0,.31.17s.06,0,.09,0l.11.07.09,0a1.71,1.71,0,0,1,.53.36,3.4,3.4,0,0,1,.47.38,1.56,1.56,0,0,1,.23.28,2.33,2.33,0,0,0-.51-.85,1.91,1.91,0,0,0-.62-.39,2.42,2.42,0,0,1-.74-.31c-.05-.32-.09-.63-.11-1-.05-.93,0-1.87,0-2.8a.16.16,0,0,0,0-.1s0,0,0,0a0,0,0,0,0,0,0c-.34-.93-2.08-1.28-2.55-.34a.15.15,0,0,0,0,.06.17.17,0,0,1,0,.07l0,0v0a8.9,8.9,0,0,0,.07,2.47,12.38,12.38,0,0,0,.28,1.74,3,3,0,0,1-.57.89,0,0,0,0,0,0,0,2.19,2.19,0,0,0-.3.59A2.63,2.63,0,0,1,87,82.39Z"/><path class="cls-7" d="M94.46,86.9a4.85,4.85,0,0,1-.09.57A8.06,8.06,0,0,1,94,88.73c0,.16-.09.32-.15.48a5.51,5.51,0,0,1-1.07,1.7,1.81,1.81,0,0,1-2.11-.38A3.16,3.16,0,0,1,89.81,89a15.47,15.47,0,0,1-.57-4.44s0,0,0,0a13,13,0,0,0,0,2.72,10.19,10.19,0,0,0,.5,2.38,3.16,3.16,0,0,0,1.7,1.69,1.49,1.49,0,0,1-2,.54,4.14,4.14,0,0,1-.91-.71,10.78,10.78,0,0,1-.91-.88,4.12,4.12,0,0,1-.7-2.63,21.18,21.18,0,0,1,.25-3.07s-.07-.06-.08,0a13.55,13.55,0,0,0-.4,3.47,7.65,7.65,0,0,1-.3-.74A6.86,6.86,0,0,1,86,85.57a4.4,4.4,0,0,1,0-2,3.63,3.63,0,0,0-.31,1.6,8.19,8.19,0,0,0,1,3.83,3.4,3.4,0,0,0,1,1.86,4.69,4.69,0,0,0,2.18,1.53,1.64,1.64,0,0,0,1.8-1,1.33,1.33,0,0,0,.74,0c0,.07.1.13.17.07A5.44,5.44,0,0,0,94.46,86.9Z"/><path class="cls-7" d="M91.83,86.89l.22-.29a3.1,3.1,0,0,1,1.23-1.4.69.69,0,0,0-.3.09,3.1,3.1,0,0,0-1.18,1.32c0-.32-.07-.64-.07-1s0-.84-.08-1.25a.09.09,0,0,1,0,0v0a10.82,10.82,0,0,0,.26,3.07C91.86,87.21,91.84,87.05,91.83,86.89Z"/><g class="cls-8"><path class="cls-9" d="M76.31,80.1c-.36-.71-1.4-.52-1.79.06,0,.07,0,.19.1.15s.4-.29.63-.39a.76.76,0,0,1,1,.21S76.32,80.13,76.31,80.1Z"/><path class="cls-9" d="M76,81.34a1.52,1.52,0,0,0-2.06.19c-.06.11.06.23.15.13a1.5,1.5,0,0,1,1.87-.26S76,81.38,76,81.34Z"/><path class="cls-9" d="M75.67,83.19a2,2,0,0,0-1.56-.28,2.51,2.51,0,0,0-1.54,1s0,.08.06.06A6,6,0,0,1,74,83.16a2.22,2.22,0,0,1,1.68.1A0,0,0,0,0,75.67,83.19Z"/><path class="cls-9" d="M72.64,86.06a1.15,1.15,0,0,0-1-.17s0,.12,0,.11a1.69,1.69,0,0,1,1,.11S72.67,86.08,72.64,86.06Z"/><path class="cls-9" d="M72.7,87.75a1.41,1.41,0,0,1-1-.52c-.06-.09-.2,0-.14.09a1.21,1.21,0,0,0,1.18.47S72.71,87.76,72.7,87.75Z"/><path class="cls-9" d="M74.53,86.64a2.6,2.6,0,0,1-.86.26,4.64,4.64,0,0,1-.84-.18.11.11,0,1,0,0,.21,2.43,2.43,0,0,0,.89.13,1.81,1.81,0,0,0,.88-.37S74.56,86.62,74.53,86.64Z"/><path class="cls-9" d="M74.73,87.94c-.4.54-1.09.89-1.66.39-.09-.09-.22.06-.12.15.62.57,1.45.1,1.81-.52C74.78,87.94,74.74,87.92,74.73,87.94Z"/><path class="cls-9" d="M75.3,89.5a.93.93,0,0,1-.81.71,1.29,1.29,0,0,1-.92-.18.1.1,0,0,0-.12.14,1.18,1.18,0,0,0,1.91-.66A0,0,0,0,0,75.3,89.5Z"/><path class="cls-9" d="M78.06,87.92s-.06,0,0,0c0,.68.06,1.23-.5,1.71a2.39,2.39,0,0,1-1.67.36c-.06,0-.08.11,0,.13a1.86,1.86,0,0,0,1.92-.4A1.75,1.75,0,0,0,78.06,87.92Z"/><path class="cls-9" d="M77,86.4s-.06,0,0,0a1.55,1.55,0,0,1-.23,1.29c-.4.48-1.27.31-1.76.1,0,0-.06,0,0,0,.5.33,1.3.62,1.81.11A1.44,1.44,0,0,0,77,86.4Z"/><path class="cls-9" d="M79.22,82.13s-.09,0-.08.05a2.4,2.4,0,0,1-1.52,2.44,0,0,0,0,0,0,0C78.42,84.35,80,83.11,79.22,82.13Z"/><path class="cls-9" d="M79.65,85.2a6,6,0,0,0-.54.59,1.58,1.58,0,0,1-1.48.45,0,0,0,0,0,0,0c.86.44,1.71-.31,2.11-1C79.76,85.22,79.69,85.16,79.65,85.2Z"/><path class="cls-9" d="M89.19,81a1.4,1.4,0,0,1-2.09,0S87,81,87,81a1.27,1.27,0,0,0,2.2,0S89.21,80.92,89.19,81Z"/><path class="cls-9" d="M90.45,82.46a3.14,3.14,0,0,1-2,1.32,2.22,2.22,0,0,1-2-.49s0,0,0,0a2.07,2.07,0,0,0,2.08.69,2.53,2.53,0,0,0,2.06-1.54S90.47,82.43,90.45,82.46Z"/><path class="cls-9" d="M89.08,85.68c-.6.29-1.53.6-2,0,0,0-.09,0-.07,0,.41.73,1.64.59,2.17,0C89.17,85.72,89.12,85.66,89.08,85.68Z"/><path class="cls-9" d="M89.29,88c-.89.29-1.76.57-2.48-.23,0,0-.09,0-.06,0a1.73,1.73,0,0,0,2.58.26S89.34,88,89.29,88Z"/><path class="cls-9" d="M89.77,90.14a1.52,1.52,0,0,1-1.26.34A7.22,7.22,0,0,1,87.27,90s-.07,0,0,0c.76.45,1.94,1.13,2.6.17C89.87,90.17,89.82,90.1,89.77,90.14Z"/><path class="cls-9" d="M87.08,84.73a1.89,1.89,0,0,1-.71-.21c-.25-.17-.2-.46-.23-.72,0,0-.07,0-.08,0,0,.33-.1.57.15.83a1,1,0,0,0,.86.19C87.12,84.81,87.13,84.74,87.08,84.73Z"/><path class="cls-9" d="M86.77,86.21a.83.83,0,0,1-.48-.15.79.79,0,0,1-.31-.52,0,0,0,0,0-.07,0c0,.41.42,1,.87.82C86.85,86.33,86.85,86.22,86.77,86.21Z"/><path class="cls-9" d="M91.08,83.9c-.35.55-1.07,1.29-1.76.89a0,0,0,0,0,0,.06c.66.59,1.63-.29,1.85-.92C91.14,83.9,91.1,83.87,91.08,83.9Z"/><path class="cls-9" d="M91.43,85.42a3,3,0,0,1-.79.84,1.67,1.67,0,0,1-1.26.1s-.07.06,0,.08a1.52,1.52,0,0,0,2.16-1A0,0,0,0,0,91.43,85.42Z"/><path class="cls-9" d="M91.57,87.22c-.34.84-.69,1.8-1.71,2a0,0,0,0,0,0,.07c1,.21,1.74-1.2,1.78-2C91.64,87.2,91.58,87.17,91.57,87.22Z"/><path class="cls-9" d="M91.92,87.08a0,0,0,1,0,0,0c.48,1.2.94,2.61.26,3.82,0,0,0,.08.07,0C93.24,90,92.57,88.08,91.92,87.08Z"/><path class="cls-9" d="M93.59,86.9c-.21-.47-.62-1-1.19-.8,0,0,0,.06,0,.05.65-.09.94.59,1.1,1.1a6.19,6.19,0,0,1,0,2.23s.08.07.09,0A4,4,0,0,0,93.59,86.9Z"/></g><path class="cls-10" d="M75,80c-.35.85-.82,1.65-1.21,2.48a7.3,7.3,0,0,0-.44,1.18,6.29,6.29,0,0,0-.15,1.44s0,0,0,0c.3-.89.52-1.78.89-2.65A15,15,0,0,0,75.06,80,0,0,0,0,0,75,80Z"/><path class="cls-10" d="M73.71,90.05q-.17-.49-.36-1a2.94,2.94,0,0,1-.16-1.17c0-.79,0-1.57,0-2.35,0,0,0,0,0,0-.07.78-.17,1.58-.19,2.36a4.88,4.88,0,0,0,.65,2.19A.05.05,0,0,0,73.71,90.05Z"/><path class="cls-10" d="M73.19,82.94a0,0,0,1,0,0,0A10.93,10.93,0,0,0,71.59,86a7.31,7.31,0,0,0,.4,3.27,0,0,0,0,0,.06,0A8.75,8.75,0,0,1,71.82,86,10.49,10.49,0,0,1,73.19,82.94Z"/><path class="cls-10" d="M75.6,88.18a4.27,4.27,0,0,1-.24-1.51c0-1.14-.2-2.27-.27-3.41,0,0,0,0,0,0,0,1.19,0,2.38,0,3.57a3.46,3.46,0,0,0,.26,1.43,8.44,8.44,0,0,0,.89,1.26s0,0,0,0C76.15,89,75.79,88.64,75.6,88.18Z"/><path class="cls-10" d="M79.63,82.94c-.32-.39-.59-.81-.87-1.22a1.91,1.91,0,0,0-.63-.72.91.91,0,0,0-.87.13,8,8,0,0,1-1.64.85s0,0,0,0a3.91,3.91,0,0,0,1.12-.33c.39-.16.79-.53,1.23-.45s.59.51.78.76a4.15,4.15,0,0,0,.85,1S79.65,83,79.63,82.94Z"/><path class="cls-10" d="M88.49,84a10.82,10.82,0,0,1-.95-2.88.09.09,0,0,0-.18,0,4.1,4.1,0,0,0,1,2.93A.06.06,0,0,0,88.49,84Z"/><path class="cls-10" d="M87.46,84.61s-.1-.06-.1,0c-.11,1.44-.77,3,0,4.37,0,0,.11,0,.1,0A19.6,19.6,0,0,1,87.46,84.61Z"/><path class="cls-10" d="M90.14,89a8.18,8.18,0,0,1-.5-2.24c-.06-.76-.06-1.53-.1-2.29,0-.06-.11-.07-.11,0a18.19,18.19,0,0,0-.06,2.45A3.56,3.56,0,0,0,90,89,.07.07,0,0,0,90.14,89Z"/><path class="cls-10" d="M86.9,83.12c-.7.34-.82,1.74-.81,2.4a.06.06,0,0,0,.11,0A17.74,17.74,0,0,1,87,83.2S86.94,83.1,86.9,83.12Z"/><path class="cls-10" d="M93.79,85.5c-.38-.13-.72.28-1,.52a4.81,4.81,0,0,0-.76,1.24s0,.06.05,0a6,6,0,0,1,.76-.91,2.36,2.36,0,0,1,.91-.75A.07.07,0,0,0,93.79,85.5Z"/><path class="cls-11" d="M159.65,26.08c-.65-.54-1.18-1.21-1.82-1.76a18.54,18.54,0,0,0-2.22-1.62,10.48,10.48,0,0,0-2.1-1,11.66,11.66,0,0,0,1.77-.08,8,8,0,0,0,2.8-.45.13.13,0,0,0,.07-.16.16.16,0,0,0,0-.16A11.14,11.14,0,0,0,156.2,19a11.42,11.42,0,0,0-2.28-1.17,12.6,12.6,0,0,0-3.27-.79,13.73,13.73,0,0,0,2.17-.89c.94-.48,2.29-1.19,2.55-2.31a.1.1,0,0,0,0-.1.11.11,0,0,0-.05-.12,10.82,10.82,0,0,0-3.73-1.25c-1.49-.34-3-.63-4.53-.83a23.58,23.58,0,0,0-6.5-.09l.29-.14a21.77,21.77,0,0,0,2.33-1.36,8.66,8.66,0,0,0,2-1.58.16.16,0,0,0,0-.09.13.13,0,0,0,0-.23,27.83,27.83,0,0,0-8.05-1.4,59.79,59.79,0,0,0-8.25.21c-5,.46-10.12,1.34-14.54,3.78a19.86,19.86,0,0,0-1.91,1.21c.2-.43.41-.86.59-1.29a2.14,2.14,0,0,0,.26-1.28c.12-.11,0-.33-.21-.23-.87.5-1.82.83-2.73,1.25s-1.71.88-2.54,1.34a34.84,34.84,0,0,0-4.82,3.26,16,16,0,0,0-5.1,6.64,1.15,1.15,0,0,0-.21-.51c0-.05-.1,0-.13,0a.14.14,0,0,0-.11,0C93.2,24.51,93,30.16,91.75,35a14.31,14.31,0,0,1-3.18,6.16,15.17,15.17,0,0,1-5.22,3.75c-1.29-3.42-4.75-5.32-7.95-6.88-4.66-2.25-9.55-4.14-13.69-7.3A24.15,24.15,0,0,1,56,24.27c-.75-1.2-1.35-2.48-2.09-3.68a12.73,12.73,0,0,1-2-3.8c0-.06-.11-.05-.1,0s0,.24.08.36c0,.34,0,.69,0,1.05a16.89,16.89,0,0,0-7.17-9.1,29.09,29.09,0,0,0-6.26-2.68,34.81,34.81,0,0,0-7.7-2,.07.07,0,0,0,0,.14h0c.37.28.76.52,1.15.78a13.44,13.44,0,0,0-4.76-1c-2.9-.17-5.81,0-8.71,0s-6,.07-8.8-.86C8.32,3,7.13,2.48,5.92,2S3.38,1.06,2.14.53C1.82.4,1.5.25,1.19.09c0,0,0,0,0,0s0-.06,0,0L1.1.05A0,0,0,0,0,1,.08c-.72.49-.1,2,.15,2.58A8.46,8.46,0,0,0,2,4.11a5.73,5.73,0,0,0,1.58,1.4A20,20,0,0,0,8.49,7.8c.71.24,1.41.45,2.12.64a15.92,15.92,0,0,0-3.9.2A11.43,11.43,0,0,0,.18,12.13h0l0,.06-.1.11a.06.06,0,0,0,0,.09c0,.39.36.71.67.94a11.37,11.37,0,0,0,2,1.15,9.71,9.71,0,0,0,1.75.58c.58.14,1.15.32,1.73.49l-.59.2a7.34,7.34,0,0,0-3.37,2.07l0,0s-.05,0,0,0a.19.19,0,0,0,0,.07L2.17,18c0,.07,0,.13.1.08l0,0a2.57,2.57,0,0,0,1.13.49,13.72,13.72,0,0,0,2.69.58,12.43,12.43,0,0,0,2.2,0l-1.27.49A13.46,13.46,0,0,0,2,23a.07.07,0,0,0,.05.1c-.6,1.14,3.92,2.43,4.42,2.58,1,.28,2,.54,3,.72l.46.07-.47.11c-1.85.48-4,1.34-5,3a.09.09,0,0,0,0,.07c-.24.87,2.53,1.68,3,1.82.68.22,1.36.41,2.05.56a5.7,5.7,0,0,0,1,.13A6.76,6.76,0,0,0,8.3,33.72s0,0-.07,0-.14.07-.15.18,0,.08.05.1a5.91,5.91,0,0,0,1.54.64,8.29,8.29,0,0,0,1.22.14,11.54,11.54,0,0,0-1.16.6A5.21,5.21,0,0,0,7.1,38.28s.05,0,.06,0l0-.07A7.59,7.59,0,0,0,9.84,40a22.06,22.06,0,0,0,3.75,1.58,15.49,15.49,0,0,0,2.83.66,8.13,8.13,0,0,0-4.21,2.45.07.07,0,0,0-.09.1l0,0a.05.05,0,0,0,.07.07l0,0a3.75,3.75,0,0,0,1.73.52,18.94,18.94,0,0,0,2.49.17l.9,0a8,8,0,0,0-3.07,2.44v0l-.06.08a0,0,0,0,0,0,.06c0,.23.28.48.57.66a5.79,5.79,0,0,0,.9.57c1,.53,1.93,1,2.93,1.5a11.62,11.62,0,0,0,3.59,1.07,4.74,4.74,0,0,0-1.52.77c-.08,0-.13.09-.07.15a6,6,0,0,0,3.82,1.26h.32A5,5,0,0,0,22.63,56a.1.1,0,0,0-.06.12v0A2.47,2.47,0,0,0,24,57.25c.4.15.79.34,1.2.46A9.32,9.32,0,0,0,26.7,58c.48.07,1,.07,1.45.14a5.61,5.61,0,0,0,1.23.07,5.06,5.06,0,0,0-1.74,1.54h0c-.27.19,0,.46.22.57a4.88,4.88,0,0,0,1.71.54,7.5,7.5,0,0,0,2.63,0,4.11,4.11,0,0,0-.45.38,4.65,4.65,0,0,0-1.17,1.5h0c-.49.78,2.18,1.09,2.43,1.11a16.37,16.37,0,0,0,2.71.08,10.78,10.78,0,0,0,1.46-.23,4.22,4.22,0,0,0-.46.38,2.86,2.86,0,0,0-.89,1.12s0,0,0,0a.25.25,0,0,0,0,.12h0a.43.43,0,0,0,.27.33,9.39,9.39,0,0,0,1.4.66,6.44,6.44,0,0,0,1.63.25,9.66,9.66,0,0,0,1.7,0,17.07,17.07,0,0,0,3.66-.72,3.91,3.91,0,0,0-1.06,1.86.05.05,0,0,0,0,0,.14.14,0,0,0,0,.06h0c.22.45,2-.18,2.34-.26a17.46,17.46,0,0,0,2.71-1l.79-.35a7.18,7.18,0,0,0-.73,1.32,9.17,9.17,0,0,0-.55,1.6,2.08,2.08,0,0,0,0,1.28s0,0,.08,0c.31.31,2.44-.12,2.73-.17A11.12,11.12,0,0,0,54.29,69a3.74,3.74,0,0,0,.35,3,.08.08,0,0,0,.12,0A3.88,3.88,0,0,0,57,71.22a4.14,4.14,0,0,0,1.33-1.37A5,5,0,0,0,59.29,68a13.92,13.92,0,0,0,.38-2.73,19.94,19.94,0,0,0,.21-2.57l.06-.45c0-.06,0-.13,0-.19.25.7.5,1.4.77,2.09a27.2,27.2,0,0,0,1.62,3.24c.93,1.67,1.88,3.62,3.56,4.66a11.25,11.25,0,0,0,2.51,1.1c1.21.4,2.44.79,3.64,1.24a4.56,4.56,0,0,1,2.46,1.54,3.94,3.94,0,0,1,.4,1.52A4.52,4.52,0,0,1,75,78.72a5.13,5.13,0,0,0-.34.52h0a1.1,1.1,0,0,0-.14.21s0,.09.08.05c.26-.41.74-.62,1.1-.94l0,0c0,.32.07.64.11,1h0a.43.43,0,0,0,0,.07,0,0,0,0,0,0,0l.07-.06,0,0c.32-.29.66-.56,1-.85l.16-.14c0,.33,0,.65,0,1,0,0,0,0,0,0a.57.57,0,0,0,0-.14s0,0,0,0c.18-.32.34-.65.55-.95a5.9,5.9,0,0,1,.85-.88,12.83,12.83,0,0,1,1.92-1.44A4.28,4.28,0,0,0,82,74.85a4.48,4.48,0,0,0,.29-.68c.35.16.7.31,1,.5a9.68,9.68,0,0,1,1.63,1.23,4.73,4.73,0,0,1,1.17,1.6,17.49,17.49,0,0,1,.6,2.26h0a.81.81,0,0,0,0,.16,0,0,0,0,0,.07,0,1.36,1.36,0,0,1,0-.17,0,0,0,0,0,0,0,4.72,4.72,0,0,1,.58-1l.08-.12c.38.37,1,.64,1.26,1a0,0,0,0,0,.05,0h0s0,0,0,0a2.19,2.19,0,0,1,.07-.68,2,2,0,0,0,.31.22,2.09,2.09,0,0,0,.76.34l.12.12s.06,0,0,0a4,4,0,0,1,.18-2.86c0-.14.12-.28.18-.41a10.87,10.87,0,0,1,2.87-2.34,21.18,21.18,0,0,0,2-1.13A7.19,7.19,0,0,0,96.85,71a14.12,14.12,0,0,0,1.84-4.21l0-.08a12.86,12.86,0,0,0,1.22-5.4,8.11,8.11,0,0,0-.64-3.47l.35.4s0,0,0,0a1,1,0,0,0-.15-.41,7.78,7.78,0,0,0-1.82-2.68A6,6,0,0,0,96,53.86a3,3,0,0,1,.73-.27c1.07-.23,2.27.49,3.14,1.06a4.53,4.53,0,0,1,1.94,2.49c.33,1.12-.22,2.35-.31,3.48a.1.1,0,0,0,.07.11c-.22,1.15-.47,2.29-.66,3.45a20.61,20.61,0,0,0,0,6.32,15.17,15.17,0,0,0,1.95,5.16c.46.81,1,1.6,1.47,2.38A12.11,12.11,0,0,0,106,80.26a.19.19,0,0,0,.12,0l.08,0a3.71,3.71,0,0,0,1-1.33,5.4,5.4,0,0,0,.36-.77,9.91,9.91,0,0,0,.24,2,.15.15,0,0,0,.18.2c.5-.12.9-.72,1.21-1.09a10.86,10.86,0,0,0,1.2-1.75,13.75,13.75,0,0,0,1.11-2.59,9.19,9.19,0,0,0,.21,1.73,6.75,6.75,0,0,0,.71,1.86c.24.42.48.89,1,1a.12.12,0,0,0,.1,0,.23.23,0,0,0,.14,0,13.51,13.51,0,0,0,4.83-4.79l-.09.5a9.3,9.3,0,0,0-.1,2.58l0,.07a.16.16,0,0,0,.16.1c1.66,0,3.15-1.5,4.11-2.73a11.66,11.66,0,0,0,1.64-2.95,7.66,7.66,0,0,0,.4,1.9c0,.14.58,1.2.9,1.2a.17.17,0,0,0,.14,0,5.56,5.56,0,0,0,2.26-2.81,9.54,9.54,0,0,0,.76-2.52,11.66,11.66,0,0,0,.74,1.4,6.16,6.16,0,0,0,1.37,1.42c.36.3.74.77,1.22.83a.15.15,0,0,0,.22,0,8.24,8.24,0,0,0,1.53-1.84,8.85,8.85,0,0,0,1-2.12,7.79,7.79,0,0,0,.39-2.91c.19.22.39.45.6.67a9.63,9.63,0,0,0,1.32,1.15,11.75,11.75,0,0,0,1.38,1,.15.15,0,0,0,.26.09,2.24,2.24,0,0,0,.27-1.3,14.05,14.05,0,0,0-.07-2.15,12.37,12.37,0,0,0-1-3.69c.32.21.66.41,1,.6a10.87,10.87,0,0,0,3.92,1.3l.09,0a.14.14,0,0,0,.15-.15,10.51,10.51,0,0,0-1.91-5.12,9.87,9.87,0,0,0,2,1.21,8.61,8.61,0,0,0,2.23.52,3.66,3.66,0,0,0,1.86,0,.15.15,0,0,0,.09-.17v0A10.15,10.15,0,0,0,145,54.19a10.55,10.55,0,0,0,1.22.59,9.74,9.74,0,0,0,1.82.54,3.35,3.35,0,0,0,1.75,0,.14.14,0,0,0,.07-.2.2.2,0,0,0,0-.13c-.47-.84-.88-1.73-1.4-2.55a6,6,0,0,0-.63-.78,9.14,9.14,0,0,0,1.51.6,6,6,0,0,0,3.36-.12.13.13,0,0,0,.08-.18h0a7,7,0,0,0-.78-2.22,18.2,18.2,0,0,0-1.25-2.19,12.43,12.43,0,0,0-2.32-2.64,8.74,8.74,0,0,0,1.72.3,10.59,10.59,0,0,0,2.18,0c.34,0,.68-.1,1-.14a3,3,0,0,0,.73-.14l.39-.2c-.14-.34-.24-.69-.37-1a5.7,5.7,0,0,0-.47-.92,10.31,10.31,0,0,0-3-3.17.08.08,0,0,0,0,0,7.54,7.54,0,0,0,4.32,1h0c.11,0,.25-.05.19-.18a8,8,0,0,0-1.51-2.6,6.43,6.43,0,0,0-1.44-1.17c1.94.33,4.14.58,5.88-.29l0,0c.1,0,.2-.08.15-.19a16.93,16.93,0,0,0-.77-1.61,9.19,9.19,0,0,0-1.15-1.5,6.45,6.45,0,0,0-1.42-1.1l.53.14c.5.14,1,.27,1.51.36a3.2,3.2,0,0,0,1.27,0,.18.18,0,0,0,.07,0,.14.14,0,0,0,.09-.16,8.51,8.51,0,0,0-1.72-3c-.51-.52-1.1-1-1.64-1.46l-.28-.24a16.79,16.79,0,0,0,3.18-.28,5.18,5.18,0,0,0,1.64-.44C160,26.61,160,26.25,159.65,26.08Z"/><path class="cls-12" d="M152.23,24.47a18.62,18.62,0,0,0-4.17-2.92,6.8,6.8,0,0,0-3.44-1,5.41,5.41,0,0,0,1.28-.89.15.15,0,0,0-.06-.24,10.9,10.9,0,0,0-2.27-.47c-.9-.14-1.8-.27-2.7-.36a16.36,16.36,0,0,0-3.13,0c.82-.36,1.61-.78,2.39-1.21a26.6,26.6,0,0,0,3.3-2.14.16.16,0,0,0-.06-.28c-4.34-.9-8.93-1.46-13.3-.52.61-.32,1.19-.73,1.79-1a10.53,10.53,0,0,0,2.48-1.63c.09-.09,0-.21-.11-.22-.53,0-1-.07-1.58-.07a5.17,5.17,0,0,0-1,.13c.86-.34,1.7-.71,2.56-1.05.63-.25,1.27-.5,1.88-.8a12.9,12.9,0,0,0,1.18-.73A15.68,15.68,0,0,0,135,8.7a47.42,47.42,0,0,0-16.87,1.73,16.28,16.28,0,0,0-8.34,6.77.09.09,0,0,1-.16-.07,15.31,15.31,0,0,1,2.85-5.34l-.07.05c.2-.43.41-.86.59-1.29,0-.08.07-.17.11-.25a28.18,28.18,0,0,0-10.37,6.08A16.09,16.09,0,0,0,98,24.72c-.57,3.23-.83,6.51-1.31,9.75-.57,3.86-1.62,8-4.76,10.6a8.54,8.54,0,0,1-6.55,2.07,20.66,20.66,0,0,1-5-1.4A11.06,11.06,0,0,1,76,45.49c-4.75-1.12-8-4.68-11.28-8-2.17-2.24-4.2-1.87-6.51-4-3.25-3-5.9-7.6-7.9-11.6C45.39,12.08,38.94,9.59,26.08,7.24A74.66,74.66,0,0,0,17.73,6.1c-2.23-.18-4.8-.42-6.91.35A13,13,0,0,0,14,8.37a23.75,23.75,0,0,0,2.3.89,13.88,13.88,0,0,0,1.35.41,14.76,14.76,0,0,0-4.23.65.15.15,0,0,0,0,.27,9.17,9.17,0,0,0,2.64,1,8.36,8.36,0,0,0-4.4,1.94.13.13,0,0,0,0,.19,9.53,9.53,0,0,0,2.11,2,22.92,22.92,0,0,0,2.84,1.55A19.68,19.68,0,0,0,21,19a10.21,10.21,0,0,0-1.42.43.14.14,0,0,0,0,.24,5.54,5.54,0,0,0,2.22,1.36l-.27,0a3.24,3.24,0,0,0-1,.11c-.72.14-1.45.3-2.15.51a14.28,14.28,0,0,0-4.07,2,.14.14,0,0,0,0,.23,17.9,17.9,0,0,0,3.66,2.94,9.84,9.84,0,0,0,3.85,1.24,6.13,6.13,0,0,0-.86.11,5.37,5.37,0,0,0-1.55.58.12.12,0,0,0,0,.19,6.14,6.14,0,0,0,2.4,1.29c-.44,0-.89-.05-1.34,0a8,8,0,0,0-1.68.39,8.33,8.33,0,0,0-2.59,1.13.13.13,0,0,0,0,.18,12.86,12.86,0,0,0,3.83,3.66A11.42,11.42,0,0,0,23.14,37a8.92,8.92,0,0,0-2.12.33.12.12,0,0,0-.06.19,5,5,0,0,0,2.61,1.81,7.94,7.94,0,0,0,1.5.41A8.25,8.25,0,0,0,20,42.47a.13.13,0,0,0,.05.2,13.79,13.79,0,0,0,2,.59,11.42,11.42,0,0,0,2.47.44,15.58,15.58,0,0,0,2.05,0l-.28.09a11.82,11.82,0,0,0-1.49.69,20.1,20.1,0,0,0-3,1.8.13.13,0,0,0,0,.21,15,15,0,0,0,5.38,3.25,14.33,14.33,0,0,0,5,.66,6.56,6.56,0,0,0-1.5,1.11.13.13,0,0,0,0,.22,4,4,0,0,0,1.47.41A7.73,7.73,0,0,0,29,53.87a.12.12,0,0,0,0,.19c1.25,1.21,3.1,1.58,4.73,2a11.7,11.7,0,0,0,3.85.31,4.33,4.33,0,0,0-2,1.77.11.11,0,0,0,.06.16,5.73,5.73,0,0,0,3.13.49A5.83,5.83,0,0,0,36.66,61a.13.13,0,0,0,.1.19,5.85,5.85,0,0,1,1.21.32,5.24,5.24,0,0,0,1.19.15,13.75,13.75,0,0,0,2.72-.14,9.29,9.29,0,0,0,2.95-1,3.78,3.78,0,0,0-1.06,1.92.13.13,0,0,0,.11.15,8,8,0,0,0,5.49-.86,5.61,5.61,0,0,0-.94,2.18.13.13,0,0,0,.17.15,9.55,9.55,0,0,0,2.51-1.16,7.72,7.72,0,0,0,.32,4.18.13.13,0,0,0,.21.06,11,11,0,0,0,3.42-2.28,4.94,4.94,0,0,0,.83-1.4v.06a11.67,11.67,0,0,0,.36,1.32.12.12,0,0,0,.19.1,8.18,8.18,0,0,0,2.71-5.67s0,0,0,.07a7.28,7.28,0,0,0,.35,1.73,7.38,7.38,0,0,1,1.38-2.38,12.56,12.56,0,0,1,4.62-3.15,30.6,30.6,0,0,1,5.76-1.82,24.3,24.3,0,0,1,7.79-.51c1,.12,2.1.32,3.15.49a6.83,6.83,0,0,1,2.65.82,3,3,0,0,0,0-.42,5.69,5.69,0,0,1-.52-2c0-.11.14-.12.17,0a10.47,10.47,0,0,1,.53,2A4.59,4.59,0,0,0,87,56.18c.23-.89.26-1.81.51-2.69a.1.1,0,0,1,.17,0,3.1,3.1,0,0,0,1.49,1.91,7,7,0,0,0,.32-2.58.1.1,0,0,1,.16-.07,4.43,4.43,0,0,0,2.09,1.48,7.1,7.1,0,0,0-.26-1.66c0-.1.12-.17.16-.07.66,1.53,2.46,1.51,3.89,1.67a6.86,6.86,0,0,1,1.42.3,5.55,5.55,0,0,0-1-.59,3,3,0,0,1,.73-.27c1.07-.23,2.27.49,3.14,1.06a4.53,4.53,0,0,1,1.94,2.49,3.42,3.42,0,0,1,0,1.56,0,0,0,0,0,0,0,19.1,19.1,0,0,0-.41,2.9,10.11,10.11,0,0,0,0,1.65,11.93,11.93,0,0,0,1.79,4.46.14.14,0,0,0,.23,0c.22-.48.48-1,.71-1.51a4.58,4.58,0,0,0,.32,1.56,18.11,18.11,0,0,0,1.67,2.94.14.14,0,0,0,.24,0c.54-1.21,1.6-2.16,2.07-3.39a6.59,6.59,0,0,0,.25,1.44,11.3,11.3,0,0,0,1.45,3,.15.15,0,0,0,.19,0,6.71,6.71,0,0,0,1.24-1.2,10.14,10.14,0,0,0,1.43-1.7,11.61,11.61,0,0,0,.83-1.5,6.24,6.24,0,0,0,2.85,3.74.14.14,0,0,0,.17,0c1.25-1.41,2.61-2.86,2.91-4.73a7.84,7.84,0,0,0,.35.89,4.15,4.15,0,0,0,1.53,1.9.14.14,0,0,0,.18-.07c.64-1,1.51-1.9,2.15-2.94a5.78,5.78,0,0,0,.82-2.28,6.43,6.43,0,0,0,1.27,2.58.12.12,0,0,0,.2,0,9.44,9.44,0,0,0,3-5.54,5.89,5.89,0,0,0,3.61,3.65.14.14,0,0,0,.19-.1,12.84,12.84,0,0,0-.22-7c.51.42,1.08.78,1.57,1.22a.14.14,0,0,0,.23-.12,10.78,10.78,0,0,0-.85-4.37,3.45,3.45,0,0,0,1.47.84,5.47,5.47,0,0,0,2.41.21.14.14,0,0,0,.13-.15,14.76,14.76,0,0,0-1.1-3.55,10.68,10.68,0,0,0-.94-1.92l.38.32a4.87,4.87,0,0,0,1.88.82,21.29,21.29,0,0,0,4.79.2.15.15,0,0,0,.12-.19c-.61-1.34-.95-3-1.82-4.25a7.43,7.43,0,0,0,3.9.33.14.14,0,0,0,.1-.21c-.47-.71-.9-1.45-1.43-2.13a10.3,10.3,0,0,0-1.35-1.29,14.33,14.33,0,0,0,3,.11,19,19,0,0,0,3.19-1,.13.13,0,0,0,.06-.2,26.89,26.89,0,0,0-2.78-3.43,3.9,3.9,0,0,0-1.36-.78c.81-.09,1.62-.47,2.42-.55a.12.12,0,0,0,.07-.21,6.31,6.31,0,0,0-3-1.65,32.93,32.93,0,0,0,3.56-.43,17.85,17.85,0,0,0,3.9-1.65.12.12,0,0,0,0-.17c-.85-1-1.36-2.28-2.42-3.12a6.19,6.19,0,0,0-2.63-1.24,8.57,8.57,0,0,0,2.74-.51.12.12,0,0,0,0-.2,7.88,7.88,0,0,0-4.06-2.1l.88-.13c.68-.09,1.35-.21,2-.32,1.4-.23,2.76-.68,4.16-.86A.15.15,0,0,0,152.23,24.47Z"/><path class="cls-13" d="M159.65,26.08c-.65-.54-1.18-1.21-1.82-1.76a18.54,18.54,0,0,0-2.22-1.62,10.48,10.48,0,0,0-2.1-1,11.66,11.66,0,0,0,1.77-.08,8,8,0,0,0,2.8-.45.13.13,0,0,0,.07-.16.16.16,0,0,0,0-.16A11.14,11.14,0,0,0,156.2,19a11.42,11.42,0,0,0-2.28-1.17,12.6,12.6,0,0,0-3.27-.79,13.73,13.73,0,0,0,2.17-.89c.94-.48,2.29-1.19,2.55-2.31a.1.1,0,0,0,0-.1.11.11,0,0,0-.05-.12,10.82,10.82,0,0,0-3.73-1.25c-1.49-.34-3-.63-4.53-.83a23.58,23.58,0,0,0-6.5-.09l.29-.14a21.77,21.77,0,0,0,2.33-1.36,8.66,8.66,0,0,0,2-1.58l0,0a18.66,18.66,0,0,1-9.28,2.63c-.09,0-.13-.13,0-.17a19.55,19.55,0,0,0,3-1.83,17.5,17.5,0,0,0-5.41-1.75,30.76,30.76,0,0,0-3.94-.4l-.66.06c-5,.46-10.12,1.34-14.54,3.78a19.86,19.86,0,0,0-1.91,1.21c.2-.43.41-.86.59-1.29a2.14,2.14,0,0,0,.26-1.28c.12-.11,0-.33-.21-.23l-.09.05a3.12,3.12,0,0,1-.22.8c-.19.49-.42.95-.64,1.43-.46,1-.9,2.06-1.32,3.11a.39.39,0,0,1,.08-.1,13.62,13.62,0,0,1,2.29-2.2A18.57,18.57,0,0,1,119.88,9,29.38,29.38,0,0,1,135,8.6a.09.09,0,0,1,0,.15c-2.45,2.08-5.61,2.81-8.6,3.79a33.3,33.3,0,0,1,5.71-.58.09.09,0,0,1,.07.15A13.91,13.91,0,0,1,127.3,15c.67-.08,1.36-.13,2-.16,1.54-.07,3.09-.22,4.63-.19.76,0,1.52.07,2.28.06.58,0,1.16,0,1.75,0a6.45,6.45,0,0,1,3.09.63.08.08,0,0,1,0,.14c-2.82,2.25-6.31,3.25-9.72,4.25a42.91,42.91,0,0,1,5.77-.49c2,0,4.18-.28,6.13.3a.09.09,0,0,1,0,.15A5.27,5.27,0,0,1,140.86,21c-.52.16-1,.29-1.57.41a7.92,7.92,0,0,1,.85-.05,19.88,19.88,0,0,1,3.45.12,25,25,0,0,1,6.4,2.11c.07,0,0,.15,0,.17a28.72,28.72,0,0,1-2.93.43,25.75,25.75,0,0,0-3,.65c-1.77.44-3.58.63-5.38.92,2.54.31,5.16.23,7.51,1.38a.08.08,0,0,1,0,.15A11.86,11.86,0,0,1,142,28.32a9.52,9.52,0,0,1,2.15.53,14.84,14.84,0,0,1,5.06,3.27.09.09,0,0,1,0,.13c-1.26,1.07-3.18,1.08-4.75,1.22a14,14,0,0,1-4.19-.29,17.48,17.48,0,0,0,4.72,3.43.1.1,0,0,1,0,.16,6.26,6.26,0,0,1-3.3.51,10.48,10.48,0,0,1,4.7,3.37c0,.06,0,.13,0,.15-3.08,1.07-6.56.44-9.51-.89,2.19,1.44,4.56,2.74,5.9,5.09a.1.1,0,0,1,0,.12c-1,.73-2.62.52-3.77.39l-.33,0a7.54,7.54,0,0,1,.58.55,9.89,9.89,0,0,1,1.63,2.28.1.1,0,0,1,0,.14,6.7,6.7,0,0,1-5.05-1A15.82,15.82,0,0,1,132.45,45a15.67,15.67,0,0,1,2.56,7s0,.09-.09.08c-2.79-.09-4.49-2.37-6-4.43a1.55,1.55,0,0,1-1.19.13c.89,1.35,1.82,2.64,1.57,4.36a.08.08,0,0,1-.13.05,11.14,11.14,0,0,1-2.22-1.57c.5,2.46,1.49,5.57-.31,7.69a.09.09,0,0,1-.11,0,6.58,6.58,0,0,1-3.64-4.92,8.14,8.14,0,0,1-1.48,3.41.09.09,0,0,1-.11,0,5,5,0,0,1-1.85-3,9,9,0,0,1-2,4.23s-.11,0-.14,0c-1.09-1.44-2.05-3.55-1.45-5.37a.15.15,0,0,1,0-.09l0,0s0,0,0-.06a.11.11,0,0,1,.07-.06,6.15,6.15,0,0,0,1.32-4.4,3.58,3.58,0,0,1-1.32,2.1c-.06,0-.15,0-.13-.1a7.09,7.09,0,0,0-1.12-5.93,5.39,5.39,0,0,1,.09,3.18.1.1,0,0,1-.13.06,3.94,3.94,0,0,1-1.86-2.84,5.31,5.31,0,0,0,.3,3,2.28,2.28,0,0,1,.33,1.32,3.7,3.7,0,0,1-.45,1.24,10.11,10.11,0,0,1-4.33,4.33.09.09,0,0,1-.12,0,2.89,2.89,0,0,1-.06-2,6.72,6.72,0,0,1-2.8,2.46.09.09,0,0,1-.13-.08c-.07-1.52,1-2.89,2.21-3.89a7.2,7.2,0,0,1-2.43.32,21.38,21.38,0,0,1-4-.52.1.1,0,0,1-.07-.09,3.53,3.53,0,0,1,1.29-2.64,10.87,10.87,0,0,1-1.62.21s-.08,0-.09-.09A2.7,2.7,0,0,1,101,47a10.21,10.21,0,0,1-1.41,1.3.09.09,0,0,1-.11,0,2.27,2.27,0,0,1-.65-1.31l-.18.15s-.08-.08-.12,0a7.5,7.5,0,0,1-1.06,1.31c-.71.6-1.64.17-2.38-.11-.1-.05-.23.08-.15.18a3.42,3.42,0,0,1,.93,1.9,8.13,8.13,0,0,1-3.17-.78c-.13,0-.27.1-.18.21a4.28,4.28,0,0,1,1.15,1.72,9.34,9.34,0,0,1-2.87-.32.15.15,0,0,0-.12.26,7.6,7.6,0,0,1,1.24,1,2.64,2.64,0,0,1-1.3-.13c-.14,0-.23.17-.12.26a5.54,5.54,0,0,0,1.37.78,2.71,2.71,0,0,0-1.5,1.12,5.59,5.59,0,0,1,1.92-1l.27.08s0,0,0,0a5.24,5.24,0,0,0-2.28,2.62c.72-.37,1.39-.84,2.1-1.24a.1.1,0,0,1,.14.08c-.08,1.22.45,2.45.22,3.66a10.57,10.57,0,0,1-1.22,2.67,3.12,3.12,0,0,0,1.9-1.76.09.09,0,0,1,.18,0c0,.59.08,1.19.1,1.8a6.65,6.65,0,0,0,.5-3.12c0-.11.14-.12.18,0a22.55,22.55,0,0,1,1.24,3,4.07,4.07,0,0,0,.11-1.47c0-.18-.1-.36-.14-.54a.09.09,0,0,1,.17-.05,2.4,2.4,0,0,1,.15.57,10.25,10.25,0,0,1,.7,3.06,16.2,16.2,0,0,1-.5,4,10.48,10.48,0,0,1-3.64,5.9c-.08.06-.16,0-.12-.13l.36-.71a5.89,5.89,0,0,0-1.41,1.65c0,.08-.19,0-.16-.07s.11-.33.17-.49c-.28.34-.57.66-.86,1a.09.09,0,0,1-.15-.08,2.2,2.2,0,0,0,.1-.55c-.38.73-.91,1.7-1.68,1.89s-1.3-.53-1.72-1.16a1.1,1.1,0,0,0-.07.44c0,.07-.08.11-.14.08s-.33-.2-.48-.31a5.51,5.51,0,0,1,.08.71.1.1,0,0,1-.16.07c-2-1.8-4.72-2.65-7.25-3.45a17.81,17.81,0,0,1-3.1-1.17c1.07.87,2.36,1.76,3,2.39.32.31-.31,0-.48.54s-.78.63-1.17,1a.09.09,0,0,1-.13,0,5.43,5.43,0,0,0-1.82-1.3,4.37,4.37,0,0,1,.34.47A8,8,0,0,1,76,74.85a44.89,44.89,0,0,0-5.4-1.71c-1.43-.31-2.89-.51-4.3-.93l-.29-.1a11.7,11.7,0,0,0,2.41,1c1.21.4,2.44.79,3.64,1.24a4.56,4.56,0,0,1,2.46,1.54,3.94,3.94,0,0,1,.4,1.52A4.52,4.52,0,0,1,75,78.72a5.13,5.13,0,0,0-.34.52h0a1.1,1.1,0,0,0-.14.21s0,.09.08.05c.26-.41.74-.62,1.1-.94l0,0c0,.32.07.64.11,1h0a.43.43,0,0,0,0,.07,0,0,0,0,0,0,0l.07-.06,0,0c.32-.29.66-.56,1-.85l.16-.14c0,.33,0,.65,0,1,0,0,0,0,0,0a.57.57,0,0,0,0-.14s0,0,0,0c.18-.32.34-.65.55-.95a5.9,5.9,0,0,1,.85-.88,12.83,12.83,0,0,1,1.92-1.44A4.28,4.28,0,0,0,82,74.85a4.48,4.48,0,0,0,.29-.68c.35.16.7.31,1,.5a9.68,9.68,0,0,1,1.63,1.23,4.73,4.73,0,0,1,1.17,1.6,17.49,17.49,0,0,1,.6,2.26h0a.81.81,0,0,0,0,.16,0,0,0,0,0,.07,0,1.36,1.36,0,0,1,0-.17,0,0,0,0,0,0,0,4.72,4.72,0,0,1,.58-1l.08-.12c.38.37,1,.64,1.26,1a0,0,0,0,0,.05,0h0s0,0,0,0a2.19,2.19,0,0,1,.07-.68,2,2,0,0,0,.31.22,2.09,2.09,0,0,0,.76.34l.12.12s.06,0,0,0a4,4,0,0,1,.18-2.86c0-.14.12-.28.18-.41a10.87,10.87,0,0,1,2.87-2.34,21.18,21.18,0,0,0,2-1.13A7.19,7.19,0,0,0,96.85,71a14.12,14.12,0,0,0,1.84-4.21l0-.08a12.86,12.86,0,0,0,1.22-5.4,8.11,8.11,0,0,0-.64-3.47l.35.4s0,0,0,0a1,1,0,0,0-.15-.41,7.78,7.78,0,0,0-1.82-2.68A6,6,0,0,0,96,53.86a3,3,0,0,1,.73-.27c1.07-.23,2.27.49,3.14,1.06a4.53,4.53,0,0,1,1.94,2.49c.33,1.12-.22,2.35-.31,3.48a.1.1,0,0,0,.07.11c-.22,1.15-.47,2.29-.66,3.45a20.61,20.61,0,0,0,0,6.32,15.17,15.17,0,0,0,1.95,5.16c.46.81,1,1.6,1.47,2.38A12.11,12.11,0,0,0,106,80.26a.19.19,0,0,0,.12,0l.08,0a3.71,3.71,0,0,0,1-1.33,5.4,5.4,0,0,0,.36-.77,9.91,9.91,0,0,0,.24,2,.15.15,0,0,0,.18.2c.5-.12.9-.72,1.21-1.09a10.86,10.86,0,0,0,1.2-1.75,13.75,13.75,0,0,0,1.11-2.59,9.19,9.19,0,0,0,.21,1.73,6.75,6.75,0,0,0,.71,1.86c.24.42.48.89,1,1a.12.12,0,0,0,.1,0,.23.23,0,0,0,.14,0,13.51,13.51,0,0,0,4.83-4.79l-.09.5a9.3,9.3,0,0,0-.1,2.58l0,.07a.16.16,0,0,0,.16.1c1.66,0,3.15-1.5,4.11-2.73a11.66,11.66,0,0,0,1.64-2.95,7.66,7.66,0,0,0,.4,1.9c0,.14.58,1.2.9,1.2a.17.17,0,0,0,.14,0,5.56,5.56,0,0,0,2.26-2.81,9.54,9.54,0,0,0,.76-2.52,11.66,11.66,0,0,0,.74,1.4,6.16,6.16,0,0,0,1.37,1.42c.36.3.74.77,1.22.83a.15.15,0,0,0,.22,0,8.24,8.24,0,0,0,1.53-1.84,8.85,8.85,0,0,0,1-2.12,7.79,7.79,0,0,0,.39-2.91c.19.22.39.45.6.67a9.63,9.63,0,0,0,1.32,1.15,11.75,11.75,0,0,0,1.38,1,.15.15,0,0,0,.26.09,2.24,2.24,0,0,0,.27-1.3,14.05,14.05,0,0,0-.07-2.15,12.37,12.37,0,0,0-1-3.69c.32.21.66.41,1,.6a10.87,10.87,0,0,0,3.92,1.3l.09,0a.14.14,0,0,0,.15-.15,10.51,10.51,0,0,0-1.91-5.12,9.87,9.87,0,0,0,2,1.21,8.61,8.61,0,0,0,2.23.52,3.66,3.66,0,0,0,1.86,0,.15.15,0,0,0,.09-.17v0A10.15,10.15,0,0,0,145,54.19a10.55,10.55,0,0,0,1.22.59,9.74,9.74,0,0,0,1.82.54,3.35,3.35,0,0,0,1.75,0,.14.14,0,0,0,.07-.2.2.2,0,0,0,0-.13c-.47-.84-.88-1.73-1.4-2.55a6,6,0,0,0-.63-.78,9.14,9.14,0,0,0,1.51.6,6,6,0,0,0,3.36-.12.13.13,0,0,0,.08-.18h0a7,7,0,0,0-.78-2.22,18.2,18.2,0,0,0-1.25-2.19,12.43,12.43,0,0,0-2.32-2.64,8.74,8.74,0,0,0,1.72.3,10.59,10.59,0,0,0,2.18,0c.34,0,.68-.1,1-.14a3,3,0,0,0,.73-.14l.39-.2c-.14-.34-.24-.69-.37-1a5.7,5.7,0,0,0-.47-.92,10.31,10.31,0,0,0-3-3.17.08.08,0,0,0,0,0,7.54,7.54,0,0,0,4.32,1h0c.11,0,.25-.05.19-.18a8,8,0,0,0-1.51-2.6,6.43,6.43,0,0,0-1.44-1.17c1.94.33,4.14.58,5.88-.29l0,0c.1,0,.2-.08.15-.19a16.93,16.93,0,0,0-.77-1.61,9.19,9.19,0,0,0-1.15-1.5,6.45,6.45,0,0,0-1.42-1.1l.53.14c.5.14,1,.27,1.51.36a3.2,3.2,0,0,0,1.27,0,.18.18,0,0,0,.07,0,.14.14,0,0,0,.09-.16,8.51,8.51,0,0,0-1.72-3c-.51-.52-1.1-1-1.64-1.46l-.28-.24a16.79,16.79,0,0,0,3.18-.28,5.18,5.18,0,0,0,1.64-.44C160,26.61,160,26.25,159.65,26.08Z"/><path class="cls-13" d="M102.29,61.21c.44-1.4,1-2.93.47-4.38a6.56,6.56,0,0,0-2.29-3.15.08.08,0,0,1,0-.14,4.54,4.54,0,0,1,1-.72,13,13,0,0,1-1.65.07.09.09,0,0,1-.06-.16,4.82,4.82,0,0,1,1-.78,3.65,3.65,0,0,0-1.7.56c-.07,0-.14,0-.13-.1a10.86,10.86,0,0,0,.59-2.22,6,6,0,0,1-2,2.16c-1.1.64-2.4.78-3.52,1.36a12,12,0,0,0-1,.89A6,6,0,0,1,94.54,54a.09.09,0,0,1,.07.17,2.19,2.19,0,0,0-.89,1.31,3.53,3.53,0,0,1,1.12-.7.09.09,0,0,1,.11.11,4.18,4.18,0,0,0-.27,1.78,6.89,6.89,0,0,1,1-1.47.09.09,0,0,1,.14,0,3.54,3.54,0,0,0,.92,1,5.53,5.53,0,0,1,.9.91,8.05,8.05,0,0,1,.86,2.19,2.69,2.69,0,0,0,0-1.23.09.09,0,0,1,.17-.07,10,10,0,0,1,1.24,4.84,12.71,12.71,0,0,0,.09-1.5,8.11,8.11,0,0,0-.64-3.47l.35.4s0,0,0,0a1,1,0,0,0-.15-.41,7.78,7.78,0,0,0-1.82-2.68A6,6,0,0,0,96,53.86a3,3,0,0,1,.73-.27c1.07-.23,2.27.49,3.14,1.06a4.53,4.53,0,0,1,1.94,2.49c.33,1.12-.22,2.35-.31,3.48a.1.1,0,0,0,.07.11c-.22,1.15-.47,2.29-.66,3.45a19.36,19.36,0,0,0-.2,4.37,17.65,17.65,0,0,1,.33-2.89A42.58,42.58,0,0,1,102.29,61.21Z"/><path class="cls-13" d="M95,72.13c-1.18.88-2.57,1.43-3.69,2.42a5.19,5.19,0,0,0-1.39,1.73,5.94,5.94,0,0,0-.36,2.18.09.09,0,0,1-.15.06,4.78,4.78,0,0,1-.71-.85,8.81,8.81,0,0,0-.13,1.27.09.09,0,0,1-.13.08,2.18,2.18,0,0,1-.91-.87c-.12.3-.23.61-.33.92l.25-.38.08-.12c.38.37,1,.64,1.26,1a0,0,0,0,0,.05,0h0s0,0,0,0a2.19,2.19,0,0,1,.07-.68,2,2,0,0,0,.31.22,2.09,2.09,0,0,0,.76.34l.12.12s.06,0,0,0a4,4,0,0,1,.18-2.86c0-.14.12-.28.18-.41a10.87,10.87,0,0,1,2.87-2.34,21.18,21.18,0,0,0,2-1.13A7.19,7.19,0,0,0,96.85,71a11.53,11.53,0,0,0,1.31-2.57A12,12,0,0,1,95,72.13Z"/><path class="cls-13" d="M85.14,76.09a6.76,6.76,0,0,0-2.85-2.16c-1.1-.48-2.24-.85-3.31-1.38a22.5,22.5,0,0,1-2.08-1.17c.76.58,1.5,1.12,1.95,1.55.09.09.1.13.07.15l1.1.83c.4.31.71.67.55,1.2s-.78.77-1.17,1a6.09,6.09,0,0,0-1.86,1.92c-.05.09-.2,0-.16-.07a2.75,2.75,0,0,0,.11-.41,12.9,12.9,0,0,0-1.31,1.25.09.09,0,0,1-.16-.06V78c-.51.47-1,1-1.5,1.46,0,0,.06.05.08,0,.26-.41.74-.62,1.1-.94l0,0c0,.32.07.64.11,1h0a.43.43,0,0,0,0,.07,0,0,0,0,0,0,0l.07-.06,0,0c.32-.29.66-.56,1-.85l.16-.14c0,.33,0,.65,0,1,0,0,0,0,0,0a.57.57,0,0,0,0-.14s0,0,0,0c.18-.32.34-.65.55-.95a5.9,5.9,0,0,1,.85-.88,12.83,12.83,0,0,1,1.92-1.44A4.28,4.28,0,0,0,82,74.85a4.48,4.48,0,0,0,.29-.68c.35.16.7.31,1,.5a9.68,9.68,0,0,1,1.63,1.23,2.13,2.13,0,0,1,.3.3A.41.41,0,0,0,85.14,76.09Z"/><path class="cls-13" d="M159.65,26.08c-.65-.54-1.18-1.21-1.82-1.76a18.54,18.54,0,0,0-2.22-1.62,10.48,10.48,0,0,0-2.1-1,11.66,11.66,0,0,0,1.77-.08,8,8,0,0,0,2.8-.45.13.13,0,0,0,.07-.16.16.16,0,0,0,0-.16A11.14,11.14,0,0,0,156.2,19a11.42,11.42,0,0,0-2.28-1.17,12.6,12.6,0,0,0-3.27-.79,13.73,13.73,0,0,0,2.17-.89c.94-.48,2.29-1.19,2.55-2.31a.1.1,0,0,0,0-.1.11.11,0,0,0-.05-.12,10.82,10.82,0,0,0-3.73-1.25c-1-.23-2-.44-3.07-.61l.31.09a16,16,0,0,1,2.48,1,9.18,9.18,0,0,0,2.47,1,.09.09,0,0,1,0,.15,19.44,19.44,0,0,1-5.12,3c-1.15.47-2.36.78-3.55,1.16a20.41,20.41,0,0,1,4.28.28A12,12,0,0,1,155.35,21c.08.06,0,.17-.09.15a14.51,14.51,0,0,0-4.51,0c-.56.06-1.12.17-1.67.28a14.62,14.62,0,0,1,3.43.92c2.09.89,3.66,2.46,5.47,3.79a.09.09,0,0,1,0,.16,29.23,29.23,0,0,1-6.47-.36,9.7,9.7,0,0,1,4.64,5.36.09.09,0,0,1-.11.11,30.56,30.56,0,0,0-4.73-1,13.76,13.76,0,0,1,5.25,5,.1.1,0,0,1-.08.14c-1.2,0-2.4.19-3.61.12s-2.12-.36-3.19-.51c1.33,1.11,3,1.84,3.58,3.58a.08.08,0,0,1-.08.11A17,17,0,0,1,148,38c.41.26.82.51,1.2.8a9,9,0,0,1,1.58,1.57,8.27,8.27,0,0,1,2.15,3.91.09.09,0,0,1-.06.11,11,11,0,0,1-7-.84c2.27,2,4.36,4.53,5,7.46a.09.09,0,0,1-.11.11,13,13,0,0,1-4-1.29A15.17,15.17,0,0,0,143.29,48a17.63,17.63,0,0,1,4,5.71c0,.07,0,.13-.11.11-2.12-.64-4.14-1.62-6.26-2.23A12.6,12.6,0,0,1,143,54.06a9.81,9.81,0,0,1,1.74,4.39c0,.06-.06.09-.11.08-2.46-.41-4.36-2-6.49-3.2a22.54,22.54,0,0,1,2.39,4c.44,1.07,1.2,2.27,1,3.48a.09.09,0,0,1-.11.06c-2.49-.5-4.15-2.68-5.69-4.57a25.38,25.38,0,0,1,1.45,4.05,7.42,7.42,0,0,1,0,4.68.1.1,0,0,1-.13,0,6.24,6.24,0,0,1-2.81-3.46,11.85,11.85,0,0,1-3.57,7.83.08.08,0,0,1-.12,0,8.82,8.82,0,0,1-2.18-5.59,15.13,15.13,0,0,1-.83,3,12,12,0,0,1-2.22,3.91.09.09,0,0,1-.14,0c-1-1.58-.45-3.68-.33-5.49-1.21,2.93-2.64,6.11-5.43,7.81a.1.1,0,0,1-.14,0c-.45-2,.13-3.93.43-5.87-.64.92-1.13,2-1.7,2.92a13.31,13.31,0,0,1-2.57,3.47,1.92,1.92,0,0,1-1.23.58,1.65,1.65,0,0,1-1.26-.86c-.81-1.31-.62-2.95-.73-4.43-.49.85-.77,1.81-1.32,2.63s-1.39,1.81-2.09,2.72c-.05.06-.14.06-.16,0a17.18,17.18,0,0,1-.4-4.69c-.39,1-.65,2-1,3a8.86,8.86,0,0,1-.6,1.34,2.27,2.27,0,0,1-.76.92c-.59.3-1.23-.87-1.51-1.2a15.75,15.75,0,0,1-1.85-2.58,15.45,15.45,0,0,1-1.76-6.09c0-.19,0-.38,0-.57a21.26,21.26,0,0,0,.22,4.22,15.17,15.17,0,0,0,1.95,5.16c.46.81,1,1.6,1.47,2.38A12.11,12.11,0,0,0,106,80.26a.19.19,0,0,0,.12,0l.08,0a3.71,3.71,0,0,0,1-1.33,5.4,5.4,0,0,0,.36-.77,9.91,9.91,0,0,0,.24,2,.15.15,0,0,0,.18.2c.5-.12.9-.72,1.21-1.09a10.86,10.86,0,0,0,1.2-1.75,13.75,13.75,0,0,0,1.11-2.59,9.19,9.19,0,0,0,.21,1.73,6.75,6.75,0,0,0,.71,1.86c.24.42.48.89,1,1a.12.12,0,0,0,.1,0,.23.23,0,0,0,.14,0,13.51,13.51,0,0,0,4.83-4.79l-.09.5a9.3,9.3,0,0,0-.1,2.58l0,.07a.16.16,0,0,0,.16.1c1.66,0,3.15-1.5,4.11-2.73a11.66,11.66,0,0,0,1.64-2.95,7.66,7.66,0,0,0,.4,1.9c0,.14.58,1.2.9,1.2a.17.17,0,0,0,.14,0,5.56,5.56,0,0,0,2.26-2.81,9.54,9.54,0,0,0,.76-2.52,11.66,11.66,0,0,0,.74,1.4,6.16,6.16,0,0,0,1.37,1.42c.36.3.74.77,1.22.83a.15.15,0,0,0,.22,0,8.24,8.24,0,0,0,1.53-1.84,8.85,8.85,0,0,0,1-2.12,7.79,7.79,0,0,0,.39-2.91c.19.22.39.45.6.67a9.63,9.63,0,0,0,1.32,1.15,11.75,11.75,0,0,0,1.38,1,.15.15,0,0,0,.26.09,2.24,2.24,0,0,0,.27-1.3,14.05,14.05,0,0,0-.07-2.15,12.37,12.37,0,0,0-1-3.69c.32.21.66.41,1,.6a10.87,10.87,0,0,0,3.92,1.3l.09,0a.14.14,0,0,0,.15-.15,10.51,10.51,0,0,0-1.91-5.12,9.87,9.87,0,0,0,2,1.21,8.61,8.61,0,0,0,2.23.52,3.66,3.66,0,0,0,1.86,0,.15.15,0,0,0,.09-.17v0A10.15,10.15,0,0,0,145,54.19a10.55,10.55,0,0,0,1.22.59,9.74,9.74,0,0,0,1.82.54,3.35,3.35,0,0,0,1.75,0,.14.14,0,0,0,.07-.2.2.2,0,0,0,0-.13c-.47-.84-.88-1.73-1.4-2.55a6,6,0,0,0-.63-.78,9.14,9.14,0,0,0,1.51.6,6,6,0,0,0,3.36-.12.13.13,0,0,0,.08-.18h0a7,7,0,0,0-.78-2.22,18.2,18.2,0,0,0-1.25-2.19,12.43,12.43,0,0,0-2.32-2.64,8.74,8.74,0,0,0,1.72.3,10.59,10.59,0,0,0,2.18,0c.34,0,.68-.1,1-.14a3,3,0,0,0,.73-.14l.39-.2c-.14-.34-.24-.69-.37-1a5.7,5.7,0,0,0-.47-.92,10.31,10.31,0,0,0-3-3.17.08.08,0,0,0,0,0,7.54,7.54,0,0,0,4.32,1h0c.11,0,.25-.05.19-.18a8,8,0,0,0-1.51-2.6,6.43,6.43,0,0,0-1.44-1.17c1.94.33,4.14.58,5.88-.29l0,0c.1,0,.2-.08.15-.19a16.93,16.93,0,0,0-.77-1.61,9.19,9.19,0,0,0-1.15-1.5,6.45,6.45,0,0,0-1.42-1.1l.53.14c.5.14,1,.27,1.51.36a3.2,3.2,0,0,0,1.27,0,.18.18,0,0,0,.07,0,.14.14,0,0,0,.09-.16,8.51,8.51,0,0,0-1.72-3c-.51-.52-1.1-1-1.64-1.46l-.28-.24a16.79,16.79,0,0,0,3.18-.28,5.18,5.18,0,0,0,1.64-.44C160,26.61,160,26.25,159.65,26.08Z"/><path class="cls-13" d="M73.44,37.91c.13-.19.28-.39.42-.57-2.06-1-4.14-1.89-6.16-2.92-.88.93-1.71,1.9-2.56,2.87-.79.29-1.6.55-2.35.87a26.89,26.89,0,0,0-5.61,3A11.58,11.58,0,0,0,55,43.25a23.59,23.59,0,0,0-1.76,2.84,16.75,16.75,0,0,1-4.29,5.31,15.62,15.62,0,0,1,1-4.35c.05-.14-.18-.21-.24-.08a5.71,5.71,0,0,1-2.14,2.25,21,21,0,0,0,1.67-3.52c0-.15-.18-.2-.25-.08a6.63,6.63,0,0,1-2.52,2.14c-.43.26-1.08.68-1.74,1l-.37.09A8.2,8.2,0,0,1,45.51,46a7.06,7.06,0,0,1,2.8-2.12s0-.09,0-.08a3.37,3.37,0,0,0-.55.12s0,0,0,0a11.84,11.84,0,0,0-1.92.68,5,5,0,0,0-1.64,1.55,15.5,15.5,0,0,0-1.95,4.49.13.13,0,0,0,.11.18c-.07.19-.15.37-.23.54a.13.13,0,0,0,.15.17,12.75,12.75,0,0,0,3.15-1.33,5.54,5.54,0,0,1-3.79,2.33,2.9,2.9,0,0,1,.26-1.07c0-.08-.06-.2-.15-.16a22,22,0,0,1-4,1.59,12.09,12.09,0,0,1-4.07,0,9.43,9.43,0,0,1,2.94-1.85,7.91,7.91,0,0,1-2.66-.39.09.09,0,0,1,0-.17c.73-.36,1.33-.94,2.07-1.29.28-.13.57-.24.85-.34a30.58,30.58,0,0,1-5.58-.3c-2.37-.32-5-.89-6.82-2.57-.05,0,0-.1,0-.14,2.07-1.59,4.7-2.22,6.85-3.67a16.11,16.11,0,0,1-3.56.52,11.14,11.14,0,0,1-5.86-1.06.1.1,0,0,1,0-.15,6.83,6.83,0,0,1,3.69-1.27A38.21,38.21,0,0,0,30,39.57,10.71,10.71,0,0,1,23.63,38a.1.1,0,0,1,0-.14A13,13,0,0,1,26.82,36a9.91,9.91,0,0,1,2.57-.77A17.79,17.79,0,0,1,25,34.66a20.07,20.07,0,0,1-3.6-1.37,13.45,13.45,0,0,1-3.16-1.93.09.09,0,0,1,0-.15c1.92-.46,3.86-.71,5.79-1.07,1-.19,2.06-.39,3.1-.52-.57,0-1.15,0-1.72,0a7.61,7.61,0,0,1-2.33.1,4.78,4.78,0,0,1-1.81-.92.09.09,0,0,1,0-.15,16.28,16.28,0,0,1,3.18-.55c1-.1,1.94,0,2.89-.06A46,46,0,0,1,22.63,27a23.45,23.45,0,0,1-3.94-1.57,15.22,15.22,0,0,1-1.86-1.11,6.19,6.19,0,0,0-1.15-.76.08.08,0,0,1-.06-.1c-.06,0-.09-.1,0-.14a9.93,9.93,0,0,1,4.59-1.76,26.31,26.31,0,0,1,5.47-.15l-.2-.08A25.4,25.4,0,0,1,22.73,20a.09.09,0,0,1,0-.15,9.73,9.73,0,0,1,4.05-1.32,32,32,0,0,1-7.51-2.12c-2-.81-4.22-1.7-5.62-3.37a.08.08,0,0,1,0-.14,27.88,27.88,0,0,1,7-1.13c-.75-.07-1.5-.15-2.25-.28S16.83,11.15,16,11a5.78,5.78,0,0,1-1.87-.56.09.09,0,0,1,0-.16c3.41-.68,6.9-.29,10.33-.66-1.18-.23-2.39-.27-3.59-.39a17.41,17.41,0,0,1-3.7-.78c-1.12-.36-2.22-.81-3.3-1.28A11.54,11.54,0,0,1,11,5.53s0-.11,0-.14a4.35,4.35,0,0,1,1.8-.5c1-.1,2-.17,3-.3s1.92-.21,2.88-.29h-.38a49.34,49.34,0,0,1-5.29-.15A23.85,23.85,0,0,0,8,5,2.59,2.59,0,0,0,9.16,6.38a.09.09,0,0,1-.07.17A18,18,0,0,1,3.24,4.32a5.55,5.55,0,0,1-2-2.21A5.58,5.58,0,0,1,.79.39C.51,1,1,2.17,1.19,2.66A8.46,8.46,0,0,0,2,4.11a5.73,5.73,0,0,0,1.58,1.4A20,20,0,0,0,8.49,7.8c.71.24,1.41.45,2.12.64a15.92,15.92,0,0,0-3.9.2A11.43,11.43,0,0,0,.18,12.13h0l0,.06-.1.11a.06.06,0,0,0,0,.09c0,.39.36.71.67.94a11.37,11.37,0,0,0,2,1.15,9.71,9.71,0,0,0,1.75.58c.58.14,1.15.32,1.73.49l-.59.2a7.34,7.34,0,0,0-3.37,2.07l0,0s-.05,0,0,0a.19.19,0,0,0,0,.07L2.17,18c0,.07,0,.13.1.08l0,0a2.57,2.57,0,0,0,1.13.49,13.72,13.72,0,0,0,2.69.58,12.43,12.43,0,0,0,2.2,0l-1.27.49A13.46,13.46,0,0,0,2,23a.07.07,0,0,0,.05.1c-.6,1.14,3.92,2.43,4.42,2.58,1,.28,2,.54,3,.72l.46.07-.47.11c-1.85.48-4,1.34-5,3a.09.09,0,0,0,0,.07c-.24.87,2.53,1.68,3,1.82.68.22,1.36.41,2.05.56a5.7,5.7,0,0,0,1,.13A6.76,6.76,0,0,0,8.3,33.72s0,0-.07,0-.14.07-.15.18,0,.08.05.1a5.91,5.91,0,0,0,1.54.64,8.29,8.29,0,0,0,1.22.14,11.54,11.54,0,0,0-1.16.6A5.21,5.21,0,0,0,7.1,38.28s.05,0,.06,0l0-.07A7.59,7.59,0,0,0,9.84,40a22.06,22.06,0,0,0,3.75,1.58,15.49,15.49,0,0,0,2.83.66,8.13,8.13,0,0,0-4.21,2.45.07.07,0,0,0-.09.1l0,0a.05.05,0,0,0,.07.07l0,0a3.75,3.75,0,0,0,1.73.52,18.94,18.94,0,0,0,2.49.17l.9,0a8,8,0,0,0-3.07,2.44v0l-.06.08a0,0,0,0,0,0,.06c0,.23.28.48.57.66a5.79,5.79,0,0,0,.9.57c1,.53,1.93,1,2.93,1.5a11.62,11.62,0,0,0,3.59,1.07,4.74,4.74,0,0,0-1.52.77c-.08,0-.13.09-.07.15a6,6,0,0,0,3.82,1.26h.32A5,5,0,0,0,22.63,56a.1.1,0,0,0-.06.12v0A2.47,2.47,0,0,0,24,57.25c.4.15.79.34,1.2.46A9.32,9.32,0,0,0,26.7,58c.48.07,1,.07,1.45.14a5.61,5.61,0,0,0,1.23.07,5.06,5.06,0,0,0-1.74,1.54h0c-.27.19,0,.46.22.57a4.88,4.88,0,0,0,1.71.54,7.5,7.5,0,0,0,2.63,0,4.11,4.11,0,0,0-.45.38,4.65,4.65,0,0,0-1.17,1.5h0c-.49.78,2.18,1.09,2.43,1.11a16.37,16.37,0,0,0,2.71.08,10.78,10.78,0,0,0,1.46-.23,4.22,4.22,0,0,0-.46.38,2.86,2.86,0,0,0-.89,1.12s0,0,0,0a.25.25,0,0,0,0,.12h0a.43.43,0,0,0,.27.33,9.39,9.39,0,0,0,1.4.66,6.44,6.44,0,0,0,1.63.25,9.66,9.66,0,0,0,1.7,0,17.07,17.07,0,0,0,3.66-.72,3.91,3.91,0,0,0-1.06,1.86.05.05,0,0,0,0,0,.14.14,0,0,0,0,.06h0c.22.45,2-.18,2.34-.26a17.46,17.46,0,0,0,2.71-1l.79-.35a7.18,7.18,0,0,0-.73,1.32,9.17,9.17,0,0,0-.55,1.6,2.08,2.08,0,0,0,0,1.28s0,0,.08,0c.31.31,2.44-.12,2.73-.17A11.12,11.12,0,0,0,54.29,69a3.74,3.74,0,0,0,.35,3,.08.08,0,0,0,.12,0A3.88,3.88,0,0,0,57,71.22a4.14,4.14,0,0,0,1.33-1.37A5,5,0,0,0,59.29,68a13.92,13.92,0,0,0,.38-2.73,19.94,19.94,0,0,0,.21-2.57l.06-.45c0-.06,0-.13,0-.19.15.43.31.86.46,1.28a14.21,14.21,0,0,1,.47-4.68C62.26,54,66,51,70.28,49a7.28,7.28,0,0,1-.42-4.54C70.41,42,72,39.92,73.44,37.91Z"/><path class="cls-13" d="M61.37,57.35c-.19.18-.39.37-.57.57a14.1,14.1,0,0,0-2.07,3.3,25.67,25.67,0,0,1-2.34,3.34.1.1,0,0,1-.17,0A7.25,7.25,0,0,1,56,62.36a6.91,6.91,0,0,0-.11,3.29,9.53,9.53,0,0,0,2.27-1.74.09.09,0,0,1,.15.09,10.75,10.75,0,0,1-2.67,4.55.09.09,0,0,1-.14,0,5.23,5.23,0,0,1-.21-2.8,8.22,8.22,0,0,1-5.84,2.78.06.06,0,0,1-.06,0,.09.09,0,0,1-.15,0c-.37-1.57.86-2.83,1.17-4.3a14.63,14.63,0,0,1-2.27,1.3c-1,.35-2,.6-3,1a.09.09,0,0,1-.12-.11A10,10,0,0,1,47.61,63c-3.19.86-6.42,1.69-9.75,1.3-.08,0-.13-.11,0-.16a4.59,4.59,0,0,0,1.88-1.85,22.34,22.34,0,0,1-4.08.36c-.89,0-2.67,0-3.17-.94a.09.09,0,0,1-.11-.14l0,0a.08.08,0,0,1,.08-.09c.92-1.13,1.83-2.26,2.63-3.47a10.75,10.75,0,0,1-5.83,1.17.08.08,0,0,1,0-.13c.76-1.4,2.34-1.72,3.63-2.46-1.44-.08-2.87.1-4.3-.09a20.12,20.12,0,0,1-4.33-1,.1.1,0,0,1,0-.15c1.32-1.5,3.57-1.56,5-2.9-2.15.51-4.83,1.13-6.8-.09a.09.09,0,0,1,0-.16c2.27-.63,4.67-.82,6.84-1.76-4.62-.15-9.25-.84-13.29-3.24a.09.09,0,0,1,0-.16,20.09,20.09,0,0,1,3.68-2.12,15.66,15.66,0,0,1,2.92-.9,27,27,0,0,1-7.18-.36.09.09,0,0,1,0-.15C16.71,42,18.83,41.82,20.62,41a25.92,25.92,0,0,1-5.32-1.1c-2.11-.65-4.44-1.52-5.93-3.24a.09.09,0,0,1,0-.12c1.53-1.71,3.74-2.46,5.89-3.08-.81.11-1.61.3-2.43.39a3.76,3.76,0,0,1-2.68-.37.09.09,0,0,1,0-.13c1.59-1.65,3.95-1.64,6-2.48a23,23,0,0,0-3.42-.15c-.89,0-1.76-.11-2.64-.2a10.89,10.89,0,0,1-2.27-.39,2.54,2.54,0,0,1-1.48-.94.09.09,0,0,1,0-.11c2.63-2.29,6.25-2.3,9.53-2.8a30,30,0,0,0-3.44-1.12c-1-.27-1.91-.56-2.88-.79C8,24,6.09,23.75,4.92,22.63a.11.11,0,0,1,0-.13,7.33,7.33,0,0,1,2.5-1.88,21,21,0,0,1,3.13-1.32,36.61,36.61,0,0,1,7.15-1.05c-2.3-.79-4.8-.46-7.19-.5-1.95,0-4.22.42-6-.45a.1.1,0,0,1,0-.15c1.89-1.6,4.41-1.7,6.73-2.23-2.91-1.08-6-1.66-8.63-3.45a.1.1,0,0,1,0-.13,4.12,4.12,0,0,1,2-1.44,15.54,15.54,0,0,1,3.07-.78,28.81,28.81,0,0,1,6.75-.4C13,8.21,11.59,7.85,10.2,7.46A25.45,25.45,0,0,1,5.86,5.83C4,4.91,2.09,4,1,2.22l.18.44A8.46,8.46,0,0,0,2,4.11a5.73,5.73,0,0,0,1.58,1.4A20,20,0,0,0,8.49,7.8c.71.24,1.41.45,2.12.64a15.92,15.92,0,0,0-3.9.2A11.43,11.43,0,0,0,.18,12.13h0l0,.06-.1.11a.06.06,0,0,0,0,.09c0,.39.36.71.67.94a11.37,11.37,0,0,0,2,1.15,9.71,9.71,0,0,0,1.75.58c.58.14,1.15.32,1.73.49l-.59.2a7.34,7.34,0,0,0-3.37,2.07l0,0s-.05,0,0,0a.19.19,0,0,0,0,.07L2.17,18c0,.07,0,.13.1.08l0,0a2.57,2.57,0,0,0,1.13.49,13.72,13.72,0,0,0,2.69.58,12.43,12.43,0,0,0,2.2,0l-1.27.49A13.46,13.46,0,0,0,2,23a.07.07,0,0,0,.05.1c-.6,1.14,3.92,2.43,4.42,2.58,1,.28,2,.54,3,.72l.46.07-.47.11c-1.85.48-4,1.34-5,3a.09.09,0,0,0,0,.07c-.24.87,2.53,1.68,3,1.82.68.22,1.36.41,2.05.56a5.7,5.7,0,0,0,1,.13A6.76,6.76,0,0,0,8.3,33.72s0,0-.07,0-.14.07-.15.18,0,.08.05.1a5.91,5.91,0,0,0,1.54.64,8.29,8.29,0,0,0,1.22.14,11.54,11.54,0,0,0-1.16.6A5.21,5.21,0,0,0,7.1,38.28s.05,0,.06,0l0-.07A7.59,7.59,0,0,0,9.84,40a22.06,22.06,0,0,0,3.75,1.58,15.49,15.49,0,0,0,2.83.66,8.13,8.13,0,0,0-4.21,2.45.07.07,0,0,0-.09.1l0,0a.05.05,0,0,0,.07.07l0,0a3.75,3.75,0,0,0,1.73.52,18.94,18.94,0,0,0,2.49.17l.9,0a8,8,0,0,0-3.07,2.44v0l-.06.08a0,0,0,0,0,0,.06c0,.23.28.48.57.66a5.79,5.79,0,0,0,.9.57c1,.53,1.93,1,2.93,1.5a11.62,11.62,0,0,0,3.59,1.07,4.74,4.74,0,0,0-1.52.77c-.08,0-.13.09-.07.15a6,6,0,0,0,3.82,1.26h.32A5,5,0,0,0,22.63,56a.1.1,0,0,0-.06.12v0A2.47,2.47,0,0,0,24,57.25c.4.15.79.34,1.2.46A9.32,9.32,0,0,0,26.7,58c.48.07,1,.07,1.45.14a5.61,5.61,0,0,0,1.23.07,5.06,5.06,0,0,0-1.74,1.54h0c-.27.19,0,.46.22.57a4.88,4.88,0,0,0,1.71.54,7.5,7.5,0,0,0,2.63,0,4.11,4.11,0,0,0-.45.38,4.65,4.65,0,0,0-1.17,1.5h0c-.49.78,2.18,1.09,2.43,1.11a16.37,16.37,0,0,0,2.71.08,10.78,10.78,0,0,0,1.46-.23,4.22,4.22,0,0,0-.46.38,2.86,2.86,0,0,0-.89,1.12s0,0,0,0a.25.25,0,0,0,0,.12h0a.43.43,0,0,0,.27.33,9.39,9.39,0,0,0,1.4.66,6.44,6.44,0,0,0,1.63.25,9.66,9.66,0,0,0,1.7,0,17.07,17.07,0,0,0,3.66-.72,3.91,3.91,0,0,0-1.06,1.86.05.05,0,0,0,0,0,.14.14,0,0,0,0,.06h0c.22.45,2-.18,2.34-.26a17.46,17.46,0,0,0,2.71-1l.79-.35a7.18,7.18,0,0,0-.73,1.32,9.17,9.17,0,0,0-.55,1.6,2.08,2.08,0,0,0,0,1.28s0,0,.08,0c.31.31,2.44-.12,2.73-.17A11.12,11.12,0,0,0,54.29,69a3.74,3.74,0,0,0,.35,3,.08.08,0,0,0,.12,0A3.88,3.88,0,0,0,57,71.22a4.14,4.14,0,0,0,1.33-1.37A5,5,0,0,0,59.29,68a13.92,13.92,0,0,0,.38-2.73,19.94,19.94,0,0,0,.21-2.57l.06-.45c0-.06,0-.13,0-.19.15.43.31.86.46,1.28a14.21,14.21,0,0,1,.47-4.68A13.48,13.48,0,0,1,61.37,57.35Z"/><path class="cls-14" d="M154.88,28.05c-.12,0-.1.18,0,.18S155,28.05,154.88,28.05Z"/><g class="cls-15"><path class="cls-12" d="M47.47,52.2A11.89,11.89,0,0,1,46,53.29a13.7,13.7,0,0,1-4.47,1.89,8.19,8.19,0,0,0-2,.76,6,6,0,0,0-1.47,1.32s0,.08,0,.09a10.28,10.28,0,0,0,5.27-.91A8,8,0,0,0,45.52,55,7.89,7.89,0,0,0,46.9,53.4,3.48,3.48,0,0,0,47.47,52.2Z"/><path class="cls-12" d="M43.68,60A5.24,5.24,0,0,0,46.28,58a10.57,10.57,0,0,0,1.33-2.56l-1,.59a16.18,16.18,0,0,1-4.8,2.42,6.93,6.93,0,0,0-1.23,1.67.11.11,0,0,0,0,.08A8.29,8.29,0,0,0,43.68,60Z"/><path class="cls-12" d="M45.86,60.51a3.6,3.6,0,0,0-.52,1.14s0,.06.06,0h0a4,4,0,0,0,3.79-1.1,5.34,5.34,0,0,0,.7-3.91A6.94,6.94,0,0,1,45.86,60.51Z"/><path class="cls-12" d="M51.48,58.89a0,0,0,0,0-.08,0h0l0,0a3.36,3.36,0,0,1-.67,1.35,3.48,3.48,0,0,0-.63,1,0,0,0,0,0,0,.05,3.89,3.89,0,0,0-.24,1,.09.09,0,0,0,.12.11,2.6,2.6,0,0,0,1.36-1A4.11,4.11,0,0,0,51.48,58.89Z"/><path class="cls-12" d="M54.84,59.22a13,13,0,0,0-.6-1.3,4.54,4.54,0,0,1-.5,1.6,2.24,2.24,0,0,1-.52-.68c.23.44-.42,1.78-.44,2.32,0,1.61.89,3.18,2.06,1.28A3.67,3.67,0,0,0,54.84,59.22Z"/><path class="cls-12" d="M53,53.08a.09.09,0,0,0-.13,0,2,2,0,0,0-.53,1,2.94,2.94,0,0,0,1,3.11.09.09,0,0,0,.14,0C54.06,55.71,53.51,54.42,53,53.08Z"/><path class="cls-12" d="M50.22,52.22a1.32,1.32,0,0,0-.79.58,5.33,5.33,0,0,0-.8,3.22.1.1,0,0,0,.15.07c1.15-1,1.36-2.33,1.54-3.76C50.32,52.28,50.28,52.21,50.22,52.22Z"/></g><path class="cls-5" d="M71.66,41.39a40.69,40.69,0,0,1-7.09-2.6,19.79,19.79,0,0,1-6-4.59,45.4,45.4,0,0,1-4.88-6.11c-4.42-7.07-6-13.62-14.07-17.48s-19-4.57-27.9-5A28.54,28.54,0,0,1,3.85,4.44a7.22,7.22,0,0,1-2.38-1.2,7.53,7.53,0,0,0,.5.87,5.73,5.73,0,0,0,1.58,1.4A20,20,0,0,0,8.49,7.8c.71.24,1.41.45,2.12.64a15.92,15.92,0,0,0-3.9.2A11.43,11.43,0,0,0,.18,12.13h0l0,.06-.1.11a.06.06,0,0,0,0,.09c0,.39.36.71.67.94a11.37,11.37,0,0,0,2,1.15,9.71,9.71,0,0,0,1.75.58c.58.14,1.15.32,1.73.49l-.59.2a7.34,7.34,0,0,0-3.37,2.07l0,0s-.05,0,0,0a.19.19,0,0,0,0,.07L2.17,18c0,.07,0,.13.1.08l0,0a2.57,2.57,0,0,0,1.13.49,13.72,13.72,0,0,0,2.69.58,12.43,12.43,0,0,0,2.2,0l-1.27.49A13.46,13.46,0,0,0,2,23a.07.07,0,0,0,.05.1c-.6,1.14,3.92,2.43,4.42,2.58,1,.28,2,.54,3,.72l.46.07-.47.11c-1.85.48-4,1.34-5,3a.09.09,0,0,0,0,.07c-.24.87,2.53,1.68,3,1.82.68.22,1.36.41,2.05.56a5.7,5.7,0,0,0,1,.13A6.76,6.76,0,0,0,8.3,33.72s0,0-.07,0-.14.07-.15.18,0,.08.05.1a5.91,5.91,0,0,0,1.54.64,8.29,8.29,0,0,0,1.22.14,11.54,11.54,0,0,0-1.16.6A5.21,5.21,0,0,0,7.1,38.28s.05,0,.06,0l0-.07A7.59,7.59,0,0,0,9.84,40a22.06,22.06,0,0,0,3.75,1.58,15.49,15.49,0,0,0,2.83.66,8.13,8.13,0,0,0-4.21,2.45.07.07,0,0,0-.09.1l0,0a.05.05,0,0,0,.07.07l0,0a3.75,3.75,0,0,0,1.73.52,18.94,18.94,0,0,0,2.49.17l.9,0a8,8,0,0,0-3.07,2.44v0l-.06.08a0,0,0,0,0,0,.06c0,.23.28.48.57.66a5.79,5.79,0,0,0,.9.57c1,.53,1.93,1,2.93,1.5a11.62,11.62,0,0,0,3.59,1.07,4.74,4.74,0,0,0-1.52.77c-.08,0-.13.09-.07.15a6,6,0,0,0,3.82,1.26h.32A5,5,0,0,0,22.63,56a.1.1,0,0,0-.06.12v0A2.47,2.47,0,0,0,24,57.25c.4.15.79.34,1.2.46A9.32,9.32,0,0,0,26.7,58c.48.07,1,.07,1.45.14a5.61,5.61,0,0,0,1.23.07,5.06,5.06,0,0,0-1.74,1.54h0c-.27.19,0,.46.22.57a4.88,4.88,0,0,0,1.71.54,7.5,7.5,0,0,0,2.63,0,4.11,4.11,0,0,0-.45.38,4.65,4.65,0,0,0-1.17,1.5h0c-.49.78,2.18,1.09,2.43,1.11a16.37,16.37,0,0,0,2.71.08,10.78,10.78,0,0,0,1.46-.23,4.22,4.22,0,0,0-.46.38,2.86,2.86,0,0,0-.89,1.12s0,0,0,0a.25.25,0,0,0,0,.12.43.43,0,0,0,.27.33,9.39,9.39,0,0,0,1.4.66,6.44,6.44,0,0,0,1.63.25,9.66,9.66,0,0,0,1.7,0,17.07,17.07,0,0,0,3.66-.72,3.91,3.91,0,0,0-1.06,1.86.05.05,0,0,0,0,0,.14.14,0,0,0,0,.06h0c.22.45,2-.18,2.34-.26a17.46,17.46,0,0,0,2.71-1l.79-.35a7.18,7.18,0,0,0-.73,1.32,9.17,9.17,0,0,0-.55,1.6,2.08,2.08,0,0,0,0,1.28s0,0,.08,0c.31.31,2.44-.12,2.73-.17A11.12,11.12,0,0,0,54.29,69a3.74,3.74,0,0,0,.35,3,.08.08,0,0,0,.12,0A3.88,3.88,0,0,0,57,71.22a4.14,4.14,0,0,0,1.33-1.37A5,5,0,0,0,59.29,68a13.92,13.92,0,0,0,.38-2.73,19.94,19.94,0,0,0,.21-2.57l.06-.45c0-.06,0-.13,0-.19l.09.26a9.69,9.69,0,0,1,1.87-4,18.76,18.76,0,0,1,4.82-4.14c1.64-1.06,3.3-2.07,4.91-3.18A38.22,38.22,0,0,0,80,43.56C77.2,42.9,74.42,42.17,71.66,41.39Z"/><path class="cls-12" d="M85,50.46a4.83,4.83,0,0,0-3-1.2,12,12,0,0,0-2.12-.72c-1.16-.29-2.34-.56-3.53-.76a17.6,17.6,0,0,0-7,.18,14.93,14.93,0,0,0-8.68,5.47l-.12.08c-.36.27-.73.51-1.1.76A6.15,6.15,0,0,0,57.74,56,3.22,3.22,0,0,0,58,60a1.59,1.59,0,0,0,.12.27,0,0,0,0,0,0,0,3.15,3.15,0,0,1,.18-1.66,1.87,1.87,0,0,1,.15-.32,4.37,4.37,0,0,0,.6,3.79,5.14,5.14,0,0,0,1.65,1.27c.88.49,1.78,1,2.71,1.39a2,2,0,0,0,.28.16s.07,0,0,0a6.21,6.21,0,0,1-1-1.09,8.72,8.72,0,0,0,2.91,1.8,23.22,23.22,0,0,0,3,1c.56.16,1.14.29,1.7.47s.91.34,1.38.47a.06.06,0,0,0,.06,0,2.33,2.33,0,0,1,.34.88h0s0,.09.07.05c.66-.92,1.83-1.28,2.71-1.93a4,4,0,0,0,1.3-1.54,2.88,2.88,0,0,1-.89,1.47,0,0,0,0,0,0,0l-.23.15a0,0,0,0,0,0,.06,18.77,18.77,0,0,0,4.21-2.26,5.5,5.5,0,0,0,1.51-1.66,3.68,3.68,0,0,1-.26.68l-.08.06s0,0,0,0h.06l0,0a7.09,7.09,0,0,0,1.49-1.19,15.22,15.22,0,0,0,1.49-1.62,4.07,4.07,0,0,0,.76-1.82v.33s0,0,0,0a.31.31,0,0,1-.05.1s0,0,0,0a1.82,1.82,0,0,0,.49-.67c.2-.39.43-.76.63-1.15a5.11,5.11,0,0,0,.58-2.36,3.11,3.11,0,0,0-1-2.28,1.94,1.94,0,0,1,1.55.81h0c0,.06,0,.11,0,.17a0,0,0,0,0,0,0C86.88,52.6,85.85,51.26,85,50.46Z"/><path class="cls-16" d="M85,50.46a4.83,4.83,0,0,0-3-1.2,12,12,0,0,0-2.12-.72c-1.16-.29-2.34-.56-3.53-.76a17.6,17.6,0,0,0-7,.18,14.93,14.93,0,0,0-8.68,5.47l-.12.08c-.36.27-.73.51-1.1.76-.14.1-.28.2-.41.31a1.13,1.13,0,0,0,.54.92c2,1.44,4.32,2.52,4.5,5.23a7.25,7.25,0,0,1,4.69-2.89c-.54.36-1.26.72-1.44,1.45,5.77-2.17,13.7-2.71,16.76-8.84-.18,1.26.18,2.35-.18,3.61l-.54-.54c.17.49-.27,1.13-.21,1.66a.26.26,0,0,1,0,.14l0-.14c-.08-.17-.33-.1-.33-.4-.18.36-.18.9-.72,1.26-.18-.36,0-1.08-.54-1.26-.54,1.62-1.44,4.69-3.24,3.78-.37-.17-.19-1.08-.37-1.8a14.33,14.33,0,0,1-3.6,5.05,7.46,7.46,0,0,0,.54-2.88c-3.43,4.86-10.46,4.68-14.24,0-.18-.37-.18,1.26-.72.54-.73-.72-1.81-2.17-.73-3.43a3.17,3.17,0,0,0-1.62,2.35A2.63,2.63,0,0,1,57.75,56h0A3.22,3.22,0,0,0,58,60a1.59,1.59,0,0,0,.12.27,0,0,0,0,0,0,0,3.15,3.15,0,0,1,.18-1.66,1.87,1.87,0,0,1,.15-.32,4.37,4.37,0,0,0,.6,3.79,5.14,5.14,0,0,0,1.65,1.27c.88.49,1.78,1,2.71,1.39a2,2,0,0,0,.28.16s.07,0,0,0a6.21,6.21,0,0,1-1-1.09,8.72,8.72,0,0,0,2.91,1.8,23.22,23.22,0,0,0,3,1c.56.16,1.14.29,1.7.47s.91.34,1.38.47a.06.06,0,0,0,.06,0,2.33,2.33,0,0,1,.34.88h0s0,.09.07.05c.66-.92,1.83-1.28,2.71-1.93a4,4,0,0,0,1.3-1.54,2.88,2.88,0,0,1-.89,1.47,0,0,0,0,0,0,0l-.23.15a0,0,0,0,0,0,.06,18.77,18.77,0,0,0,4.21-2.26,5.5,5.5,0,0,0,1.51-1.66,3.68,3.68,0,0,1-.26.68l-.08.06s0,0,0,0h.06l0,0a7.09,7.09,0,0,0,1.49-1.19,15.22,15.22,0,0,0,1.49-1.62,4.07,4.07,0,0,0,.76-1.82v.33s0,0,0,0a.31.31,0,0,1-.05.1s0,0,0,0a1.82,1.82,0,0,0,.49-.67c.2-.39.43-.76.63-1.15a5.11,5.11,0,0,0,.58-2.36,3.11,3.11,0,0,0-1-2.28,1.94,1.94,0,0,1,1.55.81h0c0,.06,0,.11,0,.17a0,0,0,0,0,0,0C86.88,52.6,85.85,51.26,85,50.46Z"/><path class="cls-17" d="M62.12,56.05a6.9,6.9,0,0,1,2.2,3.19c1.14-2.07,4-3,6.15-3.35a.09.09,0,0,1,.1.14,14.82,14.82,0,0,1-1,1.12c1.39-.83,3.17-.76,4.7-1.21a26.13,26.13,0,0,0,3.62-1.52c1-.5,1.82-1.33,2.81-1.88a.09.09,0,0,1,.14.05,4.32,4.32,0,0,1,0,.8c.5-.88.93-2.26,2.07-1.71a1.65,1.65,0,0,1,.19-1.21,1.21,1.21,0,0,1,1-.46,2.31,2.31,0,0,1,.37,0,5,5,0,0,0-2.5-.78,12,12,0,0,0-2.12-.72c-1.16-.29-2.34-.56-3.53-.76a17.6,17.6,0,0,0-7,.18,14.93,14.93,0,0,0-8.68,5.47l-.12.08c-.36.27-.73.51-1.1.76l-.08.06A8.16,8.16,0,0,1,62.12,56.05Z"/><path class="cls-17" d="M58.36,58.59a1.89,1.89,0,0,1,.11-.25,3.37,3.37,0,0,1,.38-1.62,3.09,3.09,0,0,0-1,2.34.09.09,0,0,1-.17,0,5,5,0,0,1-.5-1.26A3.42,3.42,0,0,0,58,60a1.59,1.59,0,0,0,.12.27,0,0,0,0,0,0,0A3.15,3.15,0,0,1,58.36,58.59Z"/><path class="cls-17" d="M86.58,52.74l0,.22a.09.09,0,0,1-.13,0,4.19,4.19,0,0,0-2.36-.87,4.28,4.28,0,0,1-.33,5.27c-.06.07-.16,0-.15-.09a3.89,3.89,0,0,0-.26-2.45,5.3,5.3,0,0,1-.12,2.31,6.22,6.22,0,0,1-1.5,2.35c-.07.08-.18,0-.14-.11a4.26,4.26,0,0,0,0-3.51,17.11,17.11,0,0,1-.23,1.89,6,6,0,0,1-.74,1.82,12.21,12.21,0,0,1-2.71,3c-.06,0-.19,0-.15-.09a4.77,4.77,0,0,0-.12-3.88,10,10,0,0,1-.79,2.14,15.73,15.73,0,0,1-1.63,2c-1,1.12-2.51,2.15-2.92,3.7,0,.06-.08.07-.14,0a36.42,36.42,0,0,0-4.76-1.81,20.68,20.68,0,0,1-3-1.19,6,6,0,0,1-3.09-3.1,3.17,3.17,0,0,0,.59,2.08c.06.08,0,.21-.11.14-1.08-.8-2.33-1.48-2.92-2.75a3.83,3.83,0,0,1-.32-1.5,4.34,4.34,0,0,0,.63,3.66,5.14,5.14,0,0,0,1.65,1.27c.88.49,1.78,1,2.71,1.39a2,2,0,0,0,.28.16s.07,0,0,0a6.21,6.21,0,0,1-1-1.09,8.72,8.72,0,0,0,2.91,1.8,23.22,23.22,0,0,0,3,1c.56.16,1.14.29,1.7.47s.91.34,1.38.47a.06.06,0,0,0,.06,0,2.33,2.33,0,0,1,.34.88h0s0,.09.07.05c.66-.92,1.83-1.28,2.71-1.93a4,4,0,0,0,1.3-1.54,2.88,2.88,0,0,1-.89,1.47,0,0,0,0,0,0,0l-.23.15a0,0,0,0,0,0,.06,18.77,18.77,0,0,0,4.21-2.26,5.5,5.5,0,0,0,1.51-1.66,3.68,3.68,0,0,1-.26.68l-.08.06s0,0,0,0h.06l0,0a7.09,7.09,0,0,0,1.49-1.19,15.22,15.22,0,0,0,1.49-1.62,4.07,4.07,0,0,0,.76-1.82v.33s0,0,0,0a.31.31,0,0,1-.05.1s0,0,0,0a1.82,1.82,0,0,0,.49-.67c.2-.39.43-.76.63-1.15a5.11,5.11,0,0,0,.58-2.36,3.11,3.11,0,0,0-1-2.28,1.94,1.94,0,0,1,1.55.81h0c0,.06,0,.11,0,.17a0,0,0,0,0,0,0A2.33,2.33,0,0,0,86.58,52.74Z"/><g class="cls-18"><path class="cls-11" d="M115.94,22.79c-.52.19-1.08.28-1.6.48a8.54,8.54,0,0,0,1.45-1.74A6.61,6.61,0,0,0,117,18.34c0-.08,0-.19-.15-.17a18.92,18.92,0,0,0-4.64,1.17A13.59,13.59,0,0,0,109,21.63a9.15,9.15,0,0,0-1,.91s0,.09.05.06a14.55,14.55,0,0,1,4-2.52,13.48,13.48,0,0,1,2.23-.72,5.54,5.54,0,0,1,1.21-.19,3.64,3.64,0,0,0,1-.1,10.17,10.17,0,0,1-.68,1.16A13.66,13.66,0,0,1,114.58,22a15,15,0,0,1-3.09,2.81,0,0,0,0,0,0,0l-.29.16s0,.06,0,.05a9.45,9.45,0,0,0,1.82-.87l1.18-.52c.45-.2.94-.33,1.38-.55a7.12,7.12,0,0,1-4.49,3.39s0,.05,0,.05a3,3,0,0,0,1.35-.27,7.11,7.11,0,0,0,2.22-1.2,3.15,3.15,0,0,0,1.43-2.22A.13.13,0,0,0,115.94,22.79Z"/><path class="cls-11" d="M129.13,22.1a7,7,0,0,0-3.4,0,7.61,7.61,0,0,0-3.28,1.56s0,.08,0,.06a7.7,7.7,0,0,1,2.38-.9,7.13,7.13,0,0,1,3.4-.18,7.28,7.28,0,0,1-1.72,1.74A12.92,12.92,0,0,1,124.43,26c-1,.53,1.07-.28,1.13-.3a7.28,7.28,0,0,0,3.67-3.42A.15.15,0,0,0,129.13,22.1Z"/><path class="cls-11" d="M130.07,25.36a5.11,5.11,0,0,0-3.19.82s0,.06,0,.05a4.11,4.11,0,0,1,2.47-.57,5.77,5.77,0,0,1-1.06,1,25.16,25.16,0,0,1-2.18,1.31s1.23-.29,1.27-.3a9.33,9.33,0,0,0,1.51-.77,4.56,4.56,0,0,0,1.24-1.31A.13.13,0,0,0,130.07,25.36Z"/><path class="cls-11" d="M126.54,35.82a23.78,23.78,0,0,0-3.63-2,5.1,5.1,0,0,0-3.11-.49,11.48,11.48,0,0,0,2.33-2.39.14.14,0,0,0-.08-.22,5.91,5.91,0,0,0-2.44.08,5.39,5.39,0,0,0-1.81.57,10.58,10.58,0,0,0,1.38-2.67,10.82,10.82,0,0,0,1-4.39.14.14,0,0,0-.19-.13c-1.2.55-2.43.94-3.58,1.61a15.64,15.64,0,0,0-2.81,2.11,13.71,13.71,0,0,0-2.79,3.7,9,9,0,0,0-.85,2c0,.1-.07.21-.11.31a.07.07,0,0,0,0,0c0,.18-.08.36-.11.55,0,0,0,0,.05,0a12.3,12.3,0,0,1,3.49-5.59,17.32,17.32,0,0,1,2.71-2,13,13,0,0,1,3-1.42,36,36,0,0,1-1.86,4.67,20.33,20.33,0,0,1-1.52,2.48c-.26.34-.51.68-.76,1a4.07,4.07,0,0,1-.55.69l-.25.19,0,0h0q-.37.3-.78.57s0,0,0,0c.82-.46,1.56-1,2.37-1.55a6.49,6.49,0,0,0,1.14-.85l.48-.39a4.2,4.2,0,0,1,1.28-.66,18.32,18.32,0,0,1,2.54-.58,20.46,20.46,0,0,1-1.89,2,14.27,14.27,0,0,1-1.21.82,5.7,5.7,0,0,1-1.45.8s0,.06,0,0a2.41,2.41,0,0,0,.48-.12h0a6.37,6.37,0,0,1,4.4-.49,9.55,9.55,0,0,1,2.13.78,12.71,12.71,0,0,1,1.45.92c-.46.6-.88,1.23-1.39,1.8a6.5,6.5,0,0,1-2,1.49,5.93,5.93,0,0,1-2.41.58A5.58,5.58,0,0,1,116.6,39a0,0,0,0,0,0,.05,9.41,9.41,0,0,0,1,.53,0,0,0,0,0,0,0,4,4,0,0,1,1.64,1.85,7.72,7.72,0,0,1,.43,1c.14.38.19.79.33,1.17a4.53,4.53,0,0,1-1.28-.4,3.56,3.56,0,0,1-1.19-1.06,15.48,15.48,0,0,1-1.25-2.17l-.1-.24a0,0,0,0,0,0,0l0-.1s0,0,0,0a3.45,3.45,0,0,1,.14.34,9.43,9.43,0,0,0,1.67,3.39,8.21,8.21,0,0,0,3.45,2.11.15.15,0,0,0,.2-.19,17.62,17.62,0,0,0-1.36-4.22,2.92,2.92,0,0,0-.67-1,5.19,5.19,0,0,0,4-.75A14.84,14.84,0,0,0,126.56,36,.16.16,0,0,0,126.54,35.82Z"/><path class="cls-11" d="M137.33,36.58a6.77,6.77,0,0,0-5.39-2.53c-.06,0-.05.09,0,.09,2,.06,2.77.76,4.06,2.29a7,7,0,0,1-5.28,1.22c-.07,0,1.3.49,1.37.51,1.73.65,3.89-.23,5.2-1.39A.13.13,0,0,0,137.33,36.58Z"/><path class="cls-11" d="M132.83,40.67a4.67,4.67,0,0,0-2.87-.93,0,0,0,0,0,0,.06,3.25,3.25,0,0,1,2.07.92,3.26,3.26,0,0,1-2.88.15c-.08,0,.61.22.67.27a2.5,2.5,0,0,0,3-.28C132.87,40.81,132.9,40.72,132.83,40.67Z"/><path class="cls-11" d="M126.06,48.62c-1-1.21-1.83-2.83-3.62-2.93,0,0-.06.06,0,.06a3.47,3.47,0,0,1,.73.24,3.82,3.82,0,0,1,1.36,2.24,13.34,13.34,0,0,0-1.55,0,3,3,0,0,1-2.17-.79s-.1,0-.07,0a2.43,2.43,0,0,0,.24.3,2.63,2.63,0,0,1,.12,1.08,3.43,3.43,0,0,1-1.1-.51,2.53,2.53,0,0,1-.9-1.27s-.09,0-.08,0a1.68,1.68,0,0,0,.09.32,0,0,0,0,0,0,0,3.6,3.6,0,0,0,2.42,2.73.13.13,0,0,0,.18-.1,3,3,0,0,0,.12-1.24c1.25.82,2.82.38,4.21,0A.13.13,0,0,0,126.06,48.62Z"/><path class="cls-11" d="M51.6,37.76a3.07,3.07,0,0,1-.81,1,2.57,2.57,0,0,1-.72.4v0c-.58-1.52.37-2.86.82-4.27,0,0,0,0,0,0s-.18.32-.27.49h0a10.38,10.38,0,0,1-2.82,3.25,8.18,8.18,0,0,1-2.17.88c-.37.1-.75.17-1.13.24s-.5,0-.74.07c.08-.27.15-.55.24-.81.17-.47.35-.93.55-1.39a7.8,7.8,0,0,1,1.59-2.39,7.3,7.3,0,0,0,.77-.44,1.91,1.91,0,0,0,.53-.36A6.13,6.13,0,0,0,49.84,33s0-.06,0,0c-1.74,1.36-4.11,1.66-6.28,1.7.26-.3.51-.61.78-.9a13.78,13.78,0,0,1,1.3-1.23c.87-.73,1.85-1.29,2.75-2,.41-.21.81-.42,1.22-.65,0,0,0-.07,0-.05a30.26,30.26,0,0,1-6.71,2.43,19.51,19.51,0,0,1-3.56.47q-.95,0-1.89,0c-.51,0-1-.22-1.49-.28.52-.52,1-1.09,1.54-1.58a15,15,0,0,1,1.82-1.35,10.11,10.11,0,0,1,3-1.29,3.19,3.19,0,0,0,2-.49,0,0,0,0,0,0,0,2.46,2.46,0,0,1-.58.19,6.1,6.1,0,0,0-1.35.1,6.82,6.82,0,0,1-.79-.09A7.14,7.14,0,0,1,38.79,27a7.62,7.62,0,0,1,1.14-.38s0,0,0,0a5,5,0,0,1,1.46-.4,2.1,2.1,0,0,0,.75.11,0,0,0,0,0,0-.06,5.17,5.17,0,0,1-2.48-1.68,9.83,9.83,0,0,1-.81-1.18,2.94,2.94,0,0,1-.26-.84,5.85,5.85,0,0,0,.8.2,10.78,10.78,0,0,1,1.58.51,15.49,15.49,0,0,1,3,1.67s.07,0,0-.06-.37-.36-.57-.53a.06.06,0,0,0,0-.07,7.24,7.24,0,0,0-2.54-1.63,30.68,30.68,0,0,0-3.62-1.32c-.12,0-.21.11-.17.21a17.26,17.26,0,0,0,1.17,3.2,4.5,4.5,0,0,0,1.48,1.59,6.57,6.57,0,0,0-2,.89.16.16,0,0,0,0,.25,5.3,5.3,0,0,0,2.12.87,6.26,6.26,0,0,0-1,.4,10.58,10.58,0,0,0-2,1.32,13.2,13.2,0,0,0-3.22,4,.16.16,0,0,0,.11.22c1,.23,2,.5,2.94.64a8.49,8.49,0,0,0,3-.15,19.9,19.9,0,0,0,3.51-1.12,7.7,7.7,0,0,0-1.37,1.86.14.14,0,0,0,.08.19,5,5,0,0,0,2.69.1c-1.52,1.53-2.17,3.92-2.55,6a.14.14,0,0,0,.12.17,9.3,9.3,0,0,0,4.53-.47,5.7,5.7,0,0,0,2.45-2.15,6.12,6.12,0,0,0,.12,1.14.14.14,0,0,0,.18.11,3.18,3.18,0,0,0,2.14-2.56c0-.05,0-.1,0-.14A0,0,0,0,0,51.6,37.76Z"/><path class="cls-11" d="M43.36,14.11a.14.14,0,0,0-.22.05,7.79,7.79,0,0,0-.71,2.62,3.92,3.92,0,0,0,.36,1.56,4.59,4.59,0,0,0-2.32-.69.15.15,0,0,0-.16.19A5.73,5.73,0,0,0,43,21.12a3.45,3.45,0,0,0,.9.45s.06,0,0-.05a6.71,6.71,0,0,1-1.58-1.38,5.58,5.58,0,0,1-.93-1.73c.17.06.35.1.51.14a2.85,2.85,0,0,1,1.22.52l.15.31,0,0c.06.16.11.32.18.47s.09,0,.08,0c-.27-1.58-.64-3.33.18-4.83a7.91,7.91,0,0,1,.59,1.16,11.36,11.36,0,0,1,.75,2.68s.06,0,.06,0A6.91,6.91,0,0,0,43.36,14.11Z"/><path class="cls-11" d="M34.63,15.26a4.14,4.14,0,0,0-1.1-2l0,0L33.32,13a.11.11,0,0,0-.19,0,3.17,3.17,0,0,0,.78,3.24,5.27,5.27,0,0,0,.4.64,0,0,0,0,0,.07,0,9.19,9.19,0,0,1-.79-2.9,5.72,5.72,0,0,1,.32.48,16,16,0,0,1,.82,1.46,0,0,0,0,0,.07,0A3.74,3.74,0,0,0,34.63,15.26Z"/><path class="cls-11" d="M33.1,20.85a7.07,7.07,0,0,1-1.55-1c-.47-.43-.89-.92-1.33-1.39s-.75-.76-1.08-1.19a4.3,4.3,0,0,1-.43-.74,7.16,7.16,0,0,1,1,.25c.75.26,1.47.63,2.22.89a0,0,0,0,0,0-.06l-.16-.11a0,0,0,0,0,0,0,6.38,6.38,0,0,0-4.37-1.86.16.16,0,0,0-.14.21,6.88,6.88,0,0,0,4.21,4.33.06.06,0,0,0,.09-.05,4.71,4.71,0,0,0,1.52.81S33.15,20.87,33.1,20.85Z"/><path class="cls-11" d="M38.45,43.54l-.1,0h0a4.16,4.16,0,0,1-3.1-.64,9.15,9.15,0,0,0,.63-1.25,4.23,4.23,0,0,1,1.24-1.57s0-.07,0,0a2.29,2.29,0,0,0-.41.28s0-.06,0,0a9.12,9.12,0,0,0-2.89,3.1.13.13,0,0,0,.09.18,7.55,7.55,0,0,1,1.71.54,3.62,3.62,0,0,0,1.93-.1l0,0a6.14,6.14,0,0,0,1-.4S38.49,43.53,38.45,43.54Z"/><path class="cls-11" d="M40.06,46a1.87,1.87,0,0,1-.94.15c-.14,0-.3,0-.46,0a1.73,1.73,0,0,1,.21-.9,3,3,0,0,1,.22-.28,0,0,0,0,0-.05-.06,1.69,1.69,0,0,0-.41.34A2.41,2.41,0,0,0,37.78,47a.12.12,0,0,0,.15.13c.74-.25,1.64-.25,2.16-.93,0,0,0,0,0-.06l0,0A0,0,0,0,0,40.06,46Z"/></g><g class="cls-15"><path class="cls-12" d="M113.74,55.62a.14.14,0,0,0-.22-.1A7.27,7.27,0,0,0,111,58.64h0a9.31,9.31,0,0,0-.81,2,8.55,8.55,0,0,0,.58,5.8.15.15,0,0,0,.25,0c1.3-1.21,2.8-2.33,3.36-4.09C115,60.11,113.91,57.85,113.74,55.62Z"/><path class="cls-12" d="M119.07,58a5.52,5.52,0,0,1-.46.69c-1.94,2.37-3.4,4.76-1.42,7.73a.13.13,0,0,0,.2,0c.44-.56.92-1.1,1.31-1.7a6.13,6.13,0,0,0,.78-1.87,10.52,10.52,0,0,0-.4-4.85Z"/><path class="cls-12" d="M123,57.9,123,58a16.61,16.61,0,0,0-1.76,3.43,5.12,5.12,0,0,0,1,3.88.13.13,0,0,0,.18,0,4.34,4.34,0,0,0,1.95-2.89A7.71,7.71,0,0,0,123,57.9Z"/><path class="cls-12" d="M108.37,60.34a9.19,9.19,0,0,0-2.23,1.08,3,3,0,0,0-.83,1.58,6,6,0,0,0,.85,3.92c0,.08.13.06.18,0,.79-.77,1.86-1.28,2.39-2.29a4.94,4.94,0,0,0,.37-2,25.31,25.31,0,0,1,.24-2.61h0C109,60.09,108.69,60.21,108.37,60.34Z"/><path class="cls-12" d="M131.89,56.39a11.6,11.6,0,0,0-2.58-2.88.12.12,0,0,0-.19.08,6.86,6.86,0,0,0-.14,3.15,2.29,2.29,0,0,0,.31,1.08A5.47,5.47,0,0,0,132,59.91a.1.1,0,0,0,.13-.07A4.41,4.41,0,0,0,131.89,56.39Z"/></g><path class="cls-19" d="M115.67,46.58a8.8,8.8,0,0,0-.91-2.67s-.08,0-.07,0c.12.43.29.85.43,1.26v0a4,4,0,0,1,0,1.88c-.08.38-.21.75-.33,1.13A3.65,3.65,0,0,1,113.71,47a7.32,7.32,0,0,1-.58-2.07s-.06,0-.06,0,0,.19,0,.28a0,0,0,0,0-.08,0,4.85,4.85,0,0,0,1,3.46,5.86,5.86,0,0,1,.37,1.86,4.34,4.34,0,0,1-.47,2,3.86,3.86,0,0,1-.55-2,10.92,10.92,0,0,0,.08-1.14h0l0-.13s0,0,0,0A26.23,26.23,0,0,1,112.41,52a10.37,10.37,0,0,1-1.63,2.31A12.93,12.93,0,0,1,107.27,57c.06-.23.13-.46.2-.69.26-.81.52-1.63.8-2.44,0,0,0-.08-.07,0v0s0,0,0,0a6,6,0,0,1-1.78,1.9,15.84,15.84,0,0,1-1.92,1,5.9,5.9,0,0,1,0-1,4.68,4.68,0,0,1,.26-1.12,28.78,28.78,0,0,1,1.75-2.64,0,0,0,1,0-.06-.05c-1.69,1.82-3.47,4.54-2.85,7.17a.13.13,0,0,0,.18.09,7,7,0,0,0,3-2.16,6.48,6.48,0,0,0-.52,2.64.14.14,0,0,0,.18.11,11.82,11.82,0,0,0,4.72-3.28A9.28,9.28,0,0,0,113,52.26a4.91,4.91,0,0,0,.73,1.82.12.12,0,0,0,.2,0,10.62,10.62,0,0,0,.9-2.37,4.27,4.27,0,0,0,0-2.13l.19.17a.13.13,0,0,0,.21-.08A11.48,11.48,0,0,0,115.67,46.58Z"/><path class="cls-20" d="M86.84,43.72s3.18-1.74,4.69-7,1.5-8.23,2.4-10.22a12.34,12.34,0,0,1,3.37-4.92S95.37,24,95,30.74s-2.29,12.6-7,14.06C86.42,45.28,86.12,44.14,86.84,43.72Z"/><path class="cls-21" d="M95.2,24.7a24.89,24.89,0,0,0-2.37,8.16,20.75,20.75,0,0,1-5.17,10.92,8.13,8.13,0,0,0,3.67-2.68c1.71-2.4,2.17-5.33,2.43-8.2s.52-5.95,1.76-8.71c0-.07.07-.14.1-.22C95.48,24.21,95.33,24.45,95.2,24.7Z"/><path class="cls-20" d="M32.42,5.38S45,7.63,48.29,13.13,55,25.93,60.91,30.62c0,0,3.45,2.1-.15,2.64-1.58.24-6.52-4.53-9-9.94S46.75,12,41.62,9.17A41.31,41.31,0,0,0,32.42,5.38Z"/><path class="cls-21" d="M42,9a25.09,25.09,0,0,1,7.38,7.24c1.94,2.94,3.31,6.21,5.3,9.12a20.94,20.94,0,0,0,4.68,5c4,2.72,1.59.26,1.59.26-5.95-4.69-9.38-12-12.62-17.49C46.47,10.05,41.7,8,37.86,6.77A35.87,35.87,0,0,1,42,9Z"/><path class="cls-22" d="M85,37.74A3.69,3.69,0,0,0,83.36,37a3.73,3.73,0,0,1,1.21-.07l.25.19s.07,0,.05,0a3,3,0,0,0-2.27-1.3,3.72,3.72,0,0,1,.88,0h0l.18,0s.06,0,0-.06a13.21,13.21,0,0,0-3-1.8h.51l.37.12c.08,0,.09-.08,0-.12l-.08,0a0,0,0,0,0,0,0h0a7.67,7.67,0,0,0-5.4-1l-.37.06A5.56,5.56,0,0,1,78,32.4s0,0,0,0a1.91,1.91,0,0,0-.68-.21,7.63,7.63,0,0,0-7,.51,3.78,3.78,0,0,1,1.87-1,.06.06,0,0,0,0-.11,1.53,1.53,0,0,0-.3,0,.05.05,0,0,0,0-.06,5.6,5.6,0,0,0-4.65.55l.06-.07A3.36,3.36,0,0,1,69,30.8c.05,0,0-.08,0-.09a1.29,1.29,0,0,0-.44,0A4.55,4.55,0,0,0,64.61,32a13.36,13.36,0,0,1-.54-1.37s0,0-.07,0-.08,0-.08,0a4.29,4.29,0,0,0-.05,1.13,2.7,2.7,0,0,0-1.69-.91c-.07,0-.11.09,0,.12l.14.06h0a3.16,3.16,0,0,1,.44.93,3.62,3.62,0,0,0-1.3-.81,2.68,2.68,0,0,0-2.4.51h0s0,0,0,0l0,0s0,.09,0,.08l.11,0a3.11,3.11,0,0,1,1.3.35,3.62,3.62,0,0,0-1-.15,7.23,7.23,0,0,0-4,1.52,0,0,0,0,0,0,.08l.29-.12.4-.07a3.75,3.75,0,0,0-2.88,3.57.06.06,0,0,0,.11,0c.05-.15.1-.31.16-.47a2.92,2.92,0,0,1,.78-.62l-.15.14a2.32,2.32,0,0,0-.34,3,4.64,4.64,0,0,0-3.25,2s0,0,0,0a2.75,2.75,0,0,0-.22.26s0,.13.08.08a2.07,2.07,0,0,1,1.72-.56c-1.39.72-2.49,2.36-2,3.74l0,0a1,1,0,0,0-.06.25c0,.07.09.11.12,0a2.11,2.11,0,0,1,.84-1,3.44,3.44,0,0,0-.45.81,2.31,2.31,0,0,0,.51,2.46,1.31,1.31,0,0,0,.11.42c0,.06.13,0,.12,0a1.13,1.13,0,0,1,.54-1.16,3.32,3.32,0,0,0,0,3.08,7.08,7.08,0,0,0,2.88,2.45c2.93,1.76,6.9,2.38,9.1,5.21a.1.1,0,0,0,0,0,1.33,1.33,0,0,0,0,.4.09.09,0,0,0,.18,0c.24-1,1.64-1.62,2.63-2a4,4,0,0,0-.6.47l-.25.12a.08.08,0,0,0,0,.14l-.21.24s0,0,0,0l.4-.31c.54-.17,1.07-.37,1.62-.53a16.21,16.21,0,0,1,2.41-.43A18.78,18.78,0,0,0,72,55a12.42,12.42,0,0,0,5.09-1.69,7.74,7.74,0,0,1-.73.49s0,.11,0,.09a5.51,5.51,0,0,0,.65-.31c2.75-1,5.47-2.32,7.17-4.77A5.33,5.33,0,0,0,85,44a2.73,2.73,0,0,1,.55,1.85s0,.05.06,0l0,.23c0,.06.08.1.11,0a7.4,7.4,0,0,0,.22-4.89A3.51,3.51,0,0,0,85.15,40a3.11,3.11,0,0,1,1.25.84c.1.22.2.44.31.65,0,0,.06,0,.06,0A6.33,6.33,0,0,0,85,37.74Z"/><path class="cls-4" d="M85,37.74A3.69,3.69,0,0,0,83.36,37a3.73,3.73,0,0,1,1.21-.07l.25.19s.07,0,.05,0a3,3,0,0,0-2.27-1.3,3.72,3.72,0,0,1,.88,0h0l.18,0s.06,0,0-.06a13.21,13.21,0,0,0-3-1.8h.51l.37.12c.08,0,.09-.08,0-.12l-.08,0a0,0,0,0,0,0,0h0a7.65,7.65,0,0,0-3.33-1.11c-1.79,1.32-3,3.37-4.32,5.09a16.74,16.74,0,0,1-2.16,2.37L72.86,40a13.09,13.09,0,0,0,3.33-1.13c.7-.37,1.28-.91,2-1.31a1.82,1.82,0,0,1,1.64-.34.08.08,0,0,1,0,.1c-.15.45-.62.49-1,.72a10,10,0,0,1,1.54-.2c.48,0,1.14,0,1.4.5a.09.09,0,0,1-.08.13c-.66.07-1.5-.15-2.1.2a5.89,5.89,0,0,1,2.54,1,3.57,3.57,0,0,1,1.3,2.4.1.1,0,0,1-.09.09,15.78,15.78,0,0,0-1.94-.36,9.28,9.28,0,0,0-1,.08,3.21,3.21,0,0,1,2.15,2.63,4.9,4.9,0,0,1-2.69,4.76.09.09,0,0,1-.13-.1,5.6,5.6,0,0,0,.13-1c0-.18-.06-.6-.32-.4a1.62,1.62,0,0,0-.32.32c-.37.45-.7,1.14-1.22,1.44a.1.1,0,0,1-.14-.08A11.88,11.88,0,0,0,78,48.14a10.51,10.51,0,0,1-8.15,5.31c-.07,0-.16-.06-.11-.13a5.66,5.66,0,0,0,.76-1.24l-.11.1a5.72,5.72,0,0,1-3.15,1.51,15.91,15.91,0,0,0-2,.44,9,9,0,0,1-1.14.53c-.27,0-.62-.37-.78-.52a6.38,6.38,0,0,0-1.47-.92,22.7,22.7,0,0,0-3.87-1.64c-1.73-.55-3.8-1.14-4.86-2.75-.81-1.23-1.17-3.42,0-4.53a1.82,1.82,0,0,0-1.67.67c0,.06-.18.05-.17,0a4.3,4.3,0,0,1,1.61-3,2,2,0,0,0-1.51.46.09.09,0,1,1-.13-.13,6.14,6.14,0,0,1,1.46-1.59c.35-.19.79-.22.86.27s-.19,1.22,0,1.76c.28.81,1.24,1.12,1.94,1.46a1.42,1.42,0,0,0,1.24.12h0a.09.09,0,1,1,0-.18.78.78,0,0,1,.22,0,1.11,1.11,0,0,0,.2-.26,2.21,2.21,0,0,0,.26-1.21,3.81,3.81,0,0,0-1-2.33,8.55,8.55,0,0,0-2.15-1.52,5.6,5.6,0,0,1-.76-.51,2.16,2.16,0,0,0,.32.69,4.64,4.64,0,0,0-3.25,2s0,0,0,0a2.75,2.75,0,0,0-.22.26s0,.13.08.08a2.07,2.07,0,0,1,1.72-.56c-1.39.72-2.49,2.36-2,3.74l0,0a1,1,0,0,0-.06.25c0,.07.09.11.12,0a2.11,2.11,0,0,1,.84-1,3.44,3.44,0,0,0-.45.81,2.31,2.31,0,0,0,.51,2.46,1.31,1.31,0,0,0,.11.42c0,.06.13,0,.12,0a1.13,1.13,0,0,1,.54-1.16,3.32,3.32,0,0,0,0,3.08,7.08,7.08,0,0,0,2.88,2.45c2.93,1.76,6.9,2.38,9.1,5.21a.1.1,0,0,0,0,0,1.33,1.33,0,0,0,0,.4.09.09,0,0,0,.18,0c.24-1,1.64-1.62,2.63-2a4,4,0,0,0-.6.47l-.25.12a.08.08,0,0,0,0,.14l-.21.24s0,0,0,0l.4-.31c.54-.17,1.07-.37,1.62-.53a16.21,16.21,0,0,1,2.41-.43A18.78,18.78,0,0,0,72,55a12.42,12.42,0,0,0,5.09-1.69,7.74,7.74,0,0,1-.73.49s0,.11,0,.09a5.51,5.51,0,0,0,.65-.31c2.75-1,5.47-2.32,7.17-4.77A5.33,5.33,0,0,0,85,44a2.73,2.73,0,0,1,.55,1.85s0,.05.06,0l0,.23c0,.06.08.1.11,0a7.4,7.4,0,0,0,.22-4.89A3.51,3.51,0,0,0,85.15,40a3.11,3.11,0,0,1,1.25.84c.1.22.2.44.31.65,0,0,.06,0,.06,0A6.33,6.33,0,0,0,85,37.74Z"/><path class="cls-4" d="M85,37.74A3.69,3.69,0,0,0,83.36,37a3.73,3.73,0,0,1,1.21-.07l.25.19s.07,0,.05,0a3,3,0,0,0-2.27-1.3,3.72,3.72,0,0,1,.88,0h0l.18,0s.06,0,0-.06a13.21,13.21,0,0,0-3-1.8h.51l.37.12c.08,0,.09-.08,0-.12l-.08,0a0,0,0,0,0,0,0h0a7.64,7.64,0,0,0-3.66-1.13A5.78,5.78,0,0,1,76.4,35.1,12.48,12.48,0,0,1,72,37.58a33.75,33.75,0,0,1-5.7,1.18c.76.24,1.52.46,2.28.68a10.91,10.91,0,0,0,2.65.52,6.49,6.49,0,0,0,2.45-.52A8,8,0,0,0,76,38.12c.56-.45,1.08-1,1.68-1.36a4.16,4.16,0,0,1,3.7-.73.09.09,0,0,1,0,.18c-.58.22-1.42.16-1.89.61,1-.23,2.49-.56,3.2.32a.09.09,0,0,1-.09.15,4.46,4.46,0,0,0-1.59,0,4.61,4.61,0,0,1,3.4,2.2c0,.07,0,.18-.12.12a4,4,0,0,0-1.88-.7,2.16,2.16,0,0,1,.66.62,8.72,8.72,0,0,1,1.2,3.53c0,.09-.08.15-.15.08a3.94,3.94,0,0,0-1.66-.8,3.55,3.55,0,0,1,1.09,1.76,4.55,4.55,0,0,1-.46,3.29,7.89,7.89,0,0,1-2.39,2.65,15.09,15.09,0,0,1-3.43,1.66.09.09,0,0,1-.1-.13c.28-.46.61-.88.89-1.33a10.4,10.4,0,0,1-2.89,2.43A12.88,12.88,0,0,1,72.1,53.9c-1.11.29-2.29.37-3.39.73a.09.09,0,0,1-.08-.16,2.39,2.39,0,0,0,.66-1.07A6,6,0,0,1,67,54.76a10.63,10.63,0,0,1-1.6.37,3.2,3.2,0,0,0-1.44.51c-.08.06-.15,0-.13-.11-2.46-2.26-5.77-3-8.72-4.39a5.06,5.06,0,0,1-3-3,4.21,4.21,0,0,1,.49-3.21,2.65,2.65,0,0,0-1.55,1.23c0,.07-.15,0-.17,0a3.27,3.27,0,0,1,1.09-3.53,2.61,2.61,0,0,0-1.33.68c-.07.08-.18,0-.14-.1a4.89,4.89,0,0,1,2.31-2.73,2.11,2.11,0,0,0-1.52.11c-.09,0-.2-.07-.11-.14.41-.35,1.81-1.45,2.35-.68.39.54.16,1.44.12,2.05a2.23,2.23,0,0,0,.07,1.12c.33.62,1-.16,1.21-.45A4.67,4.67,0,0,1,58.47,41a7.09,7.09,0,0,0-3-2c-.29-.09-.63-.19-1-.31h0c-.05,0-.07,0-.08,0a5.16,5.16,0,0,1-.94-.47,2.47,2.47,0,0,0,.35.8,4.64,4.64,0,0,0-3.25,2s0,0,0,0a2.75,2.75,0,0,0-.22.26s0,.13.08.08a2.07,2.07,0,0,1,1.72-.56c-1.39.72-2.49,2.36-2,3.74l0,0a1,1,0,0,0-.06.25c0,.07.09.11.12,0a2.11,2.11,0,0,1,.84-1,3.44,3.44,0,0,0-.45.81,2.31,2.31,0,0,0,.51,2.46,1.31,1.31,0,0,0,.11.42c0,.06.13,0,.12,0a1.13,1.13,0,0,1,.54-1.16,3.32,3.32,0,0,0,0,3.08,7.08,7.08,0,0,0,2.88,2.45c2.93,1.76,6.9,2.38,9.1,5.21a.1.1,0,0,0,0,0,1.33,1.33,0,0,0,0,.4.09.09,0,0,0,.18,0c.24-1,1.64-1.62,2.63-2a4,4,0,0,0-.6.47l-.25.12a.08.08,0,0,0,0,.14l-.21.24s0,0,0,0l.4-.31c.54-.17,1.07-.37,1.62-.53a16.21,16.21,0,0,1,2.41-.43A18.78,18.78,0,0,0,72,55a12.42,12.42,0,0,0,5.09-1.69,7.74,7.74,0,0,1-.73.49s0,.11,0,.09a5.51,5.51,0,0,0,.65-.31c2.75-1,5.47-2.32,7.17-4.77A5.33,5.33,0,0,0,85,44a2.73,2.73,0,0,1,.55,1.85s0,.05.06,0l0,.23c0,.06.08.1.11,0a7.4,7.4,0,0,0,.22-4.89A3.51,3.51,0,0,0,85.15,40a3.11,3.11,0,0,1,1.25.84c.1.22.2.44.31.65,0,0,.06,0,.06,0A6.33,6.33,0,0,0,85,37.74Z"/><path class="cls-23" d="M74.29,41.57H76.1a2.13,2.13,0,0,0-2-.9,9.57,9.57,0,0,1,2.17-.54,13.35,13.35,0,0,0-2.53-.72c2-.54,2.71-2.52,3.79-3.79a5.16,5.16,0,0,1-2.35,1.45c-5.4,1.08-12.25-.18-15.32,5-1.18-2.52-3.78-3.16-6.17-4.27a1.84,1.84,0,0,0-.13.44,2.2,2.2,0,0,0,.31.68l-.19,0,.05.06a7.54,7.54,0,0,0,.65,1,5.66,5.66,0,0,0-.63,1.93,2.84,2.84,0,0,0,.3,1.63c-.39-.21-.61,0-.71-.06.1.08.35.5.44.52a4.87,4.87,0,0,0-.65-.1,2.27,2.27,0,0,0,.58.69,4.62,4.62,0,0,0-.88.93h1.62c-.9.18-1.26,1.26-1.26,2.16a1.84,1.84,0,0,1,1.08-.9,1.61,1.61,0,0,0-.18,2c-.18-.54.54-.72.54-1.26.36,1.08,0,2.35.9,3.25,3.25-3.43,7.49.22,10.87-.86-.36.54-.41.5-1,.86,3.06.36,6.67.31,8.56-1.85-.18.54-.09.41-.45.77a4.33,4.33,0,0,0,1.81-.91C77.18,46.62,77,42.65,74.29,41.57Z"/><path class="cls-12" d="M54.33,43.38c.41,1.24,1.91,2.48,3.42,3.28s1.88-1.11,3.59-1a10.31,10.31,0,0,1,3.24,1.2,14.21,14.21,0,0,0,2.92.87,9.05,9.05,0,0,0,2.84.18A3.94,3.94,0,0,0,74,43.8,5.72,5.72,0,0,0,70.37,39a7.75,7.75,0,0,0-6.51,1c-2.08,1.29-2.88,3.25-4.4,5-.73-2.15-.67-4.41-3-5.57a1.52,1.52,0,0,0-1.75.58A4.26,4.26,0,0,0,54.33,43.38Z"/><path class="cls-24" d="M57.52,41.62a2.7,2.7,0,0,0-1.38-1.42c-.42-.17-.84-.27-1.27-.42.32,1.19-.43,2.23,0,3.45.47,1.44,2.13,2.33,2.93,1.62A3.55,3.55,0,0,0,58,43.7,5,5,0,0,0,57.52,41.62Z"/><path class="cls-25" d="M55.94,40.33a.86.86,0,0,0-.71.57,3.25,3.25,0,0,0-.13,2.65c.36.92,1.27,1.61,2,1.4s.78-1.57.62-2.46S56.84,40.31,55.94,40.33Z"/><path class="cls-26" d="M57.12,41.61c-1.28-1.87-2.35.77-1.36,2.26.53.81,1.33.69,1.65.07A2.54,2.54,0,0,0,57.12,41.61Z"/><path class="cls-24" d="M57.09,41.82c-1.05-1.59-1.8.57-1,1.83.44.69,1,.61,1.28.1A2.26,2.26,0,0,0,57.09,41.82Z"/><path class="cls-27" d="M56.8,41.5c-.13,0-.16.1-.15.27a1,1,0,0,0,.25.75c.27.21.34-.09.29-.34S57,41.59,56.8,41.5Z"/><path class="cls-27" d="M57.17,42.79c-.08-.1-.16-.1-.21,0a0,0,0,0,1,0,0,.57.57,0,0,0,0,.36.2.2,0,0,0,.15.12c.08,0,.1-.09.11-.17A.62.62,0,0,0,57.17,42.79Z"/><path class="cls-24" d="M67.81,39.25a4.39,4.39,0,0,0-1.86.31,3.28,3.28,0,0,0-2.11,2.29c-.18.8-.21,1.61-.31,2.42.56,0,1.17.64,1.6.88a3.37,3.37,0,0,0,3.59.32c2-1.27,2.25-3.68,1.7-5.81a3.51,3.51,0,0,1-1-.07A10.28,10.28,0,0,0,67.81,39.25Z"/><path class="cls-25" d="M68.61,39.74a2.53,2.53,0,0,0-1.6-.25,2.43,2.43,0,0,0-.86.29s0,0,0,0a3,3,0,0,0-1.9,3A2.89,2.89,0,0,0,67,45.65a3,3,0,0,0,3.23-2.26A3.12,3.12,0,0,0,68.61,39.74Z"/><path class="cls-26" d="M69.19,41c-2-2.68-5.82.56-3.57,3.4a2.21,2.21,0,0,0,3.25.21A2.73,2.73,0,0,0,69.19,41Z"/><path class="cls-24" d="M68.58,41.5c-1.64-2.24-4.61.35-2.77,2.73a1.73,1.73,0,0,0,2.58.24A2.3,2.3,0,0,0,68.58,41.5Z"/><path class="cls-27" d="M68.76,40.91c-.15-.18-.37-.37-.61-.27a.38.38,0,0,0-.2.29A1.13,1.13,0,0,0,68.14,42c.2.25.78.44.93,0A1.32,1.32,0,0,0,68.76,40.91Z"/><path class="cls-27" d="M69.29,42.39a.26.26,0,0,0-.34-.07l0,0a.32.32,0,0,0-.13.21.5.5,0,0,0,.08.36c.1.2.36.29.49.07A.58.58,0,0,0,69.29,42.39Z"/><path class="cls-4" d="M53.56,38.4a.09.09,0,0,1,.18,0,4.17,4.17,0,0,0,.58,1.6,3,3,0,0,0,1.51,1,2.07,2.07,0,0,1,1.11.63,1.94,1.94,0,0,1,.27,1.2c0,.68-.25,1.86-1.15,1.82a2.45,2.45,0,0,1-1.82-1.48,4.75,4.75,0,0,0,.5,2A3.7,3.7,0,0,0,56.5,46.7c.71.31,1.47.5,2.15.86a5.83,5.83,0,0,1,1.61,1.31,6.46,6.46,0,0,1,1.21,2.05,7.16,7.16,0,0,0,.85,2c1.32,1.74,3.09-3.64,3.24-4.48s.12-1.76,1.19-1.84a5.09,5.09,0,0,0,1.51-.19,3.5,3.5,0,0,0,1.2-.76,4.89,4.89,0,0,0,1.23-4.86A4.8,4.8,0,0,1,69.35,44c-1,1.12-2.74,1.82-4.12.84a2.32,2.32,0,0,1-1.16-2.11,2.42,2.42,0,0,1,1.6-1.89,13.31,13.31,0,0,1,3.38-.72,14.24,14.24,0,0,0,8-4.17,7.28,7.28,0,0,1-3.17,1.38,9.39,9.39,0,0,1-2.91.11c-2.07.38-4.22.18-6.27.7a8.25,8.25,0,0,0-4.82,4,.1.1,0,0,1-.14,0c-.64-.53-1.09-1.28-1.69-1.87a8,8,0,0,0-2-1.62c-.85-.42-1.86-.6-2.71-1a2.24,2.24,0,0,0,.35,1.27Z"/><path class="cls-4" d="M55.74,39.81a2.68,2.68,0,0,0,1.12,1,2.41,2.41,0,0,1,.84.78,1.94,1.94,0,0,1,.1,2.26c-.17.25-.5.54-.45.88a1.3,1.3,0,0,0,.51.82c.33.3.7.54,1,.83a6.94,6.94,0,0,1,1.79,2.27c.29.61.5,1.25.79,1.86s.64,1.53,1.29,1.71c.83.21,1.23-1,1.48-1.57a9.7,9.7,0,0,0,1.09-3.81c0-1.17-1-1.68-1.92-2.19-.47-.26-1.07-.59-1.07-1.2a2.12,2.12,0,0,1,.73-1.41,10.35,10.35,0,0,1,3.39-2.23c1.22-.49,2.5-.83,3.73-1.29a9.81,9.81,0,0,0,2.36-1.06,6.86,6.86,0,0,1-1.57,0c-2.07.38-4.22.18-6.27.7a8.25,8.25,0,0,0-4.82,4,.1.1,0,0,1-.14,0c-.64-.53-1.09-1.28-1.69-1.87a8,8,0,0,0-2-1.62,5.58,5.58,0,0,0-.67-.28A3.19,3.19,0,0,0,55.74,39.81Z"/><path class="cls-28" d="M78.2,31.59l0,0a1.6,1.6,0,0,0,0-.29s0,0,0,0a2,2,0,0,1-.1.77,7.35,7.35,0,0,1-5.47,3.68c-2.3.39-4.64.12-6.93.44a7.63,7.63,0,0,0-4.71,2.26,5.41,5.41,0,0,0-1,1.79,4.37,4.37,0,0,0-1.94-2.49c-1-.6-2.17-.81-3.16-1.47a4,4,0,0,1-1.48-1.41,2.84,2.84,0,0,1,0-1.93h0l.17-.28s0-.09-.06-.05a4.49,4.49,0,0,0-1.13,3,4.07,4.07,0,0,0,.85,3.11,1.55,1.55,0,0,0,.24.27,0,0,0,0,0,0,0A1.91,1.91,0,0,1,53,37.87a4.08,4.08,0,0,0,.51,1.05,3.37,3.37,0,0,0,1.27,1.19,4.55,4.55,0,0,0,.82.24,5.61,5.61,0,0,1,1.52.53,2.94,2.94,0,0,1,1.51,2.19,9.32,9.32,0,0,1-.16,2.41c0,.19-.07.42-.13.65a3.6,3.6,0,0,0,.49.23c.6.22,1.8.24,2.15-.42a.07.07,0,0,0,.06-.07,5.65,5.65,0,0,1,1.63-4,8.54,8.54,0,0,1,4.4-2c1.58-.33,3.21-.42,4.78-.78a6.34,6.34,0,0,0,3-1.47A4.1,4.1,0,0,0,76.57,36s0,0,0,0l-.13.14h0a2.42,2.42,0,0,1-.65.27,7.1,7.1,0,0,0,.91-.73,6,6,0,0,0,1.42-1.87A3.77,3.77,0,0,0,78.2,31.59Z"/><path class="cls-2" d="M77,34.23c-1.93,3-5.94,3.06-9.15,3.23a6.94,6.94,0,0,0,2.3-.89c-3.72.89-9,.73-10.38,5-.39-3.29-5.32-2.52-6.2-5.18.18.54.18,1.08.36,1.44A3.62,3.62,0,0,1,52.88,35a6.55,6.55,0,0,0,.14,3.7l0,0a1.55,1.55,0,0,0,.24.27,0,0,0,0,0,0,0A1.91,1.91,0,0,1,53,37.87a4.08,4.08,0,0,0,.51,1.05,3.37,3.37,0,0,0,1.27,1.19,4.55,4.55,0,0,0,.82.24,5.61,5.61,0,0,1,1.52.53,2.94,2.94,0,0,1,1.51,2.19,9.32,9.32,0,0,1-.16,2.41c0,.19-.07.42-.13.65a3.6,3.6,0,0,0,.49.23c.6.22,1.8.24,2.15-.42a.07.07,0,0,0,.06-.07,5.65,5.65,0,0,1,1.63-4,8.54,8.54,0,0,1,4.4-2c1.58-.33,3.21-.42,4.78-.78a6.34,6.34,0,0,0,3-1.47,5.26,5.26,0,0,0,1.35-1,10.32,10.32,0,0,1-2.22.73A5.14,5.14,0,0,0,77,34.23Z"/><path class="cls-29" d="M68,38.46c-.11,0,.1-.11.2-.13a7.89,7.89,0,0,0,1.28-.61,33.26,33.26,0,0,0-5.45.76,7.08,7.08,0,0,0-4.25,3.86s0,0-.07,0a.36.36,0,0,0,0,.09.09.09,0,0,1-.17,0,4.31,4.31,0,0,0-1-2.12,8.19,8.19,0,0,0-1.93-1.25,7.14,7.14,0,0,1-2.62-2,2.85,2.85,0,0,1-.23-.37,3,3,0,0,0,.69,1.56c.05.06.15.1.07.09a1.07,1.07,0,0,1-.54-.2,30.16,30.16,0,0,0,2.59,2.45,3.13,3.13,0,0,1,2.08,2.45,9.32,9.32,0,0,1-.16,2.41c0,.19-.07.42-.13.65a3.6,3.6,0,0,0,.49.23c.6.22,1.8.24,2.15-.42a.07.07,0,0,0,.06-.07,5.65,5.65,0,0,1,1.63-4,8.54,8.54,0,0,1,4.4-2c1.29-.27,2.61-.38,3.9-.61.15-.06.29-.14.43-.21a6.47,6.47,0,0,0,1.7-1.18c.25-.27.49-.55.72-.83A15.31,15.31,0,0,1,68,38.46Z"/><path class="cls-3" d="M68.72,38.34a12,12,0,0,0-5.67.89,6.94,6.94,0,0,0-3.47,3.94s0,.06.07,0a9.12,9.12,0,0,1,3.88-3.6c1.72-.83,5-.89,6.78-1.37C70.39,38.2,68.79,38.35,68.72,38.34Z"/><path class="cls-3" d="M58.26,40.26c-1.21-1-2.82-1.21-3.95-2.33,0,0-.05,0,0,0A7.51,7.51,0,0,0,56.78,40a14.8,14.8,0,0,1,1.66,1.14,2.28,2.28,0,0,1,1.05,1.74c0,.11,0,1.12,0,1A3.17,3.17,0,0,0,58.26,40.26Z"/><path class="cls-30" d="M64.81,48a32,32,0,0,1-1,4.3c-.48,1.26-.66,1.71-3.09,1.77s-3.28.18-3.28.18a7.37,7.37,0,0,0,.9-2.29c.15-1.05.39-3.33.39-3.33Z"/><path class="cls-31" d="M64.34,48l-5,.52a11.19,11.19,0,0,1-1.43,5.35A17.21,17.21,0,0,0,64.34,48Z"/><path class="cls-32" d="M64.34,48l-5,.52a11.19,11.19,0,0,1-1.43,5.35A17.21,17.21,0,0,0,64.34,48Z"/><path class="cls-33" d="M59.36,48.53a13.64,13.64,0,0,1-.27,2.27c.21-.18.41-.25.56,0A4.15,4.15,0,0,1,60,52.49a.34.34,0,0,1,0,.1A17.09,17.09,0,0,0,64.34,48Z"/><path class="cls-34" d="M59.94,52.63A17.27,17.27,0,0,0,64.34,48l-1.7.17C61,49.36,59.74,50.92,59.94,52.63Z"/><path class="cls-35" d="M61.45,50.3a2.5,2.5,0,0,1,.81.32A17.39,17.39,0,0,0,64.34,48l-1.7.17a8.1,8.1,0,0,0-2.18,2.28A1.47,1.47,0,0,1,61.45,50.3Z"/><path class="cls-29" d="M57.93,53.88a11.19,11.19,0,0,0,1.43-5.35l-.59.06s-.24,2.28-.39,3.33a7.37,7.37,0,0,1-.9,2.29s.84-.12,3.28-.18,2.61-.51,3.09-1.77a32,32,0,0,0,1-4.3l-.47,0A17.21,17.21,0,0,1,57.93,53.88Z"/><path class="cls-36" d="M64.09,49.25c-.85.64-1.6,1.5-2.42,2.16a15.81,15.81,0,0,1-3.32,2.37,1,1,0,0,1-.28.12c0,.12-.28.1-.33.12a5.6,5.6,0,0,0,.9-3c0-.23,0-.46-.07-.69-.06.57-.13,1.14-.19,1.54a7.37,7.37,0,0,1-.9,2.29s.84-.12,3.28-.18,2.61-.51,3.09-1.77a24.55,24.55,0,0,0,.82-3.45C64.47,49,64.28,49.1,64.09,49.25Z"/><path class="cls-37" d="M64.48,48.46A22.85,22.85,0,0,1,62.36,51a19.59,19.59,0,0,1-4.43,3.21c.47,0,1.36-.1,2.83-.13,2.43-.06,2.61-.51,3.09-1.77a31.75,31.75,0,0,0,.95-4.21Z"/><path class="cls-4" d="M64.48,48.46a27.14,27.14,0,0,1-2,2.39c.35-.19.7-.27.91-.05s.05.64,0,.92a4.07,4.07,0,0,1-.5,1.64,3.35,3.35,0,0,1-.43.49c.88-.24,1.07-.72,1.4-1.59a31.75,31.75,0,0,0,.95-4.21Z"/><path class="cls-37" d="M64.94,47.85a2.09,2.09,0,0,0-.22-1.52C64,45.2,62.54,44.75,61.52,44a4.65,4.65,0,0,0-1.78-1,3.75,3.75,0,0,0-2,.49,7,7,0,0,0-3.61,4.27c-.53,1.78.27,4.06.62,5.87,0,.08.15.1.16,0s0-.19,0-.28c.46-1.87,2.81-3.12,4.57-3.34,1.21-.15,2.46.11,3.65-.11A2.48,2.48,0,0,0,64.94,47.85Z"/><path class="cls-38" d="M54.75,53.59a4.93,4.93,0,0,1,2.34-3.47,18.59,18.59,0,0,1,4.69-1.37c.77-.2,1.72-.52,1.85-1.43a2.44,2.44,0,0,0-.9-2.09c-.93-.87-2.11-1.43-3-2.3a4.07,4.07,0,0,0-2,.5,7,7,0,0,0-3.61,4.27c-.53,1.78.27,4.06.62,5.87A0,0,0,0,1,54.75,53.59Z"/><path class="cls-39" d="M57.73,43.43a7.63,7.63,0,0,0-3.49,4.16c-.49,1.61.13,3.81.41,5.46a9.82,9.82,0,0,1,.52-2.63A23.3,23.3,0,0,1,57,46.17c.33-.57,1.76-3.37,2.61-3.24A3.73,3.73,0,0,0,57.73,43.43Zm-2.21,5.26c-.11.17-.11-.32-.12-.35,0-.28-.11-.56-.13-.83a.43.43,0,0,1,.3-.48c.27,0,.33.33.33.53A2.31,2.31,0,0,1,55.52,48.69Z"/><path class="cls-24" d="M57.5,47.54c-.15-.29-.56-.15-.69.08a1.83,1.83,0,0,0-.16.87h0s0,0,0,0h0s0,0,0,0h0l0-.07a2.25,2.25,0,0,1,.24-.36,1,1,0,0,1,.45-.31.11.11,0,0,0,.08-.15A.09.09,0,0,0,57.5,47.54Z"/><path class="cls-24" d="M55.68,47.24a.11.11,0,0,0-.17.09l0,.14a.81.81,0,0,0,0,.31,1.83,1.83,0,0,1,0,.66,0,0,0,0,0,0,0,.54.54,0,0,0,.11-.23C55.77,47.92,55.9,47.47,55.68,47.24Z"/><path class="cls-4" d="M56.49,49.05s-.06-1.32.3-1.66a.8.8,0,0,1,1.1.12c.21.22.06.49-.44.69A1.65,1.65,0,0,0,56.49,49.05Z"/><path class="cls-4" d="M59,31.79l.11,0a3.11,3.11,0,0,1,1.3.35,3.62,3.62,0,0,0-1-.15,6.2,6.2,0,0,0-2.76.73,9.32,9.32,0,0,1,.91.23,3.13,3.13,0,0,1,1.42,1,4.44,4.44,0,0,1,.87,3.24A5.65,5.65,0,0,1,63,35a18.35,18.35,0,0,1,4.7-.84c1.27-.07,2.55,0,3.82-.09A10.3,10.3,0,0,0,75,33.2a14.39,14.39,0,0,1,2.53-1l.12,0-.25-.05a7.63,7.63,0,0,0-7,.51,3.78,3.78,0,0,1,1.87-1,.06.06,0,0,0,0-.11,1.53,1.53,0,0,0-.3,0,.05.05,0,0,0,0-.06,5.6,5.6,0,0,0-4.65.55l.06-.07A3.36,3.36,0,0,1,69,30.8c.05,0,0-.08,0-.09a1.29,1.29,0,0,0-.44,0A4.55,4.55,0,0,0,64.61,32a13.36,13.36,0,0,1-.54-1.37s0,0-.07,0-.08,0-.08,0a4.29,4.29,0,0,0-.05,1.13,2.7,2.7,0,0,0-1.69-.91c-.07,0-.11.09,0,.12l.14.06h0a3.16,3.16,0,0,1,.44.93,3.62,3.62,0,0,0-1.3-.81,2.68,2.68,0,0,0-2.4.51h0s0,0,0,0l0,0S58.94,31.8,59,31.79Z"/><path class="cls-28" d="M63.17,34c-.93-.08-1.65.68-2.35,1.18a.07.07,0,0,0,.07.13L62,34.89c.41-.15.85-.16,1.26-.29S63.48,34,63.17,34Z"/><path class="cls-28" d="M60.63,33.33a.29.29,0,0,0-.17-.24l0,0a.25.25,0,0,0-.27.07l0,0a.28.28,0,0,0,0,.29,2.69,2.69,0,0,1,.28,1.25.07.07,0,0,0,.14,0A3.09,3.09,0,0,0,60.63,33.33Z"/><path class="cls-28" d="M61.37,32.43a3.29,3.29,0,0,1,.05,1.36c0,.09.11.13.14.05a4.69,4.69,0,0,0,.32-1.39C61.94,32.06,61.31,32.08,61.37,32.43Z"/><path class="cls-28" d="M65.18,32.34c-.44-.3-.87,0-1.3.19a9.89,9.89,0,0,0-1.34.77c-.12.09,0,.3.12.24a5.78,5.78,0,0,1,1.53-.36c.44,0,.84,0,1.08-.44A.34.34,0,0,0,65.18,32.34Z"/><path class="cls-28" d="M67.41,33.25a3.83,3.83,0,0,0-1.38.18c-.54.12-1.08.21-1.6.37a.12.12,0,0,0,0,.23c.48,0,1-.09,1.45-.09a5.67,5.67,0,0,0,1.54,0C67.82,33.83,67.74,33.31,67.41,33.25Z"/><path class="cls-28" d="M69.57,31.63a2.38,2.38,0,0,0-1.29.34,11.07,11.07,0,0,1-1.64.67c-.12,0-.07.21,0,.2a9,9,0,0,0,1.54-.21,4.22,4.22,0,0,0,1.46-.45A.31.31,0,0,0,69.57,31.63Z"/><path class="cls-28" d="M72.87,32a7.18,7.18,0,0,0-1.71.85,7,7,0,0,1-2.15.51c-.12,0-.15.22,0,.23a10,10,0,0,0,2.5-.09c.59-.09,1.66-.43,1.7-1.14C73.21,32.15,73.09,32,72.87,32Z"/><path class="cls-28" d="M66.36,31.09c-.34.12-.59.45-.92.61,0,0,0,.11,0,.1a1.79,1.79,0,0,0,1-.52A.12.12,0,0,0,66.36,31.09Z"/><path class="cls-28" d="M63.06,31.66c-.06-.11-.21-.07-.27,0s0,.34-.07.5a1.21,1.21,0,0,1-.19.52.06.06,0,0,0,.08.09,1,1,0,0,0,.4-.46A.83.83,0,0,0,63.06,31.66Z"/><path class="cls-28" d="M58.56,32.26c-.33,0-.31.46,0,.53s.72.11.95.39c.05.06.16,0,.15,0A1,1,0,0,0,58.56,32.26Z"/><path class="cls-28" d="M60.86,32c-.08-.16-.22-.4-.41-.4a.13.13,0,0,0-.14.16c0,.14.18.23.26.34a4.5,4.5,0,0,1,.25.41s.08,0,.1,0A.59.59,0,0,0,60.86,32Z"/><path class="cls-12" d="M70.51,51.77C68.86,53.54,66,53.33,64,54.59a.06.06,0,0,0,0,.11c2.15-.65,5.11-.83,6.52-2.86A.06.06,0,0,0,70.51,51.77Z"/><path class="cls-12" d="M77.67,48.79c-1.87,2.22-4.81,3.57-7.53,4.43a0,0,0,0,0,0,.05c2.81-.38,6.3-1.67,7.62-4.42C77.8,48.79,77.72,48.74,77.67,48.79Z"/><path class="cls-12" d="M79.93,45c0-.06-.1,0-.1,0a6,6,0,0,1-2.27,4.74s0,.09,0,.07A4.38,4.38,0,0,0,79.93,45Z"/><path class="cls-12" d="M82.15,43.72c0-.06-.13,0-.12,0a5.77,5.77,0,0,1-3,5.95c-.06,0,0,.11,0,.09C81.42,48.8,83.26,46.3,82.15,43.72Z"/><path class="cls-12" d="M82.82,41.55a1.57,1.57,0,0,0-.82-.86,3.67,3.67,0,0,0-3.27-1.34c-.37,0-.74.11-1.11.16a3.45,3.45,0,0,0,.55-.36,1.78,1.78,0,0,0,.84-.81.13.13,0,0,0-.13-.18,3.1,3.1,0,0,0-1.91.72s0,.1,0,.07a6.36,6.36,0,0,1,.93-.4.67.67,0,0,1,.68-.07,2.44,2.44,0,0,1-.43.35,6.29,6.29,0,0,0-1,.74.1.1,0,0,0,.08.16,8.34,8.34,0,0,1,2.23-.13,5.3,5.3,0,0,1,1.92.89,7.91,7.91,0,0,0-2.36-.09s0,.09,0,.09a6.64,6.64,0,0,1,3.62,1.13S82.85,41.61,82.82,41.55Z"/><path class="cls-12" d="M81.14,42.4c-.79-1-2.46-.94-3.57-.67,0,0,0,.05,0,.05a6.6,6.6,0,0,1,3.49.69S81.16,42.44,81.14,42.4Z"/></g></g></g></svg>