<svg xmlns="http://www.w3.org/2000/svg" viewBox="0 0 119.83 100"><defs><style>.cls-1{isolation:isolate;}.cls-2,.cls-8{fill:#f4a54e;}.cls-3{fill:#faf9e8;}.cls-10,.cls-4,.cls-5,.cls-6,.cls-7,.cls-9{fill:#ac5c1a;}.cls-4{opacity:0.8;}.cls-10,.cls-12,.cls-13,.cls-14,.cls-17,.cls-18,.cls-4,.cls-5,.cls-6,.cls-7,.cls-9{mix-blend-mode:multiply;}.cls-13,.cls-5,.cls-8{opacity:0.4;}.cls-6{opacity:0.6;}.cls-7{opacity:0.2;}.cls-8{mix-blend-mode:screen;}.cls-9{opacity:0.15;}.cls-10{opacity:0.3;}.cls-11{fill:#f9a793;}.cls-12{fill:#af743c;}.cls-14{fill:#491c00;}.cls-15{fill:#fff;}.cls-16{fill:#6a5d53;}.cls-17,.cls-18{fill:#393335;}.cls-17{opacity:0.5;}.cls-19{fill:#ffd4a9;}</style></defs><title>Ресурс 2</title><g class="cls-1"><g id="Слой_2" data-name="Слой 2"><g id="Layer_1" data-name="Layer 1"><path class="cls-2" d="M96.28,74.7a14.62,14.62,0,0,0-1.55-3,13.41,13.41,0,0,1-1.57-2.85,6.69,6.69,0,0,1-.2-.77,14.39,14.39,0,0,1,0-2,20.8,20.8,0,0,1,.51-2.59c.26-1.36-1-2.7-1.81-3.61A20.12,20.12,0,0,0,84,55c-5.18-2-11.61-2.13-16,1.7a10.3,10.3,0,0,0-3.13,4.76,8.07,8.07,0,0,0-.3,2.58c0,.48,0,1.22.57,1.42h0c2.11,5.11,7.1,8.37,12.21,10a30.93,30.93,0,0,0,3.71.92,14.55,14.55,0,0,1,3.54,1,2.87,2.87,0,0,1,1.79,3.06,17.15,17.15,0,0,1-1.14,4.09c-1,3-1.59,6.56-4.54,8.28a2.46,2.46,0,0,0-1.36-.58,1.85,1.85,0,0,0-1.06.24,2.89,2.89,0,0,0-2.46-.81,1.61,1.61,0,0,0-1,.86,1.61,1.61,0,0,0-1.69-.09,1.83,1.83,0,0,0-.9,1.81c0,1.65,1.28,4,3.22,3.37a3.64,3.64,0,0,0,2.58.21.22.22,0,0,0,.09-.07c1.15.58,2.83.27,4,.42a.05.05,0,0,0,0,0c1.39.09,3.06-.1,3.46-1.52a5.06,5.06,0,0,0,.15-1.29,6,6,0,0,1,.52-2.08,20.41,20.41,0,0,1,2.22-3.66c1.54-2.19,3.12-4.34,4.54-6.62a28.78,28.78,0,0,0,3.23-6.53A2.08,2.08,0,0,0,96.28,74.7Z"/><path class="cls-3" d="M75.15,66.36a17.54,17.54,0,0,0,17.29,6.58c2.47-.47.56-2.56.56-3.85,0-.25,0-.49,0-.73L93,68.09a14.39,14.39,0,0,1,0-2,20.8,20.8,0,0,1,.51-2.59c.26-1.36-1-2.7-1.81-3.61A20.12,20.12,0,0,0,84,55c-5.18-2-11.61-2.13-16,1.7a10.3,10.3,0,0,0-3.13,4.76,8.07,8.07,0,0,0-.3,2.58,2,2,0,0,0,.32,1.25c-.51-.55,5.09-3.17,6.22-3C72.74,62.54,73.85,64.71,75.15,66.36Z"/><path class="cls-3" d="M93.15,81.67c-1.12,1.1-2.3,2.13-3.5,3.14a12.48,12.48,0,0,1-2.75,2c-1.3.57-1.41-.79-1.32-1.74.08-.77.22-1.53.33-2.29-.2.61-.42,1.21-.63,1.8-1,3-1.59,6.56-4.54,8.28a2.46,2.46,0,0,0-1.36-.58,1.85,1.85,0,0,0-1.06.24,2.89,2.89,0,0,0-2.46-.81,1.61,1.61,0,0,0-1,.86,1.61,1.61,0,0,0-1.69-.09,1.83,1.83,0,0,0-.9,1.81c0,1.65,1.28,4,3.22,3.37a3.64,3.64,0,0,0,2.58.21.22.22,0,0,0,.09-.07c1.15.58,2.83.27,4,.42a.05.05,0,0,0,0,0c1.39.09,3.06-.1,3.46-1.52a5.06,5.06,0,0,0,.15-1.29,6,6,0,0,1,.52-2.08,20.41,20.41,0,0,1,2.22-3.66c1.54-2.19,3.12-4.34,4.54-6.62.68-1.09,1.34-2.2,1.92-3.36C94.43,80.35,93.8,81,93.15,81.67Z"/><path class="cls-4" d="M96.28,74.7a14.62,14.62,0,0,0-1.55-3,13.41,13.41,0,0,1-1.57-2.85,6.69,6.69,0,0,1-.2-.77,14.39,14.39,0,0,1,0-2,20.8,20.8,0,0,1,.51-2.59c.26-1.36-1-2.7-1.81-3.61A20.12,20.12,0,0,0,84,55c-5.18-2-11.61-2.13-16,1.7a10.3,10.3,0,0,0-3.13,4.76,8.07,8.07,0,0,0-.3,2.58c0,.48,0,1.22.57,1.42h0c2.11,5.11,7.1,8.37,12.21,10a30.93,30.93,0,0,0,3.71.92,14.55,14.55,0,0,1,3.54,1,2.87,2.87,0,0,1,1.79,3.06,17.15,17.15,0,0,1-1.14,4.09c-1,3-1.59,6.56-4.54,8.28a2.46,2.46,0,0,0-1.36-.58,1.85,1.85,0,0,0-1.06.24,2.89,2.89,0,0,0-2.46-.81,1.61,1.61,0,0,0-1,.86,1.61,1.61,0,0,0-1.69-.09,1.83,1.83,0,0,0-.9,1.81c0,1.65,1.28,4,3.22,3.37a3.64,3.64,0,0,0,2.58.21.22.22,0,0,0,.09-.07c1.15.58,2.83.27,4,.42a.05.05,0,0,0,0,0c1.39.09,3.06-.1,3.46-1.52a5.06,5.06,0,0,0,.15-1.29,6,6,0,0,1,.52-2.08,20.41,20.41,0,0,1,2.22-3.66c1.54-2.19,3.12-4.34,4.54-6.62a28.78,28.78,0,0,0,3.23-6.53A2.08,2.08,0,0,0,96.28,74.7Z"/><path class="cls-5" d="M96.28,74.7a14.62,14.62,0,0,0-1.55-3,13.41,13.41,0,0,1-1.57-2.85,6.69,6.69,0,0,1-.2-.77,14.39,14.39,0,0,1,0-2,20.8,20.8,0,0,1,.51-2.59c.26-1.36-1-2.7-1.81-3.61A20.12,20.12,0,0,0,84,55c-5.18-2-11.61-2.13-16,1.7a10.3,10.3,0,0,0-3.13,4.76,8.07,8.07,0,0,0-.3,2.58c0,.48,0,1.22.57,1.42h0c2.11,5.11,7.1,8.37,12.21,10,.42.14.85.26,1.28.37l-.13,0A29.58,29.58,0,0,1,75.07,74a13.69,13.69,0,0,1-3.21-2.39A4,4,0,0,1,70.46,69c.09-2.25,3.3-2.78,5-3A14.18,14.18,0,0,1,83.2,67a17.91,17.91,0,0,1,4.07,2.54c1.32,1.08,2.57,2.25,4,3.23a13.76,13.76,0,0,0,2.26,1.32,3.42,3.42,0,0,1,1.28.9c.57.7.22,1.69-.06,2.43a42.91,42.91,0,0,1-5,9.16c-1,1.45-2,2.89-3.11,4.28a19.44,19.44,0,0,1-1.52,1.75c-.46.46-1.08,1-1,1.76,0,.06,0,.09-.07.1,0,.41-.19.68-.74.56-.86-.2-.66.6-1.15.92a2,2,0,0,1-1.36.14c-.69-.07-1.38-.11-2.06-.24a2.19,2.19,0,0,1-1.3-.51,1.4,1.4,0,0,1-.39-1.12c-.41.76-.81,1.63-1.71,1.52-1.19-.15-1.1-1.1-1-2a7.51,7.51,0,0,0-.47,1,3.49,3.49,0,0,1-.37.89.67.67,0,0,1-.9.31c.52,1.13,1.52,2,2.81,1.63a3.64,3.64,0,0,0,2.58.21.22.22,0,0,0,.09-.07c1.15.58,2.83.27,4,.42a.05.05,0,0,0,0,0c1.39.09,3.06-.1,3.46-1.52a5.06,5.06,0,0,0,.15-1.29,6,6,0,0,1,.52-2.08,20.41,20.41,0,0,1,2.22-3.66c1.54-2.19,3.12-4.34,4.54-6.62a28.78,28.78,0,0,0,3.23-6.53A2.08,2.08,0,0,0,96.28,74.7Z"/><path class="cls-6" d="M85.92,93.71a7.1,7.1,0,0,0-.36,1.48,6.38,6.38,0,0,1-.2,1.37,1.89,1.89,0,0,1-1.25,1.09,8.75,8.75,0,0,1-2.62.3C80.3,97.78,79,98,78,97.27a2.75,2.75,0,0,1-.73-2.69,2.36,2.36,0,0,1,2-2,1.85,1.85,0,0,1,1.29.46l0,0c-.06-.08.11.1.12.12l.09.08,0,0a10,10,0,0,1,1.42,1.83s.09,0,.07,0a8.15,8.15,0,0,0-1.12-1.8l-.2-.17-.3-.3a2.43,2.43,0,0,0-1.28-.52,1.85,1.85,0,0,0-1.06.24,2.89,2.89,0,0,0-2.46-.81,1.61,1.61,0,0,0-1,.86,1.61,1.61,0,0,0-1.69-.09,1.83,1.83,0,0,0-.9,1.81c0,1.65,1.28,4,3.22,3.37a3.64,3.64,0,0,0,2.58.21.22.22,0,0,0,.09-.07c1.15.58,2.83.27,4,.42a.05.05,0,0,0,0,0c1.39.09,3.06-.1,3.46-1.52a5.06,5.06,0,0,0,.15-1.29,6,6,0,0,1,.52-2.08,13.28,13.28,0,0,1,1-1.78A9.25,9.25,0,0,0,85.92,93.71ZM73.38,96.56a3.94,3.94,0,0,1-.75-1.84,2,2,0,0,1,.44-1.86,1.55,1.55,0,0,1,1.71-.16,5.19,5.19,0,0,0-.4,1.38,4.18,4.18,0,0,0,.48,3,2.43,2.43,0,0,0,.24.3A2.16,2.16,0,0,1,73.38,96.56Zm1.7.16a4,4,0,0,1-.36-2.58c.11-.79.43-1.82,1.25-2.13s1.49.31,2.16.61a3.26,3.26,0,0,0-1.06,1.43,3.42,3.42,0,0,0,.31,3,1.93,1.93,0,0,0,.41.44C76.77,97.68,75.71,97.69,75.08,96.72Z"/><path class="cls-2" d="M119.52,95.16a5.54,5.54,0,0,0-1.67-2.42,1,1,0,0,0-.84-.19.13.13,0,0,0,0,0c-.8-.87-.84-2.29-.94-3.4-.15-1.43-.49-2.85-.77-4.27s-.68-3-1.06-4.5a23.84,23.84,0,0,0-1.41-4.46c-.57-1.19-1.4-2.22-2-3.37a17,17,0,0,1-1.43-4.11c-.35-1.46-.66-2.94-1-4.42s-.5-2.92-.88-4.34c-.15-1.87-.37-3.74-.65-5.57a59.36,59.36,0,0,0-1.36-7.85,14.65,14.65,0,0,0-3.8-5.86c-.28-.29-.58-.58-.89-.86a8.4,8.4,0,0,0,1.69-.23,5.83,5.83,0,0,0,1.81-.73,5.57,5.57,0,0,0,1.65-1.4.05.05,0,0,0-.07-.08l-.36.24c-.29.07-.57.15-.86.21a5,5,0,0,0,1.55-1.2,6.88,6.88,0,0,0,1.32-2.83,14.18,14.18,0,0,0-.13-7,16.44,16.44,0,0,0-3.35-6.29A14.53,14.53,0,0,0,98.79,16a18.9,18.9,0,0,0-11.13-2.56A20.39,20.39,0,0,0,81.22,15a13.09,13.09,0,0,0-2.44,1.45,4.08,4.08,0,0,0-1.31,1.43,4.94,4.94,0,0,1,.28-1.24s0-.06-.06,0l-.14.19v0c-1.16.78-2.38,2.33-1.91,3.71A2.31,2.31,0,0,1,74.9,19s0,0-.05,0h0a1.58,1.58,0,0,0-.29,1.52,1.68,1.68,0,0,0,.71,1.15,2.75,2.75,0,0,0-2.11,1.2c-.12.15-.63,1.06-.42,1.21h0s0,0,0,0a7.71,7.71,0,0,0,1-.46,6,6,0,0,0-.75,2.47,10.06,10.06,0,0,0,0,1.82c-.54.18-1.08.36-1.61.56-1.71.64-3.4,1.3-5.09,2-2.84,1.13-6.4,2.36-9.4,1.1h0A15.63,15.63,0,0,1,51.62,26a14.44,14.44,0,0,0-.49-1.67,6.75,6.75,0,0,0-.52-1.51A9,9,0,0,0,48,19.9a19.62,19.62,0,0,0-8.69-4.16C33,14.67,26.3,16.63,21,20.08a20.49,20.49,0,0,0-8.59,10.84C11,35.57,11.49,41.24,14.72,45a19.14,19.14,0,0,0,1.62,3.79,13.9,13.9,0,0,0,2.26,3,9.53,9.53,0,0,0,1.66,1.35h0c1.17.81,1.69,2.41,2.16,3.67a26.14,26.14,0,0,0,1.9,4.13,16.48,16.48,0,0,0,3.13,4,6.06,6.06,0,0,0,.56.47l0,.05a5.35,5.35,0,0,1,1.44,2.49c.33,1,.58,1.94.87,2.9.42,1.38.84,2.76,1.2,4.16a28,28,0,0,1,.75,4.74,40.34,40.34,0,0,1,0,8.65,16.16,16.16,0,0,1-1,3.62,5.22,5.22,0,0,1-1.78,2.38,2.47,2.47,0,0,0-.38-.05,1.84,1.84,0,0,0-.84.18,2.25,2.25,0,0,0-2.48-.3,1.75,1.75,0,0,0-.52.53,1.43,1.43,0,0,0-1.4,0,2.13,2.13,0,0,0-.79,1.76c-.14,1.45.7,2.9,2.33,2.63a3.22,3.22,0,0,0,1.94.22,6.23,6.23,0,0,0,2.8.58,12.9,12.9,0,0,0,2.91-.11s0,0,0,0a3.33,3.33,0,0,0,2.15-1c.58-.8.43-2.22.4-3.15a13,13,0,0,1,0-2.07,4.81,4.81,0,0,1,.87-2.07c.73-1.12,1.51-2.2,2.27-3.29a41.75,41.75,0,0,0,4-6.72,20.47,20.47,0,0,0,1.25-3.91,16.43,16.43,0,0,0,.35-2,5.82,5.82,0,0,1,.39-1.85,6.84,6.84,0,0,1,1.4.64l.06,0A42.41,42.41,0,0,1,47,80.06c.28,4.51.13,9.52-2.39,13.42l.06,0c-.14.13-.26.27-.38.4-.79-.72-1.75-1.1-2.68-.35a4.23,4.23,0,0,0-1.27,2.62,3.68,3.68,0,0,0,.42,2.72c.75,1.09,2.23.73,3.31.5a.21.21,0,0,0,.11-.07,2.62,2.62,0,0,0,.46.19,3.41,3.41,0,0,0,2.55-.13l.12-.07a.17.17,0,0,0,.08.06,3.34,3.34,0,0,0,3.44-.26,4.3,4.3,0,0,0,1.29-2.9,2,2,0,0,0-.76-1.88l.16,0c1.15-3.06,3.06-5.7,4.79-8.45a39.64,39.64,0,0,0,4.37-9.09,27,27,0,0,0,1.14-5.44,12.6,12.6,0,0,0,4.53-3.61c1.55-1.09,3.07-2.26,4.71-3.21a11.46,11.46,0,0,1,6.28-1.6,36.59,36.59,0,0,1,7.63,1.38,29,29,0,0,1,3.42,1,11.44,11.44,0,0,1,1.86.91q2.43,2.12,5,4.11c1.34,1.47,2.88,2.78,4.32,4.12a43.81,43.81,0,0,1,5.15,5.74c1.51,2,2.86,4.16,4.2,6.3.68,1.08,1.37,2.15,2,3.24a6.73,6.73,0,0,1,.8,1.82,3.82,3.82,0,0,1,.07,1.26,1.49,1.49,0,0,0-1.6.51,5.74,5.74,0,0,0-1.56,3.27,2.53,2.53,0,0,0,1.31,2.1c.57.38,1.45.56,1.91,0a2.27,2.27,0,0,0,.34.49,3.1,3.1,0,0,0,2.2.57c1,0,2.42-.18,2.87-1.06a2.15,2.15,0,0,0,2.27-.67C120.06,97.3,119.8,95.9,119.52,95.16Z"/><path class="cls-5" d="M100.8,39.49a6.85,6.85,0,0,0,.78-.07,23.19,23.19,0,0,0-5.43-3.6c-3.4-1.47-7.13-1.32-10.68-2.17a17.24,17.24,0,0,1-7.89-4.4,8.82,8.82,0,0,1-2.37-3.53,13.7,13.7,0,0,1-.53-4,3.1,3.1,0,0,0-1.55,1.13c-.12.15-.63,1.06-.42,1.21h0s0,0,0,0a7.71,7.71,0,0,0,1-.46,6,6,0,0,0-.75,2.47,6.74,6.74,0,0,0,0,1,1.88,1.88,0,0,1,.2,1.27,7.53,7.53,0,0,0,.09,2.27,16,16,0,0,0,1.42,4.41,11.27,11.27,0,0,0,6,5.06,20.13,20.13,0,0,0,7.89,1.53,13.81,13.81,0,0,0,3.67-.49,43.91,43.91,0,0,1,4.6-1.47,7.06,7.06,0,0,1,5.55,1.4c-.24-.27-.49-.54-.74-.8S101.11,39.77,100.8,39.49Z"/><path class="cls-3" d="M107.4,26.47a16.44,16.44,0,0,0-3.35-6.29A14.53,14.53,0,0,0,98.79,16a18.9,18.9,0,0,0-11.13-2.56A20.39,20.39,0,0,0,81.22,15a13.09,13.09,0,0,0-2.44,1.45,4.08,4.08,0,0,0-1.31,1.43,4.94,4.94,0,0,1,.28-1.24s0-.06-.06,0l-.14.19v0c-1.16.78-2.38,2.33-1.91,3.71A2.31,2.31,0,0,1,74.9,19s0,0-.05,0h0a1.58,1.58,0,0,0-.29,1.52,1.68,1.68,0,0,0,.71,1.15,2.75,2.75,0,0,0-2.11,1.2c-.12.15-.63,1.06-.42,1.21h0s0,0,0,0a7.71,7.71,0,0,0,1-.46,6,6,0,0,0-.75,2.47,10.22,10.22,0,0,0,.37,4A12.7,12.7,0,0,0,77,36.29a11.65,11.65,0,0,0,6.71,2.94,13.35,13.35,0,0,0,4-.22l.21-.06c2.34.84,5,0,7-1.29a1,1,0,0,0,.43-.25s0-.06,0,0a2,2,0,0,1-.9,0,5.93,5.93,0,0,0,2-1h0l.15-.12h0l.65-.51a8.48,8.48,0,0,0,1.61-1.72,3.82,3.82,0,0,0,.48-1c.06-.16.17-.77.17-.77a2.61,2.61,0,0,1-.9,1.09,6.32,6.32,0,0,0,1-1.93,8.39,8.39,0,0,0,.65-4.57,3.19,3.19,0,0,1-.33,1.26,9.64,9.64,0,0,0-.22-2.89,8.39,8.39,0,0,0-1.47-3.46,5.91,5.91,0,0,0-3-2.17,4.19,4.19,0,0,0-2.11,0q.3-.11.6-.24a0,0,0,0,0,0,0,0,0,0,0,0,0-.05,6.51,6.51,0,0,0-4.49.49,3.64,3.64,0,0,0-1.71,2.82,3.86,3.86,0,0,1,.16-1.42h0l.09-.17s0,0,0,0c-1.17,1.35-1.66,4.2.41,5,0,0,.06,0,0,0l-.11-.1a2.91,2.91,0,0,1-.45-.48,2.91,2.91,0,0,0,.45.48c-.62-2.12,2.44-3.45,3.75-2.45,3.61,2.77.39,6.61-1.61,6.89a11.35,11.35,0,0,0,.57-1.83c-.84,1.13-2.57,1.36-3.89,1.72a6,6,0,0,0,.87-.74c-2.35.35-4.23-1.6-4.92-3.33-1.44-3.62,1.26-7.47,4.38-9-.32-.05-.9,0-.78,0A13.76,13.76,0,0,1,94.12,17a4.33,4.33,0,0,1-1.18-.58,13.08,13.08,0,0,1,6.75,2.86,10.37,10.37,0,0,1,3.69,7.6c.27-.28.27-.36.53-.65a9.27,9.27,0,0,1-.18,4.18,6.61,6.61,0,0,1-1.45,2.46,13.54,13.54,0,0,0,2-1.52,6.67,6.67,0,0,1-3.84,5.39c.69,0,2.17-.44,2.08-.36-.61.48-1.6,1.48-2.53,1.54a3.41,3.41,0,0,0,2,.37,7.58,7.58,0,0,0,2.62-.43l.18-.07a10.55,10.55,0,0,0,1-.47,1.84,1.84,0,0,0,.17-.22.05.05,0,0,0-.07-.08l-.36.24c-.29.07-.57.15-.86.21a5,5,0,0,0,1.55-1.2,6.88,6.88,0,0,0,1.32-2.83A14.18,14.18,0,0,0,107.4,26.47Z"/><path class="cls-3" d="M44.4,66.27a6,6,0,0,1,.06-2.42,9.65,9.65,0,0,1,1.17-2.47A22.33,22.33,0,0,0,48,56.76a24.86,24.86,0,0,1-3.29,4.35A.12.12,0,0,1,44.5,61c.23-.4.45-.79.65-1.2-1.5,1.78-3.84,2.8-4.91,4.93a.12.12,0,0,1-.21-.12,5.37,5.37,0,0,0,.53-1.32c-.54.63-1.14,1.19-1.7,1.79a4.85,4.85,0,0,0-1.5,2.43l.27,0c.15,0,.15.25,0,.24l-.28,0a.12.12,0,0,1-.23,0A23,23,0,0,1,29.31,65a19.05,19.05,0,0,1-4.08-2.62,16.17,16.17,0,0,0,2.22,2.53,6.06,6.06,0,0,0,.56.47l0,.05h0c.85.48,1.65,1,2.54,1.46,1.2.56,2.4,1.08,3.57,1.72,1.61.88,3.3,2,3.93,3.86,1.09,3.16.37,6.72-.32,9.89a42.36,42.36,0,0,1-1.42,5.19,21.14,21.14,0,0,1-2,4.44,3.8,3.8,0,0,1-2.6,1.94,1,1,0,0,1-1.08-.75,4.81,4.81,0,0,1-1.15,1.19,2.47,2.47,0,0,0-.38-.05,1.84,1.84,0,0,0-.84.18,2.25,2.25,0,0,0-2.48-.3,1.75,1.75,0,0,0-.52.53,1.43,1.43,0,0,0-1.4,0,2.13,2.13,0,0,0-.79,1.76c-.14,1.45.7,2.9,2.33,2.63a3.22,3.22,0,0,0,1.94.22,6.23,6.23,0,0,0,2.8.58,12.9,12.9,0,0,0,2.91-.11s0,0,0,0a3.33,3.33,0,0,0,2.15-1c.58-.8.43-2.22.4-3.15a13,13,0,0,1,0-2.07,4.81,4.81,0,0,1,.87-2.07c.73-1.12,1.51-2.2,2.27-3.29a41.75,41.75,0,0,0,4-6.72,20.47,20.47,0,0,0,1.25-3.91,16.43,16.43,0,0,0,.35-2,5.82,5.82,0,0,1,.39-1.85,7.38,7.38,0,0,1,1.34.6,17.28,17.28,0,0,0-.37-2.36C45.34,70.15,44.7,68.24,44.4,66.27Z"/><path class="cls-3" d="M119.52,95.16a5.54,5.54,0,0,0-1.67-2.42,1,1,0,0,0-.84-.19.13.13,0,0,0,0,0c-.8-.87-.84-2.29-.94-3.4-.15-1.43-.49-2.85-.77-4.27s-.68-3-1.06-4.5a23.84,23.84,0,0,0-1.41-4.46,24.75,24.75,0,0,0-1.42-2.37h0a45.81,45.81,0,0,1,.78,5.08,7.4,7.4,0,0,1-.24,3.47c-.51,1.21-1.94.79-2.84.24a16.88,16.88,0,0,1-4.51-4.86c-1.26-1.77-2.48-3.51-3.85-5.19C99,70.12,97.3,68,95.44,66A28.36,28.36,0,0,0,89,60.52a14.4,14.4,0,0,0-8.71-1.84C77,59,73.88,60.19,70.67,61c-2.08.51-4.53.77-6-1a1.73,1.73,0,0,0,0,.6.11.11,0,0,1-.21.09,24.52,24.52,0,0,0-5.72-7.46,19,19,0,0,1,1.25,5,68.79,68.79,0,0,1,1,9.05A30.53,30.53,0,0,1,59.73,76a22.37,22.37,0,0,1-2.95,6.73A27,27,0,0,1,52.47,89a13.51,13.51,0,0,1-3.3,2.78c-.72.37-1.6.59-2.2-.11s-.45-2.26-.32-3.25a26.14,26.14,0,0,0,.3-2.82,16.66,16.66,0,0,1-2.39,7.84l.06,0c-.14.13-.26.27-.38.4-.79-.72-1.75-1.1-2.68-.35a4.23,4.23,0,0,0-1.27,2.62,3.68,3.68,0,0,0,.42,2.72c.75,1.09,2.23.73,3.31.5a.21.21,0,0,0,.11-.07,2.62,2.62,0,0,0,.46.19,3.41,3.41,0,0,0,2.55-.13l.12-.07a.17.17,0,0,0,.08.06,3.34,3.34,0,0,0,3.44-.26,4.3,4.3,0,0,0,1.29-2.9,2,2,0,0,0-.76-1.88l.16,0c1.15-3.06,3.06-5.7,4.79-8.45a39.64,39.64,0,0,0,4.37-9.09,27,27,0,0,0,1.14-5.44,12.6,12.6,0,0,0,4.53-3.61c1.55-1.09,3.07-2.26,4.71-3.21a11.46,11.46,0,0,1,6.28-1.6,36.59,36.59,0,0,1,7.63,1.38,29,29,0,0,1,3.42,1,11.44,11.44,0,0,1,1.86.91q2.43,2.12,5,4.11c1.34,1.47,2.88,2.78,4.32,4.12a43.81,43.81,0,0,1,5.15,5.74c1.51,2,2.86,4.16,4.2,6.3.68,1.08,1.37,2.15,2,3.24a6.73,6.73,0,0,1,.8,1.82,3.82,3.82,0,0,1,.07,1.26,1.49,1.49,0,0,0-1.6.51,5.74,5.74,0,0,0-1.56,3.27,2.53,2.53,0,0,0,1.31,2.1c.57.38,1.45.56,1.91,0a2.27,2.27,0,0,0,.34.49,3.1,3.1,0,0,0,2.2.57c1,0,2.42-.18,2.87-1.06a2.15,2.15,0,0,0,2.27-.67C120.06,97.3,119.8,95.9,119.52,95.16Z"/><path class="cls-3" d="M52.17,30.5a26,26,0,0,0-.43-3.94l.1.2c-.05-.22-.11-.45-.16-.68L51.62,26a14.44,14.44,0,0,0-.49-1.67,6.75,6.75,0,0,0-.52-1.51A9,9,0,0,0,48,19.9a19.62,19.62,0,0,0-8.69-4.16C33,14.67,26.3,16.63,21,20.08a20.49,20.49,0,0,0-8.59,10.84C11,35.57,11.49,41.24,14.72,45a19.14,19.14,0,0,0,1.62,3.79,13.9,13.9,0,0,0,2.26,3,9.53,9.53,0,0,0,1.66,1.35h0a1.33,1.33,0,0,1,.19.14l.17.15h0c.21.1.41.21.61.32l-.16-.16q.51.25,1.08.48h0l.17.16a0,0,0,0,0,.06,0,3.9,3.9,0,0,0-.19-.35,12.91,12.91,0,0,0,3.32,2.37A16.2,16.2,0,0,0,29,57.34a17.12,17.12,0,0,0,3.64.26l2.27.38a9.67,9.67,0,0,0,2.68.19h0C39.07,57,40.53,55.79,42,54.58a14.45,14.45,0,0,0,2-1.92c-.13.27-.27.54-.42.79,0,.06.05.09.08.06a3.37,3.37,0,0,0,.59-.76,10.43,10.43,0,0,0,2.19-2.62,10.45,10.45,0,0,0,1.41-2.93,15.13,15.13,0,0,0,.58-2.48c0-.22.07-.45.1-.68a9.19,9.19,0,0,1,0,1.66h0s0,0,0,0,.08.09.1,0a18.09,18.09,0,0,0,1.64-4.7,14.48,14.48,0,0,0,.28-2.46,7.47,7.47,0,0,0-.09-1.24,10.64,10.64,0,0,1,.22,2.39.05.05,0,0,0,0,0c0,.12-.07.25-.12.38s.08.13.12,0a13.82,13.82,0,0,0,1.17-4.56A26.4,26.4,0,0,0,52.17,30.5Z"/><path class="cls-6" d="M51.74,26.56c0,.05,0,.1.07.14a3.86,3.86,0,0,1-.06-.49L51.62,26a14.44,14.44,0,0,0-.49-1.67,6.75,6.75,0,0,0-.52-1.51A9,9,0,0,0,48,19.9a19.62,19.62,0,0,0-8.69-4.16C33,14.67,26.3,16.63,21,20.08a20.49,20.49,0,0,0-8.59,10.84C11,35.57,11.49,41.24,14.72,45a19.14,19.14,0,0,0,1.62,3.79,13.9,13.9,0,0,0,2.26,3,9.53,9.53,0,0,0,1.66,1.35h0a1.33,1.33,0,0,1,.26.21l.06,0,.59.31-.1-.1q.51.25,1.08.48h0l.17.16a0,0,0,0,0,.06,0,3.9,3.9,0,0,0-.19-.35,12.91,12.91,0,0,0,3.32,2.37A16.2,16.2,0,0,0,29,57.34a23.29,23.29,0,0,0,4.26.28c.05,0,.07-.08,0-.09-1.27-.22-2.56-.18-3.82-.44A18.13,18.13,0,0,1,26,56a17.25,17.25,0,0,1-5.79-4.57h0A4.63,4.63,0,0,1,19.9,51s0,0,0,0a8.06,8.06,0,0,0,1.06,1.66,11.44,11.44,0,0,0,.9,1.06,13.48,13.48,0,0,1-5.21-5.09c-1.42-2.4-2.05-5.17-2.83-7.82,0,0-.09,0-.08,0a36.25,36.25,0,0,0,.87,3.74c-3.43-5-3.15-11.92-.18-17.12,3.1-5.41,8.91-9,14.8-10.65a20.49,20.49,0,0,1,14,.6A20.89,20.89,0,0,1,49,21.27a7.43,7.43,0,0,1,2.23,5.34c0,.12.18.1.18,0a1.61,1.61,0,0,0,0-.22,32.36,32.36,0,0,1,.44,3.93,27,27,0,0,1-.23,5.08,34.5,34.5,0,0,1-.69,3.76,5.46,5.46,0,0,0-.52-2.61s0,0,0,0c0-.21-.07-.43-.1-.65,0,0,0,0,0,0,0,.78.11,1.56.12,2.34A15.85,15.85,0,0,1,50,41a21.48,21.48,0,0,1-.65,2.63c-.16.51-.39,1-.58,1.49a11.46,11.46,0,0,0,0-1.43,5.8,5.8,0,0,0-.37-2,0,0,0,0,0-.07,0,3.86,3.86,0,0,1,.06.49,14.49,14.49,0,0,1-.83,4.73,11.11,11.11,0,0,1-2.38,4.53s0,.09.06.06a9.64,9.64,0,0,0,2.61-4.31,15.13,15.13,0,0,0,.58-2.48c0-.22.07-.45.1-.68a9.19,9.19,0,0,1,0,1.66h0s0,0,0,0,.08.09.1,0a18.09,18.09,0,0,0,1.64-4.7,14.48,14.48,0,0,0,.28-2.46,7.47,7.47,0,0,0-.09-1.24,10.64,10.64,0,0,1,.22,2.39.05.05,0,0,0,0,0c0,.12-.07.25-.12.38s.08.13.12,0a13.82,13.82,0,0,0,1.17-4.56,26.4,26.4,0,0,0,.3-5.17A26,26,0,0,0,51.74,26.56Z"/><path class="cls-7" d="M63.66,33.26c-1.24-.34,1.21-1.54,2.59-2.43,1.64-1.06,4.52-1.92,4.5-2.06q-2.2.84-4.4,1.72c-2.84,1.13-6.4,2.36-9.4,1.1h0a17.05,17.05,0,0,1-3.3-2.8c.22.28.44.57.67.83.44.5.91,1,1.38,1.45.38.29.78.57,1.19.84a14.72,14.72,0,0,0,3.9,2,22.45,22.45,0,0,0,5.35.78l8.79.36C73.34,34.81,66,33.91,63.66,33.26Z"/><path class="cls-7" d="M65.66,34.2c-1.95-.29-4.21-.29-5.85-1.56-.07,0,0-.18,0-.19a23.39,23.39,0,0,0,4-1c-2.26.71-4.71,1.08-6.86.18h0a17.05,17.05,0,0,1-3.3-2.8c.22.28.44.57.67.83.44.5.91,1,1.38,1.45.38.29.78.57,1.19.84a14.72,14.72,0,0,0,3.9,2,22.45,22.45,0,0,0,5.35.78l5.24.22C69.46,34.7,67.55,34.48,65.66,34.2Z"/><path class="cls-5" d="M88.5,19.93a3.17,3.17,0,0,0-1.41,1,5.36,5.36,0,0,0-1.31,3,2.68,2.68,0,0,0,1.63,2.75,2.6,2.6,0,0,0,2.43-.19,1.22,1.22,0,0,1-1.39-1c-.2-1,.75-1.68,1.61-1.83a3.63,3.63,0,0,1,3,1.19,3.25,3.25,0,0,0-.8-1.42,2.46,2.46,0,0,0-3.07-.69.12.12,0,0,1-.15-.18c.22-.21.44-.41.67-.6a3.42,3.42,0,0,0-1.82,1.6.12.12,0,0,1-.22-.06,4,4,0,0,1,.87-3.14s0-.05,0-.08a5.08,5.08,0,0,1,.56-.46C88.93,19.83,88.72,19.86,88.5,19.93Z"/><path class="cls-5" d="M107.4,26.47a14.9,14.9,0,0,0-1.65-3.87,18.4,18.4,0,0,1,1.35,4.82,9.93,9.93,0,0,1-.77,5.89,4.85,4.85,0,0,1-1.41,1.89c-.76.6-2.35,1.29-3.29.75-1.52-.86.14-2.88.55-4.33a4.65,4.65,0,0,1-.59.49c-.08.06-.2,0-.17-.13.57-1.85,1.23-3.68.9-5.61a2.52,2.52,0,0,1-.62,1.33.12.12,0,0,1-.2-.05c-.63-2.8-1.54-6-4-7.73a7.33,7.33,0,0,0-8.14,0,7.43,7.43,0,0,1,6.84,1.23,6.35,6.35,0,0,1,2.27,7c0,.1-.2.12-.22,0a3,3,0,0,0-.26-.74c.57,5.51-4.86,9.26-9.9,9.69a.13.13,0,0,1-.09-.21c.53-.43,1.15-.78,1.41-1.43-1.76.16-3.34,1-5.14.82a14.43,14.43,0,0,1-4.83-1.17c-2.26-1-4.26-3-4.59-5.51a7.35,7.35,0,0,0-.13,1.42.12.12,0,0,1-.22.06,7.37,7.37,0,0,1-1.29-3.08,5.67,5.67,0,0,1,0-1.54,4.44,4.44,0,0,0,.06-1.31c0,.25-.1.54-.16.93a10.06,10.06,0,0,0,0,1.82h0a3,3,0,0,1,0,.43h0a12.73,12.73,0,0,0,.34,1.76A12.7,12.7,0,0,0,77,36.29a11.65,11.65,0,0,0,6.71,2.94,13.35,13.35,0,0,0,4-.22l.21-.06c2.34.84,5,0,7-1.29a1,1,0,0,0,.43-.25s0-.06,0,0a2,2,0,0,1-.9,0,5.93,5.93,0,0,0,2-1l4.44,3.09,0,0a8.4,8.4,0,0,0,1.69-.23,5.83,5.83,0,0,0,1.81-.73,5.57,5.57,0,0,0,1.65-1.4.05.05,0,0,0-.07-.08l-.36.24c-.29.07-.57.15-.86.21a5,5,0,0,0,1.55-1.2,6.88,6.88,0,0,0,1.32-2.83A14.18,14.18,0,0,0,107.4,26.47Z"/><path class="cls-7" d="M119.52,95.16a5.54,5.54,0,0,0-1.67-2.42,1,1,0,0,0-.84-.19.13.13,0,0,0,0,0c-.8-.87-.84-2.29-.94-3.4-.15-1.43-.49-2.85-.77-4.27s-.68-3-1.06-4.5a23.84,23.84,0,0,0-1.41-4.46c-.57-1.19-1.4-2.22-2-3.37a17,17,0,0,1-1.43-4.11c-.35-1.46-.66-2.94-1-4.42-.17-.87-.32-1.76-.49-2.64a17,17,0,0,1-.77,3.89,3.6,3.6,0,0,1-2,2.35,5.6,5.6,0,0,1-3.83-.07C98.5,66.56,96,64.68,93.68,63a44.22,44.22,0,0,0-7.91-5,25.71,25.71,0,0,0-9.56-2,21.6,21.6,0,0,0-9.56,1.68A10.29,10.29,0,0,0,63,60.16a10.09,10.09,0,0,0-1.9,3.55c-.82,2.51-1.09,5.19-2.12,7.63-.89,2.11-2.55,4.21-5,4.5-2.62.32-4.67-1.73-5.55-4-1-2.68-1-5.79-.76-8.61A26.46,26.46,0,0,1,48.57,58c.23-.85.5-1.68.81-2.52a5.55,5.55,0,0,0,.5-2.33,27.29,27.29,0,0,0-4.12,3.31,7.31,7.31,0,0,1-4,1.76c4.87-3.92,5.6-6.64,7.23-9.33,2.67-4.43,2.84-10.14,3.35-15.16.13-1.35.21-3.06,1-4.19a1.12,1.12,0,0,1,.52-.42A13.62,13.62,0,0,1,51.62,26a14.44,14.44,0,0,0-.49-1.67,6.75,6.75,0,0,0-.52-1.51A9,9,0,0,0,48,19.9a19.62,19.62,0,0,0-8.69-4.16C33,14.67,26.3,16.63,21,20.08a20.49,20.49,0,0,0-8.59,10.84C11,35.57,11.49,41.24,14.72,45a19.14,19.14,0,0,0,1.62,3.79,13.9,13.9,0,0,0,2.26,3,9.53,9.53,0,0,0,1.66,1.35c1.17.81,1.69,2.41,2.16,3.67a26.14,26.14,0,0,0,1.9,4.13,16.48,16.48,0,0,0,3.13,4,6.06,6.06,0,0,0,.56.47l0,.05a5.35,5.35,0,0,1,1.44,2.49c.33,1,.58,1.94.87,2.9.42,1.38.84,2.76,1.2,4.16a28,28,0,0,1,.75,4.74,40.34,40.34,0,0,1,0,8.65,16.16,16.16,0,0,1-1,3.62,5.22,5.22,0,0,1-1.78,2.38,2.47,2.47,0,0,0-.38-.05,1.84,1.84,0,0,0-.84.18,2.25,2.25,0,0,0-2.48-.3,1.75,1.75,0,0,0-.52.53,1.43,1.43,0,0,0-1.4,0,2.13,2.13,0,0,0-.79,1.76c-.14,1.45.7,2.9,2.33,2.63a3.22,3.22,0,0,0,1.94.22,6.23,6.23,0,0,0,2.8.58,12.9,12.9,0,0,0,2.91-.11s0,0,0,0a3.33,3.33,0,0,0,2.15-1c.58-.8.43-2.22.4-3.15a13,13,0,0,1,0-2.07,4.81,4.81,0,0,1,.87-2.07c.73-1.12,1.51-2.2,2.27-3.29a41.75,41.75,0,0,0,4-6.72,20.47,20.47,0,0,0,1.25-3.91,16.43,16.43,0,0,0,.35-2,5.82,5.82,0,0,1,.39-1.85,6.84,6.84,0,0,1,1.4.64l.06,0A42.41,42.41,0,0,1,47,80.06c.28,4.51.13,9.52-2.39,13.42l.06,0c-.14.13-.26.27-.38.4a2.69,2.69,0,0,0-1.37-.74c.26.2.25.67.22,1A5.82,5.82,0,0,1,42,96.76c-.49.65-1.06.56-1.41-.14-.52-1,.2-2.26,1-3.05l0,0a.1.1,0,0,1-.12,0,4.39,4.39,0,0,0-1.16,2.52,3.68,3.68,0,0,0,.42,2.72c.75,1.09,2.23.73,3.31.5a.21.21,0,0,0,.11-.07,2.62,2.62,0,0,0,.46.19,3.41,3.41,0,0,0,2.55-.13l.12-.07a.17.17,0,0,0,.08.06,3.34,3.34,0,0,0,3.44-.26,4.3,4.3,0,0,0,1.29-2.9,2.16,2.16,0,0,0-.54-1.72.13.13,0,0,1,0,.08c1.41,1-.39,4.46-1.74,3.43a2.55,2.55,0,0,1-.51-2.63c.29-1,1.21-1.15,2.14-1l-.09-.06.16,0c1.15-3.06,3.06-5.7,4.79-8.45a39.64,39.64,0,0,0,4.37-9.09,27,27,0,0,0,1.14-5.44,12.6,12.6,0,0,0,4.53-3.61c1.55-1.09,3.07-2.26,4.71-3.21a11.46,11.46,0,0,1,6.28-1.6,36.59,36.59,0,0,1,7.63,1.38,29,29,0,0,1,3.42,1,11.44,11.44,0,0,1,1.86.91q2.43,2.12,5,4.11c1.34,1.47,2.88,2.78,4.32,4.12a43.81,43.81,0,0,1,5.15,5.74c1.51,2,2.86,4.16,4.2,6.3.68,1.08,1.37,2.15,2,3.24a6.73,6.73,0,0,1,.8,1.82,3.82,3.82,0,0,1,.07,1.26,1.49,1.49,0,0,0-1.6.51,5.74,5.74,0,0,0-1.56,3.27,2.53,2.53,0,0,0,1.31,2.1c.57.38,1.45.56,1.91,0a2.27,2.27,0,0,0,.34.49,3.1,3.1,0,0,0,2.2.57c1,0,2.42-.18,2.87-1.06a2.15,2.15,0,0,0,2.27-.67C120.06,97.3,119.8,95.9,119.52,95.16ZM46.43,97.41c-1.25.24-2.73-.25-2.67-1.76a3.48,3.48,0,0,1,2.3-3.06.11.11,0,0,1,.11,0,1.06,1.06,0,0,1,.87,0,2,2,0,0,1,1.05,1.49C48.32,95.42,47.93,97.13,46.43,97.41Zm64.68-3c-.25.59-.47,2.21-1.38,2.09-1.06-.14-.28-1.8.52-2.67a.13.13,0,0,1,0-.16c.24-.17.6-.6.93-.43S111.21,94.15,111.11,94.37Zm4.25,2.3a3,3,0,0,1-2.28,0,1.56,1.56,0,0,1-.94-1.48c0-1.12.44-2.84,1.72-3,.77-.33,1.46.39,1.81,1.23S116.57,96,115.36,96.67Zm3.56-.81c-.52.55-1.29-.75-1.46-1.06s-.88-1.55-.26-1.84a.09.09,0,0,1,.11,0c.33,0,.94.74,1,.88C118.7,94.29,119.42,95.34,118.92,95.86Z"/><path class="cls-5" d="M117.85,92.74a1,1,0,0,0-.84-.19.13.13,0,0,0,0,0c-.8-.87-.84-2.29-.94-3.4a30.82,30.82,0,0,0-.57-3.28c0,.4,0,.8,0,1.2,0,.85,0,2.75-1,3.13-.84.31-1.65-.67-2.09-1.24-2.26-2.91-4.4-5.91-6.81-8.7s-4.94-5.67-7.34-8.58a51.06,51.06,0,0,0-7.5-7.12A15.85,15.85,0,0,0,81.87,61a26.88,26.88,0,0,0-9.35,1c-3.11.88-8.11,3.8-10.79,1.14A32.69,32.69,0,0,1,59.36,78.6a11.94,11.94,0,0,1-1,2.39c-.68,1.27-1.35,2.54-2.07,3.78s-1.57,2.51-2.39,3.75c-.7,1-1.38,2.13-2.16,3.14-.49.64-1.43,2.08-2.3,2.16a.81.81,0,0,1-.86-.35,1.91,1.91,0,0,0-1.79-1.26c-.52-.11-1.21.63-.76-.27a29.13,29.13,0,0,0,1.54-4.09c.13-.67.28-1.34.39-2A14.81,14.81,0,0,0,48.08,83a52.82,52.82,0,0,0-1.73-11.39c-.4-1.53-1-3-1.34-4.54A7,7,0,0,1,44.86,63a40.65,40.65,0,0,1,2.23-4.17,28.07,28.07,0,0,0,1.3-3.06A53.81,53.81,0,0,1,44.94,62a.11.11,0,0,1-.12,0,7.06,7.06,0,0,0-.8,4c.14.91.54,2.12.18,3s-1.1.7-1.8.41c-.92-.39-1.71-1-2.61-1.39-1.08-.51-2.18-1-3.27-1.48-4.18-1.92-9.22-4.43-10.42-9.31,0-.09.09-.2.17-.13a9.77,9.77,0,0,0,1.92,1,16.86,16.86,0,0,0,2.18.83c1.5.46,3.39.57,4.9,1,2.19.69,2.49,1.7,3.14.39,1-2,3.14-3,4-4.07a56.31,56.31,0,0,0,5-7,11.13,11.13,0,0,0,.94-8.16,21.21,21.21,0,0,1-1.62,5.86A14.47,14.47,0,0,1,43.22,52a15.28,15.28,0,0,1-5,3.54,6,6,0,0,1-4.7-.15c.36.31.73.62,1.1.91a.12.12,0,0,1-.08.2c-6-.26-14.63-2.9-15.64-9.84a.12.12,0,0,1,.14-.15,19.71,19.71,0,0,1,3.84,1.79,14.16,14.16,0,0,0,4.69,1A4.3,4.3,0,0,1,27,48a.13.13,0,0,1,.15-.15c2.47.75,5.08,1.75,7.7,1.67s4.38-2,6-3.78c.82-.85,1.68-1.69,2.44-2.61a19.71,19.71,0,0,0,2.41-3.65,44,44,0,0,0,3-8.25.12.12,0,0,1,.23,0c.09.22.2.43.31.64.66-3,.93-6,1.29-9.06a.14.14,0,0,0,0-.06A9,9,0,0,0,48,19.9a19.62,19.62,0,0,0-8.69-4.16C33,14.67,26.3,16.63,21,20.08a20.49,20.49,0,0,0-8.59,10.84C11,35.57,11.49,41.24,14.72,45a19.14,19.14,0,0,0,1.62,3.79,13.9,13.9,0,0,0,2.26,3,9.53,9.53,0,0,0,1.66,1.35h0c1.17.81,1.69,2.41,2.16,3.67a26.14,26.14,0,0,0,1.9,4.13,16.48,16.48,0,0,0,3.13,4,6.06,6.06,0,0,0,.56.47l0,.05a5.35,5.35,0,0,1,1.44,2.49c.33,1,.58,1.94.87,2.9.42,1.38.84,2.76,1.2,4.16a28,28,0,0,1,.75,4.74,40.34,40.34,0,0,1,0,8.65,16.16,16.16,0,0,1-1,3.62,5.22,5.22,0,0,1-1.78,2.38,2.47,2.47,0,0,0-.38-.05,1.84,1.84,0,0,0-.84.18,2.25,2.25,0,0,0-2.48-.3,1.75,1.75,0,0,0-.52.53,1.43,1.43,0,0,0-1.4,0,2.13,2.13,0,0,0-.79,1.76c-.14,1.45.7,2.9,2.33,2.63a3.22,3.22,0,0,0,1.94.22,6.23,6.23,0,0,0,2.8.58,12.9,12.9,0,0,0,2.91-.11s0,0,0,0a3.33,3.33,0,0,0,2.15-1c.58-.8.43-2.22.4-3.15a13,13,0,0,1,0-2.07,4.81,4.81,0,0,1,.87-2.07c.73-1.12,1.51-2.2,2.27-3.29a41.75,41.75,0,0,0,4-6.72,20.47,20.47,0,0,0,1.25-3.91,16.43,16.43,0,0,0,.35-2,5.82,5.82,0,0,1,.39-1.85,6.84,6.84,0,0,1,1.4.64l.06,0A42.41,42.41,0,0,1,47,80.06c.28,4.51.13,9.52-2.39,13.42l.06,0c-.14.13-.26.27-.38.4l-.11-.1a2.19,2.19,0,0,1-.36.39,4.79,4.79,0,0,0-.7,1.56,3.49,3.49,0,0,0,0,2.88c.33.59-.32.87-1,1A7.12,7.12,0,0,0,44,99.34a.21.21,0,0,0,.11-.07,2.62,2.62,0,0,0,.46.19,3.41,3.41,0,0,0,2.55-.13l.12-.07a.17.17,0,0,0,.08.06,3.46,3.46,0,0,0,3.24-.1,2.48,2.48,0,0,1-1.83.22c-.28-.08-.6-.24-.54-.58.12-.76.56-1.42.63-2.2s-.17-1.82.6-2.22a2.22,2.22,0,0,1,1.9-.15l.13,0c1.15-3.06,3.06-5.7,4.79-8.45a39.64,39.64,0,0,0,4.37-9.09,27,27,0,0,0,1.14-5.44,12.6,12.6,0,0,0,4.53-3.61c1.55-1.09,3.07-2.26,4.71-3.21a11.46,11.46,0,0,1,6.28-1.6,36.59,36.59,0,0,1,7.63,1.38,29,29,0,0,1,3.42,1,11.44,11.44,0,0,1,1.86.91q2.43,2.12,5,4.11c1.34,1.47,2.88,2.78,4.32,4.12a43.81,43.81,0,0,1,5.15,5.74c1.51,2,2.86,4.16,4.2,6.3.68,1.08,1.37,2.15,2,3.24a6.73,6.73,0,0,1,.8,1.82,3.82,3.82,0,0,1,.07,1.26.6.6,0,0,0-.19-.06.59.59,0,0,1,.34.35c.16.39-.27.93-.36,1.28a5.68,5.68,0,0,0-.16,1.42,6.87,6.87,0,0,1,.83-2.47c.46-.75,1.31-1.58,2.29-1.36s1.8,1.46,2.19,2.37a6,6,0,0,1,.54,2.18c0-.12,0-.23,0-.28a3.32,3.32,0,0,0-.17-1.4c-.18-.44-.42-.81-.63-1.23a.4.4,0,0,1,0-.43,1.31,1.31,0,0,1,1.44-.34l.1,0ZM48.63,96.25a3.15,3.15,0,0,1-.7,2,3.63,3.63,0,0,1-2.41.88,2.61,2.61,0,0,1-2.29-.82,3.31,3.31,0,0,1,0-2.74,3.85,3.85,0,0,1,1.44-2,2.29,2.29,0,0,1,.27-.27,2.19,2.19,0,0,1,2.19-.74,2.12,2.12,0,0,1,1.26,1.29A5.42,5.42,0,0,1,48.63,96.25Z"/><path class="cls-5" d="M44.06,77.68a16.43,16.43,0,0,0,.35-2A5.91,5.91,0,0,1,44.75,74a26.16,26.16,0,0,0-5.12-2.65c-2-.9-3.94-1.78-5.87-2.75a39.53,39.53,0,0,1-6.94-4.29c.21.21.41.41.63.61a6.06,6.06,0,0,0,.56.47l0,.05a5.35,5.35,0,0,1,1.44,2.49c.33,1,.58,1.94.87,2.9.42,1.38.84,2.76,1.2,4.16a28,28,0,0,1,.75,4.74,40.34,40.34,0,0,1,0,8.65,16.16,16.16,0,0,1-1,3.62,5.22,5.22,0,0,1-1.78,2.38l-.23,0a5,5,0,0,1,2.14,1,1.58,1.58,0,0,1,.36.26l0,0a.1.1,0,0,1,.05.08s0,0,0,0a.12.12,0,0,1-.07.18,5.54,5.54,0,0,1-1.15,0,2.23,2.23,0,0,0-1.76.59c-.37.36-1,1-1.54.77s-.55-.74-.37-1.2a3.11,3.11,0,0,1,1.27-1.5l-.05,0a6.92,6.92,0,0,0-1,.42,3.26,3.26,0,0,0-.95.82c-.23.25-.71.78-1.1.55s-.2-.94,0-1.49a3,3,0,0,0-.4.4c-.19.24-.31.52-.49.76s-.58.59-.92.3a.67.67,0,0,1-.2-.41,4.66,4.66,0,0,0-.11.72c-.14,1.45.7,2.9,2.33,2.63a3.22,3.22,0,0,0,1.94.22,6.23,6.23,0,0,0,2.8.58,12.9,12.9,0,0,0,2.91-.11s0,0,0,0a3.33,3.33,0,0,0,2.15-1c.58-.8.43-2.22.4-3.15a13,13,0,0,1,0-2.07,4.81,4.81,0,0,1,.87-2.07c.73-1.12,1.51-2.2,2.27-3.29a41.75,41.75,0,0,0,4-6.72A20.47,20.47,0,0,0,44.06,77.68Z"/><path class="cls-6" d="M43.46,76a14.09,14.09,0,0,1-.16,3.37q-.12.93-.33,1.86a21.72,21.72,0,0,0,1.09-3.52,16.43,16.43,0,0,0,.35-2,5.82,5.82,0,0,1,.39-1.85,6.41,6.41,0,0,1,1.38.63A8,8,0,0,0,46,73.41c-.72.62-4.72-1.7-8.25-3.29-1.87-.84-3.71-1.81-5.58-2.65-.87-.39-1.91-1-2.8-1.29a12.15,12.15,0,0,0,1.47.88,38.2,38.2,0,0,0,4,2.17c1.42.73,2.8,1.53,4.23,2.23a14.81,14.81,0,0,1,2.9,1.64A4,4,0,0,1,43.46,76Z"/><path class="cls-5" d="M102.82,38.54l-.06,0a3.43,3.43,0,0,1-1.44-.2c-.78-.29-1.34-.33-1.67-1.1-.47-1.09.68-3.43,1.06-4.76a12,12,0,0,0-.1-6.89c-.66-2.12-1.83-4.32-4-5.23a6.46,6.46,0,0,1,1.58,1.5,8.39,8.39,0,0,1,1.47,3.46,9.64,9.64,0,0,1,.22,2.89,3.19,3.19,0,0,0,.33-1.26,8.39,8.39,0,0,1-.65,4.57,6.32,6.32,0,0,1-1,1.93,2.61,2.61,0,0,0,.9-1.09s-.11.61-.17.77a3.82,3.82,0,0,1-.48,1,8.48,8.48,0,0,1-1.61,1.72l-.65.51h0l-.15.12,4.42,3.08,0,0a8.4,8.4,0,0,0,1.69-.23,5.83,5.83,0,0,0,1.81-.73,8.14,8.14,0,0,0,1.17-.86A6.38,6.38,0,0,1,102.82,38.54Z"/><path class="cls-5" d="M119.52,95.16a5.54,5.54,0,0,0-1.67-2.42,1.12,1.12,0,0,0-.4-.19,2.4,2.4,0,0,0-.73.3.92.92,0,0,1-.32.14,1.39,1.39,0,0,1-.94-.43l-.29-.2a7.91,7.91,0,0,1,1.38,2.11,5.82,5.82,0,0,1,.5,3.48,1.39,1.39,0,0,1-.7,1,5.22,5.22,0,0,1-1.88.34,3.49,3.49,0,0,1-2.1-.44,2.33,2.33,0,0,1-.75-1.43,9.8,9.8,0,0,1,.23-2.86c.26-1,1.16-2.66,2.38-2.61a1.38,1.38,0,0,0-.6,0,2.66,2.66,0,0,0-1.51,1,.11.11,0,0,1-.18,0l-.31-.24a1.56,1.56,0,0,0-1.5.55,5.74,5.74,0,0,0-1.56,3.27,2.53,2.53,0,0,0,1.31,2.1c.57.38,1.45.56,1.91,0a2.27,2.27,0,0,0,.34.49,3.1,3.1,0,0,0,2.2.57c1,0,2.42-.18,2.87-1.06a2.15,2.15,0,0,0,2.27-.67C120.06,97.3,119.8,95.9,119.52,95.16ZM110,98.32a2.16,2.16,0,0,1-1.06-1.73c.06-1.08,1.56-4.33,2.9-3.18l0,0c-.08.16-.15.32-.21.47a7.36,7.36,0,0,0,0,4.66A1.49,1.49,0,0,1,110,98.32Zm9.35-1.08a1.57,1.57,0,0,1-2,1h0a1.75,1.75,0,0,0,0-.56,5.29,5.29,0,0,0-.5-3.61l-.4-.71a.87.87,0,0,1,1.47-.09,6.23,6.23,0,0,1,1.17,1.82A3.9,3.9,0,0,1,119.35,97.24Z"/><path class="cls-5" d="M51.44,94.38a3.48,3.48,0,0,0-.38-.2h0a3.43,3.43,0,0,0-2.4.53,2.54,2.54,0,0,0-1.74-2.27,1.66,1.66,0,0,0-1,.09,3.42,3.42,0,0,0-.62.35,8.19,8.19,0,0,1-.73.59c-.12.13-.24.25-.35.38-.79-.72-1.75-1.1-2.68-.35a4.23,4.23,0,0,0-1.27,2.62,3.68,3.68,0,0,0,.42,2.72c.75,1.09,2.23.73,3.31.5a.21.21,0,0,0,.11-.07,2.62,2.62,0,0,0,.46.19,3.41,3.41,0,0,0,2.55-.13l.12-.07a.17.17,0,0,0,.08.06,3.34,3.34,0,0,0,3.44-.26,4.3,4.3,0,0,0,1.29-2.9A2.07,2.07,0,0,0,51.44,94.38ZM41,98.64a3.14,3.14,0,0,1-.38-2.33,4.68,4.68,0,0,1,.79-2.13,1.77,1.77,0,0,1,1.18-.79c.58-.08,1,.38,1.52.64-.06.06-.11.13-.16.19A4.3,4.3,0,0,0,43,96.34a3.18,3.18,0,0,0-.07,1.44c0,.07,0,.15.06.23s0,0,0,.08a0,0,0,0,0,0,0,2.13,2.13,0,0,0,.75.93C42.82,99.26,41.67,99.51,41,98.64ZM47,99a3.2,3.2,0,0,1-2.22.13C43,98.66,43.1,97,43.46,95.54a6.52,6.52,0,0,1,.48-.8,4.16,4.16,0,0,1,2.61-1.93c1.25-.15,1.63,1.47,1.78,2.38a4.52,4.52,0,0,1-.15,2.09A2.61,2.61,0,0,1,47,99Zm4.64-2.76a4,4,0,0,1-1,2.34c-.81,1-2,.73-3.09.43a2.51,2.51,0,0,0,.69-1.33,6.57,6.57,0,0,0,.39-1,4.14,4.14,0,0,0,0-1.82,9.28,9.28,0,0,1,1.8-.37C51.47,94.46,51.72,95.4,51.66,96.23Z"/><path class="cls-6" d="M36.55,91.6l.56-.85c-.78,1.16-1.73,1.88-1.85,3.42-.1,1.25.13,2.49,0,3.74a1.91,1.91,0,0,1-.43,1,9.65,9.65,0,0,1-4.06.64,7,7,0,0,1-3.1-.53c-1.21-.59-1-1.94-.48-3a2.48,2.48,0,0,1,2-1.41c.89-.05,1.72.62,2.58.83,0,0,.06-.06,0-.07-1.07-.51-2.21-1.5-3.47-.94a2.25,2.25,0,0,0-2.48-.3,1.75,1.75,0,0,0-.52.53,1.43,1.43,0,0,0-1.4,0,2.13,2.13,0,0,0-.79,1.76c-.14,1.45.7,2.9,2.33,2.63a3.22,3.22,0,0,0,1.94.22,6.23,6.23,0,0,0,2.8.58,12.9,12.9,0,0,0,2.91-.11s0,0,0,0a3.33,3.33,0,0,0,2.15-1c.58-.8.43-2.22.4-3.15a13,13,0,0,1,0-2.07A4.81,4.81,0,0,1,36.55,91.6ZM23.68,98.13a2.59,2.59,0,0,1-.26-1.53A2.11,2.11,0,0,1,24,95.13a1.32,1.32,0,0,1,1.19-.2,5.44,5.44,0,0,0-.55,1.46,2.84,2.84,0,0,0,.25,2.25,1.28,1.28,0,0,0,.17.22A1.76,1.76,0,0,1,23.68,98.13Zm1.49.3A2.36,2.36,0,0,1,25,96.59a4.32,4.32,0,0,1,.79-1.81c.64-.83,1.49-.35,2.31-.16a3.37,3.37,0,0,0-.94.86c-.76,1-1.17,2.54-.24,3.52a1.59,1.59,0,0,0,.13.13C26.32,99,25.63,99,25.17,98.43Z"/><path class="cls-2" d="M51,19.9c-1-2.43-3.18-3.65-5.51-4.67.13-.69.31-1.36.46-2a18.27,18.27,0,0,0,.3-2.44,38.27,38.27,0,0,0,0-4.79,23,23,0,0,0-.58-4.22c-.12-.52-.32-1.66-1-1.74a.1.1,0,0,0-.09,0,14.52,14.52,0,0,0-1.85.29C41.88.5,41,.65,40.21.88a21.61,21.61,0,0,0-4.86,2.17,22.11,22.11,0,0,0-4,2.77c-.36.34-.7.71-1,1.08a3.32,3.32,0,0,0-.31.37H30a13.1,13.1,0,0,0-2.87-.14,22.22,22.22,0,0,0-5.77.93,17,17,0,0,0-6.22,3.5c-.67-.14-1.33-.33-2-.46a14.76,14.76,0,0,0-2.2-.21,24.11,24.11,0,0,0-4.8.38c-1.54.24-3.08.4-4.61.69-.55.11-1.5.23-1.39,1h0a6.6,6.6,0,0,0,.24,2.82,32.29,32.29,0,0,0,1.15,3.86,20.76,20.76,0,0,0,1.58,3.42,26.08,26.08,0,0,0,2.5,3.33.2.2,0,0,0,.1.07,24.75,24.75,0,0,0-2.4,4.48.2.2,0,0,0,.15.28A5.87,5.87,0,0,0,3.87,34,11.59,11.59,0,0,0,6,37.11a22.32,22.32,0,0,0,6.55,5.06A41.33,41.33,0,0,0,21,45.36a23.9,23.9,0,0,0,4.59.83,10.69,10.69,0,0,0,4-.35c.24,0,.47,0,.7,0a8,8,0,0,0,1.37-.18c1-.18,1.94-.35,2.9-.57a14.18,14.18,0,0,0,2.9-1,5.94,5.94,0,0,0,1.9-1.59,0,0,0,0,0,0-.07c.52-.43,1-.87,1.52-1.35a24.48,24.48,0,0,0,2.76-3.34c.79-1.13,1.51-2.31,2.19-3.5.57-1,1.17-2.06,1.65-3.13a43.64,43.64,0,0,0,2.69-5.22C51,24,51.77,22,51,19.9Z"/><path class="cls-8" d="M24,30.87c.81,2,3,2.9,5.27,2.87,5.83-.06,6.76-9.89-.6-7.77C25.31,26.93,23.15,28.8,24,30.87Z"/><path class="cls-3" d="M50.73,21.13a3.7,3.7,0,0,0-3.06-2.56,12.09,12.09,0,0,0-5,.25,16,16,0,0,0-4.38,1.61c1-1.42-2.21-5.77-4.15-5.89-5.32-.32-3.18,8.06-1,10.06a.15.15,0,0,0,.22,0c.08-.1.15-.21.22-.31h0c-.49.74-.87,1,.25,1.39,1.65.35,1.18,7,3.65,9.11,1.19,1-6.83,2.85-8,3.17a35.14,35.14,0,0,1-3.81,1.13c.94-2.24-2.65-5.47-3.45-8.34-.35-1.27.59-1.85.44-3-.06-.44-.66-.48-1.12-.56,1.15-2.76-1.26-8.7-5.11-7.3-1.63.6-2.06,3.64-2.11,5.18,0,.47.44,2.67,1.07,2.76a17.51,17.51,0,0,0-4.63.05A13.92,13.92,0,0,0,6,29.22a3.61,3.61,0,0,0-2.15,3.6,7.09,7.09,0,0,0,.51,2,12.16,12.16,0,0,0,.86,1.26c.26.34.54.66.82,1a22.32,22.32,0,0,0,6.55,5.06A41.33,41.33,0,0,0,21,45.36a23.9,23.9,0,0,0,4.59.83,10.69,10.69,0,0,0,4-.35h.23a6.7,6.7,0,0,0,4.49.28,6.6,6.6,0,0,0,2.75-1.27,4.31,4.31,0,0,0,.85-1,6.77,6.77,0,0,0,1.45-1.33,0,0,0,0,0,0-.07c.52-.43,1-.87,1.52-1.35a24.48,24.48,0,0,0,2.76-3.34c.79-1.13,1.51-2.31,2.19-3.5.57-1,1.17-2.06,1.65-3.13a43.64,43.64,0,0,0,2.69-5.22c.13-.3.26-.6.38-.91s.27-.73.38-1.1A16.94,16.94,0,0,0,50.73,21.13Z"/><path class="cls-9" d="M15.43,29.38a7.79,7.79,0,0,1,3.65-1.64,7.45,7.45,0,0,1,2.39.15A3.14,3.14,0,0,0,20.22,27s.07-5.33-1.38-6-2.66,2-2.62,3.88.47,2.55.86,2.71A5.73,5.73,0,0,0,15.43,29.38Z"/><path class="cls-10" d="M15.66,29.33a6.48,6.48,0,0,1,3.42-1.59,7.45,7.45,0,0,1,2.39.15s-.68-.35-1.55-.7a9.17,9.17,0,0,0-.56-4.56c-.68-1.45-2.39.63-2.35,2.47s.34,2.28.74,2.44A5.4,5.4,0,0,0,15.66,29.33Z"/><path class="cls-9" d="M39.84,21.22a7.86,7.86,0,0,0-3.87,1,7.28,7.28,0,0,0-1.77,1.62,3.24,3.24,0,0,1,.44-1.46s-3.4-4.11-2.69-5.54,3.36-.08,4.48,1.38,1.23,2.28,1,2.65A5.79,5.79,0,0,1,39.84,21.22Z"/><path class="cls-10" d="M39.64,21.33a6.53,6.53,0,0,0-3.67.9,7.28,7.28,0,0,0-1.77,1.62,4.79,4.79,0,0,1,.54-1.37,5.77,5.77,0,0,1-2.19-4.05c-.21-1.59,2.25-1,3.38.45s1.16,2,1,2.36A5.37,5.37,0,0,1,39.64,21.33Z"/><path class="cls-11" d="M11.2,17.15,11,17h0A12.39,12.39,0,0,0,8.61,15.8a10.66,10.66,0,0,0-3-.78,4.62,4.62,0,0,0-2.39.28c-.65.34-.49,1-.38,1.62,0,.06.1,0,.09,0a4.71,4.71,0,0,1,0-.84c.07-.47.66-.57,1.1-.62a1.87,1.87,0,0,0,0,.71A11.2,11.2,0,0,0,4.36,18a13.12,13.12,0,0,0,1.42,3.2,7.87,7.87,0,0,0,.72,1.38,10.78,10.78,0,0,0,1,1.45.11.11,0,0,0,.08,0l.06.08c.18-.29.37-.58.52-.88A13.56,13.56,0,0,0,9.21,21.3c.31-.7.63-1.4,1-2.1a14.38,14.38,0,0,1,.73-1.4A2.39,2.39,0,0,1,11.2,17.15Z"/><path class="cls-11" d="M43.13,14.21l-.07,0a28.08,28.08,0,0,0,.87-4.53,18,18,0,0,0,0-4.75,2,2,0,0,0-.67-1.45,1.53,1.53,0,0,0-1.44,0,15.19,15.19,0,0,0-3.75,2.25,10.73,10.73,0,0,0-3.19,3.58l-.34-.09s-.06.06,0,.08a23.54,23.54,0,0,1,5,2.91c.47.4,1,.79,1.45,1.14a7.58,7.58,0,0,0,1.91,1,.2.2,0,0,0,.11,0l.14,0A.08.08,0,0,0,43.13,14.21Z"/><path class="cls-12" d="M39.08,21.17c-1.66-.25-3.87.49-4.6,2.1,0,.07.05.15.11.1a7.38,7.38,0,0,1,2.12-1.55,13.77,13.77,0,0,1,2.37-.62A0,0,0,0,0,39.08,21.17Z"/><path class="cls-12" d="M15.93,29c1.09-1.28,3.25-2.17,4.86-1.42a.07.07,0,0,1,0,.14,7.42,7.42,0,0,0-2.61.21A15,15,0,0,0,16,29.06S15.92,29.05,15.93,29Z"/><g class="cls-13"><path class="cls-12" d="M35,9.29c.41-.52.78-1.07,1.21-1.56A13.6,13.6,0,0,1,37.8,6.25a20.87,20.87,0,0,1,3.3-2.13,3,3,0,0,1,1.62-.55c.74.07.82,1.34.86,1.88s.08,1.32.18,2a13.26,13.26,0,0,1,0,2.52c0,.08.11.1.12,0a17.72,17.72,0,0,0,0-5.09,2,2,0,0,0-.67-1.45,1.53,1.53,0,0,0-1.44,0,15.19,15.19,0,0,0-3.75,2.25,10.73,10.73,0,0,0-3.19,3.58l-.34-.09s-.06.06,0,.08a26.5,26.5,0,0,1,5.57,3.35s.05,0,0,0A14.66,14.66,0,0,0,35,9.29Z"/><path class="cls-12" d="M5.55,26.39a.2.2,0,0,0,.1.07,27,27,0,0,0-2.26,4.12c.21-.37.45-.73.69-1.09.47-.76,1-1.51,1.47-2.24l.64-.87c.4-.64.88-1.25,1.23-1.92.21-.41.5-.8.71-1.22A13.56,13.56,0,0,0,9.21,21.3c.31-.7.63-1.4,1-2.1s.57-1.22,1-2.1c0,0,1-1.72,1-1.76a18.67,18.67,0,0,1-1.3,1.53A10.3,10.3,0,0,0,8.61,15.8a10.66,10.66,0,0,0-3-.78,4.62,4.62,0,0,0-2.39.28c-.65.34-.49,1-.38,1.62,0,.06.1,0,.09,0a4.71,4.71,0,0,1,0-.84c.07-.47.66-.57,1.1-.62a1.87,1.87,0,0,0,0,.71A11.2,11.2,0,0,0,4.36,18a17.39,17.39,0,0,0,1.88,4s.06,0,0,0a25.11,25.11,0,0,1-1.42-3.29,11.25,11.25,0,0,1-.4-1.81c-.06-.36-.25-1.13,0-1.46v0a7.28,7.28,0,0,1,2.13.16,24.07,24.07,0,0,1,4.22,1.71,11,11,0,0,0-.69,1.2c-.37.68-.68,1.39-1,2.1A26.19,26.19,0,0,1,8,23c-.73,1-1.46,2.06-2.13,3.12A32.64,32.64,0,0,1,3.57,23.2a17.07,17.07,0,0,1-1.45-2.86,17.71,17.71,0,0,1-.86-2.05c-.35-1-.57-2-.84-3.07a7.63,7.63,0,0,1-.34-1.56c0-.17,0-.34,0-.51a7.14,7.14,0,0,0,.27,2.63,32.29,32.29,0,0,0,1.15,3.86,20.76,20.76,0,0,0,1.58,3.42A26.08,26.08,0,0,0,5.55,26.39Z"/><path class="cls-12" d="M45.75,11.44c-.13,1.23-.45,2.4-.67,3.63-.69-.3-1.37-.59-2-.89.83.5,1.66,1,2.53,1.41l2.21.83a19.14,19.14,0,0,0-2.35-1.19c.13-.69.31-1.36.46-2a18.27,18.27,0,0,0,.3-2.44,38.27,38.27,0,0,0,0-4.79A24.15,24.15,0,0,0,45.7,1.9c.14,1,.26,2,.32,3a35,35,0,0,1,0,4.22A14.1,14.1,0,0,1,45.75,11.44Z"/><path class="cls-12" d="M48.78,28.48c-.53.94-1.08,1.87-1.68,2.77s-.9,1.66-1.36,2.48C45,35,44.23,36.29,43.38,37.51a26.85,26.85,0,0,1-2.76,3.35c-.73.75-1.51,1.43-2.24,2.18a7.44,7.44,0,0,0,.31-.72.28.28,0,0,0,0-.09,6.28,6.28,0,0,0,1.15-1.45l0,0A17.8,17.8,0,0,0,42,35.57a5.29,5.29,0,0,0-.17-3.19c-.93-2.53-3.62-4.49-5.94-5.82a10.52,10.52,0,0,0-2.27-1,13.58,13.58,0,0,1,2,1.23l.12.07a18.3,18.3,0,0,1,3.49,2.64c2,1.8,3,3.63,2.31,6.29a20.09,20.09,0,0,1-.89,2.54A9.34,9.34,0,0,1,37.9,42.3a3.92,3.92,0,0,1-2.64.51,5.82,5.82,0,0,0-1.18,0l-.11,0a.75.75,0,0,1-.41-.26,3.93,3.93,0,0,0-.23-.83c-.17-.53-.36-1.06-.5-1.62,0,0-.06,0-.06,0a8,8,0,0,0,.36,2.12c.24.87-.49,1.14-1,1.63a3.18,3.18,0,0,1-1.9,1c-.75.06-1.48-.22-2.22-.22h0a8.46,8.46,0,0,1-1.57-.41,11.31,11.31,0,0,1-3.1-1.75,6.69,6.69,0,0,1-2-2.53,6.88,6.88,0,0,1-.33-3.68,16.29,16.29,0,0,1,.75-3.23c.22-.78.47-1.56.76-2.32a15.53,15.53,0,0,0-1.93,5.9,7,7,0,0,0,.39,3.46,6.91,6.91,0,0,0,2,2.59,10.43,10.43,0,0,0,6,2.52,4.49,4.49,0,0,0,.52.37c-.46,0-.91.15-1.37.19a15.87,15.87,0,0,1-2.39,0,22.62,22.62,0,0,1-4.16-.71,40.78,40.78,0,0,1-8.22-3A22.69,22.69,0,0,1,8.41,39,13.2,13.2,0,0,1,6.47,37.4a22,22,0,0,1-1.85-2A16.7,16.7,0,0,0,6,37.11a22.32,22.32,0,0,0,6.55,5.06A41.33,41.33,0,0,0,21,45.36a23.9,23.9,0,0,0,4.59.83,10.69,10.69,0,0,0,4-.35h.23a6.7,6.7,0,0,0,4.49.28,6.6,6.6,0,0,0,2.75-1.27,4.47,4.47,0,0,0,.85-1,7.09,7.09,0,0,0,1.45-1.34,0,0,0,0,0,0-.07c.52-.43,1-.87,1.52-1.35a24.48,24.48,0,0,0,2.76-3.34c.79-1.13,1.51-2.31,2.19-3.5.57-1,1.17-2.06,1.65-3.13a43.64,43.64,0,0,0,2.69-5.22h0C49.74,26.77,49.26,27.63,48.78,28.48ZM37.93,43.4a2.84,2.84,0,0,1-1,1.15,7.29,7.29,0,0,1-2.5,1.15,6.87,6.87,0,0,1-4.93-.43,5.13,5.13,0,0,0,1,0,3.38,3.38,0,0,0,1.95-1.16c.26-.25.61-.46.86-.73.34-.06.67-.16,1-.2a12.56,12.56,0,0,1,1.62.08,4.08,4.08,0,0,0,2.3-.63l.06,0C38.12,42.87,38,43.14,37.93,43.4Z"/></g><path class="cls-5" d="M51,19.9a6.81,6.81,0,0,0-2.58-3.11C53,20.6,49.7,24.73,47.86,27.6a5.86,5.86,0,0,1-3,2.34,11.09,11.09,0,0,1-4.92.4c0,1.25.49,2.5-1,3.11s-3.68-.2-5.23-.05a12.24,12.24,0,0,0-4.59,1.2,11.19,11.19,0,0,0-3.44,2.85c-1.87,2.53-4,1.61-5-1.12a6,6,0,0,1-3.37,2.47,10.05,10.05,0,0,1-4.09.31A13.34,13.34,0,0,1,7.92,37.3a9.32,9.32,0,0,1-4-4.53c-1.06-3.11,1.2-4.89,2.44-6.71A27.25,27.25,0,0,0,9,21.58a17.17,17.17,0,0,1,1.11-2.38c.09-.12.17-.25.26-.38a29.94,29.94,0,0,1,3.95-6.66,9.14,9.14,0,0,0-1.22.93c-.58.51-1.64,1.36-4.54.9a16.59,16.59,0,0,0-5.85-.06c-2.22.46,1.37,8.58.47,7.53C1.08,19-.08,13,.14,12.55A.6.6,0,0,0,.08,13h0a6.6,6.6,0,0,0,.24,2.82,32.29,32.29,0,0,0,1.15,3.86,20.76,20.76,0,0,0,1.58,3.42,26.08,26.08,0,0,0,2.5,3.33.2.2,0,0,0,.1.07,24.75,24.75,0,0,0-2.4,4.48.2.2,0,0,0,.15.28A5.87,5.87,0,0,0,3.87,34a7,7,0,0,0,.45.91h0c.11.19.23.38.35.56l.06.09.18.25.06.08.2.27c.13.16.25.32.38.47l0,0c.13.15.26.31.4.46a22.32,22.32,0,0,0,6.55,5.06A41.33,41.33,0,0,0,21,45.36a23.9,23.9,0,0,0,4.59.83,10.69,10.69,0,0,0,4-.35h.23a6.7,6.7,0,0,0,4.49.28,6.6,6.6,0,0,0,2.75-1.27,4.31,4.31,0,0,0,.85-1A5.48,5.48,0,0,0,39,42.9l.05,0,.3-.34a0,0,0,0,0,0-.07c.52-.43,1-.87,1.52-1.35a24.48,24.48,0,0,0,2.76-3.34c.79-1.13,1.51-2.31,2.19-3.5.57-1,1.17-2.06,1.65-3.13a43.64,43.64,0,0,0,2.69-5.22C51,24,51.77,22,51,19.9Z"/><path class="cls-6" d="M10.13,19.2c.09-.12.17-.25.26-.38.41-.91.85-1.82,1.33-2.69l-.6.36a.94.94,0,0,1-.88,0c-.7-.22-1.34-.58-2.05-.77a16,16,0,0,0-2.74-.54,4.46,4.46,0,0,0-1.89.05c-.64.25-.69.88-.69,1.49,0,.24,0,.47,0,.7a1.55,1.55,0,0,1,.78-1.29.12.12,0,0,1,.14.08A18.94,18.94,0,0,0,7.37,24.5,20,20,0,0,0,9,21.58,17.17,17.17,0,0,1,10.13,19.2Z"/><path class="cls-5" d="M48.29,28.79a26.32,26.32,0,0,1-4,5.42c-.71.7-1.56,1.38-1.77-.29A5.18,5.18,0,0,0,40,30.35h-.08v.11a5.75,5.75,0,0,1,1.43,3.7,13.54,13.54,0,0,1-1.5,4.66,5.11,5.11,0,0,1-2.69,2.93c-1,.4-2.37.68-3.08-.34,0-.08,0-.17.1-.18a2.71,2.71,0,0,0,1.13-.38,5.21,5.21,0,0,0,2.42-3.46,2,2,0,0,0-1.37-2.45c-1.83-.37-3.84.59-5.5,1.26a18,18,0,0,0-2.31,1.08,6.65,6.65,0,0,0-2.43,2c-.65,1.09.09,2,1.14,2.49,1.49.66,3.23.23,4.78,0a.11.11,0,0,1,.14.08c1,2.92-3.8,2.15-5.26,1.81A10.23,10.23,0,0,1,23,41.82a5.23,5.23,0,0,1-2-2.38,6.34,6.34,0,0,1-.12-2.53.43.43,0,0,1,0-.07A5.52,5.52,0,0,0,21,41.29a6.75,6.75,0,0,0,1.22,1.63c.26.25-.59.26-2,.06A41.79,41.79,0,0,1,8.43,39.46a24.63,24.63,0,0,0,4.12,2.71A41.33,41.33,0,0,0,21,45.36a23.9,23.9,0,0,0,4.59.83,10.69,10.69,0,0,0,4-.35h.23a6.7,6.7,0,0,0,4.49.28,6.6,6.6,0,0,0,2.75-1.27,4.31,4.31,0,0,0,.85-1A5.48,5.48,0,0,0,39,42.9l.05,0,.3-.34a0,0,0,0,0,0-.07c.52-.43,1-.87,1.52-1.35a24.48,24.48,0,0,0,2.76-3.34c.79-1.13,1.51-2.31,2.19-3.5.57-1,1.17-2.06,1.65-3.13a43.64,43.64,0,0,0,2.69-5.22c.16-.38.32-.76.47-1.15C49.9,26.18,49.13,27.42,48.29,28.79ZM31.87,45.69c-.06,0-.11-.08-.08-.14.32-.79,1.11-1.18,1.78-1.64a.09.09,0,0,1,.15,0,10.3,10.3,0,0,1,2.42-.13c.06,0,.16.07.11.12C34.65,45.5,33.31,45.42,31.87,45.69Z"/><path class="cls-5" d="M40.08,12.5l.18.15a15,15,0,0,0,1.56.9c.78.39,1.52.86,2.33,1.17a12.53,12.53,0,0,0,1.31.43c.12-.66.29-1.31.44-2a18.27,18.27,0,0,0,.3-2.44,38.27,38.27,0,0,0,0-4.79,23,23,0,0,0-.58-4.22c-.12-.52-.32-1.66-1-1.74a.1.1,0,0,0-.09,0h-.11c.69,0,.8.8.93,1.5a21.75,21.75,0,0,1,.43,5.52c-.45,3.46-.86,1-.86.12,0-2.55,0-5.51-2.18-4.93A14.06,14.06,0,0,0,37,5.46c-1.5,1.35-2.62,2.72-4.84,2.28a23.13,23.13,0,0,0-3-.54,32,32,0,0,1,6.5,2.55A19.5,19.5,0,0,1,40.08,12.5Z"/><path class="cls-5" d="M44.08,10a24.42,24.42,0,0,0,.05-3.2,8.75,8.75,0,0,0-.23-1.76,3.08,3.08,0,0,0-.69-1.51c-.7-.6-1.67-.11-2.35.28s-1.52.9-2.24,1.41a12,12,0,0,0-2.5,2.27c-.46.58-.84,1.22-1.25,1.84l.86.41a22.41,22.41,0,0,1,3.15,1.82,17.14,17.14,0,0,0,2.22,1.78,11,11,0,0,0,2.32,1A28.07,28.07,0,0,0,44.08,10Z"/><path class="cls-3" d="M20.07,16c-.92-1.72-2.77-.41-3.34,1a1.29,1.29,0,0,0-.28.71c0,.13.08.22.18.18,1-.34,2.06.48,3.08.2C20.58,17.86,20.42,16.6,20.07,16Z"/><path class="cls-3" d="M32.22,12.9h-.11a0,0,0,0,0,0,0c-.78-.8-2.36-2-3.3-.27-.47.86-.15,1.73.59,1.88a1.74,1.74,0,0,0,1.22-.41c.54-.37,1-.75,1.6-1.08C32.24,13,32.24,12.91,32.22,12.9Z"/><path class="cls-14" d="M17.72,26.45c.2,1.06.64,1.53,1.57,1.21.42-.14.81-.68.46-2.85-.18-1.07-.33-2-1-1.74C17.91,23.46,17.52,25.39,17.72,26.45Z"/><path class="cls-15" d="M18.88,24.3c-.14.51-.43.88-.63.82s-.24-.52-.09-1,.44-.88.64-.82S19,23.79,18.88,24.3Z"/><path class="cls-14" d="M36.1,20.63c.3,1,.11,1.65-.86,1.79-.44.06-1-.24-1.7-2.34-.33-1-.63-2,.08-2C34.57,18.05,35.79,19.59,36.1,20.63Z"/><path class="cls-15" d="M33.5,19.29c.14.5.41.84.61.77s.08-.57,0-1.07-.35-.7-.55-.63S33.36,18.8,33.5,19.29Z"/><path class="cls-16" d="M37.64,35c-.84-1.76-3.53-1.47-5.07-1.2a10,10,0,0,0-6.28,3.76c-.66.86-1.08,1.95-.25,2.83a4.86,4.86,0,0,0,2.88,1A9.17,9.17,0,0,0,36.39,39C37.31,38,38.3,36.39,37.64,35Z"/><path class="cls-17" d="M37.82,35.09c-.84-1.76-3.54-1.47-5.08-1.2a10,10,0,0,0-6.27,3.76c-.66.86-1.09,2-.25,2.83a4.93,4.93,0,0,0,2.88,1,9.15,9.15,0,0,0,7.46-2.46C37.48,38.07,38.48,36.45,37.82,35.09Zm-1.53,0c-.28.49-2,.44-2.43.53a10.86,10.86,0,0,0-4,1.62c-.5.35-.9.79-1.4,1.16a1.67,1.67,0,0,1-1.17.42c-1.26-.22.83-2.22,1.14-2.45a12.19,12.19,0,0,1,5.41-2c.45-.06,2.37-.06,2.46.5A.34.34,0,0,1,36.29,35.14Z"/><path class="cls-17" d="M36.38,37a9.3,9.3,0,0,1-2.08.51,12.63,12.63,0,0,0-3,1,15.9,15.9,0,0,1-3.9,1.66,2.1,2.1,0,0,1-1.53-.32,1.53,1.53,0,0,0,.39.65,4.93,4.93,0,0,0,2.88,1,9.15,9.15,0,0,0,7.46-2.46c.87-.92,1.79-2.4,1.36-3.71A3,3,0,0,1,36.38,37Z"/><path class="cls-18" d="M37.64,35c-.84-1.76-3.53-1.47-5.07-1.2a10,10,0,0,0-6.28,3.76c-.66.86-1.08,1.95-.25,2.83a4.86,4.86,0,0,0,2.88,1A9.17,9.17,0,0,0,36.39,39C37.31,38,38.3,36.39,37.64,35Zm-6.55,6.09a8,8,0,0,1-1.77,0,7,7,0,0,1-2.66-.69c-1.24-.71-.52-2,.14-2.86a9.35,9.35,0,0,1,1.28-1.38,10.37,10.37,0,0,1,4-1.87c1.52-.3,4.42-.81,5.26,1,.59,1.25-.61,2.81-1.43,3.65A7.84,7.84,0,0,1,31.09,41.12Z"/><path class="cls-15" d="M34.27,35A8.61,8.61,0,0,0,29,36.89c-1.21.85-.69,1.11-.44,1,.5-.16,1.63-.72,3-1.29s2.51-.89,2.76-1C35.33,35.33,34.56,35,34.27,35Z"/><path class="cls-19" d="M14.27,12a12.71,12.71,0,0,0-3.21-.81,22.19,22.19,0,0,0-3.55.08,24.74,24.74,0,0,0-7,1.35s0,.07,0,.06a50.42,50.42,0,0,1,6.82-1c1.17-.1,2.33-.14,3.5-.13a19.67,19.67,0,0,1,3.42.46S14.3,12,14.27,12Z"/><path class="cls-19" d="M44.17.25a23.52,23.52,0,0,0-7.44,2.32,17.52,17.52,0,0,0-3.08,1.86c-1,.79-2,1.72-3,2.57,0,0,0,.09.05.06,1-.65,1.88-1.39,2.81-2.1A20.74,20.74,0,0,1,36.85,2.9,32.9,32.9,0,0,1,40.1,1.4,22.89,22.89,0,0,1,44.18.33,0,0,0,0,0,44.17.25Z"/><path class="cls-19" d="M29.27,7.66C27.06,7,23,7.8,21,8.57a12.14,12.14,0,0,0-5.49,3.79s0,0,0,0A26.3,26.3,0,0,1,21.2,9.21a22.7,22.7,0,0,1,3.6-.94c1.07-.21,1.9-.37,3-.49C28.27,7.72,29.4,7.7,29.27,7.66Z"/></g></g></g></svg>